<!-- Generated by IcoMoon.io -->
<svg version="1.1" xmlns="http://www.w3.org/2000/svg" width="34" height="40" viewBox="0 0 34 40">
<path fill="#666" d="M32.768 8.482c0.826 0.826 1.518 2.478 1.518 3.661v25.714c0 1.183-0.96 2.143-2.143 2.143h-30c-1.183 0-2.143-0.96-2.143-2.143v-35.714c0-1.183 0.96-2.143 2.143-2.143h20c1.183 0 2.835 0.692 3.661 1.518zM22.857 3.036v8.393h8.393c-0.134-0.379-0.335-0.759-0.491-0.915l-6.987-6.987c-0.156-0.156-0.536-0.357-0.915-0.491zM31.429 37.143v-22.857h-9.286c-1.183 0-2.143-0.96-2.143-2.143v-9.286h-17.143v34.286h28.571zM28.571 27.143v7.143h-22.857v-4.286l4.286-4.286 2.857 2.857 8.571-8.571zM10 22.857c-2.366 0-4.286-1.92-4.286-4.286s1.92-4.286 4.286-4.286 4.286 1.92 4.286 4.286-1.92 4.286-4.286 4.286z"></path>
</svg>
