<!-- Generated by IcoMoon.io -->
<svg version="1.1" xmlns="http://www.w3.org/2000/svg" width="34" height="40" viewBox="0 0 34 40">
<path fill="#fff" d="M17.143 2.857c9.464 0 17.143 7.679 17.143 17.143s-7.679 17.143-17.143 17.143-17.143-7.679-17.143-17.143 7.679-17.143 17.143-17.143zM25.714 21.228c0.446-0.246 0.714-0.714 0.714-1.228s-0.268-0.982-0.714-1.228l-12.143-7.143c-0.424-0.268-0.982-0.268-1.429-0.022-0.446 0.268-0.714 0.737-0.714 1.25v14.286c0 0.513 0.268 0.982 0.714 1.25 0.223 0.112 0.469 0.179 0.714 0.179s0.491-0.067 0.714-0.201z"></path>
</svg>
