<?xml version="1.0" standalone="no"?>
<!DOCTYPE svg PUBLIC "-//W3C//DTD SVG 1.1//EN" "http://www.w3.org/Graphics/SVG/1.1/DTD/svg11.dtd" >
<svg>
<metadata>
Created by FontForge 20090622 at Tue Jun 21 14:58:13 2016
 By deploy user
Copyright (c) 2002, 2005 Parachute&#194;&#168;, www.parachute.gr.  All rights reserved.
</metadata>
<defs>
<font id="PFDinTextPro-Medium" horiz-adv-x="1818" >
  <font-face 
    font-family="PF DinText Pro Medium"
    font-weight="500"
    font-stretch="normal"
    units-per-em="1000"
    panose-1="2 0 5 6 2 0 0 2 0 4"
    ascent="750"
    descent="-250"
    x-height="495"
    cap-height="696"
    bbox="-403 -285 1760 943"
    underline-thickness="50"
    underline-position="-50"
    unicode-range="U+0020-U+FB05"
  />
<missing-glyph horiz-adv-x="450" 
d="M0 700h450v-700h-450v700zM341 73l-116 210l-116 -210h232zM341 627h-233l117 -209zM73 147l111 204l-111 203v-407zM377 147v407l-111 -205z" />
    <glyph glyph-name="ff" unicode="ff" horiz-adv-x="571" 
d="M563 738v-98h-61q-26 0 -36 -14.5t-10 -37.5v-93h100v-91h-100v-404h-113v404h-150v-404h-112v404h-59v91h59v51q0 46 14.5 80t40.5 55.5t61.5 32t77.5 10.5q29 0 56.5 -4.5t52.5 -15.5q19 17 44.5 25.5t55.5 8.5h79zM193 495h150v91v11.5t1 11.5q-30 14 -69 14
q-24 0 -40 -6t-25.5 -16.5t-13 -24t-3.5 -27.5v-54z" />
    <glyph glyph-name="fi" unicode="fi" horiz-adv-x="526" 
d="M79 495v70q0 48 15.5 81t42.5 53.5t62.5 29.5t74.5 9q51 0 97 -15.5t81 -53.5l-68 -76q-19 21 -45.5 32.5t-64.5 11.5q-24 0 -40 -6.5t-25 -17t-13 -24t-4 -27.5v-67h263v-495h-113v404h-150v-404h-113v404h-58v91h58z" />
    <glyph glyph-name="fl" unicode="fl" horiz-adv-x="548" 
d="M485 0q-29 0 -54 6t-44 21t-29.5 40.5t-10.5 63.5v490q-26 9 -44 11t-29 2q-25 0 -41 -6.5t-25 -17t-12.5 -24t-3.5 -27.5v-64h103v-91h-103v-404h-113v404h-58v91h58v67q0 48 15 81t40.5 53t60.5 29t74 9q23 0 73 -6t117 -32l1 -548q0 -28 12.5 -38t35.5 -10h20v-100
h-43z" />
    <glyph glyph-name="ffi" unicode="ffi" horiz-adv-x="788" 
d="M192 0h-113v404h-58v91h58v50q0 48 15.5 81t42.5 53.5t62.5 29.5t74.5 9q32 0 62 -5.5t57 -19.5q27 23 64.5 34t80.5 11q51 0 96.5 -15.5t80.5 -53.5l-67 -76q-20 21 -46.5 32.5t-64.5 11.5q-24 0 -39.5 -6.5t-24.5 -17t-13 -24t-4 -27.5v-67h263v-495h-113v404h-150
v-404h-113v404h-151v-404zM343 495v70q0 19 3 36q-15 8 -32.5 12t-39.5 4q-24 0 -40 -6.5t-25 -17t-13 -24t-4 -27.5v-47h151z" />
    <glyph glyph-name="ffl" unicode="ffl" horiz-adv-x="807" 
d="M537 737q23 0 68.5 -6.5t112.5 -32.5l1 -550q0 -28 12.5 -38t35.5 -10h20v-100h-43q-29 0 -54 6t-44 21t-29.5 40.5t-10.5 63.5v492q-26 9 -42 11.5t-27 2.5q-24 0 -40 -6.5t-25 -17t-13 -24t-4 -27.5v-67h98v-91h-98v-404h-112v404h-151v-404h-113v404h-58v91h58v50
q0 48 15.5 81t42.5 53t62.5 29t74.5 9q32 0 62 -5.5t57 -19.5q27 24 64 34.5t80 10.5zM273 617q-42 0 -60.5 -19t-20.5 -48v-55h151v70v19t2 17q-30 16 -72 16z" />
    <glyph glyph-name="ft" unicode="ft" horiz-adv-x="561" 
d="M454 404v-248q0 -28 10 -42.5t36 -14.5h37v-99h-68q-56 0 -92 32.5t-36 92.5v279h-149v-404h-113v404h-58v91h58v96q0 35 11 60.5t30 42.5t45 25.5t55 8.5h73v-98h-55q-26 0 -36 -14.5t-10 -37.5v-83h150v131h111v-130h75v-92h-74z" />
    <glyph glyph-name="fj" unicode="fj" horiz-adv-x="526" 
d="M79 495v70q0 48 15.5 81t42.5 53.5t62.5 29.5t74.5 9q51 0 97 -15.5t81 -53.5l-68 -76q-19 21 -45.5 32.5t-64.5 11.5q-24 0 -40 -6.5t-25 -17t-13 -24t-4 -27.5v-67h263v-554q0 -64 -40 -103t-112 -39h-45v100h5h9h9.5h4.5q32 1 44 17t12 42v446h-150v-404h-113v404h-58
v91h58z" />
    <glyph glyph-name="ffj" unicode="ffj" horiz-adv-x="793" 
d="M191 0h-113v404h-58v91h58v50q0 48 15.5 81t42.5 53.5t62.5 29.5t74.5 9q32 0 62 -5.5t57 -19.5q27 23 64.5 34t80.5 11q51 0 96.5 -15.5t80.5 -53.5l-67 -76q-20 21 -46.5 32.5t-64.5 11.5q-24 0 -39.5 -6.5t-24.5 -17t-13 -24t-4 -27.5v-67h263v-554q0 -64 -40 -103
t-113 -39h-45v100h5h9h9.5h4.5q32 1 44.5 17t12.5 42v446h-150v-404h-113v404h-151v-404zM342 495v70q0 19 3 36q-15 8 -32.5 12t-39.5 4q-24 0 -40 -6.5t-25 -17t-13 -24t-4 -27.5v-47h151z" />
    <glyph glyph-name=".notdef" horiz-adv-x="450" 
d="M0 700h450v-700h-450v700zM341 73l-116 210l-116 -210h232zM341 627h-233l117 -209zM73 147l111 204l-111 203v-407zM377 147v407l-111 -205z" />
    <glyph glyph-name="quotedbl" unicode="&#x22;" horiz-adv-x="359" 
d="M203 481v215h94v-215h-94zM57 481v215h94v-215h-94z" />
    <glyph glyph-name="numbersign" unicode="#" horiz-adv-x="546" 
d="M399 287h95v-78h-106l-29 -209h-91l29 209h-98l-29 -209h-92l30 209h-89v78h101l17 123h-89v79h101l29 206h90l-29 -206h99l29 206h90l-29 -206h95v-79h-106zM210 287h99l18 123h-99z" />
    <glyph glyph-name="dollar" unicode="$" horiz-adv-x="525" 
d="M240 -4q-57 4 -111 25.5t-103 66.5l68 88q34 -29 69.5 -46.5t76.5 -22.5v187q-37 12 -71.5 28t-61 39.5t-42.5 55t-16 75.5q0 42 13.5 77.5t38.5 62t60 43t79 20.5v74h52v-74q49 -3 95.5 -19t88.5 -46q-2 -4 -10.5 -18.5l-18 -31l-18 -30.5t-11.5 -18q-33 22 -63.5 35
t-62.5 17v-179q48 -15 86 -32.5t65 -41.5t41.5 -56.5t14.5 -77.5t-15.5 -81.5t-43 -62t-65.5 -40t-83 -17.5v-107h-52v107zM369 191q0 38 -22.5 57t-54.5 31v-171q38 6 57.5 28t19.5 55zM170 497q0 -28 21.5 -45.5t48.5 -28.5v160q-30 -5 -50 -26.5t-20 -59.5z" />
    <glyph glyph-name="ampersand" unicode="&#x26;" horiz-adv-x="649" 
d="M444 66q-38 -34 -82 -53t-92 -19q-52 0 -90 15t-63 39.5t-37 57t-12 68.5q0 64 31 114.5t99 96.5q-13 16 -25.5 33t-22.5 35t-16 38t-6 43q0 37 11.5 68t34.5 53.5t58 35t83 12.5q42 0 89 -14t90 -51l-64 -83q-19 15 -34.5 24.5t-29.5 14.5t-28 6.5t-29 1.5
q-36 0 -54.5 -19.5t-18.5 -46.5q0 -20 6.5 -33.5t23.5 -36.5l180 -237q14 26 22.5 53t13.5 55l102 -22q-9 -45 -26.5 -90t-43.5 -83l56.5 -71.5l56.5 -70.5h-132zM382 145l-62.5 81l-62.5 81q-39 -26 -60.5 -58t-21.5 -70q0 -35 24.5 -59t73.5 -24q31 0 60 15.5t49 33.5z
" />
    <glyph glyph-name="quotesingle" unicode="'" horiz-adv-x="251" 
d="M76 481v215h94v-215h-94z" />
    <glyph glyph-name="parenleft" unicode="(" horiz-adv-x="332" 
d="M254 -131q-40 43 -75.5 93t-62.5 105.5t-43 115.5t-16 122q0 64 15.5 124t42 114.5t61.5 104t74 91.5l66 -42q-33 -44 -59 -92.5t-43.5 -98t-26.5 -99.5t-9 -97q0 -51 9.5 -103t27.5 -102t43.5 -98t57.5 -90z" />
    <glyph glyph-name="parenright" unicode=")" horiz-adv-x="332" 
d="M296 305q0 -62 -16 -122t-43 -115.5t-62.5 -105.5t-75.5 -93l-63 48q65 85 102 187.5t37 205.5q0 47 -9 97t-26.5 99.5t-43.5 98t-59 92.5l65 42q39 -42 74.5 -91.5t62 -104t42 -114.5t15.5 -124z" />
    <glyph glyph-name="asterisk" unicode="*" horiz-adv-x="413" 
d="M343 423q-3 -3 -13.5 -11l-22.5 -16.5l-22.5 -16l-14.5 -10.5l-61 103l-63 -104l-73 54l80 90q-7 2 -23 6l-33.5 8.5t-33.5 8t-23 5.5q1 4 4.5 16t8 25.5t8 25.5t4.5 17l111 -47q0 7 -2 24.5t-3.5 36t-3.5 35.5t-2 24h90l-12 -120l111 47l25 -84l-115 -28z" />
    <glyph glyph-name="plus" unicode="+" horiz-adv-x="525" 
d="M310 251v-189h-95v189h-191v90h191v187h95v-187h191v-90h-191z" />
    <glyph glyph-name="comma" unicode="," horiz-adv-x="276" 
d="M63 -132l36 131h-33v139h137v-133l-77 -137h-63z" />
    <glyph glyph-name="hyphen" unicode="-" horiz-adv-x="416" 
d="M49 211v103h318v-103h-318z" />
    <glyph glyph-name="period" unicode="." horiz-adv-x="270" 
d="M67 0v138h136v-138h-136z" />
    <glyph glyph-name="slash" unicode="/" horiz-adv-x="343" 
d="M84 -42h-93l252 767h93z" />
    <glyph glyph-name="zero" unicode="0" horiz-adv-x="525" 
d="M475 197q0 -48 -17.5 -86t-46 -63.5t-66.5 -39t-78 -13.5t-77.5 13.5t-66 39t-46 63.5t-17.5 86v301q0 49 17.5 86.5t46 63.5t66 39.5t77.5 13.5t78 -13.5t66.5 -39.5t46 -63.5t17.5 -86.5v-301zM360 495q0 48 -25.5 73.5t-67.5 25.5t-67 -25.5t-25 -73.5v-294
q0 -48 25 -73.5t67 -25.5t67.5 25.5t25.5 73.5v294z" />
    <glyph glyph-name="one" unicode="1" horiz-adv-x="525" 
d="M235 0v570l-97 -69v121l105 74h107v-696h-115z" />
    <glyph glyph-name="two" unicode="2" horiz-adv-x="525" 
d="M55 512q6 43 24.5 78t46.5 60t64 38t75 13q44 0 82 -12t66 -35.5t44 -58.5t16 -82q0 -35 -13 -71.5t-37 -65.5l-221 -266h267v-110h-418v103l274 330q29 37 29 74q0 33 -22 59t-67 26q-37 0 -63 -25t-33 -73z" />
    <glyph glyph-name="three" unicode="3" horiz-adv-x="525" 
d="M160 178q8 -39 35 -57.5t62 -18.5q45 0 73.5 30t28.5 79q0 48 -27.5 76t-77.5 28h-55v94h51q51 0 77.5 27t26.5 66q0 40 -27.5 65.5t-67.5 25.5q-29 0 -56 -19t-36 -62l-112 18q8 39 27.5 71t47.5 54t61.5 34t70.5 12q55 0 95 -16t66 -42.5t38.5 -61.5t12.5 -74
q0 -37 -21 -78t-68 -66q51 -26 73.5 -69t22.5 -83q0 -48 -16 -87.5t-45.5 -68t-70.5 -44.5t-91 -16q-34 0 -67.5 9t-62 28.5t-50 51.5t-30.5 78z" />
    <glyph glyph-name="four" unicode="4" horiz-adv-x="525" 
d="M442 101v-101h-115v101h-299v98l241 497h127l-238 -489h169v193h115v-193h57v-106h-57z" />
    <glyph glyph-name="five" unicode="5" horiz-adv-x="525" 
d="M479 265q0 -59 -12 -108.5t-37.5 -85.5t-67 -56t-99.5 -20q-35 0 -69 7.5t-62.5 26t-49.5 50.5t-30 82l114 20q8 -45 33.5 -63t61.5 -18q33 0 52.5 14t30.5 35.5t14.5 47t3.5 48.5q0 25 -4 48t-15 41t-30 29t-48 11q-25 0 -47.5 -15t-38.5 -45h-108v382h389v-107h-280
v-151q27 24 57 32t58 8q48 0 82 -15.5t56.5 -44t33.5 -67.5t12 -86z" />
    <glyph glyph-name="six" unicode="6" horiz-adv-x="525" 
d="M479 217q0 -59 -18.5 -101t-49.5 -69t-70 -39.5t-79 -12.5q-42 0 -79.5 13.5t-65.5 40.5t-44.5 67t-16.5 92q0 31 8 66.5t25 67.5l186 354h128l-150 -288l2 -2q21 6 44 6q41 0 74.5 -15t57 -41.5t36 -62t12.5 -76.5zM360 210q0 54 -28 80.5t-67 26.5q-36 0 -65 -27
t-29 -80t25.5 -81t68.5 -28q38 0 66.5 28t28.5 81z" />
    <glyph glyph-name="seven" unicode="7" horiz-adv-x="525" 
d="M225 0h-124l239 586h-171v-99h-115v209h416v-104z" />
    <glyph glyph-name="eight" unicode="8" horiz-adv-x="525" 
d="M489 204q0 -47 -17.5 -85.5t-48 -66t-71 -42.5t-85.5 -15t-85.5 15t-70.5 42.5t-48 66t-18 85.5q0 22 6 45.5t18 44.5t29.5 37.5t41.5 26.5v3q-43 19 -62 58t-19 81q0 43 16 79.5t43.5 63.5t65.5 42.5t83 15.5q51 0 90 -15.5t65.5 -42.5t40 -63.5t13.5 -79.5t-20.5 -80
t-60.5 -59v-2q24 -9 41.5 -26t29.5 -38t17.5 -45t5.5 -46zM362 499q0 45 -27.5 71.5t-67.5 26.5q-39 0 -66.5 -26t-27.5 -72q0 -45 28.5 -68t65.5 -23q18 0 35.5 6t30.5 17.5t21 28.5t8 39zM375 207q0 22 -8.5 40.5t-23.5 32t-34.5 21.5t-41.5 8q-21 0 -40.5 -8t-34.5 -21.5
t-24 -32t-9 -40.5t8.5 -41.5t23 -34t34 -23t42.5 -8.5t42.5 8.5t34 23t23 34t8.5 41.5z" />
    <glyph glyph-name="nine" unicode="9" horiz-adv-x="525" 
d="M57 479q0 58 18.5 100t49.5 69t69.5 40t79.5 13q42 0 79.5 -13.5t65.5 -40.5t44.5 -67t16.5 -92q0 -31 -8 -66.5t-25 -67.5l-186 -354h-128l150 288l-2 2q-21 -6 -44 -6q-41 0 -74.5 15t-57 41t-36 62t-12.5 77zM176 486q0 -54 28 -80.5t67 -26.5q36 0 65 27t29 80
t-25.5 81t-68.5 28q-38 0 -66.5 -28t-28.5 -81z" />
    <glyph glyph-name="colon" unicode=":" horiz-adv-x="271" 
d="M66 0v138h136v-138h-136zM66 276v139h136v-139h-136z" />
    <glyph glyph-name="semicolon" unicode=";" horiz-adv-x="271" 
d="M67 276v139h136v-139h-136zM64 -132l35 131h-32v139h136v-133l-77 -137h-62z" />
    <glyph glyph-name="less" unicode="&#x3c;" horiz-adv-x="525" 
d="M30 253v87l460 213v-102l-340 -155l340 -155v-101z" />
    <glyph glyph-name="equal" unicode="=" horiz-adv-x="525" 
d="M23 357v89h478v-89h-478zM23 146v90h478v-90h-478z" />
    <glyph glyph-name="greater" unicode="&#x3e;" horiz-adv-x="525" 
d="M31 40v101l340 155l-340 155v102l460 -213v-87z" />
    <glyph glyph-name="question" unicode="?" horiz-adv-x="510" 
d="M470 510q0 -29 -11.5 -55t-28 -50t-36.5 -47t-36.5 -45t-28 -44t-11.5 -44v-36h-117v39q0 30 10.5 55t26.5 47.5t34.5 42.5t34.5 41t26.5 43.5t10.5 48.5q0 14 -5 29t-16.5 27t-28.5 20t-41 8t-42 -9.5t-30.5 -24.5t-19.5 -34.5t-8 -38.5q-29 5 -56.5 8.5l-56.5 7.5
q8 50 29 87.5t51 63t66.5 38t76.5 12.5q48 0 86.5 -14.5t65 -40t41 -60.5t14.5 -75zM200 0v113h118v-113h-118z" />
    <glyph glyph-name="at" unicode="@" horiz-adv-x="874" 
d="M584 260q0 -20 12.5 -36.5t35.5 -16.5q47 0 72 43t25 133q0 61 -22.5 110t-61 82.5t-89 51.5t-105.5 18q-68 0 -125 -24.5t-98.5 -66.5t-65 -99t-23.5 -122q0 -69 23.5 -126.5t66 -98t101 -63t129.5 -22.5q33 0 62 3t55 9t51.5 15.5t51.5 21.5l26 -73q-59 -23 -116 -36.5
t-125 -13.5q-87 0 -162 26t-130 75.5t-86 121t-31 162.5q0 82 30 152t82.5 121.5t125 81t157.5 29.5q78 0 144.5 -24t115 -68t76 -105.5t27.5 -135.5q0 -59 -12.5 -106t-37 -80t-60 -51t-81.5 -18q-12 0 -28 4t-31.5 12t-28.5 20t-19 28h-5q-12 -23 -43 -40t-70 -17
q-29 0 -54 7t-44.5 21.5t-30.5 37t-11 53.5q0 24 8.5 45.5t26 38t42.5 26t58 9.5h105v28q0 23 -16.5 40t-62.5 17q-32 0 -51 -9.5t-37 -25.5l-51 57q61 59 149 59q33 0 61.5 -6.5t49.5 -21.5t33.5 -40.5t12.5 -63.5zM497 306h-90q-35 0 -49.5 -12t-14.5 -31q0 -16 15.5 -32
t54.5 -16q37 0 60.5 15.5t23.5 47.5v28z" />
    <glyph glyph-name="A" unicode="A" horiz-adv-x="629" 
d="M498 0l-55 154h-258l-56 -154h-127l263 696h98l263 -696h-128zM361 398l-46 143h-3l-45 -140l-47 -144h187z" />
    <glyph glyph-name="B" unicode="B" horiz-adv-x="618" 
d="M582 200q0 -45 -16.5 -82t-44.5 -63.5t-65 -40.5t-78 -14h-305v696h278q53 0 94 -14t68.5 -39t41.5 -60t14 -77q0 -20 -4.5 -40t-15.5 -38.5t-29.5 -35.5t-46.5 -29v-4q27 -8 47.5 -25t34 -39t20.5 -46.5t7 -48.5zM443 499q0 38 -26 63.5t-82 25.5h-141v-181h141
q56 0 82 27t26 65zM459 207q0 19 -6.5 36.5t-20 31t-34.5 22t-49 8.5h-155v-195h155q28 0 49 8t34.5 21.5t20 31t6.5 36.5z" />
    <glyph glyph-name="C" unicode="C" horiz-adv-x="572" 
d="M551 156q-26 -76 -89.5 -119t-154.5 -43q-65 0 -114 20.5t-81 56t-48 84t-16 104.5v178q0 52 16 100t48 84.5t81 58t114 21.5q92 0 154.5 -44.5t88.5 -117.5l-114 -45q-13 41 -45.5 66.5t-83.5 25.5q-35 0 -60.5 -12t-42.5 -32.5t-25.5 -46.5t-8.5 -53v-185
q0 -29 8.5 -55.5t25.5 -47.5t42.5 -33.5t60.5 -12.5q50 0 83 26.5t46 69.5z" />
    <glyph glyph-name="D" unicode="D" horiz-adv-x="638" 
d="M194 110h119q44 0 74 12.5t48 35t26 54.5t8 71v130q0 93 -41 133t-117 40h-117v-476zM326 696q78 0 141 -30t96 -99q19 -38 23 -90t4 -117q0 -73 -4 -127t-21 -95q-17 -39 -43.5 -65.5t-59.5 -42.5t-72 -23t-81 -7h-236v696h253z" />
    <glyph glyph-name="E" unicode="E" horiz-adv-x="564" 
d="M73 0v696h466v-110h-345v-182h294v-106h-294v-188h345v-110h-466z" />
    <glyph glyph-name="F" unicode="F" horiz-adv-x="545" 
d="M194 586v-188h294v-105h-294v-293h-121v696h466v-110h-345z" />
    <glyph glyph-name="G" unicode="G" horiz-adv-x="618" 
d="M308 104q30 0 55.5 11.5t44 31t29.5 45.5t11 54v30h-145v104h265v-137q0 -54 -20 -99.5t-54.5 -79t-82.5 -52t-103 -18.5q-66 0 -114.5 20.5t-80.5 56t-47.5 84t-15.5 104.5v178q0 52 15.5 100t47 84.5t79.5 58t113 21.5q92 0 155 -44.5t89 -117.5l-114 -45
q-13 41 -46.5 66.5t-84.5 25.5q-35 0 -60 -12t-41 -32.5t-24 -46.5t-8 -53v-188q0 -28 8.5 -55t25.5 -48t42.5 -34t60.5 -13z" />
    <glyph glyph-name="H" unicode="H" horiz-adv-x="655" 
d="M462 0v298h-268v-298h-121v696h121v-292h268v292h120v-696h-120z" />
    <glyph glyph-name="I" unicode="I" horiz-adv-x="268" 
d="M74 0v696h122v-696h-122z" />
    <glyph glyph-name="J" unicode="J" horiz-adv-x="489" 
d="M424 224q0 -65 -19 -109t-50.5 -70.5t-73 -38t-86.5 -11.5q-57 0 -105 22t-85 64l86 79q22 -23 49 -38.5t52 -15.5q21 0 40.5 4.5t35.5 18t25.5 37.5t9.5 62v468h121v-472v0z" />
    <glyph glyph-name="K" unicode="K" horiz-adv-x="638" 
d="M502 0l-195 324l-113 -131v-193h-121v696h122v-337l2 -1l117 143l164 195h144l-235 -278l258 -418h-143z" />
    <glyph glyph-name="L" unicode="L" horiz-adv-x="564" 
d="M73 0v696h121v-586h345v-110h-466z" />
    <glyph glyph-name="M" unicode="M" horiz-adv-x="765" 
d="M581 0v413h-3l-37 -89l-51 -112l-54 -114h-97l-40 85l-66 146l-36 85l-3 -3v-411h-121v696h113l91 -199l55.5 -125l53.5 -125h4l56 133l51 117l89 199h116v-696h-121z" />
    <glyph glyph-name="N" unicode="N" horiz-adv-x="692" 
d="M509 0l-215 324l-97 159l-3 -1v-482h-121v696h112l195 -296l118 -188l2 2v482h121v-696h-112z" />
    <glyph glyph-name="O" unicode="O" horiz-adv-x="610" 
d="M304 701q60 0 108 -20t82 -55t52 -83.5t18 -105.5v-178q0 -61 -18.5 -110t-52.5 -83.5t-82 -53t-107 -18.5q-65 0 -114 21.5t-81 58t-48 84.5t-16 101v178q0 52 16 100t48 84.5t81 58t114 21.5zM304 587q-35 0 -60.5 -12t-42.5 -32.5t-25.5 -46.5t-8.5 -53v-187
q0 -29 8.5 -55.5t25.5 -47.5t42.5 -33.5t60.5 -12.5q32 0 57.5 11.5t43 31.5t27 47t9.5 59v187q0 30 -9.5 56t-27 45.5t-43 31t-57.5 11.5z" />
    <glyph glyph-name="P" unicode="P" horiz-adv-x="591" 
d="M581 478q0 -42 -16.5 -80t-46.5 -67t-72 -46.5t-93 -17.5h-159v-267h-121v696h271q49 0 92 -14t75.5 -41t51 -68t18.5 -95zM457 481q0 54 -32 79.5t-84 25.5h-147v-209h151q53 0 82.5 31t29.5 73z" />
    <glyph glyph-name="Q" unicode="Q" horiz-adv-x="618" 
d="M307 701q60 0 108.5 -20t82.5 -55t52 -83.5t18 -105.5v-178q0 -75 -29 -133l86 -69l-66 -77l-85 66q-66 -52 -167 -52q-65 0 -113.5 21.5t-80.5 58t-48 84.5t-16 101v178q0 52 16 100t48 84.5t80.5 58t113.5 21.5zM307 586q-39 0 -65.5 -14t-42.5 -37.5t-22.5 -52.5
t-6.5 -59v-166q0 -29 8.5 -55.5t25.5 -47.5t42.5 -33.5t60.5 -12.5q36 0 65 19l-83 66l67 80l40.5 -32.5l40.5 -32.5q8 24 8 49v166q0 31 -7 60.5t-23.5 52.5t-43 36.5t-64.5 13.5z" />
    <glyph glyph-name="R" unicode="R" horiz-adv-x="625" 
d="M444 0l-121 287h-129v-287h-121v696h296q44 0 83 -14t68 -39.5t45.5 -63t16.5 -83.5q0 -67 -36.5 -117t-102.5 -74l137 -305h-136zM458 496q0 49 -30 71t-78 22h-156v-194h152q49 0 80.5 26t31.5 75z" />
    <glyph glyph-name="S" unicode="S" horiz-adv-x="569" 
d="M458 537q-44 29 -89 40.5t-83 11.5q-64 0 -91 -25.5t-27 -62.5q0 -22 9.5 -36.5t30.5 -25t53 -18t77 -15.5q38 -7 75 -18.5t66 -34t46.5 -58t17.5 -89.5q0 -51 -21 -90.5t-57 -66.5t-83.5 -41t-100.5 -14q-69 0 -141.5 20.5t-134.5 75.5l73 94q45 -42 98 -59.5t111 -17.5
t93.5 24t35.5 71q0 42 -31.5 63.5t-95.5 31.5q-45 6 -88.5 16.5t-77.5 32t-54.5 57.5t-20.5 94q0 52 20 90.5t53 64t75.5 38t87.5 12.5q67 0 125.5 -15t108.5 -50z" />
    <glyph glyph-name="T" unicode="T" horiz-adv-x="521" 
d="M319 588v-588h-121v588h-193v108h508v-108h-194z" />
    <glyph glyph-name="U" unicode="U" horiz-adv-x="638" 
d="M579 247q0 -57 -19.5 -103.5t-54 -79.5t-82.5 -51t-104 -18q-59 0 -107 19.5t-82 54t-52 81.5t-18 102v444h120v-435q0 -32 9.5 -60t27.5 -48.5t44 -32.5t59 -12q62 0 99.5 38t37.5 110v440h122v-449v0z" />
    <glyph glyph-name="V" unicode="V" horiz-adv-x="575" 
d="M336 0h-99l-236 696h129l100 -318l56 -184h5l53 183l98 319h129z" />
    <glyph glyph-name="W" unicode="W" horiz-adv-x="839" 
d="M419 473q-1 0 -1.5 -0.5t-1.5 -0.5l-33.5 -127l-33.5 -127q-2 -7 -6.5 -24t-11 -39l-13 -46l-13 -46t-11 -39l-6.5 -25h-101l-181 696h129l39.5 -170l38.5 -170l28 -127h4l32 126l35.5 129.5l25.5 91.5l18.5 66t15.5 54h92l49 -172l47 -172l33 -124h4q7 29 13 61.5
t12 61.5l37.5 169l41.5 176h128l-90 -348l-91 -348h-100l-34.5 125.5l-35.5 125.5l-29 111.5z" />
    <glyph glyph-name="X" unicode="X" horiz-adv-x="576" 
d="M439 0l-152 257l-151 -257h-136l225 356l-212 340h137l137 -240l138 240h136l-211 -340l225 -356h-136z" />
    <glyph glyph-name="Y" unicode="Y" horiz-adv-x="557" 
d="M553 696l-108 -205l-109 -205v-286h-115v286l-108.5 205l-108.5 205h129l84 -172l31 -66.5l30 -67.5h2l62 137l83 169h128v0z" />
    <glyph glyph-name="Z" unicode="Z" horiz-adv-x="527" 
d="M30 0v104l323 485h-310v107h454v-99l-323 -486h323v-111h-467z" />
    <glyph glyph-name="bracketleft" unicode="[" horiz-adv-x="288" 
d="M70 -100v799h199v-82h-93v-636h93v-81h-199z" />
    <glyph glyph-name="backslash" unicode="\" horiz-adv-x="343" 
d="M-8 725h93l252 -767h-93z" />
    <glyph glyph-name="bracketright" unicode="]" horiz-adv-x="288" 
d="M22 -100v81h93v636h-93v82h199v-799h-199z" />
    <glyph glyph-name="asciicircum" unicode="^" horiz-adv-x="525" 
d="M404 282l-140 298l-140 -299h-100l197 414h87l197 -413h-101z" />
    <glyph glyph-name="underscore" unicode="_" horiz-adv-x="500" 
d="M0 -145v76h500v-76h-500z" />
    <glyph glyph-name="grave" unicode="`" horiz-adv-x="504" 
d="M275 544l-123 179l108 36l82 -186z" />
    <glyph glyph-name="a" unicode="a" horiz-adv-x="499" 
d="M245 500q42 0 79 -7.5t65 -26.5t44.5 -50.5t16.5 -79.5v-336h-113v44l-2 1q-20 -26 -55.5 -38t-73.5 -12q-79 0 -125 38.5t-46 110.5q0 30 11 57t32 47.5t52.5 32.5t72.5 12h134v36q0 14 -4.5 27t-15.5 22.5t-30 15.5t-48 6q-41 0 -69 -10.5t-49 -30.5l-60 76
q36 36 84 50.5t100 14.5zM142 152q0 -11 4.5 -22t15 -19.5t27 -14t41.5 -5.5q19 0 37 3.5t32.5 11.5t24.5 21t12 33q1 6 1 15v32h-115q-43 0 -61.5 -16t-18.5 -39z" />
    <glyph glyph-name="b" unicode="b" horiz-adv-x="515" 
d="M473 257q0 -44 -6 -90.5t-25 -84.5t-54 -62.5t-93 -24.5q-32 0 -65.5 11.5t-56.5 41.5l-2 -1v-47h-113v727h113v-279l2 -1q25 27 58 40t64 13q56 0 90.5 -22.5t54 -57.5t26.5 -78t7 -85zM357 248q0 25 -2.5 50.5t-12 46.5t-28 34.5t-50.5 13.5q-31 0 -49.5 -14t-28 -35.5
t-12.5 -47t-3 -48.5t2.5 -49t12 -48.5t28 -37.5t50.5 -15t50.5 14.5t28 36.5t12 48.5t2.5 50.5z" />
    <glyph glyph-name="c" unicode="c" horiz-adv-x="447" 
d="M430 67q-36 -35 -80 -54t-95 -19q-45 0 -86 14.5t-72.5 45t-50 78.5t-18.5 115t19.5 115t51.5 79t74 45t86 14q99 0 169 -70l-73 -79q-44 46 -94 46q-57 0 -87 -36t-30 -114q0 -77 29.5 -113t86.5 -36q25 0 50 13t46 34l74 -78v0z" />
    <glyph glyph-name="d" unicode="d" horiz-adv-x="515" 
d="M350 0v46l-2 2q-26 -29 -59 -41t-65 -12q-59 0 -94 23t-53 59.5t-23.5 82.5t-5.5 91q0 42 8 86.5t29 81t57.5 59.5t93.5 23q32 0 62.5 -12t49.5 -36l2 1v272h113v-726h-113zM350 248q0 23 -2.5 48.5t-12 47t-27.5 35.5t-49 14q-33 0 -51.5 -14.5t-28.5 -36.5t-12.5 -49
t-2.5 -52q0 -23 2.5 -48t12.5 -45.5t28 -33.5t50 -13q31 0 49.5 14.5t28.5 36.5t12.5 47.5t2.5 48.5z" />
    <glyph glyph-name="e" unicode="e" horiz-adv-x="507" 
d="M154 215q0 -23 6 -44.5t19 -38t33 -26.5t47 -10q22 0 55.5 10.5t61.5 36.5q18 -20 33 -39.5t33 -39.5q-42 -38 -91 -54t-96 -16q-39 0 -78 11t-70 39.5t-50.5 77t-19.5 124.5q0 72 19.5 120.5t50.5 78.5t69.5 43t76.5 13q50 0 89.5 -17t67 -47.5t42 -74.5t14.5 -98v-49
h-312zM252 398q-39 0 -65 -27t-31 -76h190q-3 51 -29.5 77t-64.5 26z" />
    <glyph glyph-name="f" unicode="f" horiz-adv-x="302" 
d="M192 404v-404h-113v404h-58v91h58v96q0 35 11 60.5t30 42.5t45 25.5t55 8.5h73v-98h-55q-26 0 -36 -14.5t-10 -37.5v-83h101v-91h-101z" />
    <glyph glyph-name="g" unicode="g" horiz-adv-x="522" 
d="M456 495v-475q0 -63 -16.5 -105.5t-45.5 -68.5t-69.5 -37.5t-89.5 -11.5q-18 0 -40 3t-45 10t-45.5 18.5t-41.5 28.5l59 83q25 -18 55.5 -29t66.5 -11q47 0 74.5 26t27.5 76v46h-2q-24 -28 -56 -40.5t-63 -12.5q-57 0 -93 22t-55.5 56.5t-26.5 77.5t-7 85q0 44 6 90.5
t25.5 85t56 63.5t97.5 25q32 0 63 -12t52 -38h2v45h111zM158 247q0 -27 2.5 -53t12 -47t28.5 -33.5t51 -12.5q31 0 49.5 14t28 35.5t12.5 47t3 49.5q0 21 -2 47t-11 48t-27.5 37t-51.5 15t-51.5 -14t-28.5 -35.5t-12.5 -47.5t-2.5 -50z" />
    <glyph glyph-name="h" unicode="h" horiz-adv-x="529" 
d="M372 0v294q0 48 -21.5 74t-67.5 26q-41 0 -69 -26t-28 -74v-294h-113v726h113v-279h3q23 25 58 39t69 14q35 0 66 -11t54 -33t36 -55t13 -76v-325h-113z" />
    <glyph glyph-name="i" unicode="i" horiz-adv-x="247" 
d="M67 592v104h113v-104h-113zM67 0v495h113v-495h-113z" />
    <glyph glyph-name="j" unicode="j" horiz-adv-x="265" 
d="M76 592v104h114v-104h-114zM190 -59q0 -64 -36.5 -103t-109.5 -39h-52v100h28q32 0 44 16.5t12 42.5v538h114v-555z" />
    <glyph glyph-name="k" unicode="k" horiz-adv-x="520" 
d="M391 0l-72.5 111l-72.5 111l-35 -37.5t-35 -38.5v-146h-112v726h112v-435h3l96 110l86 94h138l-179 -193l101.5 -151.5l101.5 -150.5h-132z" />
    <glyph glyph-name="l" unicode="l" horiz-adv-x="265" 
d="M202 0q-29 0 -54 6t-44 21t-29.5 40.5t-10.5 63.5v595h113v-578q0 -28 12.5 -38t35.5 -10h20v-100h-43z" />
    <glyph glyph-name="m" unicode="m" horiz-adv-x="833" 
d="M660 0v295q0 48 -22.5 74.5t-70.5 26.5q-39 0 -66 -28t-27 -73v-295h-113v295q0 48 -23 74.5t-70 26.5q-39 0 -66.5 -28t-27.5 -73v-295h-113v495h113v-53q1 0 1.5 -0.5t1.5 -0.5q22 28 58.5 43.5t73.5 15.5q93 0 137 -71q32 33 71.5 52t85.5 19q75 0 122 -44.5
t47 -129.5v-326h-112z" />
    <glyph glyph-name="n" unicode="n" horiz-adv-x="529" 
d="M357 0v294q0 48 -21.5 74t-69.5 26q-41 0 -68 -26t-27 -74v-294h-113v496h113v-52h2q24 27 59.5 41.5t69.5 14.5q76 0 122 -43.5t46 -131.5v-325h-113z" />
    <glyph glyph-name="o" unicode="o" horiz-adv-x="515" 
d="M264 501q56 0 100.5 -21.5t71.5 -61.5q19 -29 28 -70.5t8 -92.5q0 -57 -8.5 -97.5t-25.5 -70.5q-29 -47 -78 -70.5t-108 -23.5q-56 0 -100 19t-71 59q-41 61 -39 176q0 40 5.5 76t19.5 64q26 55 77.5 84.5t119.5 29.5zM260 399q-29 0 -52 -15t-35 -41q-9 -20 -12.5 -44
t-4.5 -53q0 -29 3 -53t12 -42q11 -26 33 -40.5t51 -14.5q32 0 57 17.5t36 53.5q5 14 7 35t2 53q0 58 -13 87q-11 29 -33.5 43t-50.5 14z" />
    <glyph glyph-name="p" unicode="p" horiz-adv-x="516" 
d="M172 495v-44l3 -1q25 28 57 39t64 11q58 0 93.5 -23.5t54.5 -60.5t25 -82t6 -88t-7.5 -87.5t-28.5 -81t-58 -60t-97 -23.5q-31 0 -61 11.5t-49 35.5h-2v-241h-112v695h112zM172 246q0 -23 2.5 -49t12 -47.5t28 -35.5t49.5 -14t50 13.5t28.5 34.5t12.5 47t3 51q0 24 -2 50
t-11 48t-27.5 36t-51.5 14q-32 0 -50.5 -14.5t-28 -36.5t-12.5 -48t-3 -49z" />
    <glyph glyph-name="q" unicode="q" horiz-adv-x="522" 
d="M53 238q0 47 7.5 94t28.5 84.5t58.5 60.5t97.5 23q32 0 60 -12.5t49 -38.5h2v46h113v-697h-113v249h-2q-25 -27 -57.5 -40t-62.5 -13q-58 0 -93 22t-54.5 56.5t-26.5 78t-7 87.5zM169 246q0 -25 2.5 -50.5t12 -46.5t28.5 -34.5t51 -13.5q31 0 49 14t28 35.5t13 47t3 48.5
t-2.5 49.5t-12 49t-28 37.5t-49.5 15q-33 0 -51.5 -14.5t-28.5 -37t-12.5 -49t-2.5 -50.5z" />
    <glyph glyph-name="r" unicode="r" horiz-adv-x="388" 
d="M270 395q-41 0 -67 -25t-26 -73v-298h-113v496h111v-59h4q45 64 120 64q28 0 51 -6t43 -20l-42 -102q-21 13 -41 18t-40 5z" />
    <glyph glyph-name="s" unicode="s" horiz-adv-x="463" 
d="M433 151q0 -37 -16 -66t-43.5 -49.5t-64 -31t-78.5 -10.5q-55 0 -109.5 15t-105.5 60l61 81q35 -32 74.5 -45.5t84.5 -13.5q36 0 61 15t25 42q0 26 -21 38.5t-67 17.5q-33 4 -66.5 10t-60.5 21t-44 41t-17 69q0 38 15 67t40 48.5t58.5 29.5t71.5 10q57 0 103 -12.5
t87 -43.5l-54 -86q-35 23 -69.5 33t-64.5 10q-40 0 -60 -15.5t-20 -37.5q0 -25 28 -36t90 -18q30 -3 59.5 -11.5t52 -24.5t36.5 -42t14 -65z" />
    <glyph glyph-name="t" unicode="t" horiz-adv-x="316" 
d="M217 0q-55 0 -91 32t-36 92v280h-57v92h58v129h110v-129h76v-92h-75v-249q0 -26 10 -41t36 -15h37v-99h-68z" />
    <glyph glyph-name="u" unicode="u" horiz-adv-x="533" 
d="M171 495v-295q0 -51 21 -76t71 -25q40 0 67.5 26.5t27.5 74.5v295h113v-495h-113v49h-3q-23 -28 -58 -41.5t-68 -13.5q-77 0 -123.5 43t-46.5 133v325h112z" />
    <glyph glyph-name="v" unicode="v" horiz-adv-x="480" 
d="M243 155l43 138l67 202h122l-189 -495h-91l-190 495h122q17 -49 33 -100l33 -102l24 -69t23 -69h3z" />
    <glyph glyph-name="w" unicode="w" horiz-adv-x="736" 
d="M520 168q6 21 11.5 43l10.5 42l8.5 31.5l11.5 42.5l18 66l29 102h121l-81.5 -247.5l-82.5 -247.5h-99l-35.5 115l-34.5 116l-29 94h-2l-31 -106q-32 -110 -67 -219h-99l-164 495h121q11 -35 20.5 -70l19.5 -70q14 -46 25.5 -92t25.5 -92h4l13 41.5t8.5 28l8 28l12.5 41.5
l58 185h95l37.5 -121l36.5 -122l24 -84h6z" />
    <glyph glyph-name="x" unicode="x" horiz-adv-x="501" 
d="M354 0l-104 167l-103 -167h-136l180 253l-172 242h135l96 -160l97 160h135l-172 -243l180 -252h-136z" />
    <glyph glyph-name="y" unicode="y" horiz-adv-x="470" 
d="M252 -100q-21 -57 -60 -78.5t-84 -21.5h-42v95h31q22 0 37 15.5t23 36.5l25 78l-182 470h122l64 -182l49 -156h4l49 154l63 184h119z" />
    <glyph glyph-name="z" unicode="z" horiz-adv-x="449" 
d="M31 0v94l249 304h-235v97h372v-92l-248 -301h248v-102h-386z" />
    <glyph glyph-name="braceleft" unicode="{" horiz-adv-x="288" 
d="M196 -98q-41 0 -70 26.5t-34 71.5q-1 8 -1.5 17t-0.5 18v101v18.5t-1 17.5q-3 41 -22 63.5t-54 24.5v77q39 4 58 34t19 76v133q0 53 30.5 84.5t75.5 31.5h83v-78h-41q-12 0 -20.5 -7t-13.5 -17.5t-7 -23t-2 -24.5v-121q0 -28 -7.5 -49t-19 -36.5t-25 -25t-24.5 -14.5v-2
q13 -5 26.5 -14.5t24.5 -25t18 -36t7 -47.5v-124q0 -12 1 -25t5.5 -23.5t13 -17t23.5 -6.5h41v-77h-83z" />
    <glyph glyph-name="bar" unicode="|" horiz-adv-x="232" 
d="M68 -195v918h95v-918h-95z" />
    <glyph glyph-name="braceright" unicode="}" horiz-adv-x="288" 
d="M276 260q-24 1 -39 -10.5t-23.5 -29.5t-11.5 -40.5t-3 -43.5v-101v-18t-2 -17q-5 -45 -33.5 -71.5t-69.5 -26.5h-83v77h41q14 0 22.5 6.5t13 17t6 23.5t1.5 25v124q0 27 7 47.5t18 36t24.5 25t26.5 14.5v2q-12 5 -25 14.5t-24.5 25t-19 36.5t-7.5 49v121q0 12 -1.5 24.5
t-6 23t-13 17.5t-22.5 7h-41v76h82q49 0 77.5 -31.5t28.5 -82.5v-133q0 -21 4.5 -40.5t14.5 -34.5t24 -24.5t34 -10.5v-77v0z" />
    <glyph glyph-name="asciitilde" unicode="~" horiz-adv-x="525" 
d="M494 308q-29 -55 -62 -81t-77 -26q-22 0 -44.5 9t-45 20.5t-44 20.5t-39.5 9q-24 0 -41.5 -12t-40.5 -41l-33 21.5l-33 21.5q29 53 63.5 79t80.5 26q23 0 46 -9.5t44.5 -21t41.5 -20.5t38 -9q23 0 40.5 15t38.5 43l67 -45v0z" />
    <glyph glyph-name="Adieresis" unicode="&#xc4;" horiz-adv-x="629" 
d="M498 0l-55 154h-258l-56 -154h-127l263 696h98l263 -696h-128zM361 398l-46 143h-3l-45 -140l-47 -144h187zM352 757v111h120v-111h-120zM154 757v111h121v-111h-121z" />
    <glyph glyph-name="Odieresis" unicode="&#xd6;" horiz-adv-x="610" 
d="M304 701q60 0 108 -20t82 -55t52 -83.5t18 -105.5v-178q0 -61 -18.5 -110t-52.5 -83.5t-82 -53t-107 -18.5q-65 0 -114 21.5t-81 58t-48 84.5t-16 101v178q0 52 16 100t48 84.5t81 58t114 21.5zM304 587q-35 0 -60.5 -12t-42.5 -32.5t-25.5 -46.5t-8.5 -53v-187
q0 -29 8.5 -55.5t25.5 -47.5t42.5 -33.5t60.5 -12.5q32 0 57.5 11.5t43 31.5t27 47t9.5 59v187q0 30 -9.5 56t-27 45.5t-43 31t-57.5 11.5zM343 757v111h120v-111h-120zM145 757v111h121v-111h-121z" />
    <glyph glyph-name="Udieresis" unicode="&#xdc;" horiz-adv-x="638" 
d="M579 247q0 -57 -19.5 -103.5t-54 -79.5t-82.5 -51t-104 -18q-59 0 -107 19.5t-82 54t-52 81.5t-18 102v444h120v-435q0 -32 9.5 -60t27.5 -48.5t44 -32.5t59 -12q62 0 99.5 38t37.5 110v440h122v-449zM360 757v111h120v-111h-120zM162 757v111h121v-111h-121z" />
    <glyph glyph-name="dieresistonos" unicode="&#x385;" horiz-adv-x="502" 
d="M340 579v110h118v-110h-118zM38 579v110h117v-110h-117zM165 569l79 190l107 -34l-118 -181z" />
    <glyph glyph-name="agrave" unicode="&#xe0;" horiz-adv-x="499" 
d="M245 500q42 0 79 -7.5t65 -26.5t44.5 -50.5t16.5 -79.5v-336h-113v44l-2 1q-20 -26 -55.5 -38t-73.5 -12q-79 0 -125 38.5t-46 110.5q0 30 11 57t32 47.5t52.5 32.5t72.5 12h134v36q0 14 -4.5 27t-15.5 22.5t-30 15.5t-48 6q-41 0 -69 -10.5t-49 -30.5l-60 76
q36 36 84 50.5t100 14.5zM142 152q0 -11 4.5 -22t15 -19.5t27 -14t41.5 -5.5q19 0 37 3.5t32.5 11.5t24.5 21t12 33q1 6 1 15v32h-115q-43 0 -61.5 -16t-18.5 -39zM247 544l-123 179l108 36l82 -186z" />
    <glyph glyph-name="acircumflex" unicode="&#xe2;" horiz-adv-x="499" 
d="M245 500q42 0 79 -7.5t65 -26.5t44.5 -50.5t16.5 -79.5v-336h-113v44l-2 1q-20 -26 -55.5 -38t-73.5 -12q-79 0 -125 38.5t-46 110.5q0 30 11 57t32 47.5t52.5 32.5t72.5 12h134v36q0 14 -4.5 27t-15.5 22.5t-30 15.5t-48 6q-41 0 -69 -10.5t-49 -30.5l-60 76
q36 36 84 50.5t100 14.5zM248 642q-9 -6 -28.5 -21l-41 -31.5l-41.5 -31.5t-29 -21l-46 43l149 154h78l146 -153l-48 -44zM142 152q0 -11 4.5 -22t15 -19.5t27 -14t41.5 -5.5q19 0 37 3.5t32.5 11.5t24.5 21t12 33q1 6 1 15v32h-115q-43 0 -61.5 -16t-18.5 -39z" />
    <glyph glyph-name="adieresis" unicode="&#xe4;" horiz-adv-x="499" 
d="M245 500q42 0 79 -7.5t65 -26.5t44.5 -50.5t16.5 -79.5v-336h-113v44l-2 1q-20 -26 -55.5 -38t-73.5 -12q-79 0 -125 38.5t-46 110.5q0 30 11 57t32 47.5t52.5 32.5t72.5 12h134v36q0 14 -4.5 27t-15.5 22.5t-30 15.5t-48 6q-41 0 -69 -10.5t-49 -30.5l-60 76
q36 36 84 50.5t100 14.5zM142 152q0 -11 4.5 -22t15 -19.5t27 -14t41.5 -5.5q19 0 37 3.5t32.5 11.5t24.5 21t12 33q1 6 1 15v32h-115q-43 0 -61.5 -16t-18.5 -39zM93 583v109h119v-109h-119zM293 583v109h118v-109h-118z" />
    <glyph glyph-name="tonos" unicode="&#x384;" horiz-adv-x="504" 
d="M188 569l79 190l107 -34l-118 -181z" />
    <glyph glyph-name="dieresis" unicode="&#xa8;" horiz-adv-x="504" 
d="M292 583v109h118v-109h-118zM92 583v109h119v-109h-119z" />
    <glyph glyph-name="ccedilla" unicode="&#xe7;" horiz-adv-x="447" 
d="M430 67q-35 -34 -78 -53t-94 -20l-9 -31q27 -2 46 -11t30.5 -21.5t16.5 -27t5 -27.5q0 -15 -7 -31t-21 -29t-35.5 -21t-50.5 -8q-26 0 -51.5 5.5t-48.5 18.5l21 52q23 -11 40 -13.5t32 -2.5q17 0 30.5 7t13.5 26q0 17 -12.5 24.5t-30.5 7.5q-7 0 -17 -2l-30 20l22 69
q-36 7 -68 25.5t-55.5 49t-37 73.5t-13.5 100q0 67 19.5 115t51.5 79t74 45t86 14q99 0 169 -70l-73 -79q-44 46 -94 46q-57 0 -87 -36t-30 -114q0 -77 29.5 -113t86.5 -36q25 0 50 13t46 34l74 -78v0z" />
    <glyph glyph-name="eacute" unicode="&#xe9;" horiz-adv-x="507" 
d="M154 215q0 -23 6 -44.5t19 -38t33 -26.5t47 -10q22 0 55.5 10.5t61.5 36.5q18 -20 33 -39.5t33 -39.5q-42 -38 -91 -54t-96 -16q-39 0 -78 11t-70 39.5t-50.5 77t-19.5 124.5q0 72 19.5 120.5t50.5 78.5t69.5 43t76.5 13q50 0 89.5 -17t67 -47.5t42 -74.5t14.5 -98v-49
h-312zM252 398q-39 0 -65 -27t-31 -76h190q-3 51 -29.5 77t-64.5 26zM198 569l79 190l107 -34l-118 -181z" />
    <glyph glyph-name="egrave" unicode="&#xe8;" horiz-adv-x="507" 
d="M154 215q0 -23 6 -44.5t19 -38t33 -26.5t47 -10q22 0 55.5 10.5t61.5 36.5q18 -20 33 -39.5t33 -39.5q-42 -38 -91 -54t-96 -16q-39 0 -78 11t-70 39.5t-50.5 77t-19.5 124.5q0 72 19.5 120.5t50.5 78.5t69.5 43t76.5 13q50 0 89.5 -17t67 -47.5t42 -74.5t14.5 -98v-49
h-312zM252 398q-39 0 -65 -27t-31 -76h190q-3 51 -29.5 77t-64.5 26zM249 544l-123 179l108 36l82 -186z" />
    <glyph glyph-name="ecircumflex" unicode="&#xea;" horiz-adv-x="507" 
d="M154 215q0 -23 6 -44.5t19 -38t33 -26.5t47 -10q22 0 55.5 10.5t61.5 36.5q18 -20 33 -39.5t33 -39.5q-42 -38 -91 -54t-96 -16q-39 0 -78 11t-70 39.5t-50.5 77t-19.5 124.5q0 72 19.5 120.5t50.5 78.5t69.5 43t76.5 13q50 0 89.5 -17t67 -47.5t42 -74.5t14.5 -98v-49
h-312zM252 398q-39 0 -65 -27t-31 -76h190q-3 51 -29.5 77t-64.5 26zM258 642q-9 -6 -28.5 -21l-41 -31.5l-41.5 -31.5t-29 -21l-46 43l149 154h78l146 -153l-48 -44z" />
    <glyph glyph-name="edieresis" unicode="&#xeb;" horiz-adv-x="507" 
d="M154 215q0 -23 6 -44.5t19 -38t33 -26.5t47 -10q22 0 55.5 10.5t61.5 36.5q18 -20 33 -39.5t33 -39.5q-42 -38 -91 -54t-96 -16q-39 0 -78 11t-70 39.5t-50.5 77t-19.5 124.5q0 72 19.5 120.5t50.5 78.5t69.5 43t76.5 13q50 0 89.5 -17t67 -47.5t42 -74.5t14.5 -98v-49
h-312zM252 398q-39 0 -65 -27t-31 -76h190q-3 51 -29.5 77t-64.5 26zM297 583v109h118v-109h-118zM97 583v109h119v-109h-119z" />
    <glyph glyph-name="sterling" unicode="&#xa3;" horiz-adv-x="525" 
d="M393 526q-29 43 -58 56t-61 13q-14 0 -28 -5.5t-26 -16t-19.5 -27t-7.5 -38.5q0 -17 4.5 -33.5t11 -33.5l13.5 -35t11 -39h150v-87h-146q-2 -46 -13 -91.5t-37 -87.5h295v-101h-443v86q33 44 53.5 90.5t24.5 103.5h-80v87h67q-11 38 -25.5 73t-14.5 70q0 36 12.5 70
t38 61t64.5 43t92 16q34 0 63 -3.5t55 -15t50 -32.5t50 -57z" />
    <glyph glyph-name="trademark" unicode="&#x2122;" horiz-adv-x="856" 
d="M717 283v230l-80 -173h-62l-79 176v-233h-79v413h73l118 -259l113 259h73v-413h-77zM245 619v-336h-84v336h-124v77h332v-77h-124z" />
    <glyph glyph-name="bullet" unicode="&#x2022;" horiz-adv-x="443" 
d="M85 274q0 30 11 56.5t30.5 46t46 31t56.5 11.5t56.5 -11.5t46 -31t31 -46t11.5 -56.5t-11.5 -56.5t-31 -46t-46 -31t-56.5 -11.5t-56.5 11.5t-46 31t-30.5 46t-11 56.5z" />
    <glyph glyph-name="ocircumflex" unicode="&#xf4;" horiz-adv-x="515" 
d="M264 501q56 0 100.5 -21.5t71.5 -61.5q19 -29 28 -70.5t8 -92.5q0 -57 -8.5 -97.5t-25.5 -70.5q-29 -47 -78 -70.5t-108 -23.5q-56 0 -100 19t-71 59q-41 61 -39 176q0 40 5.5 76t19.5 64q26 55 77.5 84.5t119.5 29.5zM260 399q-29 0 -52 -15t-35 -41q-9 -20 -12.5 -44
t-4.5 -53q0 -29 3 -53t12 -42q11 -26 33 -40.5t51 -14.5q32 0 57 17.5t36 53.5q5 14 7 35t2 53q0 58 -13 87q-11 29 -33.5 43t-50.5 14zM258 642q-9 -6 -28.5 -21l-41 -31.5l-41.5 -31.5t-29 -21l-46 43l149 154h78l146 -153l-48 -44z" />
    <glyph glyph-name="odieresis" unicode="&#xf6;" horiz-adv-x="515" 
d="M264 501q56 0 100.5 -21.5t71.5 -61.5q19 -29 28 -70.5t8 -92.5q0 -57 -8.5 -97.5t-25.5 -70.5q-29 -47 -78 -70.5t-108 -23.5q-56 0 -100 19t-71 59q-41 61 -39 176q0 40 5.5 76t19.5 64q26 55 77.5 84.5t119.5 29.5zM260 399q-29 0 -52 -15t-35 -41q-9 -20 -12.5 -44
t-4.5 -53q0 -29 3 -53t12 -42q11 -26 33 -40.5t51 -14.5q32 0 57 17.5t36 53.5q5 14 7 35t2 53q0 58 -13 87q-11 29 -33.5 43t-50.5 14zM297 583v109h118v-109h-118zM97 583v109h119v-109h-119z" />
    <glyph glyph-name="sfthyphen" unicode="&#xad;" horiz-adv-x="416" 
d="M49 211v103h318v-103h-318z" />
    <glyph glyph-name="ugrave" unicode="&#xf9;" horiz-adv-x="533" 
d="M171 495v-295q0 -51 21 -76t71 -25q40 0 67.5 26.5t27.5 74.5v295h113v-495h-113v49h-3q-23 -28 -58 -41.5t-68 -13.5q-77 0 -123.5 43t-46.5 133v325h112zM255 544l-123 179l108 36l82 -186z" />
    <glyph glyph-name="ucircumflex" unicode="&#xfb;" horiz-adv-x="533" 
d="M171 495v-295q0 -51 21 -76t71 -25q40 0 67.5 26.5t27.5 74.5v295h113v-495h-113v49h-3q-23 -28 -58 -41.5t-68 -13.5q-77 0 -123.5 43t-46.5 133v325h112zM263 642q-9 -6 -28.5 -21l-41 -31.5l-41.5 -31.5t-29 -21l-46 43l149 154h78l146 -153l-48 -44z" />
    <glyph glyph-name="udieresis" unicode="&#xfc;" horiz-adv-x="533" 
d="M171 495v-295q0 -51 21 -76t71 -25q40 0 67.5 26.5t27.5 74.5v295h113v-495h-113v49h-3q-23 -28 -58 -41.5t-68 -13.5q-77 0 -123.5 43t-46.5 133v325h112zM298 583v109h118v-109h-118zM98 583v109h119v-109h-119z" />
    <glyph glyph-name="dagger" unicode="&#x2020;" horiz-adv-x="488" 
d="M300 373v-550h-111v550h-168v92h168v231h111v-231h167v-92h-167z" />
    <glyph glyph-name="Gamma" unicode="&#x393;" horiz-adv-x="545" 
d="M194 586v-586h-121v696h466v-110h-345z" />
    <glyph glyph-name="Delta" unicode="&#x394;" horiz-adv-x="630" 
d="M2 0l262 696h99l262 -696h-623zM460 105l-49 146.5l-48 146.5l-47 150h-5l-19 -63.5t-20 -63.5l-23 -72l-27.5 -82l-28.5 -84l-27 -78h294z" />
    <glyph glyph-name="Delta" unicode="&#x2206;" horiz-adv-x="630" 
d="M2 0l262 696h99l262 -696h-623zM460 105l-49 146.5l-48 146.5l-47 150h-5l-19 -63.5t-20 -63.5l-23 -72l-27.5 -82l-28.5 -84l-27 -78h294z" />
    <glyph glyph-name="Theta" unicode="&#x398;" horiz-adv-x="602" 
d="M300 701q60 0 108 -20t82 -55t52 -83.5t18 -105.5v-178q0 -61 -18.5 -110t-52.5 -83.5t-82 -53t-107 -18.5q-65 0 -114 21.5t-81 58t-48 84.5t-16 101v178q0 52 16 100t48 84.5t81 58t114 21.5zM300 586q-35 0 -60.5 -12t-42.5 -32.5t-25.5 -46.5t-8.5 -53v-185
q0 -29 8.5 -55.5t25.5 -47.5t42.5 -33.5t60.5 -12.5q32 0 57.5 11.5t43 31.5t27 47t9.5 59v185q0 30 -9.5 56t-27 45.5t-43 31t-57.5 11.5zM407 301h-213v100h213v-100z" />
    <glyph glyph-name="Lambda" unicode="&#x39b;" horiz-adv-x="618" 
d="M493 0l-16.5 47.5l-21 60l-19.5 56.5l-13 37l-16.5 45.5l-28.5 80.5l-34 98l-34 98h-3l-34 -97.5l-34 -97.5l-28 -80.5l-16 -45.5l-13 -37.5l-20 -57l-21.5 -60l-16.5 -47.5h-127l262 696h99l263 -696h-128z" />
    <glyph glyph-name="Xi" unicode="&#x39e;" horiz-adv-x="589" 
d="M55 586v110h475v-110h-475zM107 298v106h371v-106h-371zM53 0v110h480v-110h-480z" />
    <glyph glyph-name="Pi" unicode="&#x3a0;" horiz-adv-x="655" 
d="M462 0v588h-268v-588h-121v696h509v-696h-120z" />
    <glyph glyph-name="germandbls" unicode="&#xdf;" horiz-adv-x="542" 
d="M493 236q0 -40 -9.5 -82t-34 -76.5t-65.5 -56.5t-104 -22h-34v94h29q45 0 72.5 39t27.5 101q0 19 -4 41.5t-14 41.5t-27.5 31.5t-43.5 12.5h-22v92h21q21 0 34.5 9.5t21.5 23t11 28t3 24.5q0 15 -5 31.5t-15.5 30.5t-27 23t-39.5 9q-26 0 -44 -9t-29 -23.5t-15.5 -32.5
t-4.5 -36v-530h-113v527q0 47 15 84.5t42 63t65 39t84 13.5q51 0 87.5 -16t60.5 -41.5t35.5 -57t11.5 -63.5q0 -17 -5 -37.5t-14.5 -39.5t-23.5 -34.5t-32 -24.5v-1q30 -9 50 -28t32.5 -44t17.5 -52t5 -52z" />
    <glyph glyph-name="registered" unicode="&#xae;" horiz-adv-x="543" 
d="M273 464h-35v-97h-47v243h99q31 0 53 -19t22 -52q0 -45 -44 -67l52 -105h-53zM238 567v-59h47q15 0 24.5 8.5t9.5 22.5q0 28 -32 28h-49zM272 277q-46 0 -85 16t-68 44t-45.5 67t-16.5 84q0 46 17 85t46 67.5t68.5 44.5t83.5 16q46 0 85 -16t68 -44.5t45.5 -67.5
t16.5 -85q0 -45 -17 -84t-46.5 -67t-68.5 -44t-83 -16zM272 657q-36 0 -66.5 -13t-53 -35.5t-35 -53.5t-12.5 -67t12.5 -66.5t35 -53t53 -35.5t66.5 -13t66 13t52.5 35.5t35 53t12.5 66.5t-12.5 67t-35 53.5t-52.5 35.5t-66 13z" />
    <glyph glyph-name="copyright" unicode="&#xa9;" horiz-adv-x="812" 
d="M408 -12q-76 0 -140.5 26t-111.5 73t-73.5 112t-26.5 143q0 76 27 141.5t74.5 112.5t111.5 74t139 27t139 -26.5t111.5 -74t74.5 -112.5t27 -142t-27 -141.5t-74.5 -112t-111.5 -74t-139 -26.5zM408 627q-59 0 -109.5 -22t-87.5 -60t-58 -90t-21 -113t21 -113t58 -90
t87.5 -59.5t109.5 -21.5t109.5 21.5t87 59.5t57.5 90t21 113q0 62 -21 114.5t-57.5 90.5t-87 59t-109.5 21zM565 218q-17 -50 -57 -77.5t-98 -27.5q-41 0 -71.5 13t-51 35.5t-30.5 53t-10 65.5v109q0 33 10 63t30.5 53.5t51 37t71.5 13.5q58 0 97.5 -28.5t56.5 -76.5
l-76 -30q-8 25 -28 41.5t-50 16.5q-42 0 -62 -26.5t-20 -59.5v-115q0 -17 5 -32.5t15 -28.5t25.5 -20.5t36.5 -7.5q30 0 50 17t28 44z" />
    <glyph glyph-name="Sigma" unicode="&#x3a3;" horiz-adv-x="527" 
d="M30 0v110l161 247l-161 235v104h454v-108h-309l159 -230l-159 -246h322v-112h-467z" />
    <glyph glyph-name="Iotadieresis" unicode="&#x3aa;" horiz-adv-x="268" 
d="M74 0v696h122v-696h-122zM171 757v111h120v-111h-120zM-27 757v111h121v-111h-121z" />
    <glyph glyph-name="section" unicode="&#xa7;" horiz-adv-x="488" 
d="M454 292q0 -32 -15.5 -62.5t-37.5 -46.5q19 -18 31.5 -42.5t12.5 -51.5q0 -39 -15.5 -70.5t-43 -53.5t-65.5 -33.5t-82 -11.5q-58 0 -110.5 21.5t-89.5 58.5l63 73q30 -30 66.5 -45t71.5 -15q42 0 70.5 16.5t28.5 54.5q0 27 -25.5 45t-84.5 36q-41 12 -73.5 26t-55 33.5
t-35 45.5t-12.5 64q0 32 18 60.5t42 45.5q-22 20 -35 44t-13 55q0 36 14.5 66t40 51t60 32.5t74.5 11.5q55 0 101 -13t88 -46l-57 -78q-37 26 -71 34.5t-66 8.5q-33 0 -57 -17.5t-24 -43.5q0 -20 14 -33t35 -22.5t45.5 -16.5t45.5 -14q27 -9 53.5 -21.5t47 -31.5t33 -46.5
t12.5 -67.5zM185 391q-31 -18 -31 -51q0 -20 14 -33t39 -24q29 -13 62.5 -22.5t62.5 -22.5q23 17 23 50q0 31 -27.5 48t-88.5 36q-14 4 -25.5 8t-28.5 11z" />
    <glyph glyph-name="degree" unicode="&#xb0;" horiz-adv-x="409" 
d="M353 558q0 -30 -11.5 -56.5t-32 -46t-47.5 -30.5t-58 -11t-58 11t-47.5 30.5t-32 46t-11.5 56.5t11.5 56t32 45.5t47.5 30.5t58 11t58 -11t47.5 -30.5t32 -45.5t11.5 -56zM277 558q0 29 -21 49.5t-52 20.5q-29 0 -50.5 -20.5t-21.5 -49.5t21.5 -50t50.5 -21q31 0 52 21
t21 50z" />
    <glyph glyph-name="periodcentered" unicode="&#xb7;" horiz-adv-x="271" 
d="M67 205v138h136v-138h-136z" />
    <glyph glyph-name="Alpha" unicode="&#x391;" horiz-adv-x="629" 
d="M498 0l-55 154h-258l-56 -154h-127l263 696h98l263 -696h-128zM361 398l-46 143h-3l-45 -140l-47 -144h187z" />
    <glyph glyph-name="plusminus" unicode="&#xb1;" horiz-adv-x="525" 
d="M312 306v-174h-95v174h-189v90h189v178h95v-178h189v-90h-189zM26 0v89h477v-89h-477z" />
    <glyph glyph-name="yen" unicode="&#xa5;" horiz-adv-x="525" 
d="M268 386l58 146l72 164h123l-80 -166.5l-81 -166.5h110v-68h-145l-5 -17v-52h150v-68h-150v-158h-114v158h-148v68h148v52q-1 6 -2 8.5t-3 8.5h-143v68h108l-82 166.5l-81 166.5h129l81 -186q14 -31 26 -62l25 -62h4z" />
    <glyph glyph-name="Beta" unicode="&#x392;" horiz-adv-x="618" 
d="M582 200q0 -45 -16.5 -82t-44.5 -63.5t-65 -40.5t-78 -14h-305v696h278q53 0 94 -14t68.5 -39t41.5 -60t14 -77q0 -20 -4.5 -40t-15.5 -38.5t-29.5 -35.5t-46.5 -29v-4q27 -8 47.5 -25t34 -39t20.5 -46.5t7 -48.5zM443 499q0 38 -26 63.5t-82 25.5h-141v-181h141
q56 0 82 27t26 65zM459 207q0 19 -6.5 36.5t-20 31t-34.5 22t-49 8.5h-155v-195h155q28 0 49 8t34.5 21.5t20 31t6.5 36.5z" />
    <glyph glyph-name="Epsilon" unicode="&#x395;" horiz-adv-x="564" 
d="M73 0v696h466v-110h-345v-182h294v-106h-294v-188h345v-110h-466z" />
    <glyph glyph-name="Zeta" unicode="&#x396;" horiz-adv-x="527" 
d="M30 0v104l323 485h-310v107h454v-99l-323 -486h323v-111h-467z" />
    <glyph glyph-name="Eta" unicode="&#x397;" horiz-adv-x="655" 
d="M462 0v298h-268v-298h-121v696h121v-292h268v292h120v-696h-120z" />
    <glyph glyph-name="Iota" unicode="&#x399;" horiz-adv-x="268" 
d="M74 0v696h122v-696h-122z" />
    <glyph glyph-name="Kappa" unicode="&#x39a;" horiz-adv-x="638" 
d="M502 0l-195 324l-113 -131v-193h-121v696h122v-337l2 -1l117 143l164 195h144l-235 -278l258 -418h-143z" />
    <glyph glyph-name="Mu" unicode="&#x39c;" horiz-adv-x="765" 
d="M581 0v413h-3l-37 -89l-51 -112l-54 -114h-97l-40 85l-66 146l-36 85l-3 -3v-411h-121v696h113l91 -199l55.5 -125l53.5 -125h4l56 133l51 117l89 199h116v-696h-121z" />
    <glyph glyph-name="Phi" unicode="&#x3a6;" horiz-adv-x="758" 
d="M717 354q0 -61 -18.5 -113.5t-54 -92t-88 -63t-120.5 -25.5v-60h-116v60q-69 5 -121 28.5t-87 62t-52.5 90t-17.5 113.5q0 61 17.5 115t52.5 94.5t87 65t121 27.5v40h116v-40q74 -5 127.5 -28.5t87.5 -63.5t50 -93.5t16 -116.5zM436 157q46 2 77.5 18t50.5 42.5
t27.5 61.5t8.5 76q0 38 -8 74t-27.5 64.5t-51 46t-77.5 19.5v-402zM320 559q-43 -4 -73.5 -21t-50 -44.5t-28.5 -63t-9 -75.5q0 -83 39 -136.5t122 -61.5v402z" />
    <glyph glyph-name="Upsilondieresis" unicode="&#x3ab;" horiz-adv-x="557" 
d="M553 696l-108 -205l-109 -205v-286h-115v286l-108.5 205l-108.5 205h129l84 -172l31 -66.5l30 -67.5h2l62 137l83 169h128zM118 757v111h121v-111h-121zM316 757v111h120v-111h-120z" />
    <glyph glyph-name="Psi" unicode="&#x3a8;" horiz-adv-x="750" 
d="M689 384q0 -53 -19.5 -96t-53.5 -74.5t-80.5 -50t-100.5 -22.5v-141h-121v141q-55 3 -101.5 22t-80.5 51.5t-53.5 77.5t-19.5 101v303h119v-295q0 -65 38.5 -104.5t97.5 -44.5v444h121v-444q58 4 97 39.5t39 99.5v305h118v-312v0z" />
    <glyph glyph-name="Omega" unicode="&#x3a9;" horiz-adv-x="604" 
d="M345 120q28 7 45.5 24t28 40.5t14.5 50t4 52.5v156q0 30 -9 56.5t-26.5 46.5t-43.5 31.5t-59 11.5q-36 0 -62 -12.5t-42.5 -33t-24.5 -47t-8 -53.5v-156q0 -26 3.5 -52t14 -49t29 -40.5t47.5 -26.5v-119h-230v109h74q0 1 0.5 1.5t0.5 1.5q-18 13 -29.5 32.5t-18 42
t-9.5 47.5t-3 49v154q0 52 16 100t48 84.5t80.5 58t113.5 21.5q60 0 108 -20t82 -55t52 -83.5t18 -105.5v-154q0 -53 -13 -97t-48 -76l1 -1h76v-109h-230v120v0z" />
    <glyph glyph-name="alphatonos" unicode="&#x3ac;" horiz-adv-x="519" 
d="M45 240q0 45 7 91t27.5 83.5t57.5 61t97 23.5q32 0 60 -10.5t51 -38.5l2 1v44h113v-495h-113v47l-2 1q-25 -27 -55.5 -40.5t-60.5 -13.5q-58 0 -94 22t-56 57t-27 79t-7 88zM161 246q0 -25 2.5 -50.5t12 -46.5t28.5 -34.5t51 -13.5q31 0 49 14.5t27.5 36t12.5 47t3 47.5
q0 23 -2.5 49t-12 48t-28 36.5t-49.5 14.5q-33 0 -51.5 -14t-28 -36t-12 -48t-2.5 -50zM192 569l79 190l107 -34l-118 -181z" />
    <glyph glyph-name="Nu" unicode="&#x39d;" horiz-adv-x="692" 
d="M509 0l-215 324l-97 159l-3 -1v-482h-121v696h112l195 -296l118 -188l2 2v482h121v-696h-112z" />
    <glyph glyph-name="Omicron" unicode="&#x39f;" horiz-adv-x="610" 
d="M304 701q60 0 108 -20t82 -55t52 -83.5t18 -105.5v-178q0 -61 -18.5 -110t-52.5 -83.5t-82 -53t-107 -18.5q-65 0 -114 21.5t-81 58t-48 84.5t-16 101v178q0 52 16 100t48 84.5t81 58t114 21.5zM304 587q-35 0 -60.5 -12t-42.5 -32.5t-25.5 -46.5t-8.5 -53v-187
q0 -29 8.5 -55.5t25.5 -47.5t42.5 -33.5t60.5 -12.5q32 0 57.5 11.5t43 31.5t27 47t9.5 59v187q0 30 -9.5 56t-27 45.5t-43 31t-57.5 11.5z" />
    <glyph glyph-name="Rho" unicode="&#x3a1;" horiz-adv-x="591" 
d="M581 478q0 -42 -16.5 -80t-46.5 -67t-72 -46.5t-93 -17.5h-159v-267h-121v696h271q49 0 92 -14t75.5 -41t51 -68t18.5 -95zM457 481q0 54 -32 79.5t-84 25.5h-147v-209h151q53 0 82.5 31t29.5 73z" />
    <glyph glyph-name="Tau" unicode="&#x3a4;" horiz-adv-x="521" 
d="M319 588v-588h-121v588h-193v108h508v-108h-194z" />
    <glyph glyph-name="guillemotleft" unicode="&#xab;" horiz-adv-x="525" 
d="M382 28l-137 200l137 200h109l-133 -200l133 -200h-109zM182 28l-137 200l137 200h109l-134 -200l134 -200h-109z" />
    <glyph glyph-name="guillemotright" unicode="&#xbb;" horiz-adv-x="525" 
d="M46 28l132 200l-132 200h109l136 -200l-136 -200h-109zM246 28l133 200l-133 200h109l136 -200l-136 -200h-109z" />
    <glyph glyph-name="ellipsis" unicode="&#x2026;" horiz-adv-x="919" 
d="M84 0v138h136v-138h-136zM392 0v138h136v-138h-136zM693 0v138h136v-138h-136z" />
    <glyph glyph-name="Upsilon" unicode="&#x3a5;" horiz-adv-x="557" 
d="M553 696l-108 -205l-109 -205v-286h-115v286l-108.5 205l-108.5 205h129l84 -172l31 -66.5l30 -67.5h2l62 137l83 169h128v0z" />
    <glyph glyph-name="Chi" unicode="&#x3a7;" horiz-adv-x="576" 
d="M439 0l-152 257l-151 -257h-136l225 356l-212 340h137l137 -240l138 240h136l-211 -340l225 -356h-136z" />
    <glyph glyph-name="Alphatonos" unicode="&#x386;" horiz-adv-x="629" 
d="M498 0l-55 154h-258l-56 -154h-127l263 696h98l263 -696h-128zM361 398l-46 143h-3l-45 -140l-47 -144h187zM-53 544l79 190l107 -34l-118 -181z" />
    <glyph glyph-name="Epsilontonos" unicode="&#x388;" horiz-adv-x="564" 
d="M73 0v696h466v-110h-345v-182h294v-106h-294v-188h345v-110h-466zM-157 544l79 190l107 -34l-118 -181z" />
    <glyph glyph-name="oe" unicode="&#x153;" horiz-adv-x="835" 
d="M258 500q49 0 91 -18.5t67 -57.5v-1q29 44 71.5 60.5t84.5 16.5q50 0 90 -17t68 -47.5t43 -74t15 -97.5v-49h-316q2 -58 30.5 -88.5t79.5 -30.5q22 0 53.5 10.5t58.5 35.5l70 -78q-41 -38 -89 -54t-94 -16q-47 0 -92 17.5t-76 61.5q-27 -41 -71 -60t-92 -19
q-56 0 -100 19t-70 58q-22 32 -31.5 74t-9.5 94q0 43 5 80t19 67q25 55 76 84.5t119 29.5zM255 399q-30 0 -53 -15t-35 -41q-9 -20 -12 -44.5t-3 -53.5t3 -52.5t12 -42.5q12 -26 33.5 -40t52.5 -14q32 0 57.5 17.5t36.5 53.5q5 14 6.5 34t1.5 46q0 62 -14 95q-12 29 -35 43
t-51 14zM669 295q-3 51 -30 77.5t-66 26.5t-66.5 -27t-31.5 -77h194z" />
    <glyph glyph-name="endash" unicode="&#x2013;" horiz-adv-x="513" 
d="M20 224v101h473v-101h-473z" />
    <glyph glyph-name="afii00208" unicode="&#x2015;" horiz-adv-x="1025" 
d="M20 224v101h985v-101h-985z" />
    <glyph glyph-name="quotedblleft" unicode="&#x201c;" horiz-adv-x="375" 
d="M168 731l-35 -132h32v-138h-136v133l77 137h62zM343 731l-35 -132h32v-138h-136v133l77 137h62z" />
    <glyph glyph-name="quotedblright" unicode="&#x201d;" horiz-adv-x="375" 
d="M209 461l35 131h-32v139h136v-134l-77 -136h-62zM34 461l35 131h-32v139h136v-134l-77 -136h-62z" />
    <glyph glyph-name="quoteleft" unicode="&#x2018;" horiz-adv-x="252" 
d="M193 731l-35 -132h32v-138h-136v133l77 137h62z" />
    <glyph glyph-name="quoteright" unicode="&#x2019;" horiz-adv-x="252" 
d="M54 461l35 131h-32v139h136v-134l-77 -136h-62z" />
    <glyph glyph-name="divide" unicode="&#xf7;" horiz-adv-x="525" 
d="M338 489q0 -29 -21.5 -49.5t-51.5 -20.5q-31 0 -52.5 20.5t-21.5 49.5t21.5 50t52.5 21q30 0 51.5 -21t21.5 -50zM23 251v90h483v-90h-483zM338 98q0 -29 -21.5 -49.5t-51.5 -20.5q-31 0 -52.5 20.5t-21.5 49.5t21.5 49.5t52.5 20.5q30 0 51.5 -20.5t21.5 -49.5z" />
    <glyph glyph-name="Etatonos" unicode="&#x389;" horiz-adv-x="655" 
d="M462 0v298h-268v-298h-121v696h121v-292h268v292h120v-696h-120zM-150 544l79 190l107 -34l-118 -181z" />
    <glyph glyph-name="Iotatonos" unicode="&#x38a;" horiz-adv-x="268" 
d="M74 0v696h122v-696h-122zM-152 544l79 190l107 -34l-118 -181z" />
    <glyph glyph-name="Omicrontonos" unicode="&#x38c;" horiz-adv-x="610" 
d="M304 701q60 0 108 -20t82 -55t52 -83.5t18 -105.5v-178q0 -61 -18.5 -110t-52.5 -83.5t-82 -53t-107 -18.5q-65 0 -114 21.5t-81 58t-48 84.5t-16 101v178q0 52 16 100t48 84.5t81 58t114 21.5zM304 587q-35 0 -60.5 -12t-42.5 -32.5t-25.5 -46.5t-8.5 -53v-187
q0 -29 8.5 -55.5t25.5 -47.5t42.5 -33.5t60.5 -12.5q32 0 57.5 11.5t43 31.5t27 47t9.5 59v187q0 30 -9.5 56t-27 45.5t-43 31t-57.5 11.5zM-134 544l79 190l107 -34l-118 -181z" />
    <glyph glyph-name="Upsilontonos" unicode="&#x38e;" horiz-adv-x="557" 
d="M553 696l-108 -205l-109 -205v-286h-115v286l-108.5 205l-108.5 205h129l84 -172l31 -66.5l30 -67.5h2l62 137l83 169h128zM-207 544l79 190l107 -34l-118 -181z" />
    <glyph glyph-name="epsilontonos" unicode="&#x3ad;" horiz-adv-x="458" 
d="M441 69q-41 -38 -92.5 -56t-105.5 -18q-44 0 -80.5 10t-62.5 29.5t-40.5 47.5t-14.5 64q0 12 4 27.5t12.5 31t22.5 29.5t34 22v2q-18 6 -31 17t-20.5 24t-11 27t-3.5 27q0 30 12.5 56.5t37 47t60.5 32t83 11.5q54 0 101.5 -15.5t85.5 -53.5l-69 -80q-24 24 -54.5 34
t-58.5 10q-33 0 -58 -14t-25 -39q0 -19 14 -32t54 -13h72v-88h-74q-35 0 -54.5 -15t-19.5 -39q0 -22 22.5 -39t70.5 -17q28 0 60.5 11t55.5 37zM186 569l79 190l107 -34l-118 -181z" />
    <glyph glyph-name="etatonos" unicode="&#x3ae;" horiz-adv-x="538" 
d="M362 0v294q0 48 -21.5 74t-69.5 26q-41 0 -68.5 -26t-27.5 -74v-294h-113v496h113v-52h3q24 27 59.5 41.5t69.5 14.5q76 0 121.5 -43.5t45.5 -131.5v-325h-112zM188 569l79 190l107 -34l-118 -181z" />
    <glyph glyph-name="iotatonos" unicode="&#x3af;" horiz-adv-x="263" 
d="M227 -4q-9 -1 -18 -1h-17q-42 0 -67 11t-38.5 29t-17.5 42t-4 51v367h112v-360q0 -26 9 -36t43 -10zM70 569l79 190l107 -34l-118 -181z" />
    <glyph glyph-name="omicrontonos" unicode="&#x3cc;" horiz-adv-x="515" 
d="M264 501q56 0 100.5 -21.5t71.5 -61.5q19 -29 28 -70.5t8 -92.5q0 -57 -8.5 -97.5t-25.5 -70.5q-29 -47 -78 -70.5t-108 -23.5q-56 0 -100 19t-71 59q-41 61 -39 176q0 40 5.5 76t19.5 64q26 55 77.5 84.5t119.5 29.5zM260 399q-29 0 -52 -15t-35 -41q-9 -20 -12.5 -44
t-4.5 -53q0 -29 3 -53t12 -42q11 -26 33 -40.5t51 -14.5q32 0 57 17.5t36 53.5q5 14 7 35t2 53q0 58 -13 87q-11 29 -33.5 43t-50.5 14zM196 569l79 190l107 -34l-118 -181z" />
    <glyph glyph-name="Omegatonos" unicode="&#x38f;" horiz-adv-x="604" 
d="M345 120q28 7 45.5 24t28 40.5t14.5 50t4 52.5v156q0 30 -9 56.5t-26.5 46.5t-43.5 31.5t-59 11.5q-36 0 -62 -12.5t-42.5 -33t-24.5 -47t-8 -53.5v-156q0 -26 3.5 -52t14 -49t29 -40.5t47.5 -26.5v-119h-230v109h74q0 1 0.5 1.5t0.5 1.5q-18 13 -29.5 32.5t-18 42
t-9.5 47.5t-3 49v154q0 52 16 100t48 84.5t80.5 58t113.5 21.5q60 0 108 -20t82 -55t52 -83.5t18 -105.5v-154q0 -53 -13 -97t-48 -76l1 -1h76v-109h-230v120zM-132 544l79 190l107 -34l-118 -181z" />
    <glyph glyph-name="upsilontonos" unicode="&#x3cd;" horiz-adv-x="540" 
d="M477 178q0 -41 -15.5 -75t-43 -58t-65.5 -37t-83 -13q-44 0 -82 13.5t-65.5 37.5t-43 57.5t-15.5 74.5v317h113v-294q0 -48 26.5 -74t67.5 -26q40 0 66.5 26t26.5 74v294h113v-317zM208 569l79 190l107 -34l-118 -181z" />
    <glyph glyph-name="alpha" unicode="&#x3b1;" horiz-adv-x="519" 
d="M45 240q0 45 7 91t27.5 83.5t57.5 61t97 23.5q32 0 60 -10.5t51 -38.5l2 1v44h113v-495h-113v47l-2 1q-25 -27 -55.5 -40.5t-60.5 -13.5q-58 0 -94 22t-56 57t-27 79t-7 88zM161 246q0 -25 2.5 -50.5t12 -46.5t28.5 -34.5t51 -13.5q31 0 49 14.5t27.5 36t12.5 47t3 47.5
q0 23 -2.5 49t-12 48t-28 36.5t-49.5 14.5q-33 0 -51.5 -14t-28 -36t-12 -48t-2.5 -50z" />
    <glyph glyph-name="beta" unicode="&#x3b2;" horiz-adv-x="530" 
d="M484 230q0 -47 -9.5 -89.5t-31.5 -75t-57.5 -51.5t-88.5 -19q-32 0 -64.5 11.5t-57.5 39.5h-2v-198h-112v640q0 53 10.5 97t34 75t61 48t90.5 17t90 -16.5t60 -42t33.5 -56t10.5 -57.5q0 -17 -3.5 -36.5t-11.5 -38.5t-21.5 -35t-33.5 -27v-1q36 -9 56.5 -30t31 -47.5
t13 -55t2.5 -52.5zM365 248q0 19 -4 39t-14 36t-26.5 26.5t-43.5 10.5h-58v91h46q21 0 35 8.5t23 22t12.5 29t3.5 29.5q0 16 -5 32.5t-15 29t-25.5 20.5t-36.5 8q-24 0 -40.5 -9t-26 -23.5t-13.5 -32.5t-4 -36v-287q0 -24 2.5 -50t12.5 -47.5t29 -35.5t51 -14q31 0 50 14
t29.5 36t14 49t3.5 54z" />
    <glyph glyph-name="psi" unicode="&#x3c8;" horiz-adv-x="669" 
d="M609 193q0 -49 -19.5 -85t-50.5 -60.5t-70 -37.5t-79 -15v-196h-112v197q-41 2 -79.5 15t-69 37.5t-49 60t-18.5 82.5v304h113v-284q0 -28 8.5 -48.5t23 -34t33 -21t38.5 -8.5v416h112v-416q21 1 40 8t33.5 20.5t23.5 34t9 49.5v284h113v-302v0z" />
    <glyph glyph-name="delta" unicode="&#x3b4;" horiz-adv-x="504" 
d="M264 726q45 0 85.5 -8.5t86.5 -33.5l-44 -92q-36 20 -64.5 27t-55.5 7q-36 0 -51.5 -13t-15.5 -31q0 -23 24 -41.5t61 -36.5q39 -21 76.5 -44.5t60.5 -57.5q22 -33 29.5 -73.5t7.5 -88.5q0 -50 -9 -86t-26 -65q-29 -49 -77.5 -72t-105.5 -23q-56 0 -99.5 18.5t-69.5 57.5
q-22 31 -31 70t-9 90q0 42 5 76t20 63q12 27 36 52.5t56 38.5q-33 20 -50.5 51.5t-17.5 63.5q0 36 13.5 64t37.5 47.5t56.5 29.5t70.5 10zM251 405q-33 -5 -55 -23.5t-32 -43.5q-9 -21 -11.5 -46.5t-3.5 -50.5q0 -29 3.5 -52t11.5 -41q12 -26 31.5 -39t53.5 -13
q33 0 57.5 17.5t35.5 53.5q5 16 6.5 35.5t1.5 50.5q0 27 -3.5 47t-9.5 34q-23 56 -86 71z" />
    <glyph glyph-name="epsilon" unicode="&#x3b5;" horiz-adv-x="458" 
d="M441 69q-41 -38 -92.5 -56t-105.5 -18q-44 0 -80.5 10t-62.5 29.5t-40.5 47.5t-14.5 64q0 12 4 27.5t12.5 31t22.5 29.5t34 22v2q-18 6 -31 17t-20.5 24t-11 27t-3.5 27q0 30 12.5 56.5t37 47t60.5 32t83 11.5q54 0 101.5 -15.5t85.5 -53.5l-69 -80q-24 24 -54.5 34
t-58.5 10q-33 0 -58 -14t-25 -39q0 -19 14 -32t54 -13h72v-88h-74q-35 0 -54.5 -15t-19.5 -39q0 -22 22.5 -39t70.5 -17q28 0 60.5 11t55.5 37l73 -78v0z" />
    <glyph glyph-name="phi" unicode="&#x3c6;" horiz-adv-x="643" 
d="M264 -5q-59 2 -106.5 20t-76.5 59q-23 31 -32 72t-9 101q0 30 2.5 59t11 55.5t23.5 50t40 43.5q14 11 28.5 19.5t34.5 14.5l37 -99q-38 -15 -52 -49q-8 -17 -10 -39t-2 -56q0 -23 2.5 -43.5t8.5 -38.5q11 -31 37 -50t63 -19v405h115q23 0 49 -4t51.5 -14t48.5 -27t39 -43
q22 -35 28.5 -75.5t6.5 -89.5q0 -57 -8.5 -96t-28.5 -68q-28 -41 -76 -62.5t-112 -25.5v-194h-113v194zM377 96q37 0 65 18.5t39 53.5q5 17 6.5 37.5t1.5 42.5q0 37 -3.5 60.5t-9.5 37.5q-14 29 -42 40.5t-57 11.5v-302z" />
    <glyph glyph-name="gamma" unicode="&#x3b3;" horiz-adv-x="481" 
d="M477 495l-91 -236t-86 -241v-218h-112v196q-27 94 -56.5 182t-62.5 173q-6 16 -10.5 25.5t-10 15t-12.5 7t-18 1.5h-7l-8 92q38 11 65 11q22 0 37.5 -6.5t27 -19.5t20.5 -31.5t18 -43.5l36.5 -106.5l35.5 -111.5h5l52 160t54 151h123z" />
    <glyph glyph-name="eta" unicode="&#x3b7;" horiz-adv-x="538" 
d="M362 0v294q0 48 -21.5 74t-69.5 26q-41 0 -68.5 -26t-27.5 -74v-294h-113v496h113v-52h3q24 27 59.5 41.5t69.5 14.5q76 0 121.5 -43.5t45.5 -131.5v-325h-112z" />
    <glyph glyph-name="iota" unicode="&#x3b9;" horiz-adv-x="263" 
d="M227 -4q-9 -1 -18 -1h-17q-42 0 -67 11t-38.5 29t-17.5 42t-4 51v367h112v-360q0 -26 9 -36t43 -10z" />
    <glyph glyph-name="xi" unicode="&#x3be;" horiz-adv-x="426" 
d="M402 586q-35 23 -66 31t-60 8q-27 0 -47.5 -8.5t-33.5 -22t-19.5 -30.5t-6.5 -34q0 -22 9.5 -40t25.5 -31t38 -20t48 -7h92v-93h-118q-26 0 -47 -10t-36 -27t-23 -38.5t-8 -45.5q0 -46 27.5 -70t68.5 -39l94 -35t58.5 -28t30 -31t8.5 -43q0 -18 -8 -39.5t-20.5 -44
t-28.5 -45t-32 -42.5l-40.5 23.5l-40.5 22.5q3 6 10.5 18.5l16 26.5t14.5 27t6 21q0 25 -45 41l-81.5 28.5t-78 38.5t-58 62.5t-22.5 100.5q0 18 5.5 42t18.5 48.5t35 47.5t54 39q-27 11 -44.5 29t-28 38t-14.5 40.5t-4 35.5q0 43 17 79.5t46.5 62t69.5 40t85 14.5
q42 0 90.5 -10t95.5 -43l-27 -43.5z" />
    <glyph glyph-name="kappa" unicode="&#x3ba;" horiz-adv-x="520" 
d="M389 0l-71.5 111l-71.5 111l-35 -37.5t-35 -38.5v-146h-112v495h112v-204h3l96 108l87 96h137l-179 -193l101.5 -151.5l101.5 -150.5h-134z" />
    <glyph glyph-name="lambda" unicode="&#x3bb;" horiz-adv-x="479" 
d="M483 -1q-16 -4 -30.5 -5t-24.5 -1q-39 0 -61 15.5t-33 44.5q-5 10 -8.5 20.5t-6.5 21.5l-20 65t-21 65l-16.5 55.5l-17.5 55.5h-4l-43 -128l-35 -103.5t-38 -104.5h-118l183 487l-27 91q-8 28 -21 40.5t-46 12.5h-10.5t-11.5 -1l-6 93q36 9 64 9q51 0 79.5 -23t45.5 -66
q5 -11 8 -21.5t7 -21.5l78 -239l78 -239q8 -23 17.5 -31t35.5 -8z" />
    <glyph glyph-name="mu" unicode="&#xb5;" horiz-adv-x="537" 
d="M363 0v45q-1 1 -3 1q-23 -26 -54 -38.5t-65 -12.5t-63 16l-1 -1v-210h-113v695h113v-295q0 -43 22.5 -71t70.5 -28q40 0 66.5 25.5t26.5 73.5v295h113v-495h-113z" />
    <glyph glyph-name="mu" unicode="&#x3bc;" horiz-adv-x="537" 
d="M363 0v45q-1 1 -3 1q-23 -26 -54 -38.5t-65 -12.5t-63 16l-1 -1v-210h-113v695h113v-295q0 -43 22.5 -71t70.5 -28q40 0 66.5 25.5t26.5 73.5v295h113v-495h-113z" />
    <glyph glyph-name="nu" unicode="&#x3bd;" horiz-adv-x="477" 
d="M284 0h-90l-190 495h121l58 -169l55 -169h2l54 168l58 170h121z" />
    <glyph glyph-name="omicron" unicode="&#x3bf;" horiz-adv-x="515" 
d="M264 501q56 0 100.5 -21.5t71.5 -61.5q19 -29 28 -70.5t8 -92.5q0 -57 -8.5 -97.5t-25.5 -70.5q-29 -47 -78 -70.5t-108 -23.5q-56 0 -100 19t-71 59q-41 61 -39 176q0 40 5.5 76t19.5 64q26 55 77.5 84.5t119.5 29.5zM260 399q-29 0 -52 -15t-35 -41q-9 -20 -12.5 -44
t-4.5 -53q0 -29 3 -53t12 -42q11 -26 33 -40.5t51 -14.5q32 0 57 17.5t36 53.5q5 14 7 35t2 53q0 58 -13 87q-11 29 -33.5 43t-50.5 14z" />
    <glyph glyph-name="pi" unicode="&#x3c0;" horiz-adv-x="536" 
d="M360 0v398h-187v-398h-113v495h413v-495h-113z" />
    <glyph glyph-name="omegatonos" unicode="&#x3ce;" horiz-adv-x="755" 
d="M528 500q55 -3 91.5 -23.5t58.5 -54.5t30.5 -79t8.5 -95q0 -56 -10.5 -102.5t-34 -79.5t-60.5 -51.5t-91 -18.5q-92 0 -139 74h-2q-25 -35 -58 -55t-78 -20q-56 0 -94.5 18t-62.5 51t-34.5 79.5t-10.5 103.5q0 51 9.5 95.5t32 78t59 54.5t89.5 25l15 -106
q-52 -7 -72 -45.5t-20 -104.5q0 -28 6.5 -53t19 -44t31.5 -30.5t44 -11.5q31 0 48.5 27t17.5 66v157h110v-157q0 -42 23 -70.5t64 -28.5q25 0 41.5 12.5t26 33.5t13 47t3.5 53q0 65 -19 104.5t-71 44.5zM318 569l79 190l107 -34l-118 -181z" />
    <glyph glyph-name="rho" unicode="&#x3c1;" horiz-adv-x="521" 
d="M277 -5q-33 0 -59.5 10.5t-48.5 33.5l-3 -2v-237h-113v447q1 40 6.5 78.5t15.5 60.5q26 55 76.5 85t117.5 30q56 0 100.5 -22t71.5 -62q21 -32 29.5 -75t8.5 -97q0 -97 -36 -157q-29 -49 -72.5 -71t-93.5 -22zM266 399q-29 0 -50.5 -15t-34.5 -41q-9 -20 -12 -44t-4 -53
q0 -29 3 -53t11 -42q12 -26 32.5 -40.5t49.5 -14.5q32 0 57 17.5t36 53.5q9 28 9 80q1 61 -13 95q-11 29 -34 43t-50 14z" />
    <glyph glyph-name="sigma" unicode="&#x3c3;" horiz-adv-x="520" 
d="M410 404q14 -15 25 -30.5t18 -34t10.5 -41.5t3.5 -54q0 -33 -6 -69.5t-17 -62.5q-26 -60 -77.5 -89t-117.5 -29q-56 0 -97.5 18.5t-67.5 55.5q-23 33 -34 77.5t-11 100.5q1 33 5.5 62.5t14.5 54.5q23 63 73.5 97.5t124.5 34.5h241v-91h-88zM254 393q-26 0 -45.5 -12
t-32.5 -34q-21 -36 -23 -101q0 -69 24 -109t75 -40q34 0 57.5 19t33.5 56q4 14 6.5 32t2.5 41q0 36 -5.5 61.5t-16.5 42.5q-26 44 -76 44z" />
    <glyph glyph-name="tau" unicode="&#x3c4;" horiz-adv-x="372" 
d="M235 404v-248q0 -26 10 -40.5t36 -14.5h41v-101h-72q-56 0 -92 32.5t-36 92.5v279h-107v91h339v-91h-119z" />
    <glyph glyph-name="theta" unicode="&#x3b8;" horiz-adv-x="519" 
d="M267 729q57 0 98.5 -22t66.5 -63q9 -14 17 -35.5t14.5 -53.5t10 -77.5t3.5 -108.5q0 -60 -3.5 -105t-9 -78.5t-13.5 -56.5t-17 -39q-26 -46 -73 -71.5t-105 -25.5q-56 0 -99 20t-69 60q-11 16 -19.5 40t-14.5 59t-8.5 82t-2.5 109q0 100 11 161.5t25 89.5q25 55 73 85
t115 30zM350 165q1 6 4.5 18.5t6.5 32t5 48.5t1 68h-215q-1 -43 1 -73.5t5 -52.5t7.5 -35.5l7.5 -22.5q11 -26 32 -41t54 -15q71 0 91 73zM263 632q-29 0 -51 -15t-35 -42q-4 -8 -8 -19t-7.5 -28t-6 -43t-3.5 -64h215q0 38 -2.5 64t-6 43t-7 27.5t-5.5 17.5q-9 29 -31.5 44
t-51.5 15z" />
    <glyph glyph-name="omega" unicode="&#x3c9;" horiz-adv-x="755" 
d="M528 500q55 -3 91.5 -23.5t58.5 -54.5t30.5 -79t8.5 -95q0 -56 -10.5 -102.5t-34 -79.5t-60.5 -51.5t-91 -18.5q-92 0 -139 74h-2q-25 -35 -58 -55t-78 -20q-56 0 -94.5 18t-62.5 51t-34.5 79.5t-10.5 103.5q0 51 9.5 95.5t32 78t59 54.5t89.5 25l15 -106
q-52 -7 -72 -45.5t-20 -104.5q0 -28 6.5 -53t19 -44t31.5 -30.5t44 -11.5q31 0 48.5 27t17.5 66v157h110v-157q0 -42 23 -70.5t64 -28.5q25 0 41.5 12.5t26 33.5t13 47t3.5 53q0 65 -19 104.5t-71 44.5z" />
    <glyph glyph-name="sigma1" unicode="&#x3c2;" horiz-adv-x="456" 
d="M395 350q-26 24 -53.5 34t-50.5 10q-58 0 -92 -37t-34 -112q0 -48 18 -80.5t67 -52.5q46 -18 80.5 -33t57.5 -30.5t35 -33.5t12 -42q0 -19 -7 -39.5t-19 -41t-27 -41t-31 -39.5l-81 45q5 7 12.5 18.5t14 24t11 24t4.5 18.5q0 26 -46 42q-58 20 -98.5 41.5t-66.5 50.5
t-38 68t-12 95q0 67 19.5 116.5t51.5 82t73.5 48t86.5 15.5q47 0 94.5 -15.5t88.5 -53.5q-18 -20 -35 -41t-35 -41z" />
    <glyph glyph-name="chi" unicode="&#x3c7;" horiz-adv-x="501" 
d="M354 0l-104 167l-103 -167h-136l180 253l-172 242h135l96 -160l97 160h135l-172 -243l180 -252h-136z" />
    <glyph glyph-name="upsilon" unicode="&#x3c5;" horiz-adv-x="540" 
d="M477 178q0 -41 -15.5 -75t-43 -58t-65.5 -37t-83 -13q-44 0 -82 13.5t-65.5 37.5t-43 57.5t-15.5 74.5v317h113v-294q0 -48 26.5 -74t67.5 -26q40 0 66.5 26t26.5 74v294h113v-317v0z" />
    <glyph glyph-name="zeta" unicode="&#x3b6;" horiz-adv-x="418" 
d="M156 218q0 -25 8 -42.5t22 -30.5t34.5 -23.5t44.5 -20.5q49 -18 82 -32t52.5 -28.5t27.5 -31t8 -39.5q0 -20 -9 -42t-22.5 -44t-29.5 -43.5t-31 -39.5l-81 45l12.5 18.5t17 27t14.5 28.5t6 22q0 13 -11.5 21.5t-34.5 17.5q-46 17 -87.5 35t-73 43.5t-50 61.5t-18.5 90
q0 44 21 96.5t57.5 106.5t86 105t107.5 93h-235v99h391v-88q-65 -48 -121 -101t-98 -106.5t-66 -104.5t-24 -93z" />
    <glyph glyph-name="iotadieresis" unicode="&#x3ca;" horiz-adv-x="263" 
d="M227 -4q-9 -1 -18 -1h-17q-42 0 -67 11t-38.5 29t-17.5 42t-4 51v367h112v-360q0 -26 9 -36t43 -10zM156 583v109h118v-109h-118zM-44 583v109h119v-109h-119z" />
    <glyph glyph-name="upsilondieresis" unicode="&#x3cb;" horiz-adv-x="540" 
d="M477 178q0 -41 -15.5 -75t-43 -58t-65.5 -37t-83 -13q-44 0 -82 13.5t-65.5 37.5t-43 57.5t-15.5 74.5v317h113v-294q0 -48 26.5 -74t67.5 -26q40 0 66.5 26t26.5 74v294h113v-317zM307 583v109h118v-109h-118zM107 583v109h119v-109h-119z" />
    <glyph glyph-name="iotadieresistonos" unicode="&#x390;" horiz-adv-x="263" 
d="M227 -4q-9 -1 -18 -1h-17q-42 0 -67 11t-38.5 29t-17.5 42t-4 51v367h112v-360q0 -26 9 -36t43 -10zM227 579v110h118v-110h-118zM-75 579v110h117v-110h-117zM52 569l79 190l107 -34l-118 -181z" />
    <glyph glyph-name="upsilondieresistonos" unicode="&#x3b0;" horiz-adv-x="540" 
d="M477 178q0 -41 -15.5 -75t-43 -58t-65.5 -37t-83 -13q-44 0 -82 13.5t-65.5 37.5t-43 57.5t-15.5 74.5v317h113v-294q0 -48 26.5 -74t67.5 -26q40 0 66.5 26t26.5 74v294h113v-317zM363 579v110h118v-110h-118zM61 579v110h117v-110h-117zM188 569l79 190l107 -34
l-118 -181z" />
    <glyph glyph-name="space" unicode=" " horiz-adv-x="252" 
 />
    <glyph glyph-name="Euro" unicode="&#x20ac;" horiz-adv-x="525" 
d="M174 365v-40h189v-70h-188q1 -30 8.5 -57.5t22 -47.5t36.5 -32t52 -12q41 0 69 22t47 64l109 -42q-32 -72 -86.5 -114t-139.5 -42q-102 0 -164 58.5t-71 167.5q-1 9 -1.5 17.5t-0.5 17.5h-41v70h41v40h-41v70h41q0 9 0.5 17.5t1.5 16.5q4 50 23 92t49.5 72.5t71.5 47.5
t91 17q81 0 137.5 -40t83.5 -112l-109 -44q-15 38 -44.5 60t-66.5 22q-32 0 -54 -12.5t-35.5 -33.5t-20.5 -48t-9 -55h188v-70h-189z" />
    <glyph glyph-name="logicalnot" unicode="&#xac;" horiz-adv-x="525" 
d="M500 62h-94v189h-382v90h476v-279z" />
    <glyph glyph-name="brokenbar" unicode="&#xa6;" horiz-adv-x="232" 
d="M68 294v429h95v-429h-95zM163 232v-427h-95v427h95z" />
    <glyph glyph-name="exclam" unicode="!" horiz-adv-x="268" 
d="M180 184h-92l-10 512h112zM75 0v113h119v-113h-119z" />
    <glyph glyph-name="ae" unicode="&#xe6;" horiz-adv-x="816" 
d="M459 215q1 -21 5 -37.5t12 -30.5q30 -50 97 -50q22 0 51 10t56 35l70 -78q-41 -38 -87.5 -53.5t-92.5 -15.5q-47 0 -94 15t-81 56q-26 -32 -71 -51.5t-108 -19.5q-79 0 -127.5 38.5t-48.5 110.5q0 30 11 57t32 47.5t52.5 32.5t72.5 12h134v36q0 14 -5 27.5t-16.5 24
t-30.5 16.5t-48 6q-44 0 -72.5 -11.5t-47.5 -31.5l-58 73q33 38 80.5 52.5t98.5 14.5q23 0 47.5 -2.5t47.5 -8.5t43 -17t35 -29q29 31 66.5 44t74.5 13q54 0 95 -19.5t68 -53t40.5 -79.5t13.5 -99v-34h-315zM147 152q0 -11 4.5 -22t15 -19.5t27 -14t41.5 -5.5q51 0 79 21.5
t28 72.5v23h-115q-43 0 -61.5 -16.5t-18.5 -39.5zM657 295q-3 51 -30.5 77t-66.5 26q-40 0 -67 -26.5t-32 -76.5h196z" />
    <glyph glyph-name="eth" unicode="&#xf0;" horiz-adv-x="514" 
d="M246 476q16 0 34 -4.5t35 -12.5t31.5 -19.5t23.5 -26.5h2q1 0 2 1q-1 35 -9 76t-28 66l-27.5 -21.5l-27.5 -21.5l-33 44l51 40q-20 18 -50.5 31.5t-81.5 21.5l17 89q129 -11 197 -79l69 55l35 -41l-65 -54q42 -59 52 -137.5t10 -171.5q0 -73 -16 -136.5t-54 -108.5
q-29 -34 -71.5 -53.5t-102.5 -19.5q-57 0 -100.5 23t-67.5 58q-19 29 -28 65.5t-10 79.5q-2 42 5.5 82.5t23.5 70.5q25 48 70 76t114 28zM248 373q-29 0 -50 -13.5t-34 -37.5q-6 -12 -10.5 -34.5t-5.5 -66.5q0 -20 3 -38t10 -33q25 -54 85 -54q26 0 47 11.5t34 32.5
q14 20 17.5 47t3.5 55q0 24 -3 39.5t-7 26.5q-11 32 -34.5 48.5t-55.5 16.5z" />
    <glyph glyph-name="multiply" unicode="&#xd7;" horiz-adv-x="525" 
d="M268 221l-161 -161l-67 66l161 161l-164 165l64 63l164 -164l159 160l67 -67l-160 -159l165 -165l-63 -64z" />
    <glyph glyph-name="cedilla" unicode="&#xb8;" horiz-adv-x="447" 
d="M214 44q15 0 29.5 -0.5t29.5 -0.5l-13.5 -40l-12.5 -40q27 -2 46 -11t30.5 -21.5t16.5 -27t5 -27.5q0 -15 -7 -31t-21 -29t-35.5 -21t-50.5 -8q-26 0 -51.5 5.5t-48.5 18.5l21 52q23 -11 40 -13.5t32 -2.5q17 0 30.5 7t13.5 26q0 17 -12.5 24.5t-30.5 7.5q-7 0 -17 -2
l-30 20l36 114v0z" />
    <glyph glyph-name="florin" unicode="&#x192;" horiz-adv-x="525" 
d="M125 426h95l8 63q5 36 16.5 73t33.5 68t57 50.5t86 19.5q24 -1 49.5 -6t45.5 -13l-24 -94q-20 7 -37.5 8.5t-34.5 1.5q-18 0 -31.5 -9.5t-22.5 -24.5t-14 -34.5t-8 -39.5l-9 -63h99l1 -98h-112l-28 -208q-6 -45 -18.5 -85t-33 -69t-51 -46t-73.5 -17q-23 0 -55.5 7.5
t-56.5 18.5l28 91q25 -10 41 -12t28 -2q33 0 50 32t25 89q1 11 5 39.5l8.5 61t8 61t5.5 39.5h-80z" />
    <glyph glyph-name="circumflex" unicode="&#x2c6;" horiz-adv-x="504" 
d="M253 642q-9 -6 -28.5 -21l-41 -31.5l-41.5 -31.5t-29 -21l-46 43l149 154h78l146 -153l-48 -44z" />
    <glyph glyph-name="caron" unicode="&#x2c7;" horiz-adv-x="504" 
d="M392 734l48 -44l-146 -153h-78l-149 154l46 43q9 -6 29 -21l41.5 -31.5l41 -31.5t28.5 -21z" />
    <glyph glyph-name="breve" unicode="&#x2d8;" horiz-adv-x="522" 
d="M268 564q-42 0 -70 15t-45.5 37t-25.5 47.5t-9 46.5h87q0 -10 4.5 -21.5t12.5 -21.5t19.5 -16.5t26.5 -6.5q16 0 28 6.5t20 16.5t12 21.5t4 21.5h86q-2 -21 -10 -46.5t-25 -47.5t-45 -37t-70 -15z" />
    <glyph glyph-name="tilde" unicode="&#x2dc;" horiz-adv-x="504" 
d="M189 705q19 0 37.5 -7.5t35.5 -16.5l32.5 -16.5t27.5 -7.5q17 0 32 11t32 36l60 -35q-24 -52 -52 -75.5t-62 -23.5q-19 0 -37.5 7t-36 16t-34 16t-30.5 7q-17 0 -33 -9.5t-36 -35.5l-57 33q23 48 53 74.5t68 26.5z" />
    <glyph glyph-name="Ntilde" unicode="&#xd1;" horiz-adv-x="692" 
d="M509 0l-215 324l-97 159l-3 -1v-482h-121v696h112l195 -296l118 -188l2 2v482h121v-696h-112zM274 876q19 0 37.5 -7.5t35.5 -16.5l32.5 -16.5t27.5 -7.5q17 0 32 11t32 36l60 -35q-24 -52 -52 -75.5t-62 -23.5q-19 0 -37.5 7t-36 16t-34 16t-30.5 7q-17 0 -33 -9.5
t-36 -35.5l-57 33q23 48 53 74.5t68 26.5z" />
    <glyph glyph-name="otilde" unicode="&#xf5;" horiz-adv-x="515" 
d="M264 501q56 0 100.5 -21.5t71.5 -61.5q19 -29 28 -70.5t8 -92.5q0 -57 -8.5 -97.5t-25.5 -70.5q-29 -47 -78 -70.5t-108 -23.5q-56 0 -100 19t-71 59q-41 61 -39 176q0 40 5.5 76t19.5 64q26 55 77.5 84.5t119.5 29.5zM260 399q-29 0 -52 -15t-35 -41q-9 -20 -12.5 -44
t-4.5 -53q0 -29 3 -53t12 -42q11 -26 33 -40.5t51 -14.5q32 0 57 17.5t36 53.5q5 14 7 35t2 53q0 58 -13 87q-11 29 -33.5 43t-50.5 14zM194 705q19 0 37.5 -7.5t35.5 -16.5l32.5 -16.5t27.5 -7.5q17 0 32 11t32 36l60 -35q-24 -52 -52 -75.5t-62 -23.5q-19 0 -37.5 7
t-36 16t-34 16t-30.5 7q-17 0 -33 -9.5t-36 -35.5l-57 33q23 48 53 74.5t68 26.5z" />
    <glyph glyph-name="Ccedilla" unicode="&#xc7;" horiz-adv-x="572" 
d="M551 156q-26 -74 -86 -116.5t-147 -45.5l-9 -31q27 -2 46 -11t30.5 -21.5t16.5 -27t5 -27.5q0 -15 -7 -31t-21 -29t-35.5 -21t-50.5 -8q-26 0 -51.5 5.5t-48.5 18.5l21 52q23 -11 40 -13.5t32 -2.5q17 0 30.5 7t13.5 26q0 17 -12.5 24.5t-30.5 7.5q-7 0 -17 -2l-30 20
l21 67q-54 7 -94 30t-66.5 57.5t-39.5 79t-13 95.5v178q0 52 16 100t48 84.5t81 58t114 21.5q92 0 154.5 -44.5t88.5 -117.5l-114 -45q-13 41 -45.5 66.5t-83.5 25.5q-35 0 -60.5 -12t-42.5 -32.5t-25.5 -46.5t-8.5 -53v-185q0 -29 8.5 -55.5t25.5 -47.5t42.5 -33.5
t60.5 -12.5q50 0 83 26.5t46 69.5z" />
    <glyph glyph-name="acute" unicode="&#xb4;" horiz-adv-x="504" 
d="M188 569l79 190l107 -34l-118 -181z" />
    <glyph glyph-name="Dieresis" unicode="&#xf6cb;" horiz-adv-x="630" 
d="M352 757v111h120v-111h-120zM154 757v111h121v-111h-121z" />
    <glyph glyph-name="AE" unicode="&#xc6;" horiz-adv-x="1034" 
d="M517 0v176h-247l-53 -88l-54 -88h-137l433 696h524v-110h-345v-183h294v-105h-294v-189h345v-109h-466zM515 585l-92 -152l-92 -152h186v304h-2z" />
    <glyph glyph-name="quotesinglbase" unicode="&#x201a;" horiz-adv-x="276" 
d="M68 -132l35 132h-32v139h132v-134l-77 -137h-58z" />
    <glyph glyph-name="quotedblbase" unicode="&#x201e;" horiz-adv-x="456" 
d="M244 -132l35 132h-32v139h136v-134l-77 -137h-62zM68 -132l35 132h-32v139h137v-134l-77 -137h-63z" />
    <glyph glyph-name="daggerdbl" unicode="&#x2021;" horiz-adv-x="488" 
d="M189 373h-168v92h168v231h111v-231h167v-92h-167v-166h167v-92h-167v-292h-111v292h-168v92h168v166z" />
    <glyph glyph-name="guilsinglleft" unicode="&#x2039;" horiz-adv-x="352" 
d="M183 28l-137 200l137 200h109l-133 -200l133 -200h-109z" />
    <glyph glyph-name="emdash" unicode="&#x2014;" horiz-adv-x="1025" 
d="M20 224v101h985v-101h-985z" />
    <glyph glyph-name="guilsinglright" unicode="&#x203a;" horiz-adv-x="352" 
d="M46 28l133 200l-133 200h109l136 -200l-136 -200h-109z" />
    <glyph glyph-name="exclamdown" unicode="&#xa1;" horiz-adv-x="268" 
d="M88 308h97l7 -511h-112zM195 493v-114h-119v114h119z" />
    <glyph glyph-name="currency" unicode="&#xa4;" horiz-adv-x="556" 
d="M155 320q0 -24 9.5 -46t26 -38.5t38 -26t46.5 -9.5t47 9.5t38.5 26t26 38t9.5 46.5t-9.5 47t-26 38.5t-38.5 25.5t-47 9t-46.5 -9.5t-38 -25.5t-26 -38t-9.5 -47zM33 500l12 12l18.5 19l18.5 19l12 12l68 -68q56 35 114 35q59 0 114 -34q3 4 12.5 13.5l20.5 20.5
l20.5 20.5t13.5 12.5l61 -62l-68 -67q35 -56 35 -113q0 -30 -8.5 -57t-25.5 -56l34 -32.5t33 -33.5l-61 -62l-67 67q-53 -35 -114 -35q-30 0 -59 9t-55 26l-68 -67q-2 3 -11 12l-19.5 19l-19.5 19l-11 11l68 67q-34 55 -34 113q0 56 34 113z" />
    <glyph glyph-name="paragraph" unicode="&#xb6;" horiz-adv-x="563" 
d="M224 317h-32q-38 0 -67.5 16t-49.5 42.5t-30 60t-10 69.5t11.5 72t34 64t56.5 45.5t80 17.5h62.5t88 0.5t89 0.5h63.5v-76h-43v-709h-87v709h-77v-709h-89v397z" />
    <glyph glyph-name="questiondown" unicode="&#xbf;" horiz-adv-x="472" 
d="M27 -17q0 28 8 51.5t20.5 43t28.5 37l32 34.5q25 26 44 54t19 64v36h117v-39q0 -53 -25.5 -95t-61.5 -84q-20 -22 -38 -47.5t-18 -51.5q0 -14 5 -29t16.5 -27t28.5 -20t41 -8t42 9.5t30.5 25t19 34.5t8.5 38q29 -5 58 -8t58 -8q-8 -50 -29.5 -87.5t-52 -63t-67.5 -38
t-77 -12.5q-48 0 -86.5 14.5t-65 40t-41 60.5t-14.5 76zM297 492v-113h-118v113h118z" />
    <glyph glyph-name="oslash" unicode="&#xf8;" horiz-adv-x="515" 
d="M264 501q79 0 133 -42l42 54l36 -28l-46 -58q3 -3 7 -9q19 -29 28 -70.5t8 -92.5q0 -57 -8.5 -97.5t-25.5 -70.5q-29 -47 -78 -70.5t-108 -23.5q-40 0 -74.5 10t-60.5 30l-39 -49l-34 27l42 53q-4 4 -5 7q-41 61 -39 176q0 40 5.5 76t19.5 64q26 55 77.5 84.5t119.5 29.5
zM260 399q-29 0 -52 -15t-35 -41q-9 -20 -12.5 -44t-4.5 -53q0 -24 1.5 -44t7.5 -37l162 206q-13 14 -30 21t-37 7zM357 255q0 42 -8 72l-161 -204q27 -27 67 -27q32 0 57 17.5t36 53.5q5 14 7 35t2 53z" />
    <glyph glyph-name="Thorn" unicode="&#xde;" horiz-adv-x="591" 
d="M581 352q0 -42 -16.5 -80t-46.5 -67t-72 -46.5t-93 -17.5h-159v-141h-121l-1 695h122v-125h145q49 0 93 -14t77 -41t52.5 -68t19.5 -95zM458 355q0 54 -31.5 79.5t-83.5 25.5h-149v-209h153q26 0 46.5 8.5t35 23t22 33t7.5 39.5z" />
    <glyph glyph-name="Eth" unicode="&#xd0;" horiz-adv-x="638" 
d="M6 391h67v305h253q78 0 141 -30t96 -99q19 -38 23 -90t4 -117q0 -73 -4 -127t-21 -95q-17 -39 -43.5 -65.5t-59.5 -42.5t-72 -23t-81 -7h-236v306h-67v85zM194 391h97v-85h-97v-196h119q44 0 74 12.5t48 35t26 54.5t8 71v130q0 93 -41 133t-117 40h-117v-195z" />
    <glyph glyph-name="Oslash" unicode="&#xd8;" horiz-adv-x="610" 
d="M304 701q51 0 94 -15t75 -41l41 57l47 -34l-47 -66q24 -34 37 -75.5t13 -89.5v-178q0 -61 -18.5 -110t-52.5 -83.5t-82 -53t-107 -18.5q-57 0 -101.5 16.5t-76.5 45.5l-42 -60l-45 33l50 71q-23 34 -33.5 74t-10.5 85v178q0 52 16 100t48 84.5t81 58t114 21.5zM441 443
q0 26 -7 47l-236 -334q17 -22 43 -35.5t63 -13.5q32 0 57.5 11.5t43 31.5t27 47t9.5 59v187zM304 587q-35 0 -60.5 -12t-42.5 -32.5t-25.5 -46.5t-8.5 -53v-187q0 -23 4 -40l232 330q-17 19 -42 30t-57 11z" />
    <glyph glyph-name="Acute" unicode="&#xf6c9;" horiz-adv-x="598" 
d="M235 791l165 125l74 -84l-192 -97z" />
    <glyph glyph-name="Caron" unicode="&#xf6ca;" horiz-adv-x="598" 
d="M444 908l41 -49l-147 -124h-76l-150 125l39 48l147 -82z" />
    <glyph glyph-name="DieresisAcute" unicode="&#xf6cc;" horiz-adv-x="472" 
d="M347 763v110h118v-110h-118zM13 763v110h117v-110h-117zM147 764l99 179l102 -44l-137 -166z" />
    <glyph glyph-name="DieresisGrave" unicode="&#xf6cd;" horiz-adv-x="472" 
d="M343 761v110h118v-110h-118zM9 761v110h117v-110h-117zM264 732l-137 166l102 44l99 -180z" />
    <glyph glyph-name="Grave" unicode="&#xf6ce;" horiz-adv-x="598" 
d="M314 735l-192 97l74 84l165 -125z" />
    <glyph glyph-name="Hungarumlaut" unicode="&#xf6cf;" horiz-adv-x="611" 
d="M131 782l154 137l82 -78l-185 -111zM318 782l154 137l82 -78l-185 -111z" />
    <glyph glyph-name="Macron" unicode="&#xf6d0;" horiz-adv-x="591" 
d="M154 769v97h301v-97h-301z" />
    <glyph glyph-name="cyrBreve" unicode="&#xf6d1;" horiz-adv-x="629" 
d="M314 731q-42 0 -70 14.5t-45.5 36.5t-25.5 47.5t-9 46.5h87q0 -10 4.5 -21.5t12.5 -21t19.5 -16t26.5 -6.5q16 0 28 6.5t20 16t12 21t4 21.5h86q-2 -21 -10 -46.5t-25 -47.5t-45 -36.5t-70 -14.5z" />
    <glyph glyph-name="cyrbreve" unicode="&#xf6d4;" horiz-adv-x="514" 
d="M272 570q-42 0 -70.5 15t-46 37t-25.5 47.5t-9 46.5h87q0 -10 4.5 -21.5t12.5 -21.5t20 -16.5t27 -6.5q16 0 27.5 6.5t19.5 16.5t12 21.5t4 21.5h86q-2 -21 -10 -46.5t-25 -47.5t-44.5 -37t-69.5 -15z" />
    <glyph glyph-name="macron" unicode="&#xaf;" horiz-adv-x="504" 
d="M109 589v97h301v-97h-301z" />
    <glyph glyph-name="ring" unicode="&#x2da;" horiz-adv-x="504" 
d="M323 643q0 20 -13.5 33t-33.5 13t-34 -13t-14 -33q0 -19 14 -32.5t34 -13.5t33.5 13.5t13.5 32.5zM164 643q0 22 9 42t24 34.5t35.5 23t43.5 8.5t43 -8.5t35 -23t24 -34.5t9 -42t-9 -41.5t-24 -34t-35 -23t-43 -8.5t-43.5 8.5t-35.5 23t-24 34t-9 41.5z" />
    <glyph glyph-name="dotaccent" unicode="&#x2d9;" horiz-adv-x="414" 
d="M150 583v109h118v-109h-118z" />
    <glyph glyph-name="ogonek" unicode="&#x2db;" horiz-adv-x="288" 
d="M57 -98q0 21 9.5 44.5t32.5 56.5h73l2 -3q-20 -28 -29 -47.5t-9 -35.5q0 -35 40 -35q11 0 26 3t35 11l23 -60q-20 -12 -45.5 -19.5t-51.5 -7.5q-47 0 -76.5 27.5t-29.5 65.5z" />
    <glyph glyph-name="hungarumlaut" unicode="&#x2dd;" horiz-adv-x="570" 
d="M151 569l79 190l107 -34l-118 -181zM310 569l78 190l107 -34l-117 -181z" />
    <glyph glyph-name="commaaccent" unicode="&#xf6c3;" horiz-adv-x="592" 
d="M234 -285l37 98h-34v131h129v-126l-73 -103h-59z" />
    <glyph glyph-name="Acircumflex" unicode="&#xc2;" horiz-adv-x="629" 
d="M498 0l-55 154h-258l-56 -154h-127l263 696h98l263 -696h-128zM361 398l-46 143h-3l-45 -140l-47 -144h187zM313 815l-147 -82l-38 48l149 124h76l147 -123l-40 -49z" />
    <glyph glyph-name="Atilde" unicode="&#xc3;" horiz-adv-x="629" 
d="M498 0l-55 154h-258l-56 -154h-127l263 696h98l263 -696h-128zM361 398l-46 143h-3l-45 -140l-47 -144h187zM243 875q19 0 37.5 -7.5t35.5 -16.5l32.5 -16.5t27.5 -7.5q17 0 32 11t32 36l60 -35q-24 -52 -52 -75.5t-62 -23.5q-19 0 -37.5 7t-36 16t-34 16t-30.5 7
q-17 0 -33 -9.5t-36 -35.5l-57 33q23 48 53 74.5t68 26.5z" />
    <glyph glyph-name="Aring" unicode="&#xc5;" horiz-adv-x="629" 
d="M498 0l-55 154h-258l-56 -154h-127l263 696h98l263 -696h-128zM361 398l-46 143h-3l-45 -140l-47 -144h187zM361 821q0 20 -13.5 33t-33.5 13t-34 -13t-14 -33q0 -19 14 -32.5t34 -13.5t33.5 13.5t13.5 32.5zM202 821q0 22 9 42t24 34.5t35.5 23t43.5 8.5t43 -8.5t35 -23
t24 -34.5t9 -42t-9 -41.5t-24 -34t-35 -23t-43 -8.5t-43.5 8.5t-35.5 23t-24 34t-9 41.5z" />
    <glyph glyph-name="Circumflex" unicode="&#xf6c0;" horiz-adv-x="600" 
d="M299 815l-147 -82l-38 48l149 124h76l147 -123l-40 -49z" />
    <glyph glyph-name="Ograve" unicode="&#xd2;" horiz-adv-x="610" 
d="M304 701q60 0 108 -20t82 -55t52 -83.5t18 -105.5v-178q0 -61 -18.5 -110t-52.5 -83.5t-82 -53t-107 -18.5q-65 0 -114 21.5t-81 58t-48 84.5t-16 101v178q0 52 16 100t48 84.5t81 58t114 21.5zM304 587q-35 0 -60.5 -12t-42.5 -32.5t-25.5 -46.5t-8.5 -53v-187
q0 -29 8.5 -55.5t25.5 -47.5t42.5 -33.5t60.5 -12.5q32 0 57.5 11.5t43 31.5t27 47t9.5 59v187q0 30 -9.5 56t-27 45.5t-43 31t-57.5 11.5zM333 735l-192 97l74 84l165 -125z" />
    <glyph glyph-name="Ocircumflex" unicode="&#xd4;" horiz-adv-x="610" 
d="M304 701q60 0 108 -20t82 -55t52 -83.5t18 -105.5v-178q0 -61 -18.5 -110t-52.5 -83.5t-82 -53t-107 -18.5q-65 0 -114 21.5t-81 58t-48 84.5t-16 101v178q0 52 16 100t48 84.5t81 58t114 21.5zM304 587q-35 0 -60.5 -12t-42.5 -32.5t-25.5 -46.5t-8.5 -53v-187
q0 -29 8.5 -55.5t25.5 -47.5t42.5 -33.5t60.5 -12.5q32 0 57.5 11.5t43 31.5t27 47t9.5 59v187q0 30 -9.5 56t-27 45.5t-43 31t-57.5 11.5zM304 815l-147 -82l-38 48l149 124h76l147 -123l-40 -49z" />
    <glyph glyph-name="Otilde" unicode="&#xd5;" horiz-adv-x="610" 
d="M304 701q60 0 108 -20t82 -55t52 -83.5t18 -105.5v-178q0 -61 -18.5 -110t-52.5 -83.5t-82 -53t-107 -18.5q-65 0 -114 21.5t-81 58t-48 84.5t-16 101v178q0 52 16 100t48 84.5t81 58t114 21.5zM304 587q-35 0 -60.5 -12t-42.5 -32.5t-25.5 -46.5t-8.5 -53v-187
q0 -29 8.5 -55.5t25.5 -47.5t42.5 -33.5t60.5 -12.5q32 0 57.5 11.5t43 31.5t27 47t9.5 59v187q0 30 -9.5 56t-27 45.5t-43 31t-57.5 11.5zM239 875q19 0 37.5 -7.5t35.5 -16.5l32.5 -16.5t27.5 -7.5q17 0 32 11t32 36l60 -35q-24 -52 -52 -75.5t-62 -23.5q-19 0 -37.5 7
t-36 16t-34 16t-30.5 7q-17 0 -33 -9.5t-36 -35.5l-57 33q23 48 53 74.5t68 26.5z" />
    <glyph glyph-name="Ugrave" unicode="&#xd9;" horiz-adv-x="638" 
d="M579 247q0 -57 -19.5 -103.5t-54 -79.5t-82.5 -51t-104 -18q-59 0 -107 19.5t-82 54t-52 81.5t-18 102v444h120v-435q0 -32 9.5 -60t27.5 -48.5t44 -32.5t59 -12q62 0 99.5 38t37.5 110v440h122v-449zM328 735l-192 97l74 84l165 -125z" />
    <glyph glyph-name="Uacute" unicode="&#xda;" horiz-adv-x="638" 
d="M579 247q0 -57 -19.5 -103.5t-54 -79.5t-82.5 -51t-104 -18q-59 0 -107 19.5t-82 54t-52 81.5t-18 102v444h120v-435q0 -32 9.5 -60t27.5 -48.5t44 -32.5t59 -12q62 0 99.5 38t37.5 110v440h122v-449zM244 791l165 125l74 -84l-192 -97z" />
    <glyph glyph-name="Ucircumflex" unicode="&#xdb;" horiz-adv-x="638" 
d="M579 247q0 -57 -19.5 -103.5t-54 -79.5t-82.5 -51t-104 -18q-59 0 -107 19.5t-82 54t-52 81.5t-18 102v444h120v-435q0 -32 9.5 -60t27.5 -48.5t44 -32.5t59 -12q62 0 99.5 38t37.5 110v440h122v-449zM318 815l-147 -82l-38 48l149 124h76l147 -123l-40 -49z" />
    <glyph glyph-name="Yacute" unicode="&#xdd;" horiz-adv-x="557" 
d="M553 696l-108 -205l-109 -205v-286h-115v286l-108.5 205l-108.5 205h129l84 -172l31 -66.5l30 -67.5h2l62 137l83 169h128zM211 791l165 125l74 -84l-192 -97z" />
    <glyph glyph-name="aacute" unicode="&#xe1;" horiz-adv-x="499" 
d="M245 500q42 0 79 -7.5t65 -26.5t44.5 -50.5t16.5 -79.5v-336h-113v44l-2 1q-20 -26 -55.5 -38t-73.5 -12q-79 0 -125 38.5t-46 110.5q0 30 11 57t32 47.5t52.5 32.5t72.5 12h134v36q0 14 -4.5 27t-15.5 22.5t-30 15.5t-48 6q-41 0 -69 -10.5t-49 -30.5l-60 76
q36 36 84 50.5t100 14.5zM142 152q0 -11 4.5 -22t15 -19.5t27 -14t41.5 -5.5q19 0 37 3.5t32.5 11.5t24.5 21t12 33q1 6 1 15v32h-115q-43 0 -61.5 -16t-18.5 -39zM213 569l79 190l107 -34l-118 -181z" />
    <glyph glyph-name="atilde" unicode="&#xe3;" horiz-adv-x="499" 
d="M245 500q42 0 79 -7.5t65 -26.5t44.5 -50.5t16.5 -79.5v-336h-113v44l-2 1q-20 -26 -55.5 -38t-73.5 -12q-79 0 -125 38.5t-46 110.5q0 30 11 57t32 47.5t52.5 32.5t72.5 12h134v36q0 14 -4.5 27t-15.5 22.5t-30 15.5t-48 6q-41 0 -69 -10.5t-49 -30.5l-60 76
q36 36 84 50.5t100 14.5zM187 705q19 0 37.5 -7.5t35.5 -16.5l32.5 -16.5t27.5 -7.5q17 0 32 11t32 36l60 -35q-24 -52 -52 -75.5t-62 -23.5q-19 0 -37.5 7t-36 16t-34 16t-30.5 7q-17 0 -33 -9.5t-36 -35.5l-57 33q23 48 53 74.5t68 26.5zM142 152q0 -11 4.5 -22t15 -19.5
t27 -14t41.5 -5.5q19 0 37 3.5t32.5 11.5t24.5 21t12 33q1 6 1 15v32h-115q-43 0 -61.5 -16t-18.5 -39z" />
    <glyph glyph-name="ntilde" unicode="&#xf1;" horiz-adv-x="529" 
d="M357 0v294q0 48 -21.5 74t-69.5 26q-41 0 -68 -26t-27 -74v-294h-113v496h113v-52h2q24 27 59.5 41.5t69.5 14.5q76 0 122 -43.5t46 -131.5v-325h-113zM183 705q19 0 37.5 -7.5t35.5 -16.5l32.5 -16.5t27.5 -7.5q17 0 32 11t32 36l60 -35q-24 -52 -52 -75.5t-62 -23.5
q-19 0 -37.5 7t-36 16t-34 16t-30.5 7q-17 0 -33 -9.5t-36 -35.5l-57 33q23 48 53 74.5t68 26.5z" />
    <glyph glyph-name="ograve" unicode="&#xf2;" horiz-adv-x="515" 
d="M264 501q56 0 100.5 -21.5t71.5 -61.5q19 -29 28 -70.5t8 -92.5q0 -57 -8.5 -97.5t-25.5 -70.5q-29 -47 -78 -70.5t-108 -23.5q-56 0 -100 19t-71 59q-41 61 -39 176q0 40 5.5 76t19.5 64q26 55 77.5 84.5t119.5 29.5zM260 399q-29 0 -52 -15t-35 -41q-9 -20 -12.5 -44
t-4.5 -53q0 -29 3 -53t12 -42q11 -26 33 -40.5t51 -14.5q32 0 57 17.5t36 53.5q5 14 7 35t2 53q0 58 -13 87q-11 29 -33.5 43t-50.5 14zM255 544l-123 179l108 36l82 -186z" />
    <glyph glyph-name="oacute" unicode="&#xf3;" horiz-adv-x="515" 
d="M264 501q56 0 100.5 -21.5t71.5 -61.5q19 -29 28 -70.5t8 -92.5q0 -57 -8.5 -97.5t-25.5 -70.5q-29 -47 -78 -70.5t-108 -23.5q-56 0 -100 19t-71 59q-41 61 -39 176q0 40 5.5 76t19.5 64q26 55 77.5 84.5t119.5 29.5zM260 399q-29 0 -52 -15t-35 -41q-9 -20 -12.5 -44
t-4.5 -53q0 -29 3 -53t12 -42q11 -26 33 -40.5t51 -14.5q32 0 57 17.5t36 53.5q5 14 7 35t2 53q0 58 -13 87q-11 29 -33.5 43t-50.5 14zM217 569l79 190l107 -34l-118 -181z" />
    <glyph glyph-name="uacute" unicode="&#xfa;" horiz-adv-x="533" 
d="M171 495v-295q0 -51 21 -76t71 -25q40 0 67.5 26.5t27.5 74.5v295h113v-495h-113v49h-3q-23 -28 -58 -41.5t-68 -13.5q-77 0 -123.5 43t-46.5 133v325h112zM215 569l79 190l107 -34l-118 -181z" />
    <glyph glyph-name="yacute" unicode="&#xfd;" horiz-adv-x="470" 
d="M252 -100q-21 -57 -60 -78.5t-84 -21.5h-42v95h31q22 0 37 15.5t23 36.5l25 78l-182 470h122l64 -182l49 -156h4l49 154l63 184h119zM196 569l79 190l107 -34l-118 -181z" />
    <glyph glyph-name="ydieresis" unicode="&#xff;" horiz-adv-x="470" 
d="M252 -100q-21 -57 -60 -78.5t-84 -21.5h-42v95h31q22 0 37 15.5t23 36.5l25 78l-182 470h122l64 -182l49 -156h4l49 154l63 184h119zM277 583v109h118v-109h-118zM77 583v109h119v-109h-119z" />
    <glyph glyph-name="aring" unicode="&#xe5;" horiz-adv-x="499" 
d="M245 500q42 0 79 -7.5t65 -26.5t44.5 -50.5t16.5 -79.5v-336h-113v44l-2 1q-20 -26 -55.5 -38t-73.5 -12q-79 0 -125 38.5t-46 110.5q0 30 11 57t32 47.5t52.5 32.5t72.5 12h134v36q0 14 -4.5 27t-15.5 22.5t-30 15.5t-48 6q-41 0 -69 -10.5t-49 -30.5l-60 76
q36 36 84 50.5t100 14.5zM149 643q0 22 9 42t24 34.5t35.5 23t43.5 8.5t43 -8.5t35 -23t24 -34.5t9 -42t-9 -41.5t-24 -34t-35 -23t-43 -8.5t-43.5 8.5t-35.5 23t-24 34t-9 41.5zM142 152q0 -11 4.5 -22t15 -19.5t27 -14t41.5 -5.5q19 0 37 3.5t32.5 11.5t24.5 21t12 33
q1 6 1 15v32h-115q-43 0 -61.5 -16t-18.5 -39zM308 643q0 20 -13.5 33t-33.5 13t-34 -13t-14 -33q0 -19 14 -32.5t34 -13.5t33.5 13.5t13.5 32.5z" />
    <glyph glyph-name="thorn" unicode="&#xfe;" horiz-adv-x="524" 
d="M172 712v-261l3 -1q25 28 54.5 39t61.5 11q59 0 95 -24t56 -61t26.5 -82.5t6.5 -88.5t-8 -87.5t-29.5 -80.5t-59 -59t-97.5 -23t-107 47h-2v-241h-112v912h112zM172 246q0 -23 3 -49t12.5 -47.5t28 -35.5t49.5 -14t49.5 13.5t28.5 34.5t12.5 47t2.5 51q0 24 -2.5 50
t-12 48t-28 36t-50.5 14t-50.5 -14.5t-28 -36.5t-12 -48t-2.5 -49z" />
    <glyph glyph-name="OE" unicode="&#x152;" horiz-adv-x="847" 
d="M362 0q-30 -6 -63 -6q-75 0 -125 20t-79.5 54t-41.5 79.5t-12 96.5v193q0 52 16 100t48 84.5t80.5 58t113.5 21.5q15 0 28.5 -1.5t27.5 -3.5h466v-110h-345v-183h294v-105h-294v-189h345v-109h-459zM299 107q31 0 56 11v458q-27 11 -56 11q-40 0 -66.5 -15t-42 -39
t-22 -54t-6.5 -60v-163q0 -72 34 -110.5t103 -38.5z" />
    <glyph glyph-name="Ydieresis" unicode="&#x178;" horiz-adv-x="557" 
d="M553 696l-108 -205l-109 -205v-286h-115v286l-108.5 205l-108.5 205h129l84 -172l31 -66.5l30 -67.5h2l62 137l83 169h128zM121 757v111h121v-111h-121zM319 757v111h120v-111h-120z" />
    <glyph glyph-name="Amacron" unicode="&#x100;" horiz-adv-x="629" 
d="M498 0l-55 154h-258l-56 -154h-127l263 696h98l263 -696h-128zM361 398l-46 143h-3l-45 -140l-47 -144h187zM164 769v97h301v-97h-301z" />
    <glyph glyph-name="amacron" unicode="&#x101;" horiz-adv-x="499" 
d="M245 500q42 0 79 -7.5t65 -26.5t44.5 -50.5t16.5 -79.5v-336h-113v44l-2 1q-20 -26 -55.5 -38t-73.5 -12q-79 0 -125 38.5t-46 110.5q0 30 11 57t32 47.5t52.5 32.5t72.5 12h134v36q0 14 -4.5 27t-15.5 22.5t-30 15.5t-48 6q-41 0 -69 -10.5t-49 -30.5l-60 76
q36 36 84 50.5t100 14.5zM104 589v97h301v-97h-301zM142 152q0 -11 4.5 -22t15 -19.5t27 -14t41.5 -5.5q19 0 37 3.5t32.5 11.5t24.5 21t12 33q1 6 1 15v32h-115q-43 0 -61.5 -16t-18.5 -39z" />
    <glyph glyph-name="Abreve" unicode="&#x102;" horiz-adv-x="629" 
d="M498 0l-55 154h-258l-56 -154h-127l263 696h98l263 -696h-128zM361 398l-46 143h-3l-45 -140l-47 -144h187zM314 731q-42 0 -70 14.5t-45.5 36.5t-25.5 47.5t-9 46.5h87q0 -10 4.5 -21.5t12.5 -21t19.5 -16t26.5 -6.5q16 0 28 6.5t20 16t12 21t4 21.5h86
q-2 -21 -10 -46.5t-25 -47.5t-45 -36.5t-70 -14.5z" />
    <glyph glyph-name="abreve" unicode="&#x103;" horiz-adv-x="499" 
d="M245 500q42 0 79 -7.5t65 -26.5t44.5 -50.5t16.5 -79.5v-336h-113v44l-2 1q-20 -26 -55.5 -38t-73.5 -12q-79 0 -125 38.5t-46 110.5q0 30 11 57t32 47.5t52.5 32.5t72.5 12h134v36q0 14 -4.5 27t-15.5 22.5t-30 15.5t-48 6q-41 0 -69 -10.5t-49 -30.5l-60 76
q36 36 84 50.5t100 14.5zM263 564q-42 0 -70 15t-45.5 37t-25.5 47.5t-9 46.5h87q0 -10 4.5 -21.5t12.5 -21.5t19.5 -16.5t26.5 -6.5q16 0 28 6.5t20 16.5t12 21.5t4 21.5h86q-2 -21 -10 -46.5t-25 -47.5t-45 -37t-70 -15zM142 152q0 -11 4.5 -22t15 -19.5t27 -14t41.5 -5.5
q19 0 37 3.5t32.5 11.5t24.5 21t12 33q1 6 1 15v32h-115q-43 0 -61.5 -16t-18.5 -39z" />
    <glyph glyph-name="Aogonek" unicode="&#x104;" horiz-adv-x="629" 
d="M457 -98q0 21 8.5 44t31.5 55l-54 153h-258l-56 -154h-127l263 696h98l263 -696h-52q-20 -28 -29 -47.5t-9 -35.5q0 -35 40 -35q11 0 26 3t35 11l23 -60q-20 -12 -45.5 -19.5t-51.5 -7.5q-47 0 -76.5 27.5t-29.5 65.5zM361 398l-46 143h-3l-45 -140l-47 -144h187z" />
    <glyph glyph-name="aogonek" unicode="&#x105;" horiz-adv-x="499" 
d="M297 -98q0 21 8.5 43.5t31.5 54.5v44l-2 1q-20 -26 -55.5 -38t-73.5 -12q-79 0 -125 38.5t-46 110.5q0 30 11 57t32 47.5t52.5 32.5t72.5 12h134v36q0 14 -4.5 27t-15.5 22.5t-30 15.5t-48 6q-41 0 -69 -10.5t-49 -30.5l-60 76q36 36 84 50.5t100 14.5q42 0 79 -7.5
t65 -26.5t44.5 -50.5t16.5 -79.5v-336h-36q-20 -28 -29 -47.5t-9 -35.5q0 -35 40 -35q11 0 26 3t35 11l23 -60q-20 -12 -45.5 -19.5t-51.5 -7.5q-47 0 -76.5 27.5t-29.5 65.5zM142 152q0 -11 4.5 -22t15 -19.5t27 -14t41.5 -5.5q19 0 37 3.5t32.5 11.5t24.5 21t12 33
q1 6 1 15v32h-115q-43 0 -61.5 -16t-18.5 -39z" />
    <glyph glyph-name="Cacute" unicode="&#x106;" horiz-adv-x="572" 
d="M551 156q-26 -76 -89.5 -119t-154.5 -43q-65 0 -114 20.5t-81 56t-48 84t-16 104.5v178q0 52 16 100t48 84.5t81 58t114 21.5q92 0 154.5 -44.5t88.5 -117.5l-114 -45q-13 41 -45.5 66.5t-83.5 25.5q-35 0 -60.5 -12t-42.5 -32.5t-25.5 -46.5t-8.5 -53v-185
q0 -29 8.5 -55.5t25.5 -47.5t42.5 -33.5t60.5 -12.5q50 0 83 26.5t46 69.5zM206 791l165 125l74 -84l-192 -97z" />
    <glyph glyph-name="cacute" unicode="&#x107;" horiz-adv-x="447" 
d="M430 67q-36 -35 -80 -54t-95 -19q-45 0 -86 14.5t-72.5 45t-50 78.5t-18.5 115t19.5 115t51.5 79t74 45t86 14q99 0 169 -70l-73 -79q-44 46 -94 46q-57 0 -87 -36t-30 -114q0 -77 29.5 -113t86.5 -36q25 0 50 13t46 34zM188 569l79 190l107 -34l-118 -181z" />
    <glyph glyph-name="Ccircumflex" unicode="&#x108;" horiz-adv-x="572" 
d="M551 156q-26 -76 -89.5 -119t-154.5 -43q-65 0 -114 20.5t-81 56t-48 84t-16 104.5v178q0 52 16 100t48 84.5t81 58t114 21.5q92 0 154.5 -44.5t88.5 -117.5l-114 -45q-13 41 -45.5 66.5t-83.5 25.5q-35 0 -60.5 -12t-42.5 -32.5t-25.5 -46.5t-8.5 -53v-185
q0 -29 8.5 -55.5t25.5 -47.5t42.5 -33.5t60.5 -12.5q50 0 83 26.5t46 69.5zM304 815l-147 -82l-38 48l149 124h76l147 -123l-40 -49z" />
    <glyph glyph-name="ccircumflex" unicode="&#x109;" horiz-adv-x="447" 
d="M430 67q-36 -35 -80 -54t-95 -19q-45 0 -86 14.5t-72.5 45t-50 78.5t-18.5 115t19.5 115t51.5 79t74 45t86 14q99 0 169 -70l-73 -79q-44 46 -94 46q-57 0 -87 -36t-30 -114q0 -77 29.5 -113t86.5 -36q25 0 50 13t46 34zM248 642q-9 -6 -28.5 -21l-41 -31.5l-41.5 -31.5
t-29 -21l-46 43l149 154h78l146 -153l-48 -44z" />
    <glyph glyph-name="Cdotaccent" unicode="&#x10a;" horiz-adv-x="572" 
d="M551 156q-26 -76 -89.5 -119t-154.5 -43q-65 0 -114 20.5t-81 56t-48 84t-16 104.5v178q0 52 16 100t48 84.5t81 58t114 21.5q92 0 154.5 -44.5t88.5 -117.5l-114 -45q-13 41 -45.5 66.5t-83.5 25.5q-35 0 -60.5 -12t-42.5 -32.5t-25.5 -46.5t-8.5 -53v-185
q0 -29 8.5 -55.5t25.5 -47.5t42.5 -33.5t60.5 -12.5q50 0 83 26.5t46 69.5zM248 758v109h118v-109h-118z" />
    <glyph glyph-name="cdotaccent" unicode="&#x10b;" horiz-adv-x="447" 
d="M430 67q-36 -35 -80 -54t-95 -19q-45 0 -86 14.5t-72.5 45t-50 78.5t-18.5 115t19.5 115t51.5 79t74 45t86 14q99 0 169 -70l-73 -79q-44 46 -94 46q-57 0 -87 -36t-30 -114q0 -77 29.5 -113t86.5 -36q25 0 50 13t46 34zM192 583v109h118v-109h-118z" />
    <glyph glyph-name="Ccaron" unicode="&#x10c;" horiz-adv-x="572" 
d="M551 156q-26 -76 -89.5 -119t-154.5 -43q-65 0 -114 20.5t-81 56t-48 84t-16 104.5v178q0 52 16 100t48 84.5t81 58t114 21.5q92 0 154.5 -44.5t88.5 -117.5l-114 -45q-13 41 -45.5 66.5t-83.5 25.5q-35 0 -60.5 -12t-42.5 -32.5t-25.5 -46.5t-8.5 -53v-185
q0 -29 8.5 -55.5t25.5 -47.5t42.5 -33.5t60.5 -12.5q50 0 83 26.5t46 69.5zM449 908l41 -49l-147 -124h-76l-150 125l39 48l147 -82z" />
    <glyph glyph-name="ccaron" unicode="&#x10d;" horiz-adv-x="447" 
d="M430 67q-36 -35 -80 -54t-95 -19q-45 0 -86 14.5t-72.5 45t-50 78.5t-18.5 115t19.5 115t51.5 79t74 45t86 14q99 0 169 -70l-73 -79q-44 46 -94 46q-57 0 -87 -36t-30 -114q0 -77 29.5 -113t86.5 -36q25 0 50 13t46 34zM387 734l48 -44l-146 -153h-78l-149 154l46 43
q9 -6 29 -21l41.5 -31.5l41 -31.5t28.5 -21z" />
    <glyph glyph-name="Dcaron" unicode="&#x10e;" horiz-adv-x="638" 
d="M194 110h119q44 0 74 12.5t48 35t26 54.5t8 71v130q0 93 -41 133t-117 40h-117v-476zM326 696q78 0 141 -30t96 -99q19 -38 23 -90t4 -117q0 -73 -4 -127t-21 -95q-17 -39 -43.5 -65.5t-59.5 -42.5t-72 -23t-81 -7h-236v696h253zM418 908l41 -49l-147 -124h-76l-150 125
l39 48l147 -82z" />
    <glyph glyph-name="dcaron" unicode="&#x10f;" horiz-adv-x="645" 
d="M520 497l37 98h-34v131h129v-126l-73 -103h-59zM350 0v46l-2 2q-26 -29 -59 -41t-65 -12q-59 0 -94 23t-53 59.5t-23.5 82.5t-5.5 91q0 42 8 86.5t29 81t57.5 59.5t93.5 23q32 0 62.5 -12t49.5 -36l2 1v272h113v-726h-113zM350 248q0 23 -2.5 48.5t-12 47t-27.5 35.5
t-49 14q-33 0 -51.5 -14.5t-28.5 -36.5t-12.5 -49t-2.5 -52q0 -23 2.5 -48t12.5 -45.5t28 -33.5t50 -13q31 0 49.5 14.5t28.5 36.5t12.5 47.5t2.5 48.5z" />
    <glyph glyph-name="Dcroat" unicode="&#x110;" horiz-adv-x="638" 
d="M6 391h67v305h253q78 0 141 -30t96 -99q19 -38 23 -90t4 -117q0 -73 -4 -127t-21 -95q-17 -39 -43.5 -65.5t-59.5 -42.5t-72 -23t-81 -7h-236v306h-67v85zM194 391h97v-85h-97v-196h119q44 0 74 12.5t48 35t26 54.5t8 71v130q0 93 -41 133t-117 40h-117v-195z" />
    <glyph glyph-name="dcroat" unicode="&#x111;" horiz-adv-x="515" 
d="M227 628h123v98h113v-98h52v-73h-52v-555h-113v46l-2 2q-26 -29 -59 -41t-65 -12q-59 0 -94 23t-53 59.5t-23.5 82.5t-5.5 91q0 42 8 86.5t29 81t57.5 59.5t93.5 23q32 0 62.5 -12t49.5 -36l2 1v101h-123v73zM350 248q0 23 -2.5 48.5t-12 47t-27.5 35.5t-49 14
q-33 0 -51.5 -14.5t-28.5 -36.5t-12.5 -49t-2.5 -52q0 -23 2.5 -48t12.5 -45.5t28 -33.5t50 -13q31 0 49.5 14.5t28.5 36.5t12.5 47.5t2.5 48.5z" />
    <glyph glyph-name="Emacron" unicode="&#x112;" horiz-adv-x="564" 
d="M73 0v696h466v-110h-345v-182h294v-106h-294v-188h345v-110h-466zM154 769v97h301v-97h-301z" />
    <glyph glyph-name="emacron" unicode="&#x113;" horiz-adv-x="507" 
d="M154 215q0 -23 6 -44.5t19 -38t33 -26.5t47 -10q22 0 55.5 10.5t61.5 36.5q18 -20 33 -39.5t33 -39.5q-42 -38 -91 -54t-96 -16q-39 0 -78 11t-70 39.5t-50.5 77t-19.5 124.5q0 72 19.5 120.5t50.5 78.5t69.5 43t76.5 13q50 0 89.5 -17t67 -47.5t42 -74.5t14.5 -98v-49
h-312zM252 398q-39 0 -65 -27t-31 -76h190q-3 51 -29.5 77t-64.5 26zM114 589v97h301v-97h-301z" />
    <glyph glyph-name="Ebreve" unicode="&#x114;" horiz-adv-x="564" 
d="M73 0v696h466v-110h-345v-182h294v-106h-294v-188h345v-110h-466zM309 731q-42 0 -70 14.5t-45.5 36.5t-25.5 47.5t-9 46.5h87q0 -10 4.5 -21.5t12.5 -21t19.5 -16t26.5 -6.5q16 0 28 6.5t20 16t12 21t4 21.5h86q-2 -21 -10 -46.5t-25 -47.5t-45 -36.5t-70 -14.5z" />
    <glyph glyph-name="ebreve" unicode="&#x115;" horiz-adv-x="507" 
d="M154 215q0 -23 6 -44.5t19 -38t33 -26.5t47 -10q22 0 55.5 10.5t61.5 36.5q18 -20 33 -39.5t33 -39.5q-42 -38 -91 -54t-96 -16q-39 0 -78 11t-70 39.5t-50.5 77t-19.5 124.5q0 72 19.5 120.5t50.5 78.5t69.5 43t76.5 13q50 0 89.5 -17t67 -47.5t42 -74.5t14.5 -98v-49
h-312zM252 398q-39 0 -65 -27t-31 -76h190q-3 51 -29.5 77t-64.5 26zM258 564q-42 0 -70 15t-45.5 37t-25.5 47.5t-9 46.5h87q0 -10 4.5 -21.5t12.5 -21.5t19.5 -16.5t26.5 -6.5q16 0 28 6.5t20 16.5t12 21.5t4 21.5h86q-2 -21 -10 -46.5t-25 -47.5t-45 -37t-70 -15z" />
    <glyph glyph-name="Edotaccent" unicode="&#x116;" horiz-adv-x="564" 
d="M73 0v696h466v-110h-345v-182h294v-106h-294v-188h345v-110h-466zM245 758v109h118v-109h-118z" />
    <glyph glyph-name="edotaccent" unicode="&#x117;" horiz-adv-x="507" 
d="M154 215q0 -23 6 -44.5t19 -38t33 -26.5t47 -10q22 0 55.5 10.5t61.5 36.5q18 -20 33 -39.5t33 -39.5q-42 -38 -91 -54t-96 -16q-39 0 -78 11t-70 39.5t-50.5 77t-19.5 124.5q0 72 19.5 120.5t50.5 78.5t69.5 43t76.5 13q50 0 89.5 -17t67 -47.5t42 -74.5t14.5 -98v-49
h-312zM252 398q-39 0 -65 -27t-31 -76h190q-3 51 -29.5 77t-64.5 26zM200 583v109h118v-109h-118z" />
    <glyph glyph-name="Eogonek" unicode="&#x118;" horiz-adv-x="564" 
d="M422 -98q0 21 8.5 43.5t31.5 54.5h-389v696h466v-110h-345v-182h294v-106h-294v-188h345v-110q-20 -28 -29 -47.5t-9 -35.5q0 -35 40 -35q11 0 26 3t35 11l23 -60q-20 -12 -45.5 -19.5t-51.5 -7.5q-47 0 -76.5 27.5t-29.5 65.5z" />
    <glyph glyph-name="eogonek" unicode="&#x119;" horiz-adv-x="507" 
d="M277 -68q0 15 4 30.5t15 34.5q-21 -3 -41 -3q-39 0 -78 11t-70 39.5t-50.5 77t-19.5 124.5q0 72 19.5 120.5t50.5 78.5t69.5 43t76.5 13q50 0 89.5 -17t67 -47.5t42 -74.5t14.5 -98v-49h-312q0 -23 6 -44.5t19 -38t33 -26.5t47 -10q22 0 55.5 10.5t61.5 36.5
q18 -20 33 -39.5t33 -39.5q-12 -11 -24 -19.5t-25 -16.5q-20 -26 -28.5 -45.5t-8.5 -35.5q0 -35 40 -35q11 0 26 3t35 11l23 -60q-20 -12 -45.5 -19.5t-51.5 -7.5q-47 0 -76.5 27.5t-29.5 65.5zM252 398q-39 0 -65 -27t-31 -76h190q-3 51 -29.5 77t-64.5 26z" />
    <glyph glyph-name="Ecaron" unicode="&#x11a;" horiz-adv-x="564" 
d="M73 0v696h466v-110h-345v-182h294v-106h-294v-188h345v-110h-466zM447 908l41 -49l-147 -124h-76l-150 125l39 48l147 -82z" />
    <glyph glyph-name="ecaron" unicode="&#x11b;" horiz-adv-x="507" 
d="M154 215q0 -23 6 -44.5t19 -38t33 -26.5t47 -10q22 0 55.5 10.5t61.5 36.5q18 -20 33 -39.5t33 -39.5q-42 -38 -91 -54t-96 -16q-39 0 -78 11t-70 39.5t-50.5 77t-19.5 124.5q0 72 19.5 120.5t50.5 78.5t69.5 43t76.5 13q50 0 89.5 -17t67 -47.5t42 -74.5t14.5 -98v-49
h-312zM252 398q-39 0 -65 -27t-31 -76h190q-3 51 -29.5 77t-64.5 26zM396 734l48 -44l-146 -153h-78l-149 154l46 43q9 -6 29 -21l41.5 -31.5l41 -31.5t28.5 -21z" />
    <glyph glyph-name="Gcircumflex" unicode="&#x11c;" horiz-adv-x="618" 
d="M308 104q30 0 55.5 11.5t44 31t29.5 45.5t11 54v30h-145v104h265v-137q0 -54 -20 -99.5t-54.5 -79t-82.5 -52t-103 -18.5q-66 0 -114.5 20.5t-80.5 56t-47.5 84t-15.5 104.5v178q0 52 15.5 100t47 84.5t79.5 58t113 21.5q92 0 155 -44.5t89 -117.5l-114 -45
q-13 41 -46.5 66.5t-84.5 25.5q-35 0 -60 -12t-41 -32.5t-24 -46.5t-8 -53v-188q0 -28 8.5 -55t25.5 -48t42.5 -34t60.5 -13zM304 815l-147 -82l-38 48l149 124h76l147 -123l-40 -49z" />
    <glyph glyph-name="gcircumflex" unicode="&#x11d;" horiz-adv-x="522" 
d="M456 495v-475q0 -63 -16.5 -105.5t-45.5 -68.5t-69.5 -37.5t-89.5 -11.5q-18 0 -40 3t-45 10t-45.5 18.5t-41.5 28.5l59 83q25 -18 55.5 -29t66.5 -11q47 0 74.5 26t27.5 76v46h-2q-24 -28 -56 -40.5t-63 -12.5q-57 0 -93 22t-55.5 56.5t-26.5 77.5t-7 85q0 44 6 90.5
t25.5 85t56 63.5t97.5 25q32 0 63 -12t52 -38h2v45h111zM158 247q0 -27 2.5 -53t12 -47t28.5 -33.5t51 -12.5q31 0 49.5 14t28 35.5t12.5 47t3 49.5q0 21 -2 47t-11 48t-27.5 37t-51.5 15t-51.5 -14t-28.5 -35.5t-12.5 -47.5t-2.5 -50zM258 642q-9 -6 -28.5 -21l-41 -31.5
l-41.5 -31.5t-29 -21l-46 43l149 154h78l146 -153l-48 -44z" />
    <glyph glyph-name="Gbreve" unicode="&#x11e;" horiz-adv-x="618" 
d="M308 104q30 0 55.5 11.5t44 31t29.5 45.5t11 54v30h-145v104h265v-137q0 -54 -20 -99.5t-54.5 -79t-82.5 -52t-103 -18.5q-66 0 -114.5 20.5t-80.5 56t-47.5 84t-15.5 104.5v178q0 52 15.5 100t47 84.5t79.5 58t113 21.5q92 0 155 -44.5t89 -117.5l-114 -45
q-13 41 -46.5 66.5t-84.5 25.5q-35 0 -60 -12t-41 -32.5t-24 -46.5t-8 -53v-188q0 -28 8.5 -55t25.5 -48t42.5 -34t60.5 -13zM308 731q-42 0 -70 14.5t-45.5 36.5t-25.5 47.5t-9 46.5h87q0 -10 4.5 -21.5t12.5 -21t19.5 -16t26.5 -6.5q16 0 28 6.5t20 16t12 21t4 21.5h86
q-2 -21 -10 -46.5t-25 -47.5t-45 -36.5t-70 -14.5z" />
    <glyph glyph-name="gbreve" unicode="&#x11f;" horiz-adv-x="522" 
d="M456 495v-475q0 -63 -16.5 -105.5t-45.5 -68.5t-69.5 -37.5t-89.5 -11.5q-18 0 -40 3t-45 10t-45.5 18.5t-41.5 28.5l59 83q25 -18 55.5 -29t66.5 -11q47 0 74.5 26t27.5 76v46h-2q-24 -28 -56 -40.5t-63 -12.5q-57 0 -93 22t-55.5 56.5t-26.5 77.5t-7 85q0 44 6 90.5
t25.5 85t56 63.5t97.5 25q32 0 63 -12t52 -38h2v45h111zM158 247q0 -27 2.5 -53t12 -47t28.5 -33.5t51 -12.5q31 0 49.5 14t28 35.5t12.5 47t3 49.5q0 21 -2 47t-11 48t-27.5 37t-51.5 15t-51.5 -14t-28.5 -35.5t-12.5 -47.5t-2.5 -50zM268 564q-42 0 -70 15t-45.5 37
t-25.5 47.5t-9 46.5h87q0 -10 4.5 -21.5t12.5 -21.5t19.5 -16.5t26.5 -6.5q16 0 28 6.5t20 16.5t12 21.5t4 21.5h86q-2 -21 -10 -46.5t-25 -47.5t-45 -37t-70 -15z" />
    <glyph glyph-name="Gdotaccent" unicode="&#x120;" horiz-adv-x="618" 
d="M308 104q30 0 55.5 11.5t44 31t29.5 45.5t11 54v30h-145v104h265v-137q0 -54 -20 -99.5t-54.5 -79t-82.5 -52t-103 -18.5q-66 0 -114.5 20.5t-80.5 56t-47.5 84t-15.5 104.5v178q0 52 15.5 100t47 84.5t79.5 58t113 21.5q92 0 155 -44.5t89 -117.5l-114 -45
q-13 41 -46.5 66.5t-84.5 25.5q-35 0 -60 -12t-41 -32.5t-24 -46.5t-8 -53v-188q0 -28 8.5 -55t25.5 -48t42.5 -34t60.5 -13zM250 758v109h118v-109h-118z" />
    <glyph glyph-name="gdotaccent" unicode="&#x121;" horiz-adv-x="522" 
d="M456 495v-475q0 -63 -16.5 -105.5t-45.5 -68.5t-69.5 -37.5t-89.5 -11.5q-18 0 -40 3t-45 10t-45.5 18.5t-41.5 28.5l59 83q25 -18 55.5 -29t66.5 -11q47 0 74.5 26t27.5 76v46h-2q-24 -28 -56 -40.5t-63 -12.5q-57 0 -93 22t-55.5 56.5t-26.5 77.5t-7 85q0 44 6 90.5
t25.5 85t56 63.5t97.5 25q32 0 63 -12t52 -38h2v45h111zM158 247q0 -27 2.5 -53t12 -47t28.5 -33.5t51 -12.5q31 0 49.5 14t28 35.5t12.5 47t3 49.5q0 21 -2 47t-11 48t-27.5 37t-51.5 15t-51.5 -14t-28.5 -35.5t-12.5 -47.5t-2.5 -50zM213 583v109h118v-109h-118z" />
    <glyph glyph-name="Gcommaaccent" unicode="&#x122;" horiz-adv-x="618" 
d="M308 104q30 0 55.5 11.5t44 31t29.5 45.5t11 54v30h-145v104h265v-137q0 -54 -20 -99.5t-54.5 -79t-82.5 -52t-103 -18.5q-66 0 -114.5 20.5t-80.5 56t-47.5 84t-15.5 104.5v178q0 52 15.5 100t47 84.5t79.5 58t113 21.5q92 0 155 -44.5t89 -117.5l-114 -45
q-13 41 -46.5 66.5t-84.5 25.5q-35 0 -60 -12t-41 -32.5t-24 -46.5t-8 -53v-188q0 -28 8.5 -55t25.5 -48t42.5 -34t60.5 -13zM234 -285l37 98h-34v131h129v-126l-73 -103h-59z" />
    <glyph glyph-name="gcommaaccent" unicode="&#x123;" horiz-adv-x="522" 
d="M206 701l36.5 51.5l36.5 51.5h59q-10 -24 -19 -48.5l-18 -49.5h34v-131h-129v126zM456 495v-475q0 -63 -16.5 -105.5t-45.5 -68.5t-69.5 -37.5t-89.5 -11.5q-18 0 -40 3t-45 10t-45.5 18.5t-41.5 28.5l59 83q25 -18 55.5 -29t66.5 -11q47 0 74.5 26t27.5 76v46h-2
q-24 -28 -56 -40.5t-63 -12.5q-57 0 -93 22t-55.5 56.5t-26.5 77.5t-7 85q0 44 6 90.5t25.5 85t56 63.5t97.5 25q32 0 63 -12t52 -38h2v45h111zM158 247q0 -27 2.5 -53t12 -47t28.5 -33.5t51 -12.5q31 0 49.5 14t28 35.5t12.5 47t3 49.5q0 21 -2 47t-11 48t-27.5 37
t-51.5 15t-51.5 -14t-28.5 -35.5t-12.5 -47.5t-2.5 -50z" />
    <glyph glyph-name="Hcircumflex" unicode="&#x124;" horiz-adv-x="655" 
d="M462 0v298h-268v-298h-121v696h121v-292h268v292h120v-696h-120zM324 815l-147 -82l-38 48l149 124h76l147 -123l-40 -49z" />
    <glyph glyph-name="hcircumflex" unicode="&#x125;" horiz-adv-x="529" 
d="M357 0v294q0 48 -21.5 74t-67.5 26q-41 0 -69 -26t-28 -74v-294h-113v726h113v-279h3q23 25 58 39t69 14q35 0 66 -11t54 -33t36 -55t13 -76v-325h-113zM111 815l-147 -82l-38 48l149 124h76l147 -123l-40 -49z" />
    <glyph glyph-name="Hbar" unicode="&#x126;" horiz-adv-x="655" 
d="M462 0v298h-268v-298h-121v518h-50v77h50v101h121v-101h268v101h120v-101h51v-77h-51v-518h-120zM462 404v114h-268v-114h268z" />
    <glyph glyph-name="hbar" unicode="&#x127;" horiz-adv-x="551" 
d="M381 0v284q0 48 -21.5 73.5t-67.5 25.5q-42 0 -69.5 -28t-27.5 -76v-279h-113v561h-68v80h68v85h113v-85h199v-80h-199v-124l3 -1q23 25 59.5 39.5t73.5 14.5q35 0 65 -11t51.5 -33t34 -55t12.5 -76v-315h-113z" />
    <glyph glyph-name="Itilde" unicode="&#x128;" horiz-adv-x="268" 
d="M74 0v696h122v-696h-122zM63 875q19 0 37.5 -7.5t35.5 -16.5l32.5 -16.5t27.5 -7.5q17 0 32 11t32 36l60 -35q-24 -52 -52 -75.5t-62 -23.5q-19 0 -37.5 7t-36 16t-34 16t-30.5 7q-17 0 -33 -9.5t-36 -35.5l-57 33q23 48 53 74.5t68 26.5z" />
    <glyph glyph-name="itilde" unicode="&#x129;" horiz-adv-x="338" 
d="M109 0v495h115v-495h-115zM101 705q19 0 37.5 -7.5t35.5 -16.5l32.5 -16.5t27.5 -7.5q17 0 32 11t32 36l60 -35q-24 -52 -52 -75.5t-62 -23.5q-19 0 -37.5 7t-36 16t-34 16t-30.5 7q-17 0 -33 -9.5t-36 -35.5l-57 33q23 48 53 74.5t68 26.5z" />
    <glyph glyph-name="Imacron" unicode="&#x12a;" horiz-adv-x="268" 
d="M74 0v696h122v-696h-122zM-16 769v97h301v-97h-301z" />
    <glyph glyph-name="imacron" unicode="&#x12b;" horiz-adv-x="269" 
d="M78 0v495h115v-495h-115zM-17 589v97h301v-97h-301z" />
    <glyph glyph-name="Ibreve" unicode="&#x12c;" horiz-adv-x="268" 
d="M136 731q-42 0 -70 14.5t-45.5 36.5t-25.5 47.5t-9 46.5h87q0 -10 4.5 -21.5t12.5 -21t19.5 -16t26.5 -6.5q16 0 28 6.5t20 16t12 21t4 21.5h86q-2 -21 -10 -46.5t-25 -47.5t-45 -36.5t-70 -14.5zM74 0v696h122v-696h-122z" />
    <glyph glyph-name="ibreve" unicode="&#x12d;" horiz-adv-x="272" 
d="M81 0v495h115v-495h-115zM139 570q-42 0 -70 15t-45.5 37t-25.5 47.5t-9 46.5h87q0 -10 4.5 -21.5t12.5 -21.5t19.5 -16.5t26.5 -6.5q16 0 28 6.5t20 16.5t12 21.5t4 21.5h86q-2 -21 -10 -46.5t-25 -47.5t-45 -37t-70 -15z" />
    <glyph glyph-name="Iogonek" unicode="&#x12e;" horiz-adv-x="268" 
d="M49 -98q0 21 8.5 43.5t31.5 54.5h-15v696h122v-696h-30q-20 -28 -29 -47.5t-9 -35.5q0 -35 40 -35q11 0 26 3t35 11l23 -60q-20 -12 -45.5 -19.5t-51.5 -7.5q-47 0 -76.5 27.5t-29.5 65.5z" />
    <glyph glyph-name="iogonek" unicode="&#x12f;" horiz-adv-x="247" 
d="M40 -97q0 20 8.5 42.5t30.5 54.5h-12v495h113v-495h-24q-20 -27 -28.5 -46.5t-8.5 -35.5q0 -35 40 -35q11 0 26 3t35 11l23 -60q-20 -12 -45.5 -19.5t-51.5 -7.5q-47 0 -76.5 27.5t-29.5 65.5zM67 592v104h113v-104h-113z" />
    <glyph glyph-name="Idotaccent" unicode="&#x130;" horiz-adv-x="268" 
d="M74 0v696h122v-696h-122zM75 758v109h118v-109h-118z" />
    <glyph glyph-name="dotlessi" unicode="&#x131;" horiz-adv-x="235" 
d="M60 0v495h115v-495h-115z" />
    <glyph glyph-name="IJ" unicode="&#x132;" horiz-adv-x="732" 
d="M74 0v696h122v-696h-122zM667 224q0 -65 -19 -109t-50.5 -70.5t-73 -38t-86.5 -11.5q-57 0 -105 22t-85 64l86 79q22 -23 49 -38.5t52 -15.5q21 0 40.5 4.5t35.5 18t25.5 37.5t9.5 62v468h121v-472z" />
    <glyph glyph-name="ij" unicode="&#x133;" horiz-adv-x="486" 
d="M67 592v104h113v-104h-113zM67 0v495h113v-495h-113zM297 592v104h114v-104h-114zM411 -59q0 -64 -36.5 -103t-109.5 -39h-52v100h28q32 0 44 16.5t12 42.5v538h114v-555z" />
    <glyph glyph-name="Jcircumflex" unicode="&#x134;" horiz-adv-x="489" 
d="M424 225q0 -65 -19 -109t-50.5 -70.5t-73 -38t-86.5 -11.5q-57 0 -105 22t-85 64l86 79q22 -23 49 -38.5t52 -15.5q21 0 40.5 4.5t35.5 18t25.5 37.5t9.5 62v468h121v-472zM362 817l-147 -82l-38 48l149 124h76l147 -123l-40 -49z" />
    <glyph glyph-name="jcircumflex" unicode="&#x135;" horiz-adv-x="325" 
d="M220 -59q0 -32 -11.5 -58t-31.5 -45t-48.5 -29t-61.5 -10h-45v100h6h10.5h10.5h5q29 1 41 20.5t12 42.5v534h113v-555zM161 642q-9 -6 -29 -21l-41.5 -31.5l-41 -31.5t-28.5 -21l-46 43l148 154h79l145 -153l-48 -44z" />
    <glyph glyph-name="kcommaaccent" unicode="&#x137;" horiz-adv-x="520" 
d="M391 0l-72.5 111l-72.5 111l-35 -37.5t-35 -38.5v-146h-112v726h112v-435h3l96 110l86 94h138l-179 -193l101.5 -151.5l101.5 -150.5h-132zM208 -285l37 98h-34v131h129v-126l-73 -103h-59z" />
    <glyph glyph-name="kgreenlandic" unicode="&#x138;" horiz-adv-x="520" 
d="M389 0l-71.5 111l-71.5 111l-35 -37.5t-35 -38.5v-146h-112v495h112v-204h3l96 108l87 96h137l-179 -193l101.5 -151.5l101.5 -150.5h-134z" />
    <glyph glyph-name="Lacute" unicode="&#x139;" horiz-adv-x="564" 
d="M73 0v696h121v-586h345v-110h-466zM84 791l165 125l74 -84l-192 -97z" />
    <glyph glyph-name="lacute" unicode="&#x13a;" horiz-adv-x="265" 
d="M202 0q-29 0 -54 6t-44 21t-29.5 40.5t-10.5 63.5v595h113v-578q0 -28 12.5 -38t35.5 -10h20v-100h-43zM66 800l165 125l74 -84l-192 -97z" />
    <glyph glyph-name="Lcommaaccent" unicode="&#x13b;" horiz-adv-x="564" 
d="M73 0v696h121v-586h345v-110h-466zM246 -285l37 98h-34v131h129v-126l-73 -103h-59z" />
    <glyph glyph-name="lcommaaccent" unicode="&#x13c;" horiz-adv-x="265" 
d="M202 0q-29 0 -54 6t-44 21t-29.5 40.5t-10.5 63.5v595h113v-578q0 -28 12.5 -38t35.5 -10h20v-100h-43zM86 -283l37 98h-34v131h129v-126l-73 -103h-59z" />
    <glyph glyph-name="Lcaron" unicode="&#x13d;" horiz-adv-x="564" 
d="M73 0v696h121v-586h345v-110h-466zM325 467l37 98h-34v131h129v-126l-73 -103h-59z" />
    <glyph glyph-name="lcaron" unicode="&#x13e;" horiz-adv-x="374" 
d="M245 496l37 98h-34v131h129v-126l-73 -103h-59zM202 0q-29 0 -54 6t-44 21t-29.5 40.5t-10.5 63.5v595h113v-578q0 -28 12.5 -38t35.5 -10h20v-100h-43z" />
    <glyph glyph-name="Ldot" unicode="&#x13f;" horiz-adv-x="564" 
d="M73 0v696h121v-586h345v-110h-466zM322 307v109h118v-109h-118z" />
    <glyph glyph-name="ldot" unicode="&#x140;" horiz-adv-x="371" 
d="M252 324v109h118v-109h-118zM202 0q-29 0 -54 6t-44 21t-29.5 40.5t-10.5 63.5v595h113v-578q0 -28 12.5 -38t35.5 -10h20v-100h-43z" />
    <glyph glyph-name="Lslash" unicode="&#x141;" horiz-adv-x="596" 
d="M104 0v224l-66 -38l-42 73l108 63v374h121v-304l108 63l42 -73l-150 -87v-185h345v-110h-466z" />
    <glyph glyph-name="lslash" unicode="&#x142;" horiz-adv-x="343" 
d="M248 0q-29 0 -54 6t-44 21t-29.5 40.5t-10.5 63.5v143l-68 -39l-42 73l110 63v355h113v-290l79 46l41 -73l-120 -70v-191q0 -28 12.5 -38t35.5 -10h20v-100h-43z" />
    <glyph glyph-name="Nacute" unicode="&#x143;" horiz-adv-x="692" 
d="M509 0l-215 324l-97 159l-3 -1v-482h-121v696h112l195 -296l118 -188l2 2v482h121v-696h-112zM256 791l165 125l74 -84l-192 -97z" />
    <glyph glyph-name="nacute" unicode="&#x144;" horiz-adv-x="529" 
d="M357 0v294q0 48 -21.5 74t-69.5 26q-41 0 -68 -26t-27 -74v-294h-113v496h113v-52h2q24 27 59.5 41.5t69.5 14.5q76 0 122 -43.5t46 -131.5v-325h-113zM188 569l79 190l107 -34l-118 -181z" />
    <glyph glyph-name="Ncommaaccent" unicode="&#x145;" horiz-adv-x="692" 
d="M509 0l-215 324l-97 159l-3 -1v-482h-121v696h112l195 -296l118 -188l2 2v482h121v-696h-112zM279 -265l37 98h-34v131h129v-126l-73 -103h-59z" />
    <glyph glyph-name="ncommaaccent" unicode="&#x146;" horiz-adv-x="529" 
d="M357 0v294q0 48 -21.5 74t-69.5 26q-41 0 -68 -26t-27 -74v-294h-113v496h113v-52h2q24 27 59.5 41.5t69.5 14.5q76 0 122 -43.5t46 -131.5v-325h-113zM196 -285l37 98h-34v131h129v-126l-73 -103h-59z" />
    <glyph glyph-name="Ncaron" unicode="&#x147;" horiz-adv-x="692" 
d="M509 0l-215 324l-97 159l-3 -1v-482h-121v696h112l195 -296l118 -188l2 2v482h121v-696h-112zM490 908l41 -49l-147 -124h-76l-150 125l39 48l147 -82z" />
    <glyph glyph-name="ncaron" unicode="&#x148;" horiz-adv-x="529" 
d="M357 0v294q0 48 -21.5 74t-69.5 26q-41 0 -68 -26t-27 -74v-294h-113v496h113v-52h2q24 27 59.5 41.5t69.5 14.5q76 0 122 -43.5t46 -131.5v-325h-113zM396 734l48 -44l-146 -153h-78l-149 154l46 43q9 -6 29 -21l41.5 -31.5l41 -31.5t28.5 -21z" />
    <glyph glyph-name="napostrophe" unicode="&#x149;" horiz-adv-x="624" 
d="M452 0v294q0 48 -21.5 74t-69.5 26q-41 0 -68 -26t-27 -74v-294h-113v496h113v-52h2q24 27 59.5 41.5t69.5 14.5q76 0 122 -43.5t46 -131.5v-325h-113zM-6 442l37 98h-34v131h129v-126l-73 -103h-59z" />
    <glyph glyph-name="Eng" unicode="&#x14a;" horiz-adv-x="692" 
d="M621 -69q0 -55 -32 -85t-87 -30q-23 0 -48 5.5t-50 17.5l27 78q14 -4 24.5 -6t19.5 -2q17 0 25.5 9t8.5 31v52l-215 323l-97 159l-3 -1v-482h-121v696h112l195 -296l118 -188l2 2v482h121v-765z" />
    <glyph glyph-name="eng" unicode="&#x14b;" horiz-adv-x="529" 
d="M470 -69q0 -55 -32.5 -85t-86.5 -30q-23 0 -48 5.5t-50 17.5l26 78q29 -8 45 -8q17 0 25 9t8 31v345q0 48 -23.5 73.5t-68.5 25.5q-41 0 -67.5 -26t-26.5 -73v-294h-113v495h113v-50h3q24 27 57.5 41t67.5 14q37 0 68.5 -11.5t54 -33.5t35.5 -54.5t13 -74.5v-395v0z" />
    <glyph glyph-name="Omacron" unicode="&#x14c;" horiz-adv-x="610" 
d="M304 701q60 0 108 -20t82 -55t52 -83.5t18 -105.5v-178q0 -61 -18.5 -110t-52.5 -83.5t-82 -53t-107 -18.5q-65 0 -114 21.5t-81 58t-48 84.5t-16 101v178q0 52 16 100t48 84.5t81 58t114 21.5zM304 587q-35 0 -60.5 -12t-42.5 -32.5t-25.5 -46.5t-8.5 -53v-187
q0 -29 8.5 -55.5t25.5 -47.5t42.5 -33.5t60.5 -12.5q32 0 57.5 11.5t43 31.5t27 47t9.5 59v187q0 30 -9.5 56t-27 45.5t-43 31t-57.5 11.5zM159 769v97h301v-97h-301z" />
    <glyph glyph-name="omacron" unicode="&#x14d;" horiz-adv-x="515" 
d="M264 501q56 0 100.5 -21.5t71.5 -61.5q19 -29 28 -70.5t8 -92.5q0 -57 -8.5 -97.5t-25.5 -70.5q-29 -47 -78 -70.5t-108 -23.5q-56 0 -100 19t-71 59q-41 61 -39 176q0 40 5.5 76t19.5 64q26 55 77.5 84.5t119.5 29.5zM260 399q-29 0 -52 -15t-35 -41q-9 -20 -12.5 -44
t-4.5 -53q0 -29 3 -53t12 -42q11 -26 33 -40.5t51 -14.5q32 0 57 17.5t36 53.5q5 14 7 35t2 53q0 58 -13 87q-11 29 -33.5 43t-50.5 14zM110 589v97h301v-97h-301z" />
    <glyph glyph-name="Obreve" unicode="&#x14e;" horiz-adv-x="610" 
d="M304 701q60 0 108 -20t82 -55t52 -83.5t18 -105.5v-178q0 -61 -18.5 -110t-52.5 -83.5t-82 -53t-107 -18.5q-65 0 -114 21.5t-81 58t-48 84.5t-16 101v178q0 52 16 100t48 84.5t81 58t114 21.5zM304 587q-35 0 -60.5 -12t-42.5 -32.5t-25.5 -46.5t-8.5 -53v-187
q0 -29 8.5 -55.5t25.5 -47.5t42.5 -33.5t60.5 -12.5q32 0 57.5 11.5t43 31.5t27 47t9.5 59v187q0 30 -9.5 56t-27 45.5t-43 31t-57.5 11.5zM306 731q-42 0 -70 14.5t-45.5 36.5t-25.5 47.5t-9 46.5h87q0 -10 4.5 -21.5t12.5 -21t19.5 -16t26.5 -6.5q16 0 28 6.5t20 16t12 21
t4 21.5h86q-2 -21 -10 -46.5t-25 -47.5t-45 -36.5t-70 -14.5z" />
    <glyph glyph-name="obreve" unicode="&#x14f;" horiz-adv-x="515" 
d="M264 501q56 0 100.5 -21.5t71.5 -61.5q19 -29 28 -70.5t8 -92.5q0 -57 -8.5 -97.5t-25.5 -70.5q-29 -47 -78 -70.5t-108 -23.5q-56 0 -100 19t-71 59q-41 61 -39 176q0 40 5.5 76t19.5 64q26 55 77.5 84.5t119.5 29.5zM260 399q-29 0 -52 -15t-35 -41q-9 -20 -12.5 -44
t-4.5 -53q0 -29 3 -53t12 -42q11 -26 33 -40.5t51 -14.5q32 0 57 17.5t36 53.5q5 14 7 35t2 53q0 58 -13 87q-11 29 -33.5 43t-50.5 14zM260 564q-42 0 -70 15t-45.5 37t-25.5 47.5t-9 46.5h87q0 -10 4.5 -21.5t12.5 -21.5t19.5 -16.5t26.5 -6.5q16 0 28 6.5t20 16.5
t12 21.5t4 21.5h86q-2 -21 -10 -46.5t-25 -47.5t-45 -37t-70 -15z" />
    <glyph glyph-name="Ohungarumlaut" unicode="&#x150;" horiz-adv-x="610" 
d="M304 701q60 0 108 -20t82 -55t52 -83.5t18 -105.5v-178q0 -61 -18.5 -110t-52.5 -83.5t-82 -53t-107 -18.5q-65 0 -114 21.5t-81 58t-48 84.5t-16 101v178q0 52 16 100t48 84.5t81 58t114 21.5zM304 587q-35 0 -60.5 -12t-42.5 -32.5t-25.5 -46.5t-8.5 -53v-187
q0 -29 8.5 -55.5t25.5 -47.5t42.5 -33.5t60.5 -12.5q32 0 57.5 11.5t43 31.5t27 47t9.5 59v187q0 30 -9.5 56t-27 45.5t-43 31t-57.5 11.5zM141 782l154 137l82 -78l-185 -111zM328 782l154 137l82 -78l-185 -111z" />
    <glyph glyph-name="ohungarumlaut" unicode="&#x151;" horiz-adv-x="515" 
d="M264 501q56 0 100.5 -21.5t71.5 -61.5q19 -29 28 -70.5t8 -92.5q0 -57 -8.5 -97.5t-25.5 -70.5q-29 -47 -78 -70.5t-108 -23.5q-56 0 -100 19t-71 59q-41 61 -39 176q0 40 5.5 76t19.5 64q26 55 77.5 84.5t119.5 29.5zM260 399q-29 0 -52 -15t-35 -41q-9 -20 -12.5 -44
t-4.5 -53q0 -29 3 -53t12 -42q11 -26 33 -40.5t51 -14.5q32 0 57 17.5t36 53.5q5 14 7 35t2 53q0 58 -13 87q-11 29 -33.5 43t-50.5 14zM134 569l79 190l107 -34l-118 -181zM293 569l78 190l107 -34l-117 -181z" />
    <glyph glyph-name="Racute" unicode="&#x154;" horiz-adv-x="625" 
d="M444 0l-121 287h-129v-287h-121v696h296q44 0 83 -14t68 -39.5t45.5 -63t16.5 -83.5q0 -67 -36.5 -117t-102.5 -74l137 -305h-136zM458 496q0 49 -30 71t-78 22h-156v-194h152q49 0 80.5 26t31.5 75zM206 791l165 125l74 -84l-192 -97z" />
    <glyph glyph-name="racute" unicode="&#x155;" horiz-adv-x="388" 
d="M270 395q-41 0 -67 -25t-26 -73v-298h-113v496h111v-59h4q45 64 120 64q28 0 51 -6t43 -20l-42 -102q-21 13 -41 18t-40 5zM140 569l79 190l107 -34l-118 -181z" />
    <glyph glyph-name="Rcommaaccent" unicode="&#x156;" horiz-adv-x="625" 
d="M444 0l-121 287h-129v-287h-121v696h296q44 0 83 -14t68 -39.5t45.5 -63t16.5 -83.5q0 -67 -36.5 -117t-102.5 -74l137 -305h-136zM458 496q0 49 -30 71t-78 22h-156v-194h152q49 0 80.5 26t31.5 75zM249 -265l37 98h-34v131h129v-126l-73 -103h-59z" />
    <glyph glyph-name="rcommaaccent" unicode="&#x157;" horiz-adv-x="388" 
d="M270 395q-41 0 -67 -25t-26 -73v-298h-113v496h111v-59h4q45 64 120 64q28 0 51 -6t43 -20l-42 -102q-21 13 -41 18t-40 5zM55 -285l37 98h-34v131h129v-126l-73 -103h-59z" />
    <glyph glyph-name="Rcaron" unicode="&#x158;" horiz-adv-x="625" 
d="M444 0l-121 287h-129v-287h-121v696h296q44 0 83 -14t68 -39.5t45.5 -63t16.5 -83.5q0 -67 -36.5 -117t-102.5 -74l137 -305h-136zM458 496q0 49 -30 71t-78 22h-156v-194h152q49 0 80.5 26t31.5 75zM424 908l41 -49l-147 -124h-76l-150 125l39 48l147 -82z" />
    <glyph glyph-name="rcaron" unicode="&#x159;" horiz-adv-x="388" 
d="M270 395q-41 0 -67 -25t-26 -73v-298h-113v496h111v-59h4q45 64 120 64q28 0 51 -6t43 -20l-42 -102q-21 13 -41 18t-40 5zM335 734l48 -44l-146 -153h-78l-149 154l46 43q9 -6 29 -21l41.5 -31.5l41 -31.5t28.5 -21z" />
    <glyph glyph-name="Sacute" unicode="&#x15a;" horiz-adv-x="569" 
d="M458 537q-44 29 -89 40.5t-83 11.5q-64 0 -91 -25.5t-27 -62.5q0 -22 9.5 -36.5t30.5 -25t53 -18t77 -15.5q38 -7 75 -18.5t66 -34t46.5 -58t17.5 -89.5q0 -51 -21 -90.5t-57 -66.5t-83.5 -41t-100.5 -14q-69 0 -141.5 20.5t-134.5 75.5l73 94q45 -42 98 -59.5t111 -17.5
t93.5 24t35.5 71q0 42 -31.5 63.5t-95.5 31.5q-45 6 -88.5 16.5t-77.5 32t-54.5 57.5t-20.5 94q0 52 20 90.5t53 64t75.5 38t87.5 12.5q67 0 125.5 -15t108.5 -50zM213 791l165 125l74 -84l-192 -97z" />
    <glyph glyph-name="sacute" unicode="&#x15b;" horiz-adv-x="463" 
d="M433 151q0 -37 -16 -66t-43.5 -49.5t-64 -31t-78.5 -10.5q-55 0 -109.5 15t-105.5 60l61 81q35 -32 74.5 -45.5t84.5 -13.5q36 0 61 15t25 42q0 26 -21 38.5t-67 17.5q-33 4 -66.5 10t-60.5 21t-44 41t-17 69q0 38 15 67t40 48.5t58.5 29.5t71.5 10q57 0 103 -12.5
t87 -43.5l-54 -86q-35 23 -69.5 33t-64.5 10q-40 0 -60 -15.5t-20 -37.5q0 -25 28 -36t90 -18q30 -3 59.5 -11.5t52 -24.5t36.5 -42t14 -65zM188 569l79 190l107 -34l-118 -181z" />
    <glyph glyph-name="Scircumflex" unicode="&#x15c;" horiz-adv-x="569" 
d="M458 537q-44 29 -89 40.5t-83 11.5q-64 0 -91 -25.5t-27 -62.5q0 -22 9.5 -36.5t30.5 -25t53 -18t77 -15.5q38 -7 75 -18.5t66 -34t46.5 -58t17.5 -89.5q0 -51 -21 -90.5t-57 -66.5t-83.5 -41t-100.5 -14q-69 0 -141.5 20.5t-134.5 75.5l73 94q45 -42 98 -59.5t111 -17.5
t93.5 24t35.5 71q0 42 -31.5 63.5t-95.5 31.5q-45 6 -88.5 16.5t-77.5 32t-54.5 57.5t-20.5 94q0 52 20 90.5t53 64t75.5 38t87.5 12.5q67 0 125.5 -15t108.5 -50zM293 815l-147 -82l-38 48l149 124h76l147 -123l-40 -49z" />
    <glyph glyph-name="scircumflex" unicode="&#x15d;" horiz-adv-x="463" 
d="M433 151q0 -37 -16 -66t-43.5 -49.5t-64 -31t-78.5 -10.5q-55 0 -109.5 15t-105.5 60l61 81q35 -32 74.5 -45.5t84.5 -13.5q36 0 61 15t25 42q0 26 -21 38.5t-67 17.5q-33 4 -66.5 10t-60.5 21t-44 41t-17 69q0 38 15 67t40 48.5t58.5 29.5t71.5 10q57 0 103 -12.5
t87 -43.5l-54 -86q-35 23 -69.5 33t-64.5 10q-40 0 -60 -15.5t-20 -37.5q0 -25 28 -36t90 -18q30 -3 59.5 -11.5t52 -24.5t36.5 -42t14 -65zM243 642q-9 -6 -28.5 -21l-41 -31.5l-41.5 -31.5t-29 -21l-46 43l149 154h78l146 -153l-48 -44z" />
    <glyph glyph-name="Scedilla" unicode="&#x15e;" horiz-adv-x="569" 
d="M458 537q-44 29 -89 40.5t-83 11.5q-64 0 -91 -25.5t-27 -62.5q0 -22 9.5 -36.5t30.5 -25t53 -18t77 -15.5q38 -7 75 -18.5t66 -34t46.5 -58t17.5 -89.5q0 -48 -18.5 -85.5t-50.5 -64.5t-75 -42.5t-92 -18.5q-3 -8 -5.5 -16t-4.5 -16q27 -2 46 -11t30.5 -21.5t16.5 -27
t5 -27.5q0 -15 -7 -31t-21 -29t-35.5 -21t-50.5 -8q-26 0 -51.5 5.5t-48.5 18.5l21 52q23 -11 40 -13.5t32 -2.5q17 0 30.5 7t13.5 26q0 17 -12.5 24.5t-30.5 7.5q-7 0 -17 -2l-30 20l20 65q-62 4 -125.5 25t-117.5 70l73 94q45 -42 98 -59.5t111 -17.5t93.5 24t35.5 71
q0 42 -31.5 63.5t-95.5 31.5q-45 6 -88.5 16.5t-77.5 32t-54.5 57.5t-20.5 94q0 52 20 90.5t53 64t75.5 38t87.5 12.5q67 0 125.5 -15t108.5 -50z" />
    <glyph glyph-name="scedilla" unicode="&#x15f;" horiz-adv-x="463" 
d="M433 151q0 -34 -13 -61t-36 -47t-54 -32t-67 -15q-3 -8 -5.5 -16.5t-4.5 -16.5q27 -2 46 -11t30.5 -21.5t16.5 -27t5 -27.5q0 -15 -7 -31t-21 -29t-35.5 -21t-50.5 -8q-26 0 -51.5 5.5t-48.5 18.5l21 52q23 -11 40 -13.5t32 -2.5q17 0 30.5 7t13.5 26q0 17 -12.5 24.5
t-30.5 7.5q-7 0 -17 -2l-30 20l20 65q-48 2 -95.5 18t-92.5 56l61 81q35 -32 74.5 -45.5t84.5 -13.5q36 0 61 15t25 42q0 26 -21 38.5t-67 17.5q-33 4 -66.5 10t-60.5 21t-44 41t-17 69q0 38 15 67t40 48.5t58.5 29.5t71.5 10q57 0 103 -12.5t87 -43.5l-54 -86
q-35 23 -69.5 33t-64.5 10q-40 0 -60 -15.5t-20 -37.5q0 -25 28 -36t90 -18q30 -3 59.5 -11.5t52 -24.5t36.5 -42t14 -65z" />
    <glyph glyph-name="Tcommaaccent" unicode="&#x162;" horiz-adv-x="521" 
d="M319 588v-588h-121v588h-193v108h508v-108h-194zM193 -285l37 98h-34v131h129v-126l-73 -103h-59z" />
    <glyph glyph-name="tcommaaccent" unicode="&#x163;" horiz-adv-x="316" 
d="M217 0q-55 0 -91 32t-36 92v280h-57v92h58v129h110v-129h76v-92h-75v-249q0 -26 10 -41t36 -15h37v-99h-68zM95 -285l37 98h-34v131h129v-126l-73 -103h-59z" />
    <glyph glyph-name="Tcaron" unicode="&#x164;" horiz-adv-x="521" 
d="M319 588v-588h-121v588h-193v108h508v-108h-194zM404 908l41 -49l-147 -124h-76l-150 125l39 48l147 -82z" />
    <glyph glyph-name="tcaron" unicode="&#x165;" horiz-adv-x="385" 
d="M264 554l37 98h-34v131h129v-126l-73 -103h-59zM217 0q-55 0 -91 32t-36 92v280h-57v92h58v129h110v-129h76v-92h-75v-249q0 -26 10 -41t36 -15h37v-99h-68z" />
    <glyph glyph-name="Tbar" unicode="&#x166;" horiz-adv-x="521" 
d="M319 588v-185h153v-85h-153v-318h-121v318h-153v85h153v185h-193v108h508v-108h-194z" />
    <glyph glyph-name="tbar" unicode="&#x167;" horiz-adv-x="316" 
d="M217 0q-55 0 -91 32t-36 92v107h-55v80h55v93h-57v92h58v129h110v-129h76v-92h-75v-93h76v-80h-76v-76q0 -26 10 -41t36 -15h37v-99h-68z" />
    <glyph glyph-name="Utilde" unicode="&#x168;" horiz-adv-x="638" 
d="M579 247q0 -57 -19.5 -103.5t-54 -79.5t-82.5 -51t-104 -18q-59 0 -107 19.5t-82 54t-52 81.5t-18 102v444h120v-435q0 -32 9.5 -60t27.5 -48.5t44 -32.5t59 -12q62 0 99.5 38t37.5 110v440h122v-449zM251 875q19 0 37.5 -7.5t35.5 -16.5l32.5 -16.5t27.5 -7.5
q17 0 32 11t32 36l60 -35q-24 -52 -52 -75.5t-62 -23.5q-19 0 -37.5 7t-36 16t-34 16t-30.5 7q-17 0 -33 -9.5t-36 -35.5l-57 33q23 48 53 74.5t68 26.5z" />
    <glyph glyph-name="utilde" unicode="&#x169;" horiz-adv-x="533" 
d="M171 495v-295q0 -51 21 -76t71 -25q40 0 67.5 26.5t27.5 74.5v295h113v-495h-113v49h-3q-23 -28 -58 -41.5t-68 -13.5q-77 0 -123.5 43t-46.5 133v325h112zM190 705q19 0 37.5 -7.5t35.5 -16.5l32.5 -16.5t27.5 -7.5q17 0 32 11t32 36l60 -35q-24 -52 -52 -75.5
t-62 -23.5q-19 0 -37.5 7t-36 16t-34 16t-30.5 7q-17 0 -33 -9.5t-36 -35.5l-57 33q23 48 53 74.5t68 26.5z" />
    <glyph glyph-name="Umacron" unicode="&#x16a;" horiz-adv-x="638" 
d="M579 247q0 -57 -19.5 -103.5t-54 -79.5t-82.5 -51t-104 -18q-59 0 -107 19.5t-82 54t-52 81.5t-18 102v444h120v-435q0 -32 9.5 -60t27.5 -48.5t44 -32.5t59 -12q62 0 99.5 38t37.5 110v440h122v-449zM165 769v97h301v-97h-301z" />
    <glyph glyph-name="umacron" unicode="&#x16b;" horiz-adv-x="533" 
d="M171 495v-295q0 -51 21 -76t71 -25q40 0 67.5 26.5t27.5 74.5v295h113v-495h-113v49h-3q-23 -28 -58 -41.5t-68 -13.5q-77 0 -123.5 43t-46.5 133v325h112zM119 589v97h301v-97h-301z" />
    <glyph glyph-name="ubreve" unicode="&#x16d;" horiz-adv-x="533" 
d="M171 495v-295q0 -51 21 -76t71 -25q40 0 67.5 26.5t27.5 74.5v295h113v-495h-113v49h-3q-23 -28 -58 -41.5t-68 -13.5q-77 0 -123.5 43t-46.5 133v325h112zM267 564q-42 0 -70 15t-45.5 37t-25.5 47.5t-9 46.5h87q0 -10 4.5 -21.5t12.5 -21.5t19.5 -16.5t26.5 -6.5
q16 0 28 6.5t20 16.5t12 21.5t4 21.5h86q-2 -21 -10 -46.5t-25 -47.5t-45 -37t-70 -15z" />
    <glyph glyph-name="Uring" unicode="&#x16e;" horiz-adv-x="638" 
d="M579 247q0 -57 -19.5 -103.5t-54 -79.5t-82.5 -51t-104 -18q-59 0 -107 19.5t-82 54t-52 81.5t-18 102v444h120v-435q0 -32 9.5 -60t27.5 -48.5t44 -32.5t59 -12q62 0 99.5 38t37.5 110v440h122v-449zM368 809q0 20 -13.5 33t-33.5 13t-34 -13t-14 -33q0 -19 14 -32.5
t34 -13.5t33.5 13.5t13.5 32.5zM209 809q0 22 9 42t24 34.5t35.5 23t43.5 8.5t43 -8.5t35 -23t24 -34.5t9 -42t-9 -41.5t-24 -34t-35 -23t-43 -8.5t-43.5 8.5t-35.5 23t-24 34t-9 41.5z" />
    <glyph glyph-name="uring" unicode="&#x16f;" horiz-adv-x="533" 
d="M171 495v-295q0 -51 21 -76t71 -25q40 0 67.5 26.5t27.5 74.5v295h113v-495h-113v49h-3q-23 -28 -58 -41.5t-68 -13.5q-77 0 -123.5 43t-46.5 133v325h112zM314 643q0 20 -13.5 33t-33.5 13t-34 -13t-14 -33q0 -19 14 -32.5t34 -13.5t33.5 13.5t13.5 32.5zM155 643
q0 22 9 42t24 34.5t35.5 23t43.5 8.5t43 -8.5t35 -23t24 -34.5t9 -42t-9 -41.5t-24 -34t-35 -23t-43 -8.5t-43.5 8.5t-35.5 23t-24 34t-9 41.5z" />
    <glyph glyph-name="Uhungarumlaut" unicode="&#x170;" horiz-adv-x="638" 
d="M579 247q0 -57 -19.5 -103.5t-54 -79.5t-82.5 -51t-104 -18q-59 0 -107 19.5t-82 54t-52 81.5t-18 102v444h120v-435q0 -32 9.5 -60t27.5 -48.5t44 -32.5t59 -12q62 0 99.5 38t37.5 110v440h122v-449zM131 782l154 137l82 -78l-185 -111zM318 782l154 137l82 -78
l-185 -111z" />
    <glyph glyph-name="uhungarumlaut" unicode="&#x171;" horiz-adv-x="533" 
d="M171 495v-295q0 -51 21 -76t71 -25q40 0 67.5 26.5t27.5 74.5v295h113v-495h-113v49h-3q-23 -28 -58 -41.5t-68 -13.5q-77 0 -123.5 43t-46.5 133v325h112zM136 569l79 190l107 -34l-118 -181zM295 569l78 190l107 -34l-117 -181z" />
    <glyph glyph-name="Uogonek" unicode="&#x172;" horiz-adv-x="638" 
d="M248 -96q0 20 8 42t28 51q-52 6 -93.5 27t-70.5 55t-44.5 78t-15.5 95v444h120v-435q0 -32 9.5 -60t27.5 -48.5t44 -32.5t59 -12q62 0 99.5 38t37.5 110v440h122v-449q0 -52 -16 -95t-45 -75t-68.5 -52.5t-87.5 -26.5q-19 -26 -27 -45t-8 -34q0 -35 40 -35q11 0 26 3
t35 11l23 -60q-20 -12 -45.5 -19.5t-51.5 -7.5q-47 0 -76.5 27.5t-29.5 65.5z" />
    <glyph glyph-name="uogonek" unicode="&#x173;" horiz-adv-x="533" 
d="M319 -96q0 20 8.5 42.5t30.5 53.5v49h-3q-23 -28 -58 -41.5t-68 -13.5q-77 0 -123.5 43t-46.5 133v325h112v-295q0 -51 21 -76t71 -25q40 0 67.5 26.5t27.5 74.5v295h113v-495h-37q-20 -27 -28 -46t-8 -35q0 -35 40 -35q11 0 26 3t35 11l23 -60q-20 -12 -45.5 -19.5
t-51.5 -7.5q-47 0 -76.5 27.5t-29.5 65.5z" />
    <glyph glyph-name="Wcircumflex" unicode="&#x174;" horiz-adv-x="839" 
d="M419 473q-1 0 -1.5 -0.5t-1.5 -0.5l-33.5 -127l-33.5 -127q-2 -7 -6.5 -24t-11 -39l-13 -46l-13 -46t-11 -39l-6.5 -25h-101l-181 696h129l39.5 -170l38.5 -170l28 -127h4l32 126l35.5 129.5l25.5 91.5l18.5 66t15.5 54h92l49 -172l47 -172l33 -124h4q7 29 13 61.5
t12 61.5l37.5 169l41.5 176h128l-90 -348l-91 -348h-100l-34.5 125.5l-35.5 125.5l-29 111.5zM419 815l-147 -82l-38 48l149 124h76l147 -123l-40 -49z" />
    <glyph glyph-name="wcircumflex" unicode="&#x175;" horiz-adv-x="736" 
d="M520 168q6 21 11.5 43l10.5 42l8.5 31.5l11.5 42.5l18 66l29 102h121l-81.5 -247.5l-82.5 -247.5h-99l-35.5 115l-34.5 116l-29 94h-2l-31 -106q-32 -110 -67 -219h-99l-164 495h121q11 -35 20.5 -70l19.5 -70q14 -46 25.5 -92t25.5 -92h4l13 41.5t8.5 28l8 28l12.5 41.5
l58 185h95l37.5 -121l36.5 -122l24 -84h6zM365 642q-9 -6 -28.5 -21l-41 -31.5l-41.5 -31.5t-29 -21l-46 43l149 154h78l146 -153l-48 -44z" />
    <glyph glyph-name="Ycircumflex" unicode="&#x176;" horiz-adv-x="557" 
d="M553 696l-108 -205l-109 -205v-286h-115v286l-108.5 205l-108.5 205h129l84 -172l31 -66.5l30 -67.5h2l62 137l83 169h128zM278 815l-147 -82l-38 48l149 124h76l147 -123l-40 -49z" />
    <glyph glyph-name="ycircumflex" unicode="&#x177;" horiz-adv-x="470" 
d="M252 -100q-21 -57 -60 -78.5t-84 -21.5h-42v95h31q22 0 37 15.5t23 36.5l25 78l-182 470h122l64 -182l49 -156h4l49 154l63 184h119zM236 642q-9 -6 -28.5 -21l-41 -31.5l-41.5 -31.5t-29 -21l-46 43l149 154h78l146 -153l-48 -44z" />
    <glyph glyph-name="zacute" unicode="&#x17a;" horiz-adv-x="449" 
d="M31 0v94l249 304h-235v97h372v-92l-248 -301h248v-102h-386zM183 569l79 190l107 -34l-118 -181z" />
    <glyph glyph-name="Zdotaccent" unicode="&#x17b;" horiz-adv-x="527" 
d="M30 0v104l323 485h-310v107h454v-99l-323 -486h323v-111h-467zM212 758v109h118v-109h-118z" />
    <glyph glyph-name="zdotaccent" unicode="&#x17c;" horiz-adv-x="449" 
d="M31 0v94l249 304h-235v97h372v-92l-248 -301h248v-102h-386zM174 583v109h118v-109h-118z" />
    <glyph glyph-name="AEacute" unicode="&#x1fc;" horiz-adv-x="1034" 
d="M517 0v176h-247l-53 -88l-54 -88h-137l433 696h524v-110h-345v-183h294v-105h-294v-189h345v-109h-466zM515 585l-92 -152l-92 -152h186v304h-2zM575 791l165 125l74 -84l-192 -97z" />
    <glyph glyph-name="aeacute" unicode="&#x1fd;" horiz-adv-x="816" 
d="M459 215q1 -21 5 -37.5t12 -30.5q30 -50 97 -50q22 0 51 10t56 35l70 -78q-41 -38 -87.5 -53.5t-92.5 -15.5q-47 0 -94 15t-81 56q-26 -32 -71 -51.5t-108 -19.5q-79 0 -127.5 38.5t-48.5 110.5q0 30 11 57t32 47.5t52.5 32.5t72.5 12h134v36q0 14 -5 27.5t-16.5 24
t-30.5 16.5t-48 6q-44 0 -72.5 -11.5t-47.5 -31.5l-58 73q33 38 80.5 52.5t98.5 14.5q23 0 47.5 -2.5t47.5 -8.5t43 -17t35 -29q29 31 66.5 44t74.5 13q54 0 95 -19.5t68 -53t40.5 -79.5t13.5 -99v-34h-315zM147 152q0 -11 4.5 -22t15 -19.5t27 -14t41.5 -5.5q51 0 79 21.5
t28 72.5v23h-115q-43 0 -61.5 -16.5t-18.5 -39.5zM378 569l79 190l107 -34l-118 -181zM657 295q-3 51 -30.5 77t-66.5 26q-40 0 -67 -26.5t-32 -76.5h196z" />
    <glyph glyph-name="Oslashacute" unicode="&#x1fe;" horiz-adv-x="610" 
d="M304 701q51 0 94 -15t75 -41l41 57l47 -34l-47 -66q24 -34 37 -75.5t13 -89.5v-178q0 -61 -18.5 -110t-52.5 -83.5t-82 -53t-107 -18.5q-57 0 -101.5 16.5t-76.5 45.5l-42 -60l-45 33l50 71q-23 34 -33.5 74t-10.5 85v178q0 52 16 100t48 84.5t81 58t114 21.5zM441 443
q0 26 -7 47l-236 -334q17 -22 43 -35.5t63 -13.5q32 0 57.5 11.5t43 31.5t27 47t9.5 59v187zM304 587q-35 0 -60.5 -12t-42.5 -32.5t-25.5 -46.5t-8.5 -53v-187q0 -23 4 -40l232 330q-17 19 -42 30t-57 11zM235 791l165 125l74 -84l-192 -97z" />
    <glyph glyph-name="oslashacute" unicode="&#x1ff;" horiz-adv-x="515" 
d="M264 501q79 0 133 -42l42 54l36 -28l-46 -58q3 -3 7 -9q19 -29 28 -70.5t8 -92.5q0 -57 -8.5 -97.5t-25.5 -70.5q-29 -47 -78 -70.5t-108 -23.5q-40 0 -74.5 10t-60.5 30l-39 -49l-34 27l42 53q-4 4 -5 7q-41 61 -39 176q0 40 5.5 76t19.5 64q26 55 77.5 84.5t119.5 29.5
zM260 399q-29 0 -52 -15t-35 -41q-9 -20 -12.5 -44t-4.5 -53q0 -24 1.5 -44t7.5 -37l162 206q-13 14 -30 21t-37 7zM357 255q0 42 -8 72l-161 -204q27 -27 67 -27q32 0 57 17.5t36 53.5q5 14 7 35t2 53zM203 569l79 190l107 -34l-118 -181z" />
    <glyph glyph-name="Scaron" unicode="&#x160;" horiz-adv-x="569" 
d="M458 537q-44 29 -89 40.5t-83 11.5q-64 0 -91 -25.5t-27 -62.5q0 -22 9.5 -36.5t30.5 -25t53 -18t77 -15.5q38 -7 75 -18.5t66 -34t46.5 -58t17.5 -89.5q0 -51 -21 -90.5t-57 -66.5t-83.5 -41t-100.5 -14q-69 0 -141.5 20.5t-134.5 75.5l73 94q45 -42 98 -59.5t111 -17.5
t93.5 24t35.5 71q0 42 -31.5 63.5t-95.5 31.5q-45 6 -88.5 16.5t-77.5 32t-54.5 57.5t-20.5 94q0 52 20 90.5t53 64t75.5 38t87.5 12.5q67 0 125.5 -15t108.5 -50zM441 908l41 -49l-147 -124h-76l-150 125l39 48l147 -82z" />
    <glyph glyph-name="Zcaron" unicode="&#x17d;" horiz-adv-x="527" 
d="M30 0v104l323 485h-310v107h454v-99l-323 -486h323v-111h-467zM416 908l41 -49l-147 -124h-76l-150 125l39 48l147 -82z" />
    <glyph glyph-name="scaron" unicode="&#x161;" horiz-adv-x="463" 
d="M433 151q0 -37 -16 -66t-43.5 -49.5t-64 -31t-78.5 -10.5q-55 0 -109.5 15t-105.5 60l61 81q35 -32 74.5 -45.5t84.5 -13.5q36 0 61 15t25 42q0 26 -21 38.5t-67 17.5q-33 4 -66.5 10t-60.5 21t-44 41t-17 69q0 38 15 67t40 48.5t58.5 29.5t71.5 10q57 0 103 -12.5
t87 -43.5l-54 -86q-35 23 -69.5 33t-64.5 10q-40 0 -60 -15.5t-20 -37.5q0 -25 28 -36t90 -18q30 -3 59.5 -11.5t52 -24.5t36.5 -42t14 -65zM377 734l48 -44l-146 -153h-78l-149 154l46 43q9 -6 29 -21l41.5 -31.5l41 -31.5t28.5 -21z" />
    <glyph glyph-name="zcaron" unicode="&#x17e;" horiz-adv-x="449" 
d="M31 0v94l249 304h-235v97h372v-92l-248 -301h248v-102h-386zM362 734l48 -44l-146 -153h-78l-149 154l46 43q9 -6 29 -21l41.5 -31.5l41 -31.5t28.5 -21z" />
    <glyph glyph-name="Kcommaaccent" unicode="&#x136;" horiz-adv-x="638" 
d="M502 0l-195 324l-113 -131v-193h-121v696h122v-337l2 -1l117 143l164 195h144l-235 -278l258 -418h-143zM265 -265l37 98h-34v131h129v-126l-73 -103h-59z" />
    <glyph glyph-name="afii10051" unicode="&#x402;" horiz-adv-x="743" 
d="M319 414q15 13 33.5 24t39.5 18t43 11t42 4q44 0 84 -14t70.5 -43t48.5 -73.5t18 -105.5q0 -55 -14.5 -102t-45 -81.5t-78.5 -54.5t-115 -20h-15t-15 1v97q73 -1 116.5 36.5t43.5 118.5q0 63 -34.5 98.5t-90.5 35.5q-33 0 -68 -14.5t-66 -46.5v-303h-121v591h-191v105
h565v-105h-253v-177h3z" />
    <glyph glyph-name="afii10053" unicode="&#x404;" horiz-adv-x="572" 
d="M551 156q-26 -76 -89.5 -119t-154.5 -43q-65 0 -114 20.5t-81 56t-48 84t-16 104.5v178q0 52 16 100t48 84.5t81 58t114 21.5q92 0 154.5 -44.5t88.5 -117.5l-114 -45q-13 41 -45.5 66.5t-83.5 25.5q-35 0 -60.5 -12t-42.5 -32.5t-25.5 -46.5t-8.5 -53v-38h215v-106h-215
v-41q0 -29 8.5 -55.5t25.5 -47.5t42.5 -33.5t60.5 -12.5q50 0 83 26.5t46 69.5z" />
    <glyph glyph-name="afii10058" unicode="&#x409;" horiz-adv-x="949" 
d="M142 696h397v-284h162q56 0 98.5 -17t71.5 -44.5t43.5 -63.5t14.5 -74q0 -52 -18 -91.5t-50 -66.5t-75.5 -41t-93.5 -14h-274v588h-161v-248q0 -81 -11.5 -144.5t-38 -108t-69 -70t-105.5 -30.5l-22 100q37 10 62 26.5t40.5 45t22 72t6.5 107.5v358zM805 209
q0 18 -6.5 35t-20 30.5t-34.5 21.5t-50 8h-155v-194h153q54 0 83.5 27.5t29.5 71.5z" />
    <glyph glyph-name="afii10059" unicode="&#x40a;" horiz-adv-x="941" 
d="M412 0v302h-222v-302h-121v696h121v-284h222v284h121v-284h156q56 0 99.5 -16t73.5 -43t45.5 -63.5t15.5 -77.5q0 -53 -18 -92.5t-49.5 -66t-75 -40t-93.5 -13.5h-275zM799 208q0 36 -28 65t-86 29h-152v-192h152q54 0 84 26t30 72z" />
    <glyph glyph-name="afii10060" unicode="&#x40b;" horiz-adv-x="749" 
d="M568 0v250q0 26 -5 47.5t-18 36.5t-35 23.5t-56 8.5q-32 0 -69 -15.5t-69 -44.5v-306h-121v591h-190v105h565v-105h-254v-176h3q34 27 78.5 42.5t89.5 15.5q91 0 146.5 -47.5t55.5 -137.5v-288h-121z" />
    <glyph glyph-name="afii10145" unicode="&#x40f;" horiz-adv-x="655" 
d="M582 696v-696h-195v-171h-117v171h-197v696h121v-586h268v586h120z" />
    <glyph glyph-name="afii10018" unicode="&#x411;" horiz-adv-x="603" 
d="M64 0v696h441v-110h-320v-174h156q57 0 101 -16t73.5 -43t45 -63.5t15.5 -77.5q0 -53 -18 -92.5t-50 -66t-75 -40t-93 -13.5h-276zM452 207q0 18 -6.5 35.5t-20.5 30.5t-35.5 21t-51.5 8h-153v-193h153q54 0 84 26.5t30 71.5z" />
    <glyph glyph-name="afii10021" unicode="&#x414;" horiz-adv-x="732" 
d="M20 97q16 3 32 6.5l33 7.5q24 18 38 40t22.5 55.5t12.5 81t7 116.5l12 292h459q0 -148 0.5 -294.5t0.5 -294.5h67v-262h-107v155h-469v-155h-108v252zM283 588l-4 -93.5l-4 -93.5q-2 -46 -4.5 -89t-7.5 -80.5t-14.5 -69.5t-25.5 -55h293v481h-233z" />
    <glyph glyph-name="afii10024" unicode="&#x416;" horiz-adv-x="953" 
d="M416 301h-84q-20 0 -38.5 -4t-35 -15.5t-30.5 -33t-25 -55.5l-57 -193h-126l67 223q15 51 39 87t68 50q-33 11 -59 45.5t-40 85.5l-63 203h118l60 -187q10 -35 25 -55t32 -30.5t35 -13.5t35 -3h79v292h121v-292h79q16 0 34.5 3t35.5 13.5t32 30.5t25 55l60 187h118
l-63 -203q-14 -51 -40 -85.5t-59 -45.5q44 -14 68 -50t39 -87l67 -223h-126l-57 193q-11 34 -25 55.5t-30.5 33t-35 15.5t-38.5 4h-84v-301h-121v301z" />
    <glyph glyph-name="afii10025" unicode="&#x417;" horiz-adv-x="576" 
d="M275 -5q-94 0 -162.5 41t-96.5 115l112 50q7 -20 22 -37t34.5 -30t43 -20.5t48.5 -7.5q58 0 96 28t38 78q0 48 -30.5 75t-83.5 27h-81v103h83q47 0 76.5 24.5t29.5 63.5q0 41 -33 62t-80 21q-51 0 -89.5 -24.5t-57.5 -63.5l-106 53q30 68 94 108.5t159 40.5
q109 0 172 -48.5t63 -135.5q0 -18 -5 -39t-16.5 -41t-31 -38t-48.5 -30q0 -2 0.5 -2.5t0.5 -2.5q33 -10 54 -29t33 -41.5t16.5 -46t4.5 -42.5q0 -50 -20 -89t-55 -66t-82.5 -41.5t-101.5 -14.5z" />
    <glyph glyph-name="afii10026" unicode="&#x418;" horiz-adv-x="692" 
d="M73 0v696h120v-492q1 -1 3 -1l162 249l162 244h101v-696h-121v472h-3l-138 -213l-87 -129.5l-88 -129.5h-111z" />
    <glyph glyph-name="afii10029" unicode="&#x41b;" horiz-adv-x="668" 
d="M468 588h-210v-194q0 -101 -9.5 -174.5t-34.5 -123.5t-68.5 -76.5t-111.5 -32.5q-5 25 -10.5 49.5l-11.5 49.5q37 10 62.5 27t41 45.5t22 72t6.5 106.5v359h444v-696h-120v588z" />
    <glyph glyph-name="afii10037" unicode="&#x423;" horiz-adv-x="569" 
d="M109 90h47q24 0 39.5 10t27.5 36l7 18l-211 542h132l75 -220l64 -180h5l58 178l74 222h128l-202 -542q-18 -48 -36 -80.5t-39 -52t-46 -27.5t-58 -8h-65v104z" />
    <glyph glyph-name="afii10040" unicode="&#x426;" horiz-adv-x="688" 
d="M558 0h-485v696h121v-586h268v586h120v-588h83v-263h-107v155z" />
    <glyph glyph-name="afii10041" unicode="&#x427;" horiz-adv-x="629" 
d="M173 696v-205q0 -66 33 -97.5t93 -31.5q28 0 67 9.5t70 32.5v292h119v-696h-120v303h-1q-38 -23 -81 -32t-85 -9q-46 0 -85 13.5t-67.5 40t-44.5 67t-16 94.5v219h118z" />
    <glyph glyph-name="afii10042" unicode="&#x428;" horiz-adv-x="928" 
d="M858 696v-696h-788v696h121v-586h212v586h122v-586h213v586h120z" />
    <glyph glyph-name="afii10043" unicode="&#x429;" horiz-adv-x="963" 
d="M833 0h-764v696h121v-586h212v586h122v-586h213v586h121v-588h82v-263h-107v155z" />
    <glyph glyph-name="afii10044" unicode="&#x42a;" horiz-adv-x="741" 
d="M217 0v586h-207v110h329v-284h156q56 0 99.5 -16t73.5 -43t45.5 -63.5t15.5 -77.5q0 -53 -18 -92.5t-50 -66t-75 -40t-93 -13.5h-276zM604 208q0 18 -7 35t-21 30t-35 21t-50 8h-153v-192h153q54 0 83.5 26t29.5 72z" />
    <glyph glyph-name="afii10045" unicode="&#x42b;" horiz-adv-x="841" 
d="M77 0v696h121v-284h157q56 0 99.5 -16t73 -43t45 -63.5t15.5 -77.5q0 -53 -18 -92.5t-49.5 -66t-75 -40t-93.5 -13.5h-275zM651 0v696h121v-696h-121zM464 208q0 36 -28 65t-85 29h-153v-192h153q54 0 83.5 26t29.5 72z" />
    <glyph glyph-name="afii10046" unicode="&#x42c;" horiz-adv-x="597" 
d="M584 212q0 -53 -18 -92.5t-49.5 -66t-75 -40t-93.5 -13.5h-275v696h121v-284h156q56 0 99.5 -16t73.5 -43t45.5 -63.5t15.5 -77.5zM460 208q0 18 -7 35t-21 30t-35 21t-50 8h-153v-192h153q54 0 83.5 26t29.5 72z" />
    <glyph glyph-name="afii10047" unicode="&#x42d;" horiz-adv-x="591" 
d="M142 205q14 -43 46 -69.5t83 -26.5q37 0 63.5 12.5t43 33.5t24 47.5t7.5 55.5v47h-215v106h215v32q0 27 -6 52.5t-21 46t-40.5 33t-63.5 12.5q-48 0 -84 -25.5t-49 -66.5l-114 45q13 36 36.5 66t56 51.5t72 33t85.5 11.5q69 0 117 -21.5t77 -58t42 -84.5t13 -100v-178
q0 -56 -16 -104.5t-48.5 -84t-81 -56t-113.5 -20.5q-91 0 -154 43t-89 119z" />
    <glyph glyph-name="afii10048" unicode="&#x42e;" horiz-adv-x="814" 
d="M521 701q64 0 110.5 -19.5t77 -55t45 -83.5t14.5 -105v-180q0 -60 -17 -109t-49 -83.5t-78 -53t-104 -18.5q-66 0 -112.5 21.5t-76.5 58.5t-43.5 84.5t-13.5 100.5v39h-84v-298h-121v696h121v-292h84v32q0 52 14.5 100t45 85t77 58.5t110.5 21.5zM521 587q-36 0 -60 -13
t-39 -34t-21 -47t-6 -51v-186q0 -29 6 -55.5t20.5 -47.5t38.5 -33.5t60 -12.5q33 0 57 11.5t39 31.5t22 47t7 59v186q0 28 -6.5 54t-21.5 46t-38.5 32.5t-57.5 12.5z" />
    <glyph glyph-name="afii10049" unicode="&#x42f;" horiz-adv-x="632" 
d="M560 696v-696h-122v294h-96q-20 0 -38.5 -5t-35.5 -18.5t-31.5 -36t-24.5 -56.5l-52 -178h-128l55 197q12 44 32 75t61 45q-33 9 -55.5 27t-37 41.5t-20.5 50.5t-6 53q0 46 16 84.5t45 65.5t68.5 42t87.5 15h282zM185 487q0 -24 9 -41t25 -27.5t38 -15.5t47 -5h134v191
h-141q-52 0 -82 -26.5t-30 -75.5z" />
    <glyph glyph-name="afii10066" unicode="&#x431;" horiz-adv-x="515" 
d="M259 379q-29 0 -48.5 -11.5t-31.5 -31.5t-17 -47t-5 -52q0 -30 4.5 -54t15.5 -42q12 -23 31.5 -34t49.5 -11t53 14.5t35 45.5q7 16 9.5 35.5t2.5 46.5q0 29 -4 52.5t-11 36.5q-11 25 -30.5 38.5t-53.5 13.5zM283 480q53 0 88.5 -18t60.5 -54q22 -32 31.5 -73t9.5 -90
q0 -102 -40 -164q-28 -45 -74 -66.5t-105 -21.5q-62 0 -101 17.5t-62 48.5q-26 33 -38 87.5t-12 144.5q2 68 6 108.5t7 55.5q16 81 61.5 136t131.5 87q29 11 70 24.5t96 33.5l34 -86q-48 -20 -76.5 -30l-44.5 -16q-45 -17 -75 -32.5t-49 -35t-29 -45t-13 -62.5q1 0 2 -1
q25 28 58.5 40t62.5 12z" />
    <glyph glyph-name="afii10068" unicode="&#x433;" horiz-adv-x="438" 
d="M169 398v-398h-113v495h380v-97h-267z" />
    <glyph glyph-name="afii10069" unicode="&#x434;" horiz-adv-x="589" 
d="M245 399l-7 -113q-4 -62 -10.5 -110t-26.5 -78h199v301h-155zM74 101q17 13 27.5 27t17.5 34.5t10.5 48.5t6.5 69l14 215h362v-396h57v-237h-102v138h-347v-138h-103v228z" />
    <glyph glyph-name="afii10072" unicode="&#x436;" horiz-adv-x="763" 
d="M252 204q-27 0 -46.5 -17.5t-33.5 -59.5l-18.5 -63.5l-18.5 -63.5h-115l24.5 79.5l24.5 80.5q11 37 28 63.5t52 34.5q-28 8 -46 32.5t-29 60.5l-45 144h111l40 -130q7 -24 17.5 -38.5t23 -22t26 -9.5t26.5 -2h53v202h113v-202h51q29 0 55 18t42 68l36 116h111l-45 -144
q-11 -36 -29 -60.5t-46 -32.5q35 -8 52 -34.5t28 -63.5l24.5 -80.5l24.5 -79.5h-115l-18.5 63.5l-18.5 63.5q-16 48 -39 62.5t-54 14.5h-59v-204h-113v204h-74z" />
    <glyph glyph-name="afii10073" unicode="&#x437;" horiz-adv-x="457" 
d="M297 349q0 25 -21.5 38t-58.5 13q-15 0 -31.5 -2.5t-33 -7t-31.5 -12t-26 -17.5l-57 78q35 32 84.5 47.5t98.5 15.5q96 0 142 -38t46 -101q0 -12 -4 -26.5t-12.5 -29t-22.5 -27.5t-33 -22v-2q24 -9 40 -21.5t25 -27.5t12.5 -30t3.5 -28q0 -35 -14.5 -63t-40.5 -48.5
t-63 -31.5t-83 -11q-66 0 -115 15t-87 52l66 76q9 -9 23 -17t31.5 -14t37 -9.5t37.5 -3.5q45 0 70 18t25 45q0 30 -25.5 43t-56.5 13h-74v83h79q33 0 51 15.5t18 37.5z" />
    <glyph glyph-name="afii10074" unicode="&#x438;" horiz-adv-x="550" 
d="M57 0v495h111v-329h2l44 62.5l44 62.5l71.5 102l72.5 102h92v-495h-112v313h-2q-25 -39 -52 -74.5t-53 -73.5l-117 -165h-101z" />
    <glyph glyph-name="afii10077" unicode="&#x43b;" horiz-adv-x="538" 
d="M219 397v-127q0 -136 -41.5 -204.5t-144.5 -75.5l-10 42l-10 42q31 9 51 20.5t32 33t16.5 56t4.5 87.5v224h359v-495h-113v397h-144z" />
    <glyph glyph-name="afii10078" unicode="&#x43c;" horiz-adv-x="623" 
d="M456 0v270h-1l-34 -68l-34 -67l-35 -67h-81l-44 84q-16 29 -31 59l-29 60h-1v-271h-111v495h102l53.5 -100.5l30.5 -58t15.5 -29.5l7.5 -15l48 -91l23 45.5l23 45.5q25 52 52 102l53 101h104v-495h-111z" />
    <glyph glyph-name="afii10079" unicode="&#x43d;" horiz-adv-x="532" 
d="M365 0v205h-197v-205h-112v495h112v-201h197v201h111v-495h-111z" />
    <glyph glyph-name="afii10086" unicode="&#x444;" horiz-adv-x="649" 
d="M379 501q28 0 55.5 -6t52 -17.5t44.5 -27.5t33 -35q41 -62 41 -170q0 -98 -37 -156q-29 -47 -81 -71t-108 -26v-188h-111v188q-57 1 -106 21.5t-77 58.5q-23 32 -32.5 76t-9.5 99q1 40 7 75.5t19 63.5q12 25 33 46.5t47 36.5t56.5 23.5t61.5 8.5v226h112v-226zM267 398
q-29 0 -55.5 -14.5t-38.5 -40.5q-9 -20 -12 -44t-4 -53q0 -29 3.5 -53t12.5 -42q12 -26 38.5 -42t55.5 -16v305zM379 93q33 0 62 20t40 55q5 16 7 34.5t2 44.5q0 61 -14 94q-11 28 -38 42t-59 15v-305z" />
    <glyph glyph-name="afii10088" unicode="&#x446;" horiz-adv-x="571" 
d="M478 101h73v-239h-102v138h-389v495h112v-394h195v394h111v-394z" />
    <glyph glyph-name="afii10089" unicode="&#x447;" horiz-adv-x="497" 
d="M150 496v-142q0 -45 19 -64.5t63 -19.5q19 0 49.5 7t54.5 21v198h110v-496h-110v204h-1q-32 -17 -64 -24t-61 -7q-36 0 -67.5 8.5t-55 28t-37 50.5t-13.5 75v161h113z" />
    <glyph glyph-name="afii10090" unicode="&#x448;" horiz-adv-x="789" 
d="M729 495v-495h-669v495h110v-393h169v393h110v-393h170v393h110z" />
    <glyph glyph-name="afii10091" unicode="&#x449;" horiz-adv-x="822" 
d="M699 0h-639v495h110v-393h169v393h111v-393h169v393h110v-394h73v-239h-103v138z" />
    <glyph glyph-name="afii10092" unicode="&#x44a;" horiz-adv-x="596" 
d="M583 167q0 -35 -11 -65t-33.5 -53t-56 -36t-79.5 -13h-231v398h-160v97h272v-172h120q48 0 82 -13.5t55.5 -35t31.5 -49.5t10 -58zM468 162q0 22 -16 41.5t-57 19.5l-112 1v-123h112q37 0 55 17t18 44z" />
    <glyph glyph-name="afii10093" unicode="&#x44b;" horiz-adv-x="683" 
d="M464 167q0 -35 -11 -65t-33.5 -53t-56 -36t-79.5 -13h-230v495h111v-172h120q48 0 82 -13.5t55.5 -35t31.5 -49.5t10 -58zM515 0v495h111v-495h-111zM349 162q0 22 -16 41.5t-57 19.5l-112 1v-123h112q37 0 55 17t18 44z" />
    <glyph glyph-name="afii10094" unicode="&#x44c;" horiz-adv-x="480" 
d="M464 167q0 -35 -11 -65t-33.5 -53t-56.5 -36t-79 -13h-231v495h112v-172h119q48 0 82 -13.5t56 -35t32 -49.5t10 -58zM349 162q0 22 -16.5 41.5t-57.5 19.5l-111 1v-123h111q37 0 55.5 17t18.5 44z" />
    <glyph glyph-name="afii10095" unicode="&#x44d;" horiz-adv-x="464" 
d="M82 141q23 -20 48.5 -31.5t51.5 -11.5q54 0 86 28t37 84h-156v82h157q-3 50 -31 77t-79 27q-23 0 -51.5 -10.5t-50.5 -31.5l-63 80q34 33 78.5 49.5t94.5 16.5q46 0 86.5 -13t70 -42.5t46.5 -75.5t17 -112q0 -69 -19.5 -119t-52.5 -81.5t-75.5 -46.5t-88.5 -15
q-100 0 -169 63z" />
    <glyph glyph-name="afii10096" unicode="&#x44e;" horiz-adv-x="685" 
d="M438 502q54 0 97.5 -20.5t69.5 -61.5q20 -32 28.5 -76.5t8.5 -98.5q0 -98 -34 -157q-28 -49 -75.5 -72t-101.5 -23t-96 20t-68 59q-16 23 -26 57.5t-12 76.5h-61v-206h-113v495h113v-202h61q2 26 7.5 50t14.5 44q25 55 74 85t113 30zM436 400q-28 0 -48.5 -15t-32.5 -42
q-7 -15 -11 -41.5t-4 -55.5t3.5 -54t10.5 -41q12 -26 31.5 -40t48.5 -14q31 0 53.5 17t33.5 53q8 30 8 81q0 31 -3 55.5t-10 40.5q-11 29 -32.5 42.5t-47.5 13.5z" />
    <glyph glyph-name="afii10097" unicode="&#x44f;" horiz-adv-x="513" 
d="M262 192q-29 -1 -51.5 -15t-33.5 -56l-31 -121h-118l36 128q8 29 22.5 52.5t42.5 33.5q-45 14 -64.5 47.5t-20.5 72.5q0 36 12 65.5t34 51t53 33t69 11.5h243v-495h-113v192h-80zM156 334q0 -30 20 -43t53 -13h113v121h-116q-28 0 -49 -16t-21 -49z" />
    <glyph glyph-name="afii10099" unicode="&#x452;" horiz-adv-x="580" 
d="M195 441q28 27 61 40.5t68 13.5q97 0 151.5 -60t54.5 -189q0 -53 -13 -100.5t-41 -82.5t-72.5 -55.5t-106.5 -20.5q-8 0 -14 0.5t-14 1.5v99q5 -1 11 -1h11q34 0 58 11.5t38.5 32.5t21 49.5t6.5 62.5q0 30 -5.5 57t-19 48t-36.5 33t-58 12q-18 0 -37 -7t-34 -23
t-24.5 -40.5t-9.5 -59.5q0 -66 -0.5 -131.5t-0.5 -131.5h-112v565h-69v79h69v82h112v-82h208v-79h-207v-123z" />
    <glyph glyph-name="afii10101" unicode="&#x454;" horiz-adv-x="447" 
d="M427 58q-36 -32 -76.5 -47.5t-91.5 -15.5q-44 0 -86 13.5t-75 43.5t-53 77t-20 113q0 68 20 117t52.5 80.5t74.5 46t87 14.5q51 0 90.5 -16t75.5 -49l-64 -80q-21 21 -47.5 31.5t-50.5 10.5q-51 0 -81 -27.5t-37 -79.5h157v-82h-158q5 -55 36.5 -82.5t82.5 -27.5
q26 0 51.5 11.5t48.5 31.5z" />
    <glyph glyph-name="afii10106" unicode="&#x459;" horiz-adv-x="757" 
d="M330 397h-107v-126q0 -68 -10 -119t-32 -85.5t-58 -53.5t-87 -23l-20 85q31 9 51 21.5t32 34t16.5 55.5t4.5 85v224h322v-172h119q48 0 82 -13.5t55.5 -35t31.5 -49.5t10 -58q0 -35 -11 -65t-33.5 -53t-56 -36t-79.5 -13h-230v397zM626 162q0 22 -16 42t-57 20h-112v-123
h112q37 0 55 17t18 44z" />
    <glyph glyph-name="afii10107" unicode="&#x45a;" horiz-adv-x="754" 
d="M734 164q0 -34 -11 -64t-33.5 -52t-56 -35t-79.5 -13h-231v218h-158v-218h-113v495h113v-178h158v178h113v-177h119q48 0 82 -13t55.5 -34.5t31.5 -49t10 -57.5zM620 159q0 22 -15.5 40.5t-56.5 18.5l-113 1v-120h113q37 0 54.5 16.5t17.5 43.5z" />
    <glyph glyph-name="afii10108" unicode="&#x45b;" horiz-adv-x="551" 
d="M381 0v284q0 48 -21.5 73.5t-67.5 25.5q-42 0 -69.5 -28t-27.5 -76v-279h-113v561h-68v80h68v85h113v-85h199v-80h-199v-124l3 -1q23 25 59.5 39.5t73.5 14.5q35 0 65 -11t51.5 -33t34 -55t12.5 -76v-315h-113z" />
    <glyph glyph-name="afii10193" unicode="&#x45f;" horiz-adv-x="526" 
d="M470 495v-495h-153v-149h-108v149h-153v495h109v-393h197v393h108z" />
    <glyph glyph-name="afii10050" unicode="&#x490;" horiz-adv-x="545" 
d="M194 586v-586h-121v696h362v122h104v-232h-345z" />
    <glyph glyph-name="afii10098" unicode="&#x491;" horiz-adv-x="438" 
d="M436 398h-268v-398h-112v495h284v103h96v-200z" />
    <glyph glyph-name="afii10023" unicode="&#x401;" horiz-adv-x="564" 
d="M73 0v696h466v-110h-345v-182h294v-106h-294v-188h345v-110h-466zM345 757v111h120v-111h-120zM147 757v111h121v-111h-121z" />
    <glyph glyph-name="afii10054" unicode="&#x405;" horiz-adv-x="569" 
d="M458 537q-44 29 -89 40.5t-83 11.5q-64 0 -91 -25.5t-27 -62.5q0 -22 9.5 -36.5t30.5 -25t53 -18t77 -15.5q38 -7 75 -18.5t66 -34t46.5 -58t17.5 -89.5q0 -51 -21 -90.5t-57 -66.5t-83.5 -41t-100.5 -14q-69 0 -141.5 20.5t-134.5 75.5l73 94q45 -42 98 -59.5t111 -17.5
t93.5 24t35.5 71q0 42 -31.5 63.5t-95.5 31.5q-45 6 -88.5 16.5t-77.5 32t-54.5 57.5t-20.5 94q0 52 20 90.5t53 64t75.5 38t87.5 12.5q67 0 125.5 -15t108.5 -50z" />
    <glyph glyph-name="afii10055" unicode="&#x406;" horiz-adv-x="268" 
d="M74 0v696h122v-696h-122z" />
    <glyph glyph-name="afii10056" unicode="&#x407;" horiz-adv-x="268" 
d="M74 0v696h122v-696h-122zM169 762v109h118v-109h-118zM-31 762v109h119v-109h-119z" />
    <glyph glyph-name="afii10057" unicode="&#x408;" horiz-adv-x="489" 
d="M424 224q0 -65 -19 -109t-50.5 -70.5t-73 -38t-86.5 -11.5q-57 0 -105 22t-85 64l86 79q22 -23 49 -38.5t52 -15.5q21 0 40.5 4.5t35.5 18t25.5 37.5t9.5 62v468h121v-472v0z" />
    <glyph glyph-name="afii10017" unicode="&#x410;" horiz-adv-x="629" 
d="M498 0l-55 154h-258l-56 -154h-127l263 696h98l263 -696h-128zM361 398l-46 143h-3l-45 -140l-47 -144h187z" />
    <glyph glyph-name="afii10019" unicode="&#x412;" horiz-adv-x="618" 
d="M582 200q0 -45 -16.5 -82t-44.5 -63.5t-65 -40.5t-78 -14h-305v696h278q53 0 94 -14t68.5 -39t41.5 -60t14 -77q0 -20 -4.5 -40t-15.5 -38.5t-29.5 -35.5t-46.5 -29v-4q27 -8 47.5 -25t34 -39t20.5 -46.5t7 -48.5zM443 499q0 38 -26 63.5t-82 25.5h-141v-181h141
q56 0 82 27t26 65zM459 207q0 19 -6.5 36.5t-20 31t-34.5 22t-49 8.5h-155v-195h155q28 0 49 8t34.5 21.5t20 31t6.5 36.5z" />
    <glyph glyph-name="afii10020" unicode="&#x413;" horiz-adv-x="545" 
d="M194 586v-586h-121v696h466v-110h-345z" />
    <glyph glyph-name="afii10022" unicode="&#x415;" horiz-adv-x="564" 
d="M73 0v696h466v-110h-345v-182h294v-106h-294v-188h345v-110h-466z" />
    <glyph glyph-name="afii10028" unicode="&#x41a;" horiz-adv-x="615" 
d="M71 0v696h121v-291h91q16 0 34 3t35.5 13.5t32 31t25.5 54.5l60 187h118l-63 -203q-15 -51 -40.5 -85.5t-58.5 -45.5q44 -14 68 -50t39 -87l67 -223h-126l-57 193q-11 34 -25 55.5t-30.5 33t-35 15.5t-38.5 4h-96v-301h-121z" />
    <glyph glyph-name="afii10030" unicode="&#x41c;" horiz-adv-x="765" 
d="M581 0v413h-3l-37 -89l-51 -112l-54 -114h-97l-40 85l-66 146l-36 85l-3 -3v-411h-121v696h113l91 -199l55.5 -125l53.5 -125h4l56 133l51 117l89 199h116v-696h-121z" />
    <glyph glyph-name="afii10031" unicode="&#x41d;" horiz-adv-x="655" 
d="M462 0v298h-268v-298h-121v696h121v-292h268v292h120v-696h-120z" />
    <glyph glyph-name="afii10032" unicode="&#x41e;" horiz-adv-x="610" 
d="M304 701q60 0 108 -20t82 -55t52 -83.5t18 -105.5v-178q0 -61 -18.5 -110t-52.5 -83.5t-82 -53t-107 -18.5q-65 0 -114 21.5t-81 58t-48 84.5t-16 101v178q0 52 16 100t48 84.5t81 58t114 21.5zM304 587q-35 0 -60.5 -12t-42.5 -32.5t-25.5 -46.5t-8.5 -53v-187
q0 -29 8.5 -55.5t25.5 -47.5t42.5 -33.5t60.5 -12.5q32 0 57.5 11.5t43 31.5t27 47t9.5 59v187q0 30 -9.5 56t-27 45.5t-43 31t-57.5 11.5z" />
    <glyph glyph-name="afii10033" unicode="&#x41f;" horiz-adv-x="655" 
d="M462 0v588h-268v-588h-121v696h509v-696h-120z" />
    <glyph glyph-name="afii10034" unicode="&#x420;" horiz-adv-x="591" 
d="M581 478q0 -42 -16.5 -80t-46.5 -67t-72 -46.5t-93 -17.5h-159v-267h-121v696h271q49 0 92 -14t75.5 -41t51 -68t18.5 -95zM457 481q0 54 -32 79.5t-84 25.5h-147v-209h151q53 0 82.5 31t29.5 73z" />
    <glyph glyph-name="afii10035" unicode="&#x421;" horiz-adv-x="572" 
d="M551 156q-26 -76 -89.5 -119t-154.5 -43q-65 0 -114 20.5t-81 56t-48 84t-16 104.5v178q0 52 16 100t48 84.5t81 58t114 21.5q92 0 154.5 -44.5t88.5 -117.5l-114 -45q-13 41 -45.5 66.5t-83.5 25.5q-35 0 -60.5 -12t-42.5 -32.5t-25.5 -46.5t-8.5 -53v-185
q0 -29 8.5 -55.5t25.5 -47.5t42.5 -33.5t60.5 -12.5q50 0 83 26.5t46 69.5z" />
    <glyph glyph-name="afii10036" unicode="&#x422;" horiz-adv-x="521" 
d="M319 588v-588h-121v588h-193v108h508v-108h-194z" />
    <glyph glyph-name="afii10038" unicode="&#x424;" horiz-adv-x="758" 
d="M717 354q0 -61 -18.5 -113.5t-54 -92t-88 -63t-120.5 -25.5v-60h-116v60q-69 5 -121 28.5t-87 62t-52.5 90t-17.5 113.5q0 61 17.5 115t52.5 94.5t87 65t121 27.5v40h116v-40q74 -5 127.5 -28.5t87.5 -63.5t50 -93.5t16 -116.5zM436 157q46 2 77.5 18t50.5 42.5
t27.5 61.5t8.5 76q0 38 -8 74t-27.5 64.5t-51 46t-77.5 19.5v-402zM320 559q-43 -4 -73.5 -21t-50 -44.5t-28.5 -63t-9 -75.5q0 -83 39 -136.5t122 -61.5v402z" />
    <glyph glyph-name="afii10039" unicode="&#x425;" horiz-adv-x="576" 
d="M439 0l-152 257l-151 -257h-136l225 356l-212 340h137l137 -240l138 240h136l-211 -340l225 -356h-136z" />
    <glyph glyph-name="afii10065" unicode="&#x430;" horiz-adv-x="499" 
d="M245 500q42 0 79 -7.5t65 -26.5t44.5 -50.5t16.5 -79.5v-336h-113v44l-2 1q-20 -26 -55.5 -38t-73.5 -12q-79 0 -125 38.5t-46 110.5q0 30 11 57t32 47.5t52.5 32.5t72.5 12h134v36q0 14 -4.5 27t-15.5 22.5t-30 15.5t-48 6q-41 0 -69 -10.5t-49 -30.5l-60 76
q36 36 84 50.5t100 14.5zM142 152q0 -11 4.5 -22t15 -19.5t27 -14t41.5 -5.5q19 0 37 3.5t32.5 11.5t24.5 21t12 33q1 6 1 15v32h-115q-43 0 -61.5 -16t-18.5 -39z" />
    <glyph glyph-name="afii10067" unicode="&#x432;" horiz-adv-x="500" 
d="M475 150q0 -33 -13 -60.5t-35.5 -47.5t-53.5 -31t-67 -11h-250v495h233q88 0 131.5 -39.5t43.5 -99.5q0 -27 -14.5 -55t-52.5 -45q40 -13 59 -44t19 -62zM360 155q0 22 -16.5 39t-56.5 17h-117v-111h117q40 0 56.5 16.5t16.5 38.5zM349 346q0 23 -17 37.5t-55 14.5h-107
v-105h107q42 0 57 16t15 37z" />
    <glyph glyph-name="afii10070" unicode="&#x435;" horiz-adv-x="507" 
d="M154 215q0 -23 6 -44.5t19 -38t33 -26.5t47 -10q22 0 55.5 10.5t61.5 36.5q18 -20 33 -39.5t33 -39.5q-42 -38 -91 -54t-96 -16q-39 0 -78 11t-70 39.5t-50.5 77t-19.5 124.5q0 72 19.5 120.5t50.5 78.5t69.5 43t76.5 13q50 0 89.5 -17t67 -47.5t42 -74.5t14.5 -98v-49
h-312zM252 398q-39 0 -65 -27t-31 -76h190q-3 51 -29.5 77t-64.5 26z" />
    <glyph glyph-name="afii10076" unicode="&#x43a;" horiz-adv-x="506" 
d="M54 0v494h113v-201h64q13 0 26 2t25.5 9.5t23 22t17.5 38.5l40 130h112l-45 -144q-11 -36 -29 -60.5t-46 -32.5q35 -8 52 -34.5t28 -63.5l49 -160h-116l-36 127q-16 48 -39.5 62t-54.5 14h-71v-203h-113z" />
    <glyph glyph-name="afii10080" unicode="&#x43e;" horiz-adv-x="515" 
d="M264 501q56 0 100.5 -21.5t71.5 -61.5q19 -29 28 -70.5t8 -92.5q0 -57 -8.5 -97.5t-25.5 -70.5q-29 -47 -78 -70.5t-108 -23.5q-56 0 -100 19t-71 59q-41 61 -39 176q0 40 5.5 76t19.5 64q26 55 77.5 84.5t119.5 29.5zM260 399q-29 0 -52 -15t-35 -41q-9 -20 -12.5 -44
t-4.5 -53q0 -29 3 -53t12 -42q11 -26 33 -40.5t51 -14.5q32 0 57 17.5t36 53.5q5 14 7 35t2 53q0 58 -13 87q-11 29 -33.5 43t-50.5 14z" />
    <glyph glyph-name="afii10083" unicode="&#x441;" horiz-adv-x="447" 
d="M430 67q-36 -35 -80 -54t-95 -19q-45 0 -86 14.5t-72.5 45t-50 78.5t-18.5 115t19.5 115t51.5 79t74 45t86 14q99 0 169 -70l-73 -79q-44 46 -94 46q-57 0 -87 -36t-30 -114q0 -77 29.5 -113t86.5 -36q25 0 50 13t46 34l74 -78v0z" />
    <glyph glyph-name="afii10084" unicode="&#x442;" horiz-adv-x="431" 
d="M270 398v-398h-113v398h-150v97h414v-97h-151z" />
    <glyph glyph-name="afii10085" unicode="&#x443;" horiz-adv-x="470" 
d="M252 -100q-21 -57 -60 -78.5t-84 -21.5h-42v95h31q22 0 37 15.5t23 36.5l25 78l-182 470h122l64 -182l49 -156h4l49 154l63 184h119z" />
    <glyph glyph-name="afii10087" unicode="&#x445;" horiz-adv-x="501" 
d="M354 0l-104 167l-103 -167h-136l180 253l-172 242h135l96 -160l97 160h135l-172 -243l180 -252h-136z" />
    <glyph glyph-name="afii10071" unicode="&#x451;" horiz-adv-x="507" 
d="M154 215q0 -23 6 -44.5t19 -38t33 -26.5t47 -10q22 0 55.5 10.5t61.5 36.5q18 -20 33 -39.5t33 -39.5q-42 -38 -91 -54t-96 -16q-39 0 -78 11t-70 39.5t-50.5 77t-19.5 124.5q0 72 19.5 120.5t50.5 78.5t69.5 43t76.5 13q50 0 89.5 -17t67 -47.5t42 -74.5t14.5 -98v-49
h-312zM252 398q-39 0 -65 -27t-31 -76h190q-3 51 -29.5 77t-64.5 26zM294 590v109h118v-109h-118zM94 590v109h119v-109h-119z" />
    <glyph glyph-name="afii10102" unicode="&#x455;" horiz-adv-x="463" 
d="M433 151q0 -37 -16 -66t-43.5 -49.5t-64 -31t-78.5 -10.5q-55 0 -109.5 15t-105.5 60l61 81q35 -32 74.5 -45.5t84.5 -13.5q36 0 61 15t25 42q0 26 -21 38.5t-67 17.5q-33 4 -66.5 10t-60.5 21t-44 41t-17 69q0 38 15 67t40 48.5t58.5 29.5t71.5 10q57 0 103 -12.5
t87 -43.5l-54 -86q-35 23 -69.5 33t-64.5 10q-40 0 -60 -15.5t-20 -37.5q0 -25 28 -36t90 -18q30 -3 59.5 -11.5t52 -24.5t36.5 -42t14 -65z" />
    <glyph glyph-name="afii10103" unicode="&#x456;" horiz-adv-x="247" 
d="M67 592v104h113v-104h-113zM67 0v495h113v-495h-113z" />
    <glyph glyph-name="afii10104" unicode="&#x457;" horiz-adv-x="235" 
d="M153 583v109h118v-109h-118zM-47 583v109h119v-109h-119zM60 0v495h115v-495h-115z" />
    <glyph glyph-name="afii10105" unicode="&#x458;" horiz-adv-x="265" 
d="M76 592v104h114v-104h-114zM190 -59q0 -64 -36.5 -103t-109.5 -39h-52v100h28q32 0 44 16.5t12 42.5v538h114v-555z" />
    <glyph glyph-name="afii10110" unicode="&#x45e;" horiz-adv-x="470" 
d="M252 -100q-21 -57 -60 -78.5t-84 -21.5h-42v95h31q22 0 37 15.5t23 36.5l25 78l-182 470h122l64 -182l49 -156h4l49 154l63 184h119zM240 564q-42 0 -70 15t-45.5 37t-25.5 47.5t-9 46.5h87q0 -10 4.5 -21.5t12.5 -21.5t19.5 -16.5t26.5 -6.5q16 0 28 6.5t20 16.5
t12 21.5t4 21.5h86q-2 -21 -10 -46.5t-25 -47.5t-45 -37t-70 -15z" />
    <glyph glyph-name="uniF6D9" unicode="&#xf6d9;" horiz-adv-x="891" 
d="M809 0q-29 0 -53.5 6.5t-42.5 21t-28.5 38t-10.5 57.5v372h113v-347q0 -28 16 -38t34 -10h17v-100h-45z" />
    <glyph glyph-name="uniF6DA" unicode="&#xf6da;" horiz-adv-x="516" 
d="M243 545l-147 224l117 22l92 -223z" />
    <glyph glyph-name="uniF6DB" unicode="&#xf6db;" horiz-adv-x="516" 
d="M217 568l95 223l114 -22l-147 -224z" />
    <glyph glyph-name="uniF6DC" unicode="&#xf6dc;" horiz-adv-x="518" 
d="M194 719q19 0 37.5 -7.5t35.5 -16.5l32.5 -16.5t27.5 -7.5q17 0 32 10.5t33 35.5l60 -35q-24 -52 -52.5 -75.5t-61.5 -23.5q-20 0 -38.5 7t-36 16t-34 16t-30.5 7q-17 0 -33 -9.5t-36 -35.5l-56 34q23 48 52.5 74.5t67.5 26.5z" />
    <glyph glyph-name="uni1FBD" unicode="&#x1fbd;" horiz-adv-x="519" 
d="M228 563q14 19 22 38t8 33q0 16 -12.5 29.5t-53.5 21.5l34 96q58 -11 93 -39t35 -75q0 -23 -15.5 -59t-53.5 -70z" />
    <glyph glyph-name="uni1FBE" unicode="&#x1fbe;" horiz-adv-x="519" 
d="M315 -53v-84q0 -22 13 -32t33 -10h21v-89h-42q-26 0 -48 6t-38 19.5t-25.5 35t-9.5 52.5v102h96z" />
    <glyph glyph-name="uni1FC1" unicode="&#x1fc1;" horiz-adv-x="540" 
d="M308 579v110h114v-110h-114zM110 579v110h115v-110h-115zM201 866q19 0 37.5 -7.5t35.5 -16.5l32.5 -16.5t27.5 -7.5q17 0 32 11t32 36l60 -35q-24 -52 -52 -75.5t-62 -23.5q-19 0 -37.5 7t-36 16t-34 16t-30.5 7q-17 0 -33 -9.5t-36 -35.5l-57 34q23 48 53 74t68 26z
" />
    <glyph glyph-name="uni1FCD" unicode="&#x1fcd;" horiz-adv-x="519" 
d="M110 570q14 20 22 39t8 33q0 15 -13 29t-53 21l34 96q57 -11 92 -38.5t35 -75.5q0 -23 -15.5 -59t-53.5 -70zM382 545l-148 224l117 22l92 -223z" />
    <glyph glyph-name="uni1FCE" unicode="&#x1fce;" horiz-adv-x="519" 
d="M124 573q14 19 22 38.5t8 33.5q0 15 -12.5 28.5t-53.5 21.5l34 95q58 -11 92.5 -38t34.5 -75q0 -23 -15.5 -59t-53.5 -71zM257 568l95 223l114 -22l-147 -224z" />
    <glyph glyph-name="uni1FCF" unicode="&#x1fcf;" horiz-adv-x="519" 
d="M226 551q17 19 27 34.5t10 29.5q0 13 -13.5 21t-48.5 11l34 80q54 -8 85.5 -28.5t31.5 -56.5q0 -18 -13.5 -47.5t-56.5 -65.5zM213 870q19 0 37.5 -7.5t35.5 -16.5l32.5 -16.5t28.5 -7.5q16 0 31 10.5t33 35.5l60 -34q-24 -52 -52.5 -75.5t-61.5 -23.5q-19 0 -38 7
t-36.5 16t-34 16t-30.5 7q-17 0 -32.5 -9.5t-35.5 -35.5l-57 33q23 48 52.5 74.5t67.5 26.5z" />
    <glyph glyph-name="uni1FDD" unicode="&#x1fdd;" horiz-adv-x="519" 
d="M142 544q-38 35 -54 70.5t-16 58.5q0 48 35 75.5t92 38.5l34 -96q-40 -7 -52.5 -21t-12.5 -29q0 -14 7.5 -33t21.5 -39zM385 545l-147 224l116 22l93 -223z" />
    <glyph glyph-name="uni1FDE" unicode="&#x1fde;" horiz-adv-x="519" 
d="M168 547q-38 34 -54 70t-16 59q0 48 35 75.5t92 38.5l34 -96q-41 -8 -53 -21.5t-12 -28.5q0 -14 8 -33.5t22 -37.5zM261 568l94 223l114 -22l-147 -224z" />
    <glyph glyph-name="uni1FDF" unicode="&#x1fdf;" horiz-adv-x="519" 
d="M264 529q-42 36 -56 65.5t-14 47.5q0 35 31.5 55.5t85.5 28.5l34 -80q-35 -2 -48 -10t-13 -22q0 -24 36 -63zM211 877q19 0 37.5 -7.5t35.5 -16.5l32.5 -16.5t28.5 -7.5q16 0 31 10.5t33 35.5l60 -34q-24 -52 -52.5 -75.5t-61.5 -23.5q-19 0 -38 7t-36.5 16t-34 16
t-30.5 7q-17 0 -32.5 -9.5t-35.5 -35.5l-57 33q23 48 52.5 74.5t67.5 26.5z" />
    <glyph glyph-name="uni1FED" unicode="&#x1fed;" horiz-adv-x="540" 
d="M54 579v110h115v-110h-115zM372 579v110h115v-110h-115zM292 545l-147 224l116 22l93 -223z" />
    <glyph glyph-name="uni1FEE" unicode="&#x1fee;" horiz-adv-x="540" 
d="M372 579v110h115v-110h-115zM54 579v110h115v-110h-115zM196 568l94 223l115 -22l-147 -224z" />
    <glyph glyph-name="uni1FFE" unicode="&#x1ffe;" horiz-adv-x="519" 
d="M263 538q-38 34 -54 70t-16 59q0 47 35 75t93 39l34 -96q-40 -8 -52.5 -21.5t-12.5 -29.5q0 -14 7.5 -33t21.5 -38z" />
    <glyph glyph-name="uni1F00" unicode="&#x1f00;" horiz-adv-x="519" 
d="M45 240q0 45 7 91t27.5 83.5t57.5 61t97 23.5q32 0 60 -10.5t51 -38.5l2 1v44h113v-495h-113v47l-2 1q-25 -27 -55.5 -40.5t-60.5 -13.5q-58 0 -94 22t-56 57t-27 79t-7 88zM161 246q0 -25 2.5 -50.5t12 -46.5t28.5 -34.5t51 -13.5q31 0 49 14.5t27.5 36t12.5 47t3 47.5
q0 23 -2.5 49t-12 48t-28 36.5t-49.5 14.5q-33 0 -51.5 -14t-28 -36t-12 -48t-2.5 -50zM228 563q14 19 22 38t8 33q0 16 -12.5 29.5t-53.5 21.5l34 96q58 -11 93 -39t35 -75q0 -23 -15.5 -59t-53.5 -70z" />
    <glyph glyph-name="uni1F01" unicode="&#x1f01;" horiz-adv-x="519" 
d="M45 240q0 45 7 91t27.5 83.5t57.5 61t97 23.5q32 0 60 -10.5t51 -38.5l2 1v44h113v-495h-113v47l-2 1q-25 -27 -55.5 -40.5t-60.5 -13.5q-58 0 -94 22t-56 57t-27 79t-7 88zM161 246q0 -25 2.5 -50.5t12 -46.5t28.5 -34.5t51 -13.5q31 0 49 14.5t27.5 36t12.5 47t3 47.5
q0 23 -2.5 49t-12 48t-28 36.5t-49.5 14.5q-33 0 -51.5 -14t-28 -36t-12 -48t-2.5 -50zM237 538q-38 34 -54 70t-16 59q0 47 35 75t93 39l34 -96q-40 -8 -52.5 -21.5t-12.5 -29.5q0 -14 7.5 -33t21.5 -38z" />
    <glyph glyph-name="uni1F02" unicode="&#x1f02;" horiz-adv-x="519" 
d="M45 240q0 45 7 91t27.5 83.5t57.5 61t97 23.5q32 0 60 -10.5t51 -38.5l2 1v44h113v-495h-113v47l-2 1q-25 -27 -55.5 -40.5t-60.5 -13.5q-58 0 -94 22t-56 57t-27 79t-7 88zM161 246q0 -25 2.5 -50.5t12 -46.5t28.5 -34.5t51 -13.5q31 0 49 14.5t27.5 36t12.5 47t3 47.5
q0 23 -2.5 49t-12 48t-28 36.5t-49.5 14.5q-33 0 -51.5 -14t-28 -36t-12 -48t-2.5 -50zM110 570q14 20 22 39t8 33q0 15 -13 29t-53 21l34 96q57 -11 92 -38.5t35 -75.5q0 -23 -15.5 -59t-53.5 -70zM382 545l-148 224l117 22l92 -223z" />
    <glyph glyph-name="uni1F03" unicode="&#x1f03;" horiz-adv-x="519" 
d="M45 240q0 45 7 91t27.5 83.5t57.5 61t97 23.5q32 0 60 -10.5t51 -38.5l2 1v44h113v-495h-113v47l-2 1q-25 -27 -55.5 -40.5t-60.5 -13.5q-58 0 -94 22t-56 57t-27 79t-7 88zM161 246q0 -25 2.5 -50.5t12 -46.5t28.5 -34.5t51 -13.5q31 0 49 14.5t27.5 36t12.5 47t3 47.5
q0 23 -2.5 49t-12 48t-28 36.5t-49.5 14.5q-33 0 -51.5 -14t-28 -36t-12 -48t-2.5 -50zM142 544q-38 35 -54 70.5t-16 58.5q0 48 35 75.5t92 38.5l34 -96q-40 -7 -52.5 -21t-12.5 -29q0 -14 7.5 -33t21.5 -39zM385 545l-147 224l116 22l93 -223z" />
    <glyph glyph-name="uni1F04" unicode="&#x1f04;" horiz-adv-x="519" 
d="M45 240q0 45 7 91t27.5 83.5t57.5 61t97 23.5q32 0 60 -10.5t51 -38.5l2 1v44h113v-495h-113v47l-2 1q-25 -27 -55.5 -40.5t-60.5 -13.5q-58 0 -94 22t-56 57t-27 79t-7 88zM161 246q0 -25 2.5 -50.5t12 -46.5t28.5 -34.5t51 -13.5q31 0 49 14.5t27.5 36t12.5 47t3 47.5
q0 23 -2.5 49t-12 48t-28 36.5t-49.5 14.5q-33 0 -51.5 -14t-28 -36t-12 -48t-2.5 -50zM134 573q14 19 22 38.5t8 33.5q0 15 -12.5 28.5t-53.5 21.5l34 95q58 -11 92.5 -38t34.5 -75q0 -23 -15.5 -59t-53.5 -71zM267 568l95 223l114 -22l-147 -224z" />
    <glyph glyph-name="uni1F05" unicode="&#x1f05;" horiz-adv-x="519" 
d="M45 240q0 45 7 91t27.5 83.5t57.5 61t97 23.5q32 0 60 -10.5t51 -38.5l2 1v44h113v-495h-113v47l-2 1q-25 -27 -55.5 -40.5t-60.5 -13.5q-58 0 -94 22t-56 57t-27 79t-7 88zM161 246q0 -25 2.5 -50.5t12 -46.5t28.5 -34.5t51 -13.5q31 0 49 14.5t27.5 36t12.5 47t3 47.5
q0 23 -2.5 49t-12 48t-28 36.5t-49.5 14.5q-33 0 -51.5 -14t-28 -36t-12 -48t-2.5 -50zM178 547q-38 34 -54 70t-16 59q0 48 35 75.5t92 38.5l34 -96q-41 -8 -53 -21.5t-12 -28.5q0 -14 8 -33.5t22 -37.5zM271 568l94 223l114 -22l-147 -224z" />
    <glyph glyph-name="uni1F06" unicode="&#x1f06;" horiz-adv-x="519" 
d="M45 240q0 45 7 91t27.5 83.5t57.5 61t97 23.5q32 0 60 -10.5t51 -38.5l2 1v44h113v-495h-113v47l-2 1q-25 -27 -55.5 -40.5t-60.5 -13.5q-58 0 -94 22t-56 57t-27 79t-7 88zM161 246q0 -25 2.5 -50.5t12 -46.5t28.5 -34.5t51 -13.5q31 0 49 14.5t27.5 36t12.5 47t3 47.5
q0 23 -2.5 49t-12 48t-28 36.5t-49.5 14.5q-33 0 -51.5 -14t-28 -36t-12 -48t-2.5 -50zM225 551q17 19 27 34.5t10 29.5q0 13 -13.5 21t-48.5 11l34 80q54 -8 85.5 -28.5t31.5 -56.5q0 -18 -13.5 -47.5t-56.5 -65.5zM212 870q19 0 37.5 -7.5t35.5 -16.5l32.5 -16.5
t28.5 -7.5q16 0 31 10.5t33 35.5l60 -34q-24 -52 -52.5 -75.5t-61.5 -23.5q-19 0 -38 7t-36.5 16t-34 16t-30.5 7q-17 0 -32.5 -9.5t-35.5 -35.5l-57 33q23 48 52.5 74.5t67.5 26.5z" />
    <glyph glyph-name="uni1F07" unicode="&#x1f07;" horiz-adv-x="519" 
d="M45 240q0 45 7 91t27.5 83.5t57.5 61t97 23.5q32 0 60 -10.5t51 -38.5l2 1v44h113v-495h-113v47l-2 1q-25 -27 -55.5 -40.5t-60.5 -13.5q-58 0 -94 22t-56 57t-27 79t-7 88zM161 246q0 -25 2.5 -50.5t12 -46.5t28.5 -34.5t51 -13.5q31 0 49 14.5t27.5 36t12.5 47t3 47.5
q0 23 -2.5 49t-12 48t-28 36.5t-49.5 14.5q-33 0 -51.5 -14t-28 -36t-12 -48t-2.5 -50zM264 529q-42 36 -56 65.5t-14 47.5q0 35 31.5 55.5t85.5 28.5l34 -80q-35 -2 -48 -10t-13 -22q0 -24 36 -63zM211 877q19 0 37.5 -7.5t35.5 -16.5l32.5 -16.5t28.5 -7.5q16 0 31 10.5
t33 35.5l60 -34q-24 -52 -52.5 -75.5t-61.5 -23.5q-19 0 -38 7t-36.5 16t-34 16t-30.5 7q-17 0 -32.5 -9.5t-35.5 -35.5l-57 33q23 48 52.5 74.5t67.5 26.5z" />
    <glyph glyph-name="uni1F08" unicode="&#x1f08;" horiz-adv-x="629" 
d="M498 0l-55 154h-258l-56 -154h-127l263 696h98l263 -696h-128zM361 398l-46 143h-3l-45 -140l-47 -144h187zM-17 507q14 19 22 38t8 33q0 16 -12.5 29.5t-53.5 21.5l34 96q58 -11 93 -39t35 -75q0 -23 -15.5 -59t-53.5 -70z" />
    <glyph glyph-name="uni1F09" unicode="&#x1f09;" horiz-adv-x="629" 
d="M498 0l-55 154h-258l-56 -154h-127l263 696h98l263 -696h-128zM361 398l-46 143h-3l-45 -140l-47 -144h187zM25 483q-38 34 -54 70t-16 59q0 47 35 75t93 39l34 -96q-40 -8 -52.5 -21.5t-12.5 -29.5q0 -14 7.5 -33t21.5 -38z" />
    <glyph glyph-name="uni1F0A" unicode="&#x1f0a;" horiz-adv-x="629" 
d="M498 0l-55 154h-258l-56 -154h-127l263 696h98l263 -696h-128zM361 398l-46 143h-3l-45 -140l-47 -144h187zM-195 514q14 20 22 39t8 33q0 15 -13 29t-53 21l34 96q57 -11 92 -38.5t35 -75.5q0 -23 -15.5 -59t-53.5 -70zM77 489l-148 224l117 22l92 -223z" />
    <glyph glyph-name="uni1F0B" unicode="&#x1f0b;" horiz-adv-x="629" 
d="M498 0l-55 154h-258l-56 -154h-127l263 696h98l263 -696h-128zM361 398l-46 143h-3l-45 -140l-47 -144h187zM-162 489q-38 35 -54 70.5t-16 58.5q0 48 35 75.5t92 38.5l34 -96q-40 -7 -52.5 -21t-12.5 -29q0 -14 7.5 -33t21.5 -39zM81 490l-147 224l116 22l93 -223z" />
    <glyph glyph-name="uni1F0C" unicode="&#x1f0c;" horiz-adv-x="629" 
d="M498 0l-55 154h-258l-56 -154h-127l263 696h98l263 -696h-128zM361 398l-46 143h-3l-45 -140l-47 -144h187zM-186 516q14 19 22 38.5t8 33.5q0 15 -12.5 28.5t-53.5 21.5l34 95q58 -11 92.5 -38t34.5 -75q0 -23 -15.5 -59t-53.5 -71zM-53 511l95 223l114 -22l-147 -224z
" />
    <glyph glyph-name="uni1F0D" unicode="&#x1f0d;" horiz-adv-x="629" 
d="M498 0l-55 154h-258l-56 -154h-127l263 696h98l263 -696h-128zM361 398l-46 143h-3l-45 -140l-47 -144h187zM-146 492q-38 34 -54 70t-16 59q0 48 35 75.5t92 38.5l34 -96q-41 -8 -53 -21.5t-12 -28.5q0 -14 8 -33.5t22 -37.5zM-53 513l94 223l114 -22l-147 -224z" />
    <glyph glyph-name="uni1F0E" unicode="&#x1f0e;" horiz-adv-x="629" 
d="M498 0l-55 154h-258l-56 -154h-127l263 696h98l263 -696h-128zM361 398l-46 143h-3l-45 -140l-47 -144h187zM-71 441q17 19 27 34.5t10 29.5q0 13 -13.5 21t-48.5 11l34 80q54 -8 85.5 -28.5t31.5 -56.5q0 -18 -13.5 -47.5t-56.5 -65.5zM-84 760q19 0 37.5 -7.5
t35.5 -16.5l32.5 -16.5t28.5 -7.5q16 0 31 10.5t33 35.5l60 -34q-24 -52 -52.5 -75.5t-61.5 -23.5q-19 0 -38 7t-36.5 16t-34 16t-30.5 7q-17 0 -32.5 -9.5t-35.5 -35.5l-57 33q23 48 52.5 74.5t67.5 26.5z" />
    <glyph glyph-name="uni1F0F" unicode="&#x1f0f;" horiz-adv-x="629" 
d="M498 0l-55 154h-258l-56 -154h-127l263 696h98l263 -696h-128zM361 398l-46 143h-3l-45 -140l-47 -144h187zM-26 420q-42 36 -56 65.5t-14 47.5q0 35 31.5 55.5t85.5 28.5l34 -80q-35 -2 -48 -10t-13 -22q0 -24 36 -63zM-79 768q19 0 37.5 -7.5t35.5 -16.5l32.5 -16.5
t28.5 -7.5q16 0 31 10.5t33 35.5l60 -34q-24 -52 -52.5 -75.5t-61.5 -23.5q-19 0 -38 7t-36.5 16t-34 16t-30.5 7q-17 0 -32.5 -9.5t-35.5 -35.5l-57 33q23 48 52.5 74.5t67.5 26.5z" />
    <glyph glyph-name="uni1F10" unicode="&#x1f10;" horiz-adv-x="458" 
d="M441 69q-41 -38 -92.5 -56t-105.5 -18q-44 0 -80.5 10t-62.5 29.5t-40.5 47.5t-14.5 64q0 12 4 27.5t12.5 31t22.5 29.5t34 22v2q-18 6 -31 17t-20.5 24t-11 27t-3.5 27q0 30 12.5 56.5t37 47t60.5 32t83 11.5q54 0 101.5 -15.5t85.5 -53.5l-69 -80q-24 24 -54.5 34
t-58.5 10q-33 0 -58 -14t-25 -39q0 -19 14 -32t54 -13h72v-88h-74q-35 0 -54.5 -15t-19.5 -39q0 -22 22.5 -39t70.5 -17q28 0 60.5 11t55.5 37zM185 563q14 19 22 38t8 33q0 16 -12.5 29.5t-53.5 21.5l34 96q58 -11 93 -39t35 -75q0 -23 -15.5 -59t-53.5 -70z" />
    <glyph glyph-name="uni1F11" unicode="&#x1f11;" horiz-adv-x="458" 
d="M441 69q-41 -38 -92.5 -56t-105.5 -18q-44 0 -80.5 10t-62.5 29.5t-40.5 47.5t-14.5 64q0 12 4 27.5t12.5 31t22.5 29.5t34 22v2q-18 6 -31 17t-20.5 24t-11 27t-3.5 27q0 30 12.5 56.5t37 47t60.5 32t83 11.5q54 0 101.5 -15.5t85.5 -53.5l-69 -80q-24 24 -54.5 34
t-58.5 10q-33 0 -58 -14t-25 -39q0 -19 14 -32t54 -13h72v-88h-74q-35 0 -54.5 -15t-19.5 -39q0 -22 22.5 -39t70.5 -17q28 0 60.5 11t55.5 37zM226 538q-38 34 -54 70t-16 59q0 47 35 75t93 39l34 -96q-40 -8 -52.5 -21.5t-12.5 -29.5q0 -14 7.5 -33t21.5 -38z" />
    <glyph glyph-name="uni1F12" unicode="&#x1f12;" horiz-adv-x="458" 
d="M441 69q-41 -38 -92.5 -56t-105.5 -18q-44 0 -80.5 10t-62.5 29.5t-40.5 47.5t-14.5 64q0 12 4 27.5t12.5 31t22.5 29.5t34 22v2q-18 6 -31 17t-20.5 24t-11 27t-3.5 27q0 30 12.5 56.5t37 47t60.5 32t83 11.5q54 0 101.5 -15.5t85.5 -53.5l-69 -80q-24 24 -54.5 34
t-58.5 10q-33 0 -58 -14t-25 -39q0 -19 14 -32t54 -13h72v-88h-74q-35 0 -54.5 -15t-19.5 -39q0 -22 22.5 -39t70.5 -17q28 0 60.5 11t55.5 37zM81 570q14 20 22 39t8 33q0 15 -13 29t-53 21l34 96q57 -11 92 -38.5t35 -75.5q0 -23 -15.5 -59t-53.5 -70zM353 545l-148 224
l117 22l92 -223z" />
    <glyph glyph-name="uni1F13" unicode="&#x1f13;" horiz-adv-x="458" 
d="M441 69q-41 -38 -92.5 -56t-105.5 -18q-44 0 -80.5 10t-62.5 29.5t-40.5 47.5t-14.5 64q0 12 4 27.5t12.5 31t22.5 29.5t34 22v2q-18 6 -31 17t-20.5 24t-11 27t-3.5 27q0 30 12.5 56.5t37 47t60.5 32t83 11.5q54 0 101.5 -15.5t85.5 -53.5l-69 -80q-24 24 -54.5 34
t-58.5 10q-33 0 -58 -14t-25 -39q0 -19 14 -32t54 -13h72v-88h-74q-35 0 -54.5 -15t-19.5 -39q0 -22 22.5 -39t70.5 -17q28 0 60.5 11t55.5 37zM107 544q-38 35 -54 70.5t-16 58.5q0 48 35 75.5t92 38.5l34 -96q-40 -7 -52.5 -21t-12.5 -29q0 -14 7.5 -33t21.5 -39zM350 545
l-147 224l116 22l93 -223z" />
    <glyph glyph-name="uni1F14" unicode="&#x1f14;" horiz-adv-x="458" 
d="M441 69q-41 -38 -92.5 -56t-105.5 -18q-44 0 -80.5 10t-62.5 29.5t-40.5 47.5t-14.5 64q0 12 4 27.5t12.5 31t22.5 29.5t34 22v2q-18 6 -31 17t-20.5 24t-11 27t-3.5 27q0 30 12.5 56.5t37 47t60.5 32t83 11.5q54 0 101.5 -15.5t85.5 -53.5l-69 -80q-24 24 -54.5 34
t-58.5 10q-33 0 -58 -14t-25 -39q0 -19 14 -32t54 -13h72v-88h-74q-35 0 -54.5 -15t-19.5 -39q0 -22 22.5 -39t70.5 -17q28 0 60.5 11t55.5 37zM132 573q14 19 22 38.5t8 33.5q0 15 -12.5 28.5t-53.5 21.5l34 95q58 -11 92.5 -38t34.5 -75q0 -23 -15.5 -59t-53.5 -71z
M265 568l95 223l114 -22l-147 -224z" />
    <glyph glyph-name="uni1F15" unicode="&#x1f15;" horiz-adv-x="458" 
d="M441 69q-41 -38 -92.5 -56t-105.5 -18q-44 0 -80.5 10t-62.5 29.5t-40.5 47.5t-14.5 64q0 12 4 27.5t12.5 31t22.5 29.5t34 22v2q-18 6 -31 17t-20.5 24t-11 27t-3.5 27q0 30 12.5 56.5t37 47t60.5 32t83 11.5q54 0 101.5 -15.5t85.5 -53.5l-69 -80q-24 24 -54.5 34
t-58.5 10q-33 0 -58 -14t-25 -39q0 -19 14 -32t54 -13h72v-88h-74q-35 0 -54.5 -15t-19.5 -39q0 -22 22.5 -39t70.5 -17q28 0 60.5 11t55.5 37zM168 547q-38 34 -54 70t-16 59q0 48 35 75.5t92 38.5l34 -96q-41 -8 -53 -21.5t-12 -28.5q0 -14 8 -33.5t22 -37.5zM261 568
l94 223l114 -22l-147 -224z" />
    <glyph glyph-name="uni1F18" unicode="&#x1f18;" horiz-adv-x="564" 
d="M73 0v696h466v-110h-345v-182h294v-106h-294v-188h345v-110h-466zM-122 513q14 19 22 38t8 33q0 16 -12.5 29.5t-53.5 21.5l34 96q58 -11 93 -39t35 -75q0 -23 -15.5 -59t-53.5 -70z" />
    <glyph glyph-name="uni1F19" unicode="&#x1f19;" horiz-adv-x="564" 
d="M73 0v696h466v-110h-345v-182h294v-106h-294v-188h345v-110h-466zM-90 488q-38 34 -54 70t-16 59q0 47 35 75t93 39l34 -96q-40 -8 -52.5 -21.5t-12.5 -29.5q0 -14 7.5 -33t21.5 -38z" />
    <glyph glyph-name="uni1F1A" unicode="&#x1f1a;" horiz-adv-x="564" 
d="M73 0v696h466v-110h-345v-182h294v-106h-294v-188h345v-110h-466zM-314 520q14 20 22 39t8 33q0 15 -13 29t-53 21l34 96q57 -11 92 -38.5t35 -75.5q0 -23 -15.5 -59t-53.5 -70zM-42 495l-148 224l117 22l92 -223z" />
    <glyph glyph-name="uni1F1B" unicode="&#x1f1b;" horiz-adv-x="564" 
d="M73 0v696h466v-110h-345v-182h294v-106h-294v-188h345v-110h-466zM-285 494q-38 35 -54 70.5t-16 58.5q0 48 35 75.5t92 38.5l34 -96q-40 -7 -52.5 -21t-12.5 -29q0 -14 7.5 -33t21.5 -39zM-42 495l-147 224l116 22l93 -223z" />
    <glyph glyph-name="uni1F1C" unicode="&#x1f1c;" horiz-adv-x="564" 
d="M73 0v696h466v-110h-345v-182h294v-106h-294v-188h345v-110h-466zM-323 523q14 19 22 38.5t8 33.5q0 15 -12.5 28.5t-53.5 21.5l34 95q58 -11 92.5 -38t34.5 -75q0 -23 -15.5 -59t-53.5 -71zM-190 518l95 223l114 -22l-147 -224z" />
    <glyph glyph-name="uni1F1D" unicode="&#x1f1d;" horiz-adv-x="564" 
d="M73 0v696h466v-110h-345v-182h294v-106h-294v-188h345v-110h-466zM-283 497q-38 34 -54 70t-16 59q0 48 35 75.5t92 38.5l34 -96q-41 -8 -53 -21.5t-12 -28.5q0 -14 8 -33.5t22 -37.5zM-190 518l94 223l114 -22l-147 -224z" />
    <glyph glyph-name="uni1F20" unicode="&#x1f20;" horiz-adv-x="538" 
d="M362 0v294q0 48 -21.5 74t-69.5 26q-41 0 -68.5 -26t-27.5 -74v-294h-113v496h113v-52h3q24 27 59.5 41.5t69.5 14.5q76 0 121.5 -43.5t45.5 -131.5v-325h-112zM216 563q14 19 22 38t8 33q0 16 -12.5 29.5t-53.5 21.5l34 96q58 -11 93 -39t35 -75q0 -23 -15.5 -59
t-53.5 -70z" />
    <glyph glyph-name="uni1F21" unicode="&#x1f21;" horiz-adv-x="538" 
d="M362 0v294q0 48 -21.5 74t-69.5 26q-41 0 -68.5 -26t-27.5 -74v-294h-113v496h113v-52h3q24 27 59.5 41.5t69.5 14.5q76 0 121.5 -43.5t45.5 -131.5v-325h-112zM251 538q-38 34 -54 70t-16 59q0 47 35 75t93 39l34 -96q-40 -8 -52.5 -21.5t-12.5 -29.5q0 -14 7.5 -33
t21.5 -38z" />
    <glyph glyph-name="uni1F22" unicode="&#x1f22;" horiz-adv-x="538" 
d="M362 0v294q0 48 -21.5 74t-69.5 26q-41 0 -68.5 -26t-27.5 -74v-294h-113v496h113v-52h3q24 27 59.5 41.5t69.5 14.5q76 0 121.5 -43.5t45.5 -131.5v-325h-112zM99 570q14 20 22 39t8 33q0 15 -13 29t-53 21l34 96q57 -11 92 -38.5t35 -75.5q0 -23 -15.5 -59t-53.5 -70z
M371 545l-148 224l117 22l92 -223z" />
    <glyph glyph-name="uni1F23" unicode="&#x1f23;" horiz-adv-x="538" 
d="M362 0v294q0 48 -21.5 74t-69.5 26q-41 0 -68.5 -26t-27.5 -74v-294h-113v496h113v-52h3q24 27 59.5 41.5t69.5 14.5q76 0 121.5 -43.5t45.5 -131.5v-325h-112zM135 544q-38 35 -54 70.5t-16 58.5q0 48 35 75.5t92 38.5l34 -96q-40 -7 -52.5 -21t-12.5 -29q0 -14 7.5 -33
t21.5 -39zM378 545l-147 224l116 22l93 -223z" />
    <glyph glyph-name="uni1F24" unicode="&#x1f24;" horiz-adv-x="538" 
d="M362 0v294q0 48 -21.5 74t-69.5 26q-41 0 -68.5 -26t-27.5 -74v-294h-113v496h113v-52h3q24 27 59.5 41.5t69.5 14.5q76 0 121.5 -43.5t45.5 -131.5v-325h-112zM126 573q14 19 22 38.5t8 33.5q0 15 -12.5 28.5t-53.5 21.5l34 95q58 -11 92.5 -38t34.5 -75
q0 -23 -15.5 -59t-53.5 -71zM259 568l95 223l114 -22l-147 -224z" />
    <glyph glyph-name="uni1F25" unicode="&#x1f25;" horiz-adv-x="538" 
d="M362 0v294q0 48 -21.5 74t-69.5 26q-41 0 -68.5 -26t-27.5 -74v-294h-113v496h113v-52h3q24 27 59.5 41.5t69.5 14.5q76 0 121.5 -43.5t45.5 -131.5v-325h-112zM175 547q-38 34 -54 70t-16 59q0 48 35 75.5t92 38.5l34 -96q-41 -8 -53 -21.5t-12 -28.5q0 -14 8 -33.5
t22 -37.5zM268 568l94 223l114 -22l-147 -224z" />
    <glyph glyph-name="uni1F26" unicode="&#x1f26;" horiz-adv-x="538" 
d="M362 0v294q0 48 -21.5 74t-69.5 26q-41 0 -68.5 -26t-27.5 -74v-294h-113v496h113v-52h3q24 27 59.5 41.5t69.5 14.5q76 0 121.5 -43.5t45.5 -131.5v-325h-112zM198 551q17 19 27 34.5t10 29.5q0 13 -13.5 21t-48.5 11l34 80q54 -8 85.5 -28.5t31.5 -56.5
q0 -18 -13.5 -47.5t-56.5 -65.5zM185 870q19 0 37.5 -7.5t35.5 -16.5l32.5 -16.5t28.5 -7.5q16 0 31 10.5t33 35.5l60 -34q-24 -52 -52.5 -75.5t-61.5 -23.5q-19 0 -38 7t-36.5 16t-34 16t-30.5 7q-17 0 -32.5 -9.5t-35.5 -35.5l-57 33q23 48 52.5 74.5t67.5 26.5z" />
    <glyph glyph-name="uni1F27" unicode="&#x1f27;" horiz-adv-x="538" 
d="M362 0v294q0 48 -21.5 74t-69.5 26q-41 0 -68.5 -26t-27.5 -74v-294h-113v496h113v-52h3q24 27 59.5 41.5t69.5 14.5q76 0 121.5 -43.5t45.5 -131.5v-325h-112zM240 528q-42 36 -56 65.5t-14 47.5q0 35 31.5 55.5t85.5 28.5l34 -80q-35 -2 -48 -10t-13 -22q0 -24 36 -63z
M187 876q19 0 37.5 -7.5t35.5 -16.5l32.5 -16.5t28.5 -7.5q16 0 31 10.5t33 35.5l60 -34q-24 -52 -52.5 -75.5t-61.5 -23.5q-19 0 -38 7t-36.5 16t-34 16t-30.5 7q-17 0 -32.5 -9.5t-35.5 -35.5l-57 33q23 48 52.5 74.5t67.5 26.5z" />
    <glyph glyph-name="uni1F28" unicode="&#x1f28;" horiz-adv-x="655" 
d="M462 0v298h-268v-298h-121v696h121v-292h268v292h120v-696h-120zM-121 513q14 19 22 38t8 33q0 16 -12.5 29.5t-53.5 21.5l34 96q58 -11 93 -39t35 -75q0 -23 -15.5 -59t-53.5 -70z" />
    <glyph glyph-name="uni1F29" unicode="&#x1f29;" horiz-adv-x="655" 
d="M462 0v298h-268v-298h-121v696h121v-292h268v292h120v-696h-120zM-89 488q-38 34 -54 70t-16 59q0 47 35 75t93 39l34 -96q-40 -8 -52.5 -21.5t-12.5 -29.5q0 -14 7.5 -33t21.5 -38z" />
    <glyph glyph-name="uni1F2A" unicode="&#x1f2a;" horiz-adv-x="655" 
d="M462 0v298h-268v-298h-121v696h121v-292h268v292h120v-696h-120zM-327 520q14 20 22 39t8 33q0 15 -13 29t-53 21l34 96q57 -11 92 -38.5t35 -75.5q0 -23 -15.5 -59t-53.5 -70zM-55 495l-148 224l117 22l92 -223z" />
    <glyph glyph-name="uni1F2B" unicode="&#x1f2b;" horiz-adv-x="655" 
d="M462 0v298h-268v-298h-121v696h121v-292h268v292h120v-696h-120zM-302 494q-38 35 -54 70.5t-16 58.5q0 48 35 75.5t92 38.5l34 -96q-40 -7 -52.5 -21t-12.5 -29q0 -14 7.5 -33t21.5 -39zM-59 495l-147 224l116 22l93 -223z" />
    <glyph glyph-name="uni1F2C" unicode="&#x1f2c;" horiz-adv-x="655" 
d="M462 0v298h-268v-298h-121v696h121v-292h268v292h120v-696h-120zM-327 523q14 19 22 38.5t8 33.5q0 15 -12.5 28.5t-53.5 21.5l34 95q58 -11 92.5 -38t34.5 -75q0 -23 -15.5 -59t-53.5 -71zM-194 518l95 223l114 -22l-147 -224z" />
    <glyph glyph-name="uni1F2D" unicode="&#x1f2d;" horiz-adv-x="655" 
d="M462 0v298h-268v-298h-121v696h121v-292h268v292h120v-696h-120zM-281 497q-38 34 -54 70t-16 59q0 48 35 75.5t92 38.5l34 -96q-41 -8 -53 -21.5t-12 -28.5q0 -14 8 -33.5t22 -37.5zM-188 518l94 223l114 -22l-147 -224z" />
    <glyph glyph-name="uni1F2E" unicode="&#x1f2e;" horiz-adv-x="655" 
d="M462 0v298h-268v-298h-121v696h121v-292h268v292h120v-696h-120zM-223 442q17 19 27 34.5t10 29.5q0 13 -13.5 21t-48.5 11l34 80q54 -8 85.5 -28.5t31.5 -56.5q0 -18 -13.5 -47.5t-56.5 -65.5zM-236 761q19 0 37.5 -7.5t35.5 -16.5l32.5 -16.5t28.5 -7.5q16 0 31 10.5
t33 35.5l60 -34q-24 -52 -52.5 -75.5t-61.5 -23.5q-19 0 -38 7t-36.5 16t-34 16t-30.5 7q-17 0 -32.5 -9.5t-35.5 -35.5l-57 33q23 48 52.5 74.5t67.5 26.5z" />
    <glyph glyph-name="uni1F2F" unicode="&#x1f2f;" horiz-adv-x="655" 
d="M462 0v298h-268v-298h-121v696h121v-292h268v292h120v-696h-120zM-184 420q-42 36 -56 65.5t-14 47.5q0 35 31.5 55.5t85.5 28.5l34 -80q-35 -2 -48 -10t-13 -22q0 -24 36 -63zM-237 768q19 0 37.5 -7.5t35.5 -16.5l32.5 -16.5t28.5 -7.5q16 0 31 10.5t33 35.5l60 -34
q-24 -52 -52.5 -75.5t-61.5 -23.5q-19 0 -38 7t-36.5 16t-34 16t-30.5 7q-17 0 -32.5 -9.5t-35.5 -35.5l-57 33q23 48 52.5 74.5t67.5 26.5z" />
    <glyph glyph-name="uni1F30" unicode="&#x1f30;" horiz-adv-x="263" 
d="M227 -4q-9 -1 -18 -1h-17q-42 0 -67 11t-38.5 29t-17.5 42t-4 51v367h112v-360q0 -26 9 -36t43 -10zM79 563q14 19 22 38t8 33q0 16 -12.5 29.5t-53.5 21.5l34 96q58 -11 93 -39t35 -75q0 -23 -15.5 -59t-53.5 -70z" />
    <glyph glyph-name="uni1F31" unicode="&#x1f31;" horiz-adv-x="263" 
d="M227 -4q-9 -1 -18 -1h-17q-42 0 -67 11t-38.5 29t-17.5 42t-4 51v367h112v-360q0 -26 9 -36t43 -10zM111 538q-38 34 -54 70t-16 59q0 47 35 75t93 39l34 -96q-40 -8 -52.5 -21.5t-12.5 -29.5q0 -14 7.5 -33t21.5 -38z" />
    <glyph glyph-name="uni1F32" unicode="&#x1f32;" horiz-adv-x="263" 
d="M227 -4q-9 -1 -18 -1h-17q-42 0 -67 11t-38.5 29t-17.5 42t-4 51v367h112v-360q0 -26 9 -36t43 -10zM-27 570q14 20 22 39t8 33q0 15 -13 29t-53 21l34 96q57 -11 92 -38.5t35 -75.5q0 -23 -15.5 -59t-53.5 -70zM245 545l-148 224l117 22l92 -223z" />
    <glyph glyph-name="uni1F33" unicode="&#x1f33;" horiz-adv-x="263" 
d="M227 -4q-9 -1 -18 -1h-17q-42 0 -67 11t-38.5 29t-17.5 42t-4 51v367h112v-360q0 -26 9 -36t43 -10zM7 546q-38 35 -54 70.5t-16 58.5q0 48 35 75.5t92 38.5l34 -96q-40 -7 -52.5 -21t-12.5 -29q0 -14 7.5 -33t21.5 -39zM250 547l-147 224l116 22l93 -223z" />
    <glyph glyph-name="uni1F34" unicode="&#x1f34;" horiz-adv-x="263" 
d="M227 -4q-9 -1 -18 -1h-17q-42 0 -67 11t-38.5 29t-17.5 42t-4 51v367h112v-360q0 -26 9 -36t43 -10zM18 573q14 19 22 38.5t8 33.5q0 15 -12.5 28.5t-53.5 21.5l34 95q58 -11 92.5 -38t34.5 -75q0 -23 -15.5 -59t-53.5 -71zM151 568l95 223l114 -22l-147 -224z" />
    <glyph glyph-name="uni1F35" unicode="&#x1f35;" horiz-adv-x="263" 
d="M227 -4q-9 -1 -18 -1h-17q-42 0 -67 11t-38.5 29t-17.5 42t-4 51v367h112v-360q0 -26 9 -36t43 -10zM53 547q-38 34 -54 70t-16 59q0 48 35 75.5t92 38.5l34 -96q-41 -8 -53 -21.5t-12 -28.5q0 -14 8 -33.5t22 -37.5zM146 568l94 223l114 -22l-147 -224z" />
    <glyph glyph-name="uni1F36" unicode="&#x1f36;" horiz-adv-x="263" 
d="M227 -4q-9 -1 -18 -1h-17q-42 0 -67 11t-38.5 29t-17.5 42t-4 51v367h112v-360q0 -26 9 -36t43 -10zM80 551q17 19 27 34.5t10 29.5q0 13 -13.5 21t-48.5 11l34 80q54 -8 85.5 -28.5t31.5 -56.5q0 -18 -13.5 -47.5t-56.5 -65.5zM67 870q19 0 37.5 -7.5t35.5 -16.5
l32.5 -16.5t28.5 -7.5q16 0 31 10.5t33 35.5l60 -34q-24 -52 -52.5 -75.5t-61.5 -23.5q-19 0 -38 7t-36.5 16t-34 16t-30.5 7q-17 0 -32.5 -9.5t-35.5 -35.5l-57 33q23 48 52.5 74.5t67.5 26.5z" />
    <glyph glyph-name="uni1F37" unicode="&#x1f37;" horiz-adv-x="263" 
d="M227 -4q-9 -1 -18 -1h-17q-42 0 -67 11t-38.5 29t-17.5 42t-4 51v367h112v-360q0 -26 9 -36t43 -10zM112 529q-42 36 -56 65.5t-14 47.5q0 35 31.5 55.5t85.5 28.5l34 -80q-35 -2 -48 -10t-13 -22q0 -24 36 -63zM59 877q19 0 37.5 -7.5t35.5 -16.5l32.5 -16.5t28.5 -7.5
q16 0 31 10.5t33 35.5l60 -34q-24 -52 -52.5 -75.5t-61.5 -23.5q-19 0 -38 7t-36.5 16t-34 16t-30.5 7q-17 0 -32.5 -9.5t-35.5 -35.5l-57 33q23 48 52.5 74.5t67.5 26.5z" />
    <glyph glyph-name="uni1F38" unicode="&#x1f38;" horiz-adv-x="268" 
d="M74 0v696h122v-696h-122zM-123 513q14 19 22 38t8 33q0 16 -12.5 29.5t-53.5 21.5l34 96q58 -11 93 -39t35 -75q0 -23 -15.5 -59t-53.5 -70z" />
    <glyph glyph-name="uni1F39" unicode="&#x1f39;" horiz-adv-x="268" 
d="M74 0v696h122v-696h-122zM-73 488q-38 34 -54 70t-16 59q0 47 35 75t93 39l34 -96q-40 -8 -52.5 -21.5t-12.5 -29.5q0 -14 7.5 -33t21.5 -38z" />
    <glyph glyph-name="uni1F3A" unicode="&#x1f3a;" horiz-adv-x="268" 
d="M74 0v696h122v-696h-122zM-302 520q14 20 22 39t8 33q0 15 -13 29t-53 21l34 96q57 -11 92 -38.5t35 -75.5q0 -23 -15.5 -59t-53.5 -70zM-30 495l-148 224l117 22l92 -223z" />
    <glyph glyph-name="uni1F3B" unicode="&#x1f3b;" horiz-adv-x="268" 
d="M74 0v696h122v-696h-122zM-272 494q-38 35 -54 70.5t-16 58.5q0 48 35 75.5t92 38.5l34 -96q-40 -7 -52.5 -21t-12.5 -29q0 -14 7.5 -33t21.5 -39zM-29 495l-147 224l116 22l93 -223z" />
    <glyph glyph-name="uni1F3C" unicode="&#x1f3c;" horiz-adv-x="268" 
d="M74 0v696h122v-696h-122zM-294 523q14 19 22 38.5t8 33.5q0 15 -12.5 28.5t-53.5 21.5l34 95q58 -11 92.5 -38t34.5 -75q0 -23 -15.5 -59t-53.5 -71zM-161 518l95 223l114 -22l-147 -224z" />
    <glyph glyph-name="uni1F3D" unicode="&#x1f3d;" horiz-adv-x="268" 
d="M74 0v696h122v-696h-122zM-255 497q-38 34 -54 70t-16 59q0 48 35 75.5t92 38.5l34 -96q-41 -8 -53 -21.5t-12 -28.5q0 -14 8 -33.5t22 -37.5zM-162 518l94 223l114 -22l-147 -224z" />
    <glyph glyph-name="uni1F3E" unicode="&#x1f3e;" horiz-adv-x="268" 
d="M74 0v696h122v-696h-122zM-208 441q17 19 27 34.5t10 29.5q0 13 -13.5 21t-48.5 11l34 80q54 -8 85.5 -28.5t31.5 -56.5q0 -18 -13.5 -47.5t-56.5 -65.5zM-221 760q19 0 37.5 -7.5t35.5 -16.5l32.5 -16.5t28.5 -7.5q16 0 31 10.5t33 35.5l60 -34q-24 -52 -52.5 -75.5
t-61.5 -23.5q-19 0 -38 7t-36.5 16t-34 16t-30.5 7q-17 0 -32.5 -9.5t-35.5 -35.5l-57 33q23 48 52.5 74.5t67.5 26.5z" />
    <glyph glyph-name="uni1F3F" unicode="&#x1f3f;" horiz-adv-x="268" 
d="M74 0v696h122v-696h-122zM-167 419q-42 36 -56 65.5t-14 47.5q0 35 31.5 55.5t85.5 28.5l34 -80q-35 -2 -48 -10t-13 -22q0 -24 36 -63zM-220 767q19 0 37.5 -7.5t35.5 -16.5l32.5 -16.5t28.5 -7.5q16 0 31 10.5t33 35.5l60 -34q-24 -52 -52.5 -75.5t-61.5 -23.5
q-19 0 -38 7t-36.5 16t-34 16t-30.5 7q-17 0 -32.5 -9.5t-35.5 -35.5l-57 33q23 48 52.5 74.5t67.5 26.5z" />
    <glyph glyph-name="uni1F40" unicode="&#x1f40;" horiz-adv-x="515" 
d="M264 501q56 0 100.5 -21.5t71.5 -61.5q19 -29 28 -70.5t8 -92.5q0 -57 -8.5 -97.5t-25.5 -70.5q-29 -47 -78 -70.5t-108 -23.5q-56 0 -100 19t-71 59q-41 61 -39 176q0 40 5.5 76t19.5 64q26 55 77.5 84.5t119.5 29.5zM260 399q-29 0 -52 -15t-35 -41q-9 -20 -12.5 -44
t-4.5 -53q0 -29 3 -53t12 -42q11 -26 33 -40.5t51 -14.5q32 0 57 17.5t36 53.5q5 14 7 35t2 53q0 58 -13 87q-11 29 -33.5 43t-50.5 14zM200 563q14 19 22 38t8 33q0 16 -12.5 29.5t-53.5 21.5l34 96q58 -11 93 -39t35 -75q0 -23 -15.5 -59t-53.5 -70z" />
    <glyph glyph-name="uni1F41" unicode="&#x1f41;" horiz-adv-x="515" 
d="M264 501q56 0 100.5 -21.5t71.5 -61.5q19 -29 28 -70.5t8 -92.5q0 -57 -8.5 -97.5t-25.5 -70.5q-29 -47 -78 -70.5t-108 -23.5q-56 0 -100 19t-71 59q-41 61 -39 176q0 40 5.5 76t19.5 64q26 55 77.5 84.5t119.5 29.5zM260 399q-29 0 -52 -15t-35 -41q-9 -20 -12.5 -44
t-4.5 -53q0 -29 3 -53t12 -42q11 -26 33 -40.5t51 -14.5q32 0 57 17.5t36 53.5q5 14 7 35t2 53q0 58 -13 87q-11 29 -33.5 43t-50.5 14zM246 538q-38 34 -54 70t-16 59q0 47 35 75t93 39l34 -96q-40 -8 -52.5 -21.5t-12.5 -29.5q0 -14 7.5 -33t21.5 -38z" />
    <glyph glyph-name="uni1F42" unicode="&#x1f42;" horiz-adv-x="515" 
d="M264 501q56 0 100.5 -21.5t71.5 -61.5q19 -29 28 -70.5t8 -92.5q0 -57 -8.5 -97.5t-25.5 -70.5q-29 -47 -78 -70.5t-108 -23.5q-56 0 -100 19t-71 59q-41 61 -39 176q0 40 5.5 76t19.5 64q26 55 77.5 84.5t119.5 29.5zM260 399q-29 0 -52 -15t-35 -41q-9 -20 -12.5 -44
t-4.5 -53q0 -29 3 -53t12 -42q11 -26 33 -40.5t51 -14.5q32 0 57 17.5t36 53.5q5 14 7 35t2 53q0 58 -13 87q-11 29 -33.5 43t-50.5 14zM95 570q14 20 22 39t8 33q0 15 -13 29t-53 21l34 96q57 -11 92 -38.5t35 -75.5q0 -23 -15.5 -59t-53.5 -70zM367 545l-148 224l117 22
l92 -223z" />
    <glyph glyph-name="uni1F43" unicode="&#x1f43;" horiz-adv-x="515" 
d="M264 501q56 0 100.5 -21.5t71.5 -61.5q19 -29 28 -70.5t8 -92.5q0 -57 -8.5 -97.5t-25.5 -70.5q-29 -47 -78 -70.5t-108 -23.5q-56 0 -100 19t-71 59q-41 61 -39 176q0 40 5.5 76t19.5 64q26 55 77.5 84.5t119.5 29.5zM260 399q-29 0 -52 -15t-35 -41q-9 -20 -12.5 -44
t-4.5 -53q0 -29 3 -53t12 -42q11 -26 33 -40.5t51 -14.5q32 0 57 17.5t36 53.5q5 14 7 35t2 53q0 58 -13 87q-11 29 -33.5 43t-50.5 14zM138 544q-38 35 -54 70.5t-16 58.5q0 48 35 75.5t92 38.5l34 -96q-40 -7 -52.5 -21t-12.5 -29q0 -14 7.5 -33t21.5 -39zM381 545
l-147 224l116 22l93 -223z" />
    <glyph glyph-name="uni1F44" unicode="&#x1f44;" horiz-adv-x="515" 
d="M264 501q56 0 100.5 -21.5t71.5 -61.5q19 -29 28 -70.5t8 -92.5q0 -57 -8.5 -97.5t-25.5 -70.5q-29 -47 -78 -70.5t-108 -23.5q-56 0 -100 19t-71 59q-41 61 -39 176q0 40 5.5 76t19.5 64q26 55 77.5 84.5t119.5 29.5zM260 399q-29 0 -52 -15t-35 -41q-9 -20 -12.5 -44
t-4.5 -53q0 -29 3 -53t12 -42q11 -26 33 -40.5t51 -14.5q32 0 57 17.5t36 53.5q5 14 7 35t2 53q0 58 -13 87q-11 29 -33.5 43t-50.5 14zM145 573q14 19 22 38.5t8 33.5q0 15 -12.5 28.5t-53.5 21.5l34 95q58 -11 92.5 -38t34.5 -75q0 -23 -15.5 -59t-53.5 -71zM278 568
l95 223l114 -22l-147 -224z" />
    <glyph glyph-name="uni1F45" unicode="&#x1f45;" horiz-adv-x="515" 
d="M264 501q56 0 100.5 -21.5t71.5 -61.5q19 -29 28 -70.5t8 -92.5q0 -57 -8.5 -97.5t-25.5 -70.5q-29 -47 -78 -70.5t-108 -23.5q-56 0 -100 19t-71 59q-41 61 -39 176q0 40 5.5 76t19.5 64q26 55 77.5 84.5t119.5 29.5zM260 399q-29 0 -52 -15t-35 -41q-9 -20 -12.5 -44
t-4.5 -53q0 -29 3 -53t12 -42q11 -26 33 -40.5t51 -14.5q32 0 57 17.5t36 53.5q5 14 7 35t2 53q0 58 -13 87q-11 29 -33.5 43t-50.5 14zM190 547q-38 34 -54 70t-16 59q0 48 35 75.5t92 38.5l34 -96q-41 -8 -53 -21.5t-12 -28.5q0 -14 8 -33.5t22 -37.5zM283 568l94 223
l114 -22l-147 -224z" />
    <glyph glyph-name="uni1F48" unicode="&#x1f48;" horiz-adv-x="610" 
d="M304 701q60 0 108 -20t82 -55t52 -83.5t18 -105.5v-178q0 -61 -18.5 -110t-52.5 -83.5t-82 -53t-107 -18.5q-65 0 -114 21.5t-81 58t-48 84.5t-16 101v178q0 52 16 100t48 84.5t81 58t114 21.5zM304 587q-35 0 -60.5 -12t-42.5 -32.5t-25.5 -46.5t-8.5 -53v-187
q0 -29 8.5 -55.5t25.5 -47.5t42.5 -33.5t60.5 -12.5q32 0 57.5 11.5t43 31.5t27 47t9.5 59v187q0 30 -9.5 56t-27 45.5t-43 31t-57.5 11.5zM-125 513q14 19 22 38t8 33q0 16 -12.5 29.5t-53.5 21.5l34 96q58 -11 93 -39t35 -75q0 -23 -15.5 -59t-53.5 -70z" />
    <glyph glyph-name="uni1F49" unicode="&#x1f49;" horiz-adv-x="610" 
d="M304 701q60 0 108 -20t82 -55t52 -83.5t18 -105.5v-178q0 -61 -18.5 -110t-52.5 -83.5t-82 -53t-107 -18.5q-65 0 -114 21.5t-81 58t-48 84.5t-16 101v178q0 52 16 100t48 84.5t81 58t114 21.5zM304 587q-35 0 -60.5 -12t-42.5 -32.5t-25.5 -46.5t-8.5 -53v-187
q0 -29 8.5 -55.5t25.5 -47.5t42.5 -33.5t60.5 -12.5q32 0 57.5 11.5t43 31.5t27 47t9.5 59v187q0 30 -9.5 56t-27 45.5t-43 31t-57.5 11.5zM-74 488q-38 34 -54 70t-16 59q0 47 35 75t93 39l34 -96q-40 -8 -52.5 -21.5t-12.5 -29.5q0 -14 7.5 -33t21.5 -38z" />
    <glyph glyph-name="uni1F4A" unicode="&#x1f4a;" horiz-adv-x="610" 
d="M304 701q60 0 108 -20t82 -55t52 -83.5t18 -105.5v-178q0 -61 -18.5 -110t-52.5 -83.5t-82 -53t-107 -18.5q-65 0 -114 21.5t-81 58t-48 84.5t-16 101v178q0 52 16 100t48 84.5t81 58t114 21.5zM304 587q-35 0 -60.5 -12t-42.5 -32.5t-25.5 -46.5t-8.5 -53v-187
q0 -29 8.5 -55.5t25.5 -47.5t42.5 -33.5t60.5 -12.5q32 0 57.5 11.5t43 31.5t27 47t9.5 59v187q0 30 -9.5 56t-27 45.5t-43 31t-57.5 11.5zM-319 520q14 20 22 39t8 33q0 15 -13 29t-53 21l34 96q57 -11 92 -38.5t35 -75.5q0 -23 -15.5 -59t-53.5 -70zM-47 495l-148 224
l117 22l92 -223z" />
    <glyph glyph-name="uni1F4B" unicode="&#x1f4b;" horiz-adv-x="610" 
d="M304 701q60 0 108 -20t82 -55t52 -83.5t18 -105.5v-178q0 -61 -18.5 -110t-52.5 -83.5t-82 -53t-107 -18.5q-65 0 -114 21.5t-81 58t-48 84.5t-16 101v178q0 52 16 100t48 84.5t81 58t114 21.5zM304 587q-35 0 -60.5 -12t-42.5 -32.5t-25.5 -46.5t-8.5 -53v-187
q0 -29 8.5 -55.5t25.5 -47.5t42.5 -33.5t60.5 -12.5q32 0 57.5 11.5t43 31.5t27 47t9.5 59v187q0 30 -9.5 56t-27 45.5t-43 31t-57.5 11.5zM-289 494q-38 35 -54 70.5t-16 58.5q0 48 35 75.5t92 38.5l34 -96q-40 -7 -52.5 -21t-12.5 -29q0 -14 7.5 -33t21.5 -39zM-46 495
l-147 224l116 22l93 -223z" />
    <glyph glyph-name="uni1F4C" unicode="&#x1f4c;" horiz-adv-x="610" 
d="M304 701q60 0 108 -20t82 -55t52 -83.5t18 -105.5v-178q0 -61 -18.5 -110t-52.5 -83.5t-82 -53t-107 -18.5q-65 0 -114 21.5t-81 58t-48 84.5t-16 101v178q0 52 16 100t48 84.5t81 58t114 21.5zM304 587q-35 0 -60.5 -12t-42.5 -32.5t-25.5 -46.5t-8.5 -53v-187
q0 -29 8.5 -55.5t25.5 -47.5t42.5 -33.5t60.5 -12.5q32 0 57.5 11.5t43 31.5t27 47t9.5 59v187q0 30 -9.5 56t-27 45.5t-43 31t-57.5 11.5zM-287 523q14 19 22 38.5t8 33.5q0 15 -12.5 28.5t-53.5 21.5l34 95q58 -11 92.5 -38t34.5 -75q0 -23 -15.5 -59t-53.5 -71zM-154 518
l95 223l114 -22l-147 -224z" />
    <glyph glyph-name="uni1F4D" unicode="&#x1f4d;" horiz-adv-x="610" 
d="M304 701q60 0 108 -20t82 -55t52 -83.5t18 -105.5v-178q0 -61 -18.5 -110t-52.5 -83.5t-82 -53t-107 -18.5q-65 0 -114 21.5t-81 58t-48 84.5t-16 101v178q0 52 16 100t48 84.5t81 58t114 21.5zM304 587q-35 0 -60.5 -12t-42.5 -32.5t-25.5 -46.5t-8.5 -53v-187
q0 -29 8.5 -55.5t25.5 -47.5t42.5 -33.5t60.5 -12.5q32 0 57.5 11.5t43 31.5t27 47t9.5 59v187q0 30 -9.5 56t-27 45.5t-43 31t-57.5 11.5zM-247 497q-38 34 -54 70t-16 59q0 48 35 75.5t92 38.5l34 -96q-41 -8 -53 -21.5t-12 -28.5q0 -14 8 -33.5t22 -37.5zM-154 518
l94 223l114 -22l-147 -224z" />
    <glyph glyph-name="uni1F50" unicode="&#x1f50;" horiz-adv-x="540" 
d="M477 178q0 -41 -15.5 -75t-43 -58t-65.5 -37t-83 -13q-44 0 -82 13.5t-65.5 37.5t-43 57.5t-15.5 74.5v317h113v-294q0 -48 26.5 -74t67.5 -26q40 0 66.5 26t26.5 74v294h113v-317zM228 563q14 19 22 38t8 33q0 16 -12.5 29.5t-53.5 21.5l34 96q58 -11 93 -39t35 -75
q0 -23 -15.5 -59t-53.5 -70z" />
    <glyph glyph-name="uni1F51" unicode="&#x1f51;" horiz-adv-x="540" 
d="M477 178q0 -41 -15.5 -75t-43 -58t-65.5 -37t-83 -13q-44 0 -82 13.5t-65.5 37.5t-43 57.5t-15.5 74.5v317h113v-294q0 -48 26.5 -74t67.5 -26q40 0 66.5 26t26.5 74v294h113v-317zM267 538q-38 34 -54 70t-16 59q0 47 35 75t93 39l34 -96q-40 -8 -52.5 -21.5
t-12.5 -29.5q0 -14 7.5 -33t21.5 -38z" />
    <glyph glyph-name="uni1F52" unicode="&#x1f52;" horiz-adv-x="540" 
d="M477 178q0 -41 -15.5 -75t-43 -58t-65.5 -37t-83 -13q-44 0 -82 13.5t-65.5 37.5t-43 57.5t-15.5 74.5v317h113v-294q0 -48 26.5 -74t67.5 -26q40 0 66.5 26t26.5 74v294h113v-317zM105 570q14 20 22 39t8 33q0 15 -13 29t-53 21l34 96q57 -11 92 -38.5t35 -75.5
q0 -23 -15.5 -59t-53.5 -70zM377 545l-148 224l117 22l92 -223z" />
    <glyph glyph-name="uni1F53" unicode="&#x1f53;" horiz-adv-x="540" 
d="M477 178q0 -41 -15.5 -75t-43 -58t-65.5 -37t-83 -13q-44 0 -82 13.5t-65.5 37.5t-43 57.5t-15.5 74.5v317h113v-294q0 -48 26.5 -74t67.5 -26q40 0 66.5 26t26.5 74v294h113v-317zM147 544q-38 35 -54 70.5t-16 58.5q0 48 35 75.5t92 38.5l34 -96q-40 -7 -52.5 -21
t-12.5 -29q0 -14 7.5 -33t21.5 -39zM390 545l-147 224l116 22l93 -223z" />
    <glyph glyph-name="uni1F54" unicode="&#x1f54;" horiz-adv-x="540" 
d="M477 178q0 -41 -15.5 -75t-43 -58t-65.5 -37t-83 -13q-44 0 -82 13.5t-65.5 37.5t-43 57.5t-15.5 74.5v317h113v-294q0 -48 26.5 -74t67.5 -26q40 0 66.5 26t26.5 74v294h113v-317zM165 573q14 19 22 38.5t8 33.5q0 15 -12.5 28.5t-53.5 21.5l34 95q58 -11 92.5 -38
t34.5 -75q0 -23 -15.5 -59t-53.5 -71zM298 568l95 223l114 -22l-147 -224z" />
    <glyph glyph-name="uni1F55" unicode="&#x1f55;" horiz-adv-x="540" 
d="M477 178q0 -41 -15.5 -75t-43 -58t-65.5 -37t-83 -13q-44 0 -82 13.5t-65.5 37.5t-43 57.5t-15.5 74.5v317h113v-294q0 -48 26.5 -74t67.5 -26q40 0 66.5 26t26.5 74v294h113v-317zM200 547q-38 34 -54 70t-16 59q0 48 35 75.5t92 38.5l34 -96q-41 -8 -53 -21.5
t-12 -28.5q0 -14 8 -33.5t22 -37.5zM293 568l94 223l114 -22l-147 -224z" />
    <glyph glyph-name="uni1F56" unicode="&#x1f56;" horiz-adv-x="540" 
d="M477 178q0 -41 -15.5 -75t-43 -58t-65.5 -37t-83 -13q-44 0 -82 13.5t-65.5 37.5t-43 57.5t-15.5 74.5v317h113v-294q0 -48 26.5 -74t67.5 -26q40 0 66.5 26t26.5 74v294h113v-317zM221 551q17 19 27 34.5t10 29.5q0 13 -13.5 21t-48.5 11l34 80q54 -8 85.5 -28.5
t31.5 -56.5q0 -18 -13.5 -47.5t-56.5 -65.5zM208 870q19 0 37.5 -7.5t35.5 -16.5l32.5 -16.5t28.5 -7.5q16 0 31 10.5t33 35.5l60 -34q-24 -52 -52.5 -75.5t-61.5 -23.5q-19 0 -38 7t-36.5 16t-34 16t-30.5 7q-17 0 -32.5 -9.5t-35.5 -35.5l-57 33q23 48 52.5 74.5
t67.5 26.5z" />
    <glyph glyph-name="uni1F57" unicode="&#x1f57;" horiz-adv-x="540" 
d="M477 178q0 -41 -15.5 -75t-43 -58t-65.5 -37t-83 -13q-44 0 -82 13.5t-65.5 37.5t-43 57.5t-15.5 74.5v317h113v-294q0 -48 26.5 -74t67.5 -26q40 0 66.5 26t26.5 74v294h113v-317zM257 529q-42 36 -56 65.5t-14 47.5q0 35 31.5 55.5t85.5 28.5l34 -80q-35 -2 -48 -10
t-13 -22q0 -24 36 -63zM204 877q19 0 37.5 -7.5t35.5 -16.5l32.5 -16.5t28.5 -7.5q16 0 31 10.5t33 35.5l60 -34q-24 -52 -52.5 -75.5t-61.5 -23.5q-19 0 -38 7t-36.5 16t-34 16t-30.5 7q-17 0 -32.5 -9.5t-35.5 -35.5l-57 33q23 48 52.5 74.5t67.5 26.5z" />
    <glyph glyph-name="uni1F59" unicode="&#x1f59;" horiz-adv-x="557" 
d="M553 696l-108 -205l-109 -205v-286h-115v286l-108.5 205l-108.5 205h129l84 -172l31 -66.5l30 -67.5h2l62 137l83 169h128zM-115 488q-38 34 -54 70t-16 59q0 47 35 75t93 39l34 -96q-40 -8 -52.5 -21.5t-12.5 -29.5q0 -14 7.5 -33t21.5 -38z" />
    <glyph glyph-name="uni1F5B" unicode="&#x1f5b;" horiz-adv-x="557" 
d="M553 696l-108 -205l-109 -205v-286h-115v286l-108.5 205l-108.5 205h129l84 -172l31 -66.5l30 -67.5h2l62 137l83 169h128zM-303 494q-38 35 -54 70.5t-16 58.5q0 48 35 75.5t92 38.5l34 -96q-40 -7 -52.5 -21t-12.5 -29q0 -14 7.5 -33t21.5 -39zM-60 495l-147 224
l116 22l93 -223z" />
    <glyph glyph-name="uni1F5D" unicode="&#x1f5d;" horiz-adv-x="557" 
d="M553 696l-108 -205l-109 -205v-286h-115v286l-108.5 205l-108.5 205h129l84 -172l31 -66.5l30 -67.5h2l62 137l83 169h128zM-315 497q-38 34 -54 70t-16 59q0 48 35 75.5t92 38.5l34 -96q-41 -8 -53 -21.5t-12 -28.5q0 -14 8 -33.5t22 -37.5zM-222 518l94 223l114 -22
l-147 -224z" />
    <glyph glyph-name="uni1F5F" unicode="&#x1f5f;" horiz-adv-x="557" 
d="M553 696l-108 -205l-109 -205v-286h-115v286l-108.5 205l-108.5 205h129l84 -172l31 -66.5l30 -67.5h2l62 137l83 169h128zM-283 769q19 0 37.5 -7.5t35.5 -16.5l32.5 -16.5t28.5 -7.5q16 0 31 10.5t33 35.5l60 -34q-24 -52 -52.5 -75.5t-61.5 -23.5q-19 0 -38 7
t-36.5 16t-34 16t-30.5 7q-17 0 -32.5 -9.5t-35.5 -35.5l-57 33q23 48 52.5 74.5t67.5 26.5zM-230 421q-42 36 -56 65.5t-14 47.5q0 35 31.5 55.5t85.5 28.5l34 -80q-35 -2 -48 -10t-13 -22q0 -24 36 -63z" />
    <glyph glyph-name="uni1F60" unicode="&#x1f60;" horiz-adv-x="755" 
d="M528 500q55 -3 91.5 -23.5t58.5 -54.5t30.5 -79t8.5 -95q0 -56 -10.5 -102.5t-34 -79.5t-60.5 -51.5t-91 -18.5q-92 0 -139 74h-2q-25 -35 -58 -55t-78 -20q-56 0 -94.5 18t-62.5 51t-34.5 79.5t-10.5 103.5q0 51 9.5 95.5t32 78t59 54.5t89.5 25l15 -106
q-52 -7 -72 -45.5t-20 -104.5q0 -28 6.5 -53t19 -44t31.5 -30.5t44 -11.5q31 0 48.5 27t17.5 66v157h110v-157q0 -42 23 -70.5t64 -28.5q25 0 41.5 12.5t26 33.5t13 47t3.5 53q0 65 -19 104.5t-71 44.5zM330 563q14 19 22 38t8 33q0 16 -12.5 29.5t-53.5 21.5l34 96
q58 -11 93 -39t35 -75q0 -23 -15.5 -59t-53.5 -70z" />
    <glyph glyph-name="uni1F61" unicode="&#x1f61;" horiz-adv-x="755" 
d="M528 500q55 -3 91.5 -23.5t58.5 -54.5t30.5 -79t8.5 -95q0 -56 -10.5 -102.5t-34 -79.5t-60.5 -51.5t-91 -18.5q-92 0 -139 74h-2q-25 -35 -58 -55t-78 -20q-56 0 -94.5 18t-62.5 51t-34.5 79.5t-10.5 103.5q0 51 9.5 95.5t32 78t59 54.5t89.5 25l15 -106
q-52 -7 -72 -45.5t-20 -104.5q0 -28 6.5 -53t19 -44t31.5 -30.5t44 -11.5q31 0 48.5 27t17.5 66v157h110v-157q0 -42 23 -70.5t64 -28.5q25 0 41.5 12.5t26 33.5t13 47t3.5 53q0 65 -19 104.5t-71 44.5zM370 538q-38 34 -54 70t-16 59q0 47 35 75t93 39l34 -96
q-40 -8 -52.5 -21.5t-12.5 -29.5q0 -14 7.5 -33t21.5 -38z" />
    <glyph glyph-name="uni1F62" unicode="&#x1f62;" horiz-adv-x="755" 
d="M528 500q55 -3 91.5 -23.5t58.5 -54.5t30.5 -79t8.5 -95q0 -56 -10.5 -102.5t-34 -79.5t-60.5 -51.5t-91 -18.5q-92 0 -139 74h-2q-25 -35 -58 -55t-78 -20q-56 0 -94.5 18t-62.5 51t-34.5 79.5t-10.5 103.5q0 51 9.5 95.5t32 78t59 54.5t89.5 25l15 -106
q-52 -7 -72 -45.5t-20 -104.5q0 -28 6.5 -53t19 -44t31.5 -30.5t44 -11.5q31 0 48.5 27t17.5 66v157h110v-157q0 -42 23 -70.5t64 -28.5q25 0 41.5 12.5t26 33.5t13 47t3.5 53q0 65 -19 104.5t-71 44.5zM221 570q14 20 22 39t8 33q0 15 -13 29t-53 21l34 96q57 -11 92 -38.5
t35 -75.5q0 -23 -15.5 -59t-53.5 -70zM493 545l-148 224l117 22l92 -223z" />
    <glyph glyph-name="uni1F63" unicode="&#x1f63;" horiz-adv-x="755" 
d="M528 500q55 -3 91.5 -23.5t58.5 -54.5t30.5 -79t8.5 -95q0 -56 -10.5 -102.5t-34 -79.5t-60.5 -51.5t-91 -18.5q-92 0 -139 74h-2q-25 -35 -58 -55t-78 -20q-56 0 -94.5 18t-62.5 51t-34.5 79.5t-10.5 103.5q0 51 9.5 95.5t32 78t59 54.5t89.5 25l15 -106
q-52 -7 -72 -45.5t-20 -104.5q0 -28 6.5 -53t19 -44t31.5 -30.5t44 -11.5q31 0 48.5 27t17.5 66v157h110v-157q0 -42 23 -70.5t64 -28.5q25 0 41.5 12.5t26 33.5t13 47t3.5 53q0 65 -19 104.5t-71 44.5zM260 544q-38 35 -54 70.5t-16 58.5q0 48 35 75.5t92 38.5l34 -96
q-40 -7 -52.5 -21t-12.5 -29q0 -14 7.5 -33t21.5 -39zM503 545l-147 224l116 22l93 -223z" />
    <glyph glyph-name="uni1F64" unicode="&#x1f64;" horiz-adv-x="755" 
d="M528 500q55 -3 91.5 -23.5t58.5 -54.5t30.5 -79t8.5 -95q0 -56 -10.5 -102.5t-34 -79.5t-60.5 -51.5t-91 -18.5q-92 0 -139 74h-2q-25 -35 -58 -55t-78 -20q-56 0 -94.5 18t-62.5 51t-34.5 79.5t-10.5 103.5q0 51 9.5 95.5t32 78t59 54.5t89.5 25l15 -106
q-52 -7 -72 -45.5t-20 -104.5q0 -28 6.5 -53t19 -44t31.5 -30.5t44 -11.5q31 0 48.5 27t17.5 66v157h110v-157q0 -42 23 -70.5t64 -28.5q25 0 41.5 12.5t26 33.5t13 47t3.5 53q0 65 -19 104.5t-71 44.5zM266 573q14 19 22 38.5t8 33.5q0 15 -12.5 28.5t-53.5 21.5l34 95
q58 -11 92.5 -38t34.5 -75q0 -23 -15.5 -59t-53.5 -71zM399 568l95 223l114 -22l-147 -224z" />
    <glyph glyph-name="uni1F65" unicode="&#x1f65;" horiz-adv-x="755" 
d="M528 500q55 -3 91.5 -23.5t58.5 -54.5t30.5 -79t8.5 -95q0 -56 -10.5 -102.5t-34 -79.5t-60.5 -51.5t-91 -18.5q-92 0 -139 74h-2q-25 -35 -58 -55t-78 -20q-56 0 -94.5 18t-62.5 51t-34.5 79.5t-10.5 103.5q0 51 9.5 95.5t32 78t59 54.5t89.5 25l15 -106
q-52 -7 -72 -45.5t-20 -104.5q0 -28 6.5 -53t19 -44t31.5 -30.5t44 -11.5q31 0 48.5 27t17.5 66v157h110v-157q0 -42 23 -70.5t64 -28.5q25 0 41.5 12.5t26 33.5t13 47t3.5 53q0 65 -19 104.5t-71 44.5zM308 547q-38 34 -54 70t-16 59q0 48 35 75.5t92 38.5l34 -96
q-41 -8 -53 -21.5t-12 -28.5q0 -14 8 -33.5t22 -37.5zM401 568l94 223l114 -22l-147 -224z" />
    <glyph glyph-name="uni1F66" unicode="&#x1f66;" horiz-adv-x="755" 
d="M528 500q55 -3 91.5 -23.5t58.5 -54.5t30.5 -79t8.5 -95q0 -56 -10.5 -102.5t-34 -79.5t-60.5 -51.5t-91 -18.5q-92 0 -139 74h-2q-25 -35 -58 -55t-78 -20q-56 0 -94.5 18t-62.5 51t-34.5 79.5t-10.5 103.5q0 51 9.5 95.5t32 78t59 54.5t89.5 25l15 -106
q-52 -7 -72 -45.5t-20 -104.5q0 -28 6.5 -53t19 -44t31.5 -30.5t44 -11.5q31 0 48.5 27t17.5 66v157h110v-157q0 -42 23 -70.5t64 -28.5q25 0 41.5 12.5t26 33.5t13 47t3.5 53q0 65 -19 104.5t-71 44.5zM320 870q19 0 37.5 -7.5t35.5 -16.5l32.5 -16.5t28.5 -7.5
q16 0 31 10.5t33 35.5l60 -34q-24 -52 -52.5 -75.5t-61.5 -23.5q-19 0 -38 7t-36.5 16t-34 16t-30.5 7q-17 0 -32.5 -9.5t-35.5 -35.5l-57 33q23 48 52.5 74.5t67.5 26.5zM333 551q17 19 27 34.5t10 29.5q0 13 -13.5 21t-48.5 11l34 80q54 -8 85.5 -28.5t31.5 -56.5
q0 -18 -13.5 -47.5t-56.5 -65.5z" />
    <glyph glyph-name="uni1F67" unicode="&#x1f67;" horiz-adv-x="755" 
d="M528 500q55 -3 91.5 -23.5t58.5 -54.5t30.5 -79t8.5 -95q0 -56 -10.5 -102.5t-34 -79.5t-60.5 -51.5t-91 -18.5q-92 0 -139 74h-2q-25 -35 -58 -55t-78 -20q-56 0 -94.5 18t-62.5 51t-34.5 79.5t-10.5 103.5q0 51 9.5 95.5t32 78t59 54.5t89.5 25l15 -106
q-52 -7 -72 -45.5t-20 -104.5q0 -28 6.5 -53t19 -44t31.5 -30.5t44 -11.5q31 0 48.5 27t17.5 66v157h110v-157q0 -42 23 -70.5t64 -28.5q25 0 41.5 12.5t26 33.5t13 47t3.5 53q0 65 -19 104.5t-71 44.5zM317 877q19 0 37.5 -7.5t35.5 -16.5l32.5 -16.5t28.5 -7.5
q16 0 31 10.5t33 35.5l60 -34q-24 -52 -52.5 -75.5t-61.5 -23.5q-19 0 -38 7t-36.5 16t-34 16t-30.5 7q-17 0 -32.5 -9.5t-35.5 -35.5l-57 33q23 48 52.5 74.5t67.5 26.5zM370 529q-42 36 -56 65.5t-14 47.5q0 35 31.5 55.5t85.5 28.5l34 -80q-35 -2 -48 -10t-13 -22
q0 -24 36 -63z" />
    <glyph glyph-name="uni1F68" unicode="&#x1f68;" horiz-adv-x="604" 
d="M345 120q28 7 45.5 24t28 40.5t14.5 50t4 52.5v156q0 30 -9 56.5t-26.5 46.5t-43.5 31.5t-59 11.5q-36 0 -62 -12.5t-42.5 -33t-24.5 -47t-8 -53.5v-156q0 -26 3.5 -52t14 -49t29 -40.5t47.5 -26.5v-119h-230v109h74q0 1 0.5 1.5t0.5 1.5q-18 13 -29.5 32.5t-18 42
t-9.5 47.5t-3 49v154q0 52 16 100t48 84.5t80.5 58t113.5 21.5q60 0 108 -20t82 -55t52 -83.5t18 -105.5v-154q0 -53 -13 -97t-48 -76l1 -1h76v-109h-230v120zM-127 513q14 19 22 38t8 33q0 16 -12.5 29.5t-53.5 21.5l34 96q58 -11 93 -39t35 -75q0 -23 -15.5 -59t-53.5 -70
z" />
    <glyph glyph-name="uni1F69" unicode="&#x1f69;" horiz-adv-x="604" 
d="M345 120q28 7 45.5 24t28 40.5t14.5 50t4 52.5v156q0 30 -9 56.5t-26.5 46.5t-43.5 31.5t-59 11.5q-36 0 -62 -12.5t-42.5 -33t-24.5 -47t-8 -53.5v-156q0 -26 3.5 -52t14 -49t29 -40.5t47.5 -26.5v-119h-230v109h74q0 1 0.5 1.5t0.5 1.5q-18 13 -29.5 32.5t-18 42
t-9.5 47.5t-3 49v154q0 52 16 100t48 84.5t80.5 58t113.5 21.5q60 0 108 -20t82 -55t52 -83.5t18 -105.5v-154q0 -53 -13 -97t-48 -76l1 -1h76v-109h-230v120zM-81 488q-38 34 -54 70t-16 59q0 47 35 75t93 39l34 -96q-40 -8 -52.5 -21.5t-12.5 -29.5q0 -14 7.5 -33
t21.5 -38z" />
    <glyph glyph-name="uni1F6A" unicode="&#x1f6a;" horiz-adv-x="604" 
d="M345 120q28 7 45.5 24t28 40.5t14.5 50t4 52.5v156q0 30 -9 56.5t-26.5 46.5t-43.5 31.5t-59 11.5q-36 0 -62 -12.5t-42.5 -33t-24.5 -47t-8 -53.5v-156q0 -26 3.5 -52t14 -49t29 -40.5t47.5 -26.5v-119h-230v109h74q0 1 0.5 1.5t0.5 1.5q-18 13 -29.5 32.5t-18 42
t-9.5 47.5t-3 49v154q0 52 16 100t48 84.5t80.5 58t113.5 21.5q60 0 108 -20t82 -55t52 -83.5t18 -105.5v-154q0 -53 -13 -97t-48 -76l1 -1h76v-109h-230v120zM-320 520q14 20 22 39t8 33q0 15 -13 29t-53 21l34 96q57 -11 92 -38.5t35 -75.5q0 -23 -15.5 -59t-53.5 -70z
M-48 495l-148 224l117 22l92 -223z" />
    <glyph glyph-name="uni1F6B" unicode="&#x1f6b;" horiz-adv-x="604" 
d="M345 120q28 7 45.5 24t28 40.5t14.5 50t4 52.5v156q0 30 -9 56.5t-26.5 46.5t-43.5 31.5t-59 11.5q-36 0 -62 -12.5t-42.5 -33t-24.5 -47t-8 -53.5v-156q0 -26 3.5 -52t14 -49t29 -40.5t47.5 -26.5v-119h-230v109h74q0 1 0.5 1.5t0.5 1.5q-18 13 -29.5 32.5t-18 42
t-9.5 47.5t-3 49v154q0 52 16 100t48 84.5t80.5 58t113.5 21.5q60 0 108 -20t82 -55t52 -83.5t18 -105.5v-154q0 -53 -13 -97t-48 -76l1 -1h76v-109h-230v120zM-294 494q-38 35 -54 70.5t-16 58.5q0 48 35 75.5t92 38.5l34 -96q-40 -7 -52.5 -21t-12.5 -29q0 -14 7.5 -33
t21.5 -39zM-51 495l-147 224l116 22l93 -223z" />
    <glyph glyph-name="uni1F6C" unicode="&#x1f6c;" horiz-adv-x="604" 
d="M345 120q28 7 45.5 24t28 40.5t14.5 50t4 52.5v156q0 30 -9 56.5t-26.5 46.5t-43.5 31.5t-59 11.5q-36 0 -62 -12.5t-42.5 -33t-24.5 -47t-8 -53.5v-156q0 -26 3.5 -52t14 -49t29 -40.5t47.5 -26.5v-119h-230v109h74q0 1 0.5 1.5t0.5 1.5q-18 13 -29.5 32.5t-18 42
t-9.5 47.5t-3 49v154q0 52 16 100t48 84.5t80.5 58t113.5 21.5q60 0 108 -20t82 -55t52 -83.5t18 -105.5v-154q0 -53 -13 -97t-48 -76l1 -1h76v-109h-230v120zM-274 523q14 19 22 38.5t8 33.5q0 15 -12.5 28.5t-53.5 21.5l34 95q58 -11 92.5 -38t34.5 -75q0 -23 -15.5 -59
t-53.5 -71zM-141 518l95 223l114 -22l-147 -224z" />
    </font>
</defs>
</svg>
