<?xml version="1.0" standalone="no"?>
<!DOCTYPE svg PUBLIC "-//W3C//DTD SVG 1.1//EN" "http://www.w3.org/Graphics/SVG/1.1/DTD/svg11.dtd" >
<svg>
<metadata>
Created by FontForge 20090622 at Tue Jun 21 14:59:50 2016
 By deploy user
Copyright (c) 2002, 2005 Parachute&#194;&#168;, www.parachute.gr.  All rights reserved.
</metadata>
<defs>
<font id="PFDinTextPro-Light" horiz-adv-x="1818" >
  <font-face 
    font-family="PF DinText Pro Light "
    font-weight="300"
    font-stretch="normal"
    units-per-em="1000"
    panose-1="2 0 0 0 0 0 0 0 0 0"
    ascent="750"
    descent="-250"
    x-height="495"
    cap-height="696"
    bbox="-354 -260 1760 916"
    underline-thickness="50"
    underline-position="-50"
    unicode-range="U+0020-U+FB05"
  />
<missing-glyph horiz-adv-x="436" 
d="M0 700h436v-700h-436v700zM368 659h-300l150 -272zM396 72v557l-153 -279zM368 41l-150 272l-150 -272h300zM40 73l153 277l-153 277v-554z" />
    <glyph glyph-name="fj" unicode="fj" horiz-adv-x="454" 
d="M86 496v91q0 42 12.5 70t34 44.5t49.5 23.5t58 7q94 0 147 -59l-43 -43q-21 22 -47 31.5t-61 9.5q-42 0 -63.5 -20t-21.5 -64v-91h228v-567q0 -58 -35 -94.5t-96 -36.5h-25v57q2 0 13 -0.5t12 1.5q68 3 68 78v507h-165v-441h-65v441h-60v55h60z" />
    <glyph glyph-name="ffj" unicode="ffj" horiz-adv-x="688" 
d="M379 496h229v-567q0 -58 -35 -94.5t-96 -36.5h-26v57h5h8.5h8t4.5 1q67 3 67 78v507h-165v-441h-63v441h-165v-441h-65v441h-60v55h60v69q0 42 12.5 70t34 44.5t49.5 23.5t58 7q63 0 107 -26q21 26 52.5 35.5t68.5 9.5q95 0 147 -58l-43 -44q-39 42 -107 42
q-43 0 -64.5 -20t-21.5 -65v-88zM236 650q-42 0 -63.5 -20t-21.5 -65v-69h165v88q0 12 1 23t3 21q-18 12 -38.5 17t-45.5 5z" />
    <glyph glyph-name="ff" unicode="ff" horiz-adv-x="497" 
d="M239 714q31 0 56.5 -6.5t46.5 -17.5q16 20 40 30.5t53 10.5h56v-59h-48q-20 0 -33 -6.5t-20 -17t-9.5 -24.5t-2.5 -28v-100h110v-55h-110v-441h-63v441h-165v-441h-64v441h-60v55h60v71q0 41 12 69t32.5 45.5t48.5 25t60 7.5zM315 496v117q0 5 0.5 10t1.5 10
q-18 13 -38 17t-44 4q-40 0 -62.5 -19.5t-22.5 -64.5v-74h165z" />
    <glyph glyph-name="fi" unicode="fi" horiz-adv-x="454" 
d="M316 0v441h-165v-441h-65v441h-60v55h60v91q0 42 12.5 70t34 44.5t49.5 23.5t58 7q94 0 147 -59l-43 -43q-21 22 -47 31.5t-61 9.5q-42 0 -63.5 -20t-21.5 -64v-91h228v-496h-63z" />
    <glyph glyph-name="fl" unicode="fl" horiz-adv-x="477" 
d="M434 0q-54 0 -86.5 24t-32.5 85v550q-23 8 -41.5 11t-38.5 3q-85 0 -85 -86v-91h112v-55h-112v-441h-64v441h-60v55h60v91q0 35 12 62t32.5 45t48.5 27.5t60 9.5q22 0 59.5 -6.5t80.5 -24.5v-584q0 -59 64 -59h16v-57h-25z" />
    <glyph glyph-name="ffi" unicode="ffi" horiz-adv-x="688" 
d="M544 0v441h-165v-441h-63v441h-165v-441h-65v441h-60v55h60v69q0 42 12.5 70t34 44.5t49.5 23.5t58 7q63 0 107 -26q21 26 52.5 35.5t68.5 9.5q95 0 147 -58l-43 -44q-39 42 -107 42q-43 0 -64.5 -20t-21.5 -65v-88h229v-496h-64zM236 650q-42 0 -63.5 -20t-21.5 -65v-69
h165v88q0 12 1 23t3 21q-18 12 -39 17t-45 5z" />
    <glyph glyph-name="ffl" unicode="ffl" horiz-adv-x="706" 
d="M469 732q22 0 59 -7t80 -25v-584q0 -59 64 -59h16v-57h-25q-54 0 -86.5 24t-32.5 85v550q-23 8 -41 11t-38 3q-43 0 -64.5 -20t-21.5 -64v-93h111v-55h-111v-441h-63v441h-165v-441h-65v441h-60v55h60v69q0 42 12.5 70t34 44.5t49.5 23.5t58 7q61 0 105 -25
q22 26 54 36.5t70 10.5zM236 650q-42 0 -63.5 -20t-21.5 -65v-69h165v91q0 23 3 41q-18 12 -39 17t-44 5z" />
    <glyph glyph-name="ft" unicode="ft" horiz-adv-x="492" 
d="M151 442v-442h-65v442h-60v54h60v107q0 31 9.5 54.5t26 39.5t38.5 23.5t47 7.5h53v-59h-44q-20 0 -33 -6.5t-20 -17.5t-9.5 -24.5t-2.5 -27.5v-97h165v127h63v-127h84v-54h-84v-313q0 -30 11.5 -51t49.5 -21h37v-57h-52q-49 0 -79 28.5t-30 82.5v331h-165z" />
    <glyph glyph-name=".notdef" horiz-adv-x="436" 
d="M0 700h436v-700h-436v700zM368 659h-300l150 -272zM396 72v557l-153 -279zM368 41l-150 272l-150 -272h300zM40 73l153 277l-153 277v-554z" />
    <glyph glyph-name="quotedbl" unicode="&#x22;" horiz-adv-x="276" 
d="M168 503v193h49v-193h-49zM61 503v193h49v-193h-49z" />
    <glyph glyph-name="numbersign" unicode="#" horiz-adv-x="484" 
d="M12 264h101l4 32.5t7 52.5l7.5 52.5t4.5 32.5h-95v45h102q1 9 5 40l9 67l9.5 67.5t5.5 40.5h47l-29 -215h128q1 6 3.5 22.5t5.5 38.5l6.5 46.5l6.5 46.5t5 38.5t3 22.5h48l-30 -215h101v-45h-107l-23 -170h101v-44h-107l-29 -220h-49l30 220h-129q-1 -9 -5.5 -41
l-9.5 -69l-9.5 -69t-5.5 -41h-48l31 220h-95v44zM160 264h129q1 8 4.5 32.5l7.5 52.5t7 52.5l4 32.5h-128z" />
    <glyph glyph-name="dollar" unicode="$" horiz-adv-x="484" 
d="M264 55q55 5 90 38t35 90q0 34 -12.5 56t-31.5 35.5t-40.5 21l-40.5 14.5v-255zM224 634q-48 -5 -82.5 -38t-34.5 -95q0 -27 11 -46.5t28 -32.5t37.5 -21.5t40.5 -13.5v247zM224 -118v112q-54 3 -105 21.5t-91 53.5q9 12 18.5 26t19.5 25q32 -26 72.5 -44t85.5 -22v265
q-36 9 -69 22.5t-58.5 35t-40.5 52t-15 74.5q0 39 13 73t36.5 59t57.5 40.5t76 18.5v78h40v-79q44 -3 85.5 -16t75.5 -36l-16 -27l-16 -27q-29 18 -61.5 30t-67.5 16v-257q41 -11 76 -23.5t60.5 -34t40 -54t14.5 -81.5q0 -42 -14 -75.5t-39 -58t-60 -38.5t-78 -17v-112h-40z
" />
    <glyph glyph-name="ampersand" unicode="&#x26;" horiz-adv-x="631" 
d="M221 387l-33 43.5t-26 40.5t-17.5 39.5t-6.5 41.5q0 30 10 58t31 49t53 33.5t76 12.5q43 0 82.5 -13t74.5 -44l-40 -47q-34 27 -61 36t-64 9q-27 0 -46 -8t-31 -21.5t-17 -30t-5 -33.5q0 -15 14.5 -42.5t37.5 -62t51.5 -73l57.5 -75.5l54 -69l42 -54q18 32 28.5 65
t15.5 65l30 -4l30 -4q-8 -45 -23.5 -88t-41.5 -84l100 -127h-77l-64 81q-41 -42 -89 -64.5t-103 -22.5q-46 0 -81.5 13t-60 35.5t-37 54t-12.5 67.5q0 68 37 121.5t111 101.5zM255 342q-54 -34 -86.5 -76.5t-32.5 -96.5t36.5 -85.5t93.5 -31.5q44 0 85 22.5t68 53.5l-82 107
z" />
    <glyph glyph-name="quotesingle" unicode="'" horiz-adv-x="215" 
d="M82 503v193h48v-193h-48z" />
    <glyph glyph-name="parenleft" unicode="(" horiz-adv-x="276" 
d="M234 -120q-35 40 -67 88t-56 102t-38.5 112.5t-14.5 120.5q0 61 13.5 119.5t37 112.5t55 102t67.5 88l34 -21q-31 -42 -56 -90.5t-43 -99.5t-27.5 -103t-9.5 -103q0 -55 10 -109.5t28 -106.5t42.5 -99.5t54.5 -88.5l-30 -24v0z" />
    <glyph glyph-name="parenright" unicode=")" horiz-adv-x="276" 
d="M23 -97q60 83 98 188t38 216q0 51 -9.5 103.5t-27.5 103.5t-43 99t-56 90l34 21q36 -40 67.5 -88t55 -102t37 -112.5t13.5 -119.5t-14.5 -120t-38.5 -113t-55.5 -102t-66.5 -87z" />
    <glyph glyph-name="asterisk" unicode="*" horiz-adv-x="352" 
d="M290 444l-23 -18t-23 -17l-66 106l-14 -22.5l-19 -30.5l-18.5 -30.5l-13.5 -23.5l-46 36l78 93q-9 2 -25 6.5t-33 10t-33 10t-25 6.5q4 11 8 26t8 28l114 -48l-9 122h56l-9 -122l24.5 10.5l32.5 13.5l33 13.5t25 10.5l16 -55l-118 -32z" />
    <glyph glyph-name="plus" unicode="+" horiz-adv-x="484" 
d="M267 262v-193h-51v193h-188v51h188v191h51v-191h188v-51h-188z" />
    <glyph glyph-name="comma" unicode="," horiz-adv-x="213" 
d="M54 -106l29 106h-22v88h82v-86l-49 -108h-40z" />
    <glyph glyph-name="hyphen" unicode="-" horiz-adv-x="381" 
d="M52 224v59h277v-59h-277z" />
    <glyph glyph-name="period" unicode="." horiz-adv-x="205" 
d="M63 0v88h81v-88h-81z" />
    <glyph glyph-name="slash" unicode="/" horiz-adv-x="441" 
d="M77 -34h-51l308 756h52z" />
    <glyph glyph-name="zero" unicode="0" horiz-adv-x="484" 
d="M431 185q0 -46 -15.5 -81.5t-42 -60t-60.5 -37t-71 -12.5t-71 12.5t-60.5 37t-42 60t-15.5 81.5v326q0 46 15.5 81.5t42 60t60.5 37t71 12.5t71 -12.5t60.5 -37t42 -60t15.5 -81.5v-326zM368 505q0 62 -34.5 98.5t-91.5 36.5q-58 0 -92.5 -36.5t-34.5 -98.5v-314
q0 -62 34.5 -99t92.5 -37q57 0 91.5 37t34.5 99v314z" />
    <glyph glyph-name="one" unicode="1" horiz-adv-x="484" 
d="M287 0h-64v629l-96 -67v68l95 66h65v-696z" />
    <glyph glyph-name="four" unicode="4" horiz-adv-x="484" 
d="M399 109v-109h-63v109h-307v61l243 526h71l-247 -527h240v210h63v-210h60v-60h-60z" />
    <glyph glyph-name="six" unicode="6" horiz-adv-x="484" 
d="M437 209q0 -58 -17 -99t-45 -66.5t-64 -37.5t-73 -12q-35 0 -68 13t-59 38.5t-42 63.5t-16 89q0 30 6 58.5t20 54.5l193 385h70l-160 -318l2 -1q17 11 37.5 16t39.5 5q37 0 69.5 -14t56 -39t37 -60t13.5 -76zM372 200q0 34 -10 60.5t-27.5 45t-40.5 28t-50 9.5
t-50.5 -9.5t-41 -28t-27.5 -45t-10 -60.5q0 -68 34.5 -108.5t94.5 -40.5q27 0 50.5 10.5t40.5 29.5t27 46.5t10 62.5z" />
    <glyph glyph-name="seven" unicode="7" horiz-adv-x="484" 
d="M186 0h-71l249 634h-249v-107h-62v169h380v-65z" />
    <glyph glyph-name="eight" unicode="8" horiz-adv-x="484" 
d="M448 193q0 -44 -16.5 -81t-44 -63t-65 -40.5t-79.5 -14.5t-79 14.5t-65 40.5t-44 63t-16 81q0 23 6.5 48t20 47.5t33.5 41t47 29.5q-26 11 -44 28t-29 37.5t-16 42.5t-5 43q0 40 14.5 75t40.5 60.5t60.5 40.5t75.5 15q44 0 79.5 -15t60 -40.5t38 -60.5t13.5 -75
q0 -47 -22.5 -87.5t-70.5 -63.5l1 -1q28 -10 48 -28t33 -40.5t19 -47.5t6 -49zM243 332q-28 0 -53.5 -10t-45 -28t-31.5 -43.5t-12 -56.5q0 -30 11.5 -56t31 -45t45.5 -30t54 -11t54 11t46 30t31.5 45t11.5 56q0 31 -12 56.5t-31.5 43.5t-45.5 28t-54 10zM243 643
q-24 0 -47 -8.5t-41 -25.5t-29 -41.5t-11 -55.5q0 -32 11 -56t29 -39.5t41 -23.5t47 -8t47 7.5t41.5 23.5t29.5 40t11 56q0 31 -11 55.5t-29 41.5t-41.5 25.5t-47.5 8.5z" />
    <glyph glyph-name="nine" unicode="9" horiz-adv-x="484" 
d="M52 488q0 58 16.5 98.5t44.5 66t64 37t74 11.5q35 0 68.5 -12.5t60 -38t42.5 -63.5t16 -89q0 -64 -25 -114l-197 -385h-70l166 322l-3 1q-18 -12 -40 -16.5t-39 -4.5q-38 0 -70.5 13t-56.5 37.5t-37.5 59t-13.5 77.5zM114 496q0 -34 10.5 -60.5t28 -45t41.5 -28t51 -9.5
t50 9.5t40.5 28t27.5 45t10 60.5q0 67 -34.5 107.5t-93.5 40.5q-27 0 -51 -10t-41.5 -29.5t-28 -47t-10.5 -61.5z" />
    <glyph glyph-name="colon" unicode=":" horiz-adv-x="206" 
d="M61 0v88h81v-88h-81zM61 299v89h81v-89h-81z" />
    <glyph glyph-name="semicolon" unicode=";" horiz-adv-x="206" 
d="M54 -106l29 106h-22v88h82v-92l-49 -102h-40zM62 299v88h81v-88h-81z" />
    <glyph glyph-name="less" unicode="&#x3c;" horiz-adv-x="484" 
d="M441 71l-404 193v48l404 192v-56l-341 -160q10 -4 36.5 -16.5l61 -29l73 -35l73 -34.5l61 -28.5t36.5 -16.5v-57z" />
    <glyph glyph-name="equal" unicode="=" horiz-adv-x="484" 
d="M28 349v52h427v-52h-427zM28 164v53h427v-53h-427z" />
    <glyph glyph-name="greater" unicode="&#x3e;" horiz-adv-x="484" 
d="M38 128q10 4 36.5 16.5l61 28.5l73 34.5l73 35l60.5 28.5t36 17l-339 160v56l403 -192v-48l-404 -193v57z" />
    <glyph glyph-name="at" unicode="@" horiz-adv-x="801" 
d="M528 250q0 -28 14 -45.5t43 -17.5q25 0 47 11.5t38.5 35.5t25.5 61.5t9 90.5q0 66 -24.5 117t-65 85.5t-92 52.5t-105.5 18q-71 0 -130.5 -24.5t-103 -67.5t-67.5 -102.5t-24 -128.5q0 -75 24 -136t67.5 -104t104 -66t134.5 -23q61 0 109 9.5t95 32.5l17 -45
q-50 -19 -103 -31t-113 -12q-84 0 -154.5 26t-122.5 74.5t-81 118t-29 156.5q0 78 27.5 145.5t76.5 117t117.5 78t150.5 28.5q72 0 135 -23t109.5 -64.5t73.5 -100.5t27 -131q0 -66 -14.5 -112.5t-38.5 -76t-56 -43t-68 -13.5q-8 0 -22 3t-28 9.5t-26 17.5t-16 28h-4
q-7 -14 -20.5 -24t-30 -16.5t-34.5 -9.5t-35 -3q-26 0 -50 6.5t-43 19.5t-30 33.5t-11 49.5q0 22 8 42t23.5 35t39 23.5t53.5 8.5h124v48q0 35 -22 55t-75 20q-28 0 -53.5 -10.5t-44.5 -27.5l-33 33q27 25 63 38t71 13q31 0 57.5 -5t45.5 -18.5t29.5 -36.5t10.5 -58v-165z
M278 259q0 -31 23.5 -49.5t68.5 -18.5q22 0 41.5 4t34.5 13t24 23.5t9 34.5v57h-115q-37 0 -61.5 -16t-24.5 -48z" />
    <glyph glyph-name="A" unicode="A" horiz-adv-x="592" 
d="M509 0l-29.5 82l-28.5 83h-312l-29.5 -83l-28.5 -82h-71l126.5 348l127.5 348h62l255 -696h-72zM293 609q-8 -26 -25 -75l-36 -103l-41.5 -116.5l-32.5 -91.5h273l-78 225l-57 161h-3z" />
    <glyph glyph-name="B" unicode="B" horiz-adv-x="592" 
d="M553 190q0 -44 -15 -79t-41 -59.5t-60 -38t-73 -13.5h-287v696h259q49 0 86.5 -13.5t63 -37.5t38.5 -57t13 -72q0 -20 -5 -42t-17.5 -43t-34 -39t-54.5 -30v-3q33 -7 57 -25t39.5 -41.5t23 -50.5t7.5 -52zM145 637v-251h181q69 0 106 35.5t37 90.5q0 53 -36.5 89
t-106.5 36h-181zM145 327v-265h196q36 0 63 10.5t45 28.5t26.5 42.5t8.5 51.5q0 26 -8.5 50t-26.5 42t-45 29t-63 11h-196z" />
    <glyph glyph-name="C" unicode="C" horiz-adv-x="536" 
d="M520 138q-26 -67 -84 -105.5t-140 -38.5q-64 0 -110 20.5t-76 55.5t-44 81.5t-14 97.5v199q0 51 14.5 96.5t44.5 80.5t76 55.5t109 20.5q81 0 138 -38t84 -101l-63 -29q-19 46 -59.5 75t-98.5 29q-47 0 -81 -16t-55.5 -42.5t-31.5 -61.5t-10 -72v-193q0 -38 10 -73
t31 -62t55 -43.5t82 -16.5q59 0 99.5 30t60.5 81z" />
    <glyph glyph-name="E" unicode="E" horiz-adv-x="536" 
d="M77 0v696h432v-62h-364v-252h310v-60h-310v-260h364v-62h-432z" />
    <glyph glyph-name="F" unicode="F" horiz-adv-x="516" 
d="M146 634v-255h309v-60h-309v-319h-69v696h432v-62h-363z" />
    <glyph glyph-name="G" unicode="G" horiz-adv-x="592" 
d="M296 53q39 0 71 15t55.5 40.5t36 58t12.5 68.5v67h-152v61h220v-124q0 -53 -17.5 -98t-49 -78t-77 -51.5t-100.5 -18.5q-63 0 -109 20.5t-76 56t-44.5 82t-14.5 97.5v199q0 51 15 96.5t45.5 80.5t76 55.5t107.5 20.5q81 0 138 -38t83 -101q-1 -1 -10.5 -5t-20.5 -9.5
t-20.5 -9.5t-10.5 -5q-20 46 -60.5 75t-97.5 29q-45 0 -78.5 -16t-55.5 -42.5t-33 -61.5t-11 -72v-197q0 -38 11 -73t33 -62t55.5 -43.5t78.5 -16.5z" />
    <glyph glyph-name="H" unicode="H" horiz-adv-x="631" 
d="M485 0v322h-340v-322h-68v696h68v-314h340v314h68v-696h-68z" />
    <glyph glyph-name="I" unicode="I" horiz-adv-x="227" 
d="M79 0v696h68v-696h-68z" />
    <glyph glyph-name="J" unicode="J" horiz-adv-x="458" 
d="M389 205q0 -60 -17.5 -100t-47 -65t-68 -35.5t-81.5 -10.5q-48 0 -86.5 17.5t-66.5 46.5l49 45q23 -20 47.5 -32.5t52.5 -12.5q30 0 57 7.5t48 25.5t33 49t12 79v477h68v-491z" />
    <glyph glyph-name="K" unicode="K" horiz-adv-x="612" 
d="M519 0q-10 16 -27 45.5l-39 65.5l-45 75.5l-45 75.5l-39.5 65.5l-26.5 45.5l-32 -38.5l-44.5 -54l-44.5 -54l-31 -38.5v-188h-68v696h68v-410h2l150 184l187 226h77l-26.5 -32l-39 -47.5l-45.5 -55.5l-45.5 -55.5l-38.5 -47.5l-26 -32q10 -18 30.5 -51.5l45.5 -75
l52.5 -87l52.5 -86.5l45 -74.5l31 -51.5h-78z" />
    <glyph glyph-name="L" unicode="L" horiz-adv-x="536" 
d="M77 0v696h68v-634h364v-62h-432z" />
    <glyph glyph-name="M" unicode="M" horiz-adv-x="745" 
d="M610 0v543l-2 -1l-78 -175l-15 -31.5l-22 -46l-25 -53l-25 -53l-21.5 -46l-14.5 -31.5h-59l-124 266l-17 36.5l-22 49t-22 48.5t-17 37l-2 -1v-542h-67v696h68q6 -14 18 -39.5l26.5 -57l30.5 -66.5l31 -66.5l26.5 -57.5t18.5 -39q6 -12 17.5 -37.5l23.5 -53l23.5 -53
t17.5 -37.5h2l81 180q6 14 18 39.5l27 57.5l30.5 66.5l30.5 66.5l26.5 57.5t18.5 39.5h66v-696h-68z" />
    <glyph glyph-name="N" unicode="N" horiz-adv-x="668" 
d="M267 392l-120 188q-1 0 -1 -0.5t-1 -0.5v-579h-67v696h67l252 -384l126 -199l2 2v581h66v-696h-66z" />
    <glyph glyph-name="O" unicode="O" horiz-adv-x="583" 
d="M292 701q63 0 108.5 -19t75.5 -53t44.5 -80t14.5 -101v-199q0 -59 -17 -106t-48.5 -80t-76.5 -51t-101 -18q-62 0 -108 20.5t-76 55.5t-45 81.5t-15 97.5v199q0 51 15 96.5t45.5 80.5t76 55.5t107.5 20.5zM293 637q-47 0 -80.5 -16t-55 -42t-32 -61t-10.5 -72v-195
q0 -38 10 -73t31.5 -62t55.5 -43.5t81 -16.5q43 0 75 15t54 41t33 62.5t11 78.5v193q0 40 -10.5 75t-32.5 60.5t-54.5 40.5t-75.5 15z" />
    <glyph glyph-name="P" unicode="P" horiz-adv-x="564" 
d="M553 489q0 -35 -13.5 -71t-40 -64.5t-66 -46.5t-91.5 -18h-196v-289h-68v696h252q42 0 82.5 -11.5t71.5 -36t50 -64t19 -95.5zM481 492q0 36 -11.5 62.5t-32 44t-48 26.5t-58.5 9h-185v-282h189q38 0 65.5 12.5t45.5 32t26.5 44.5t8.5 51z" />
    <glyph glyph-name="Q" unicode="Q" horiz-adv-x="592" 
d="M292 701q57 0 102 -19t76.5 -53t48 -80t16.5 -101v-199q0 -78 -31 -138l95 -76l-37 -46l-17 13l-28 22l-28.5 23l-19.5 16q-64 -69 -177 -69q-62 0 -107.5 20.5t-75.5 55.5t-45 81.5t-15 97.5v199q0 51 15 96.5t45.5 80.5t76 55.5t106.5 20.5zM293 636q-45 0 -78 -16
t-55 -42t-33 -61t-11 -72v-193q0 -38 11 -73t33 -62t55 -43t78 -16q38 0 68 13t52 36q-3 2 -17 13l-30.5 24.5l-31 25.5l-20.5 17l39 45l93 -76q10 22 15.5 46.5t5.5 51.5v191q0 40 -12 74.5t-34.5 60.5t-54.5 41t-73 15z" />
    <glyph glyph-name="R" unicode="R" horiz-adv-x="592" 
d="M466 0l-141 314h-179v-314h-68v696h277q43 0 79.5 -13t63.5 -37.5t42 -58.5t15 -76q0 -74 -44 -124t-116 -67l148 -320h-77zM485 511q0 33 -11.5 57t-31 39t-45.5 22.5t-56 7.5h-195v-263h191q63 0 105.5 35t42.5 102z" />
    <glyph glyph-name="S" unicode="S" horiz-adv-x="537" 
d="M511 191q0 -45 -17.5 -81.5t-49.5 -62t-77.5 -39.5t-100.5 -14q-66 0 -133.5 21t-121.5 64l43 55q44 -37 99 -56.5t116 -19.5q36 0 67.5 8t55 24.5t36.5 41.5t13 60t-15 58t-39.5 37.5t-55.5 23t-64 14.5q-40 7 -79 17t-69.5 29.5t-49.5 52.5t-19 86q0 46 17 81.5
t47 60.5t71 38t89 13q127 0 212 -61l-38 -57q-39 24 -82.5 38t-92.5 14q-68 0 -112 -31.5t-44 -95.5q0 -33 14.5 -53.5t40 -34t60.5 -22t76 -16.5q36 -8 72.5 -18.5t65.5 -31t47 -55t18 -88.5z" />
    <glyph glyph-name="T" unicode="T" horiz-adv-x="482" 
d="M276 637v-637h-68v637h-204v59h474v-59h-202z" />
    <glyph glyph-name="U" unicode="U" horiz-adv-x="612" 
d="M550 696v-454q0 -57 -17.5 -102.5t-50 -78t-77.5 -50t-99 -17.5q-58 0 -103.5 19.5t-76.5 53.5t-47 80t-16 99v450h67v-441q0 -39 12 -75t34.5 -63t55.5 -43t75 -16q78 0 126 50.5t48 142.5v445h69z" />
    <glyph glyph-name="V" unicode="V" horiz-adv-x="536" 
d="M270 112q17 60 36 119l37 119l109 346h73l-230 -696h-57l-230 696h72q4 -14 13 -41.5l19.5 -61l22.5 -71l23 -71l19.5 -61t13.5 -41.5l75 -238z" />
    <glyph glyph-name="W" unicode="W" horiz-adv-x="816" 
d="M624 0h-59l-159 576h-1q-8 -32 -23.5 -89l-33.5 -122l-99 -365h-61l-172 696h72l41.5 -180l41.5 -180l49 -213q1 0 1.5 -0.5t1.5 -0.5l56 213l21.5 79l28 101.5l28 101.5t22.5 79h56l51 -183l51 -182l57 -209h2l22.5 103.5l22.5 103.5l84 367h73z" />
    <glyph glyph-name="X" unicode="X" horiz-adv-x="512" 
d="M431 0l-175 303l-176 -303h-75l213 357l-199 339h76l161 -285l161 285h75l-199 -339l213 -357h-75z" />
    <glyph glyph-name="Y" unicode="Y" horiz-adv-x="492" 
d="M277 0h-64v287l-209 409h71l107 -216l63 -132l35 71l34 72l51.5 102l50.5 103h69l-104.5 -204.5l-103.5 -204.5v-287z" />
    <glyph glyph-name="Z" unicode="Z" horiz-adv-x="497" 
d="M33 0v60l354 577h-340v59h417v-55l-355 -579h355v-62h-431z" />
    <glyph glyph-name="bracketleft" unicode="[" horiz-adv-x="248" 
d="M74 -107v805h156v-46h-96v-714h96v-45h-156z" />
    <glyph glyph-name="backslash" unicode="\" horiz-adv-x="305" 
d="M-2 725h50l252 -767h-51z" />
    <glyph glyph-name="bracketright" unicode="]" horiz-adv-x="248" 
d="M31 -107v45h95v714h-95v46h155v-805h-155z" />
    <glyph glyph-name="asciicircum" unicode="^" horiz-adv-x="484" 
d="M34 330l187 364h48l186 -363h-56l-155 305q-4 -9 -15.5 -32.5l-27.5 -54.5l-33.5 -65.5l-33.5 -65.5l-27.5 -55t-15.5 -33h-57z" />
    <glyph glyph-name="underscore" unicode="_" horiz-adv-x="497" 
d="M0 -118v49h497v-49h-497z" />
    <glyph glyph-name="grave" unicode="`" horiz-adv-x="487" 
d="M299 557l-99 160l65 22l75 -166z" />
    <glyph glyph-name="a" unicode="a" horiz-adv-x="483" 
d="M367 49q-19 -29 -60 -42t-92 -13q-78 0 -126.5 38t-48.5 106q0 29 10 55t30 45.5t49.5 30.5t69.5 11h169v64q0 48 -29.5 73t-99.5 25q-83 0 -128 -46l-40 43q29 31 72 46.5t95 15.5q39 0 74 -7t61.5 -24.5t42 -48t15.5 -77.5v-344h-63v48zM214 228q-54 0 -84 -22t-30 -65
t32 -67t91 -24q24 0 49.5 4t47 15.5t35 30.5t13.5 49v79h-154z" />
    <glyph glyph-name="b" unicode="b" horiz-adv-x="481" 
d="M443 254q0 -50 -8 -96.5t-29 -83t-57 -58.5t-91 -22q-36 0 -73.5 12.5t-66.5 54.5h-2v-61h-63v725h63v-300h2q51 76 144 76q54 0 88.5 -21.5t55 -56.5t29 -79t8.5 -90zM377 248q0 33 -4.5 66.5t-19 61.5t-40 45.5t-67.5 17.5q-39 0 -64.5 -17t-40 -44t-20 -61.5
t-5.5 -69.5q0 -30 4.5 -64t19 -63.5t40.5 -49t69 -19.5q42 0 67 17t38.5 44.5t18 63t4.5 72.5z" />
    <glyph glyph-name="c" unicode="c" horiz-adv-x="423" 
d="M406 57q-30 -29 -68.5 -46t-85.5 -17q-42 0 -82.5 13.5t-71.5 44t-50 78.5t-19 117t19 117.5t50 78.5t71.5 44t82.5 14q47 0 85 -17t68 -45l-41 -46q-20 21 -48.5 34.5t-58.5 13.5q-79 0 -122 -48.5t-43 -145.5q0 -96 43 -145.5t122 -49.5q32 0 60 15.5t47 33.5l42 -44v0
z" />
    <glyph glyph-name="d" unicode="d" horiz-adv-x="481" 
d="M367 0v68h-2q-34 -44 -70 -59t-73 -15q-53 0 -88 21t-56 56t-29.5 80.5t-8.5 93.5q0 47 9 93t31 82t59.5 58.5t94.5 22.5q45 0 78 -18t53 -48h2v290h63v-725h-63zM367 247q0 35 -5.5 69.5t-19.5 61.5t-39.5 44t-64.5 17q-43 0 -69 -17.5t-40 -45.5t-18.5 -61.5
t-4.5 -66.5q0 -31 4 -65t17.5 -62.5t40 -47t70.5 -18.5q42 0 67 19t39 47.5t18.5 62t4.5 63.5z" />
    <glyph glyph-name="e" unicode="e" horiz-adv-x="483" 
d="M105 231q-1 -37 7 -70t27 -57.5t48.5 -39t70.5 -14.5q27 0 59 11.5t57 31.5l39 -43q-33 -29 -72 -42.5t-81 -13.5q-38 0 -76.5 10.5t-70 38t-51.5 76.5t-20 127q0 74 19 123t48.5 78.5t66 41.5t71.5 12q45 0 81 -16t62 -45t40 -70t14 -90v-49h-339zM381 283
q-2 81 -37.5 120.5t-98.5 39.5q-61 0 -98.5 -41t-41.5 -119h276z" />
    <glyph glyph-name="f" unicode="f" horiz-adv-x="269" 
d="M151 442v-442h-65v442h-60v54h60v107q0 31 9.5 54.5t26 39.5t38.5 23.5t47 7.5h53v-59h-44q-20 0 -33 -6.5t-20 -17.5t-9.5 -24.5t-2.5 -27.5v-97h109v-54h-109z" />
    <glyph glyph-name="g" unicode="g" horiz-adv-x="505" 
d="M438 6q0 -56 -17.5 -96t-46.5 -65.5t-68 -37.5t-81 -12q-39 0 -76.5 14.5t-68.5 42.5l41 46q20 -17 48 -30.5t59 -13.5q62 0 103.5 36t42.5 105v75h-2q-27 -39 -63.5 -57t-81.5 -18q-53 0 -88 21t-55 55.5t-28.5 78.5t-8.5 90q0 49 8.5 96t29.5 84t56.5 59.5t89.5 22.5
q37 0 74.5 -14t66.5 -54h2v62h63zM112 248q0 -33 4.5 -67t19 -61.5t40.5 -45t69 -17.5q39 0 64 17t39.5 44t20 61.5t5.5 69.5q0 30 -4.5 63.5t-18.5 62t-39 47.5t-67 19q-44 0 -70.5 -18.5t-40.5 -47t-18 -62.5t-4 -65z" />
    <glyph glyph-name="h" unicode="h" horiz-adv-x="507" 
d="M383 0v307q0 63 -29 97.5t-95 34.5q-28 0 -52.5 -10t-43 -28.5t-29.5 -44.5t-11 -58v-298h-63v725h63v-303h3q25 40 66 59.5t83 19.5q38 0 70 -11t54.5 -32.5t35 -53.5t12.5 -74v-330h-64z" />
    <glyph glyph-name="i" unicode="i" horiz-adv-x="212" 
d="M72 631v65h67v-65h-67zM74 0v496h64v-496h-64z" />
    <glyph glyph-name="j" unicode="j" horiz-adv-x="231" 
d="M84 631v65h67v-65h-67zM150 -72q0 -30 -10 -54t-27 -41t-41.5 -26.5t-52.5 -9.5h-26v57h23q33 0 51 20.5t18 58.5v563h65v-568z" />
    <glyph glyph-name="k" unicode="k" horiz-adv-x="493" 
d="M412 0l-172 266l-23 -25.5l-31.5 -34.5l-31.5 -34.5t-22 -25.5v-146h-63v724h63v-495h2l30 33l42 46.5l47.5 53.5l47.5 53.5l41.5 47l29.5 33.5h75l-165 -185l24 -37.5l36 -54.5l41.5 -63.5l41.5 -63.5l36 -54.5l25 -37.5h-74z" />
    <glyph glyph-name="l" unicode="l" horiz-adv-x="231" 
d="M188 0q-54 0 -86.5 24t-32.5 85v615h64v-608q0 -59 64 -59h16v-57h-25z" />
    <glyph glyph-name="m" unicode="m" horiz-adv-x="835" 
d="M706 307q0 60 -29.5 96.5t-94.5 36.5q-28 0 -52.5 -10t-43 -28t-29 -44t-10.5 -58v-300h-63v307q0 60 -31.5 96.5t-95.5 36.5q-57 0 -94 -38t-37 -102v-300h-63v496h63v-72h2q24 40 64.5 58t82.5 18q56 0 93.5 -22.5t60.5 -62.5v1q1 0 1 -1q30 45 73 65t97 20
q36 0 67 -11.5t53.5 -33t35.5 -53t13 -71.5v-331h-63v307z" />
    <glyph glyph-name="n" unicode="n" horiz-adv-x="504" 
d="M382 0v307q0 63 -29.5 97.5t-97.5 34.5q-28 0 -52.5 -10t-42.5 -28.5t-28.5 -44.5t-10.5 -58v-298h-63v496h63v-74h3q25 40 66 59.5t83 19.5q38 0 70 -11t54.5 -32.5t35 -53.5t12.5 -74v-330h-63z" />
    <glyph glyph-name="p" unicode="p" horiz-adv-x="496" 
d="M120 496v-69l2 -1q30 44 69 59.5t77 15.5q54 0 88.5 -21t54.5 -56t28 -80.5t8 -93.5q0 -47 -8.5 -93t-30 -82t-59 -58.5t-94.5 -22.5q-47 0 -79.5 18.5t-53.5 50.5h-2v-261h-63v694h63zM120 248q0 -35 5.5 -69.5t19.5 -61.5t39.5 -44t64.5 -17q43 0 69 17.5t40 45.5
t18.5 61.5t4.5 66.5q0 31 -3.5 65.5t-16 63t-38 47t-69.5 18.5q-42 0 -68.5 -19t-41 -48t-19.5 -62.5t-5 -63.5z" />
    <glyph glyph-name="q" unicode="q" horiz-adv-x="504" 
d="M53 241q0 54 9.5 101.5t31.5 82.5t58.5 55.5t91.5 20.5q40 0 76 -17t57 -59h1v71h64v-697h-64v271h-1q-24 -35 -59 -55.5t-82 -20.5q-54 0 -89 20.5t-56 55t-29.5 79t-8.5 92.5zM117 247q0 -33 4.5 -66.5t18.5 -61.5t40 -45.5t69 -17.5q39 0 64 17t39.5 44t20 61.5
t5.5 69.5q0 30 -4.5 64.5t-18.5 64t-39 49t-67 19.5q-44 0 -70 -19t-39.5 -48.5t-18 -64.5t-4.5 -66z" />
    <glyph glyph-name="r" unicode="r" horiz-adv-x="353" 
d="M330 423q-16 9 -33.5 13t-34.5 4q-57 0 -93.5 -36t-36.5 -102v-302h-63v496h63v-74h4q26 47 64 63.5t80 15.5q23 -1 42.5 -5t33.5 -12z" />
    <glyph glyph-name="s" unicode="s" horiz-adv-x="452" 
d="M415 141q0 -65 -51.5 -106t-141.5 -41q-54 0 -106.5 15.5t-95.5 50.5l39 49q71 -59 168 -59q22 0 44.5 5t40 16t28.5 28t11 42q0 22 -10 37t-27.5 24.5t-40.5 14.5t-48 8q-31 4 -62 10t-56 19.5t-41 37t-16 62.5q0 34 14 61.5t38 46.5t57 29t71 10q55 0 95.5 -12.5
t74.5 -37.5l-35 -50q-29 19 -61.5 30.5t-72.5 11.5q-53 0 -85.5 -22.5t-33.5 -63.5q0 -21 10 -34t28.5 -21.5t44 -13.5t57.5 -9q28 -3 57 -11t52.5 -23.5t38.5 -40.5t15 -63z" />
    <glyph glyph-name="t" unicode="t" horiz-adv-x="278" 
d="M202 0q-54 0 -81.5 30t-27.5 86v326h-63v54h63v127h64v-127h84v-54h-84v-314q0 -14 2 -27t9 -23t18.5 -15.5t31.5 -5.5h37v-57h-53z" />
    <glyph glyph-name="u" unicode="u" horiz-adv-x="515" 
d="M384 0v68h-2q-25 -40 -65 -57t-80 -17q-35 0 -67 11.5t-56.5 33t-39 53t-14.5 72.5v332h64v-307q0 -64 33.5 -99.5t96.5 -35.5q28 0 52 10t41.5 29t27.5 45t10 58v300h62v-496h-63z" />
    <glyph glyph-name="v" unicode="v" horiz-adv-x="443" 
d="M225 88l29 85.5l28 85.5l40.5 118l40.5 118h70l-182 -495h-58l-92 247.5l-91 247.5h69l41.5 -117.5l40.5 -118.5l12.5 -35l18 -50.5l18 -50.5l12.5 -35h3z" />
    <glyph glyph-name="w" unicode="w" horiz-adv-x="711" 
d="M517 90l40 141l76 264h70l-19 -59.5l-27.5 -87l-32.5 -101l-32 -101l-27.5 -87.5l-18.5 -59h-62l-16.5 51l-24 73.5l-23.5 73.5t-17 52q-13 38 -24.5 75.5l-24.5 76.5l-24 -76.5l-24 -75.5q-6 -16 -17 -51l-23.5 -74l-23.5 -74t-17 -51h-62l-18.5 59l-27.5 87.5l-32 101
l-32 101l-27.5 87t-18.5 59.5h69l16 -54.5l23 -78.5l23 -78.5l16 -54.5l40 -135h3l21.5 67l20.5 66q6 17 18 54.5l25.5 79.5l25.5 79.5t17 54.5h60q6 -17 17.5 -54.5l25 -78.5l25 -78.5t17.5 -54.5l43 -139h4z" />
    <glyph glyph-name="x" unicode="x" horiz-adv-x="452" 
d="M354 0l-128 208l-128 -208h-76l167 254l-159 242h76l120 -199l120 199h76l-159 -243l167 -253h-76z" />
    <glyph glyph-name="y" unicode="y" horiz-adv-x="429" 
d="M211 -108q-20 -55 -52.5 -73.5t-70.5 -18.5h-33v56h32q23 0 41.5 13.5t29.5 49.5l27 83l-183 493h70l81 -229l62 -183h3l27 80.5l37 107.5l77 224h66l-214 -603v0z" />
    <glyph glyph-name="z" unicode="z" horiz-adv-x="428" 
d="M34 0v52l285 388h-270v56h344v-55l-283 -383h283v-58h-359z" />
    <glyph glyph-name="braceleft" unicode="{" horiz-adv-x="248" 
d="M183 -106q-38 0 -62.5 28.5t-24.5 76.5v139q0 59 -16 94.5t-58 43.5v39q21 4 35.5 17.5t23 32.5t12.5 42.5t4 47.5v135q0 48 24 77t62 29h57v-42h-37q-16 0 -26 -8.5t-15.5 -22t-7.5 -29t-2 -30.5v-130q0 -32 -7.5 -56t-18.5 -40.5t-23 -26.5t-22 -13v-2q10 -3 22.5 -13
t23.5 -26.5t18 -40t7 -53.5v-137q0 -15 2 -31t7.5 -29.5t15.5 -22t26 -8.5h37v-41h-57z" />
    <glyph glyph-name="bar" unicode="|" horiz-adv-x="189" 
d="M71 -162v878h50v-878h-50z" />
    <glyph glyph-name="braceright" unicode="}" horiz-adv-x="248" 
d="M238 276q-42 -8 -58 -43.5t-16 -94.5v-139q0 -48 -24 -76.5t-62 -28.5h-59v41h38q16 0 26 8.5t15.5 22t7.5 29.5t2 31v137q0 30 7 53.5t18 40t23 26.5t23 13v2q-10 3 -22.5 13t-23 26.5t-18 40.5t-7.5 56v130q0 15 -1 30.5t-6 29t-15.5 22t-28.5 8.5h-38v39h57
q44 0 65.5 -29t21.5 -74v-135q0 -24 3.5 -47.5t12.5 -42.5t23.5 -32.5t35.5 -17.5v-39v0z" />
    <glyph glyph-name="asciitilde" unicode="~" horiz-adv-x="484" 
d="M449 303q-26 -40 -54 -60t-66 -20q-19 0 -40.5 9t-44 19.5t-44.5 19.5t-41 9q-26 0 -42.5 -12.5t-35.5 -35.5l-42 30q50 77 120 77q21 0 43.5 -9t44.5 -19.5t43 -19.5t40 -9q23 0 41 13.5t37 38.5l41 -31v0z" />
    <glyph glyph-name="Adieresis" unicode="&#xc4;" horiz-adv-x="592" 
d="M509 0l-29.5 82l-28.5 83h-312l-29.5 -83l-28.5 -82h-71l126.5 348l127.5 348h62l255 -696h-72zM293 609q-8 -26 -25 -75l-36 -103l-41.5 -116.5l-32.5 -91.5h273l-78 225l-57 161h-3zM348 834h71v-70h-71v70zM169 834h71v-70h-71v70z" />
    <glyph glyph-name="Ccedilla" unicode="&#xc7;" horiz-adv-x="536" 
d="M520 138q-26 -66 -82 -104t-136 -40l-11 -35q29 -2 47.5 -10.5t29.5 -20t15.5 -25t4.5 -24.5q0 -12 -5 -25.5t-16.5 -25.5t-30 -19.5t-45.5 -7.5q-5 0 -14.5 0.5t-21.5 2t-26 4.5t-27 8l12 32q20 -8 39.5 -11t33.5 -3q17 0 35.5 11t18.5 34q0 20 -19.5 34t-51.5 14
q-2 0 -4 -0.5t-4 -0.5l-15 12l18 58q-56 5 -96 27t-66 56t-38.5 78t-12.5 92v199q0 51 14.5 96.5t44.5 80.5t76 55.5t109 20.5q81 0 138 -38t84 -101l-63 -29q-19 46 -59.5 75t-98.5 29q-47 0 -81 -16t-55.5 -42.5t-31.5 -61.5t-10 -72v-193q0 -38 10 -73t31 -62t55 -43.5
t82 -16.5q59 0 99.5 30t60.5 81z" />
    <glyph glyph-name="Eacute" unicode="&#xc9;" horiz-adv-x="536" 
d="M77 0v696h432v-62h-364v-252h310v-60h-310v-260h364v-62h-432zM230 766l142 115l47 -49l-160 -98z" />
    <glyph glyph-name="Odieresis" unicode="&#xd6;" horiz-adv-x="583" 
d="M342 765v70h72v-70h-72zM163 765v70h72v-70h-72zM292 701q63 0 108.5 -19t75.5 -53t44.5 -80t14.5 -101v-199q0 -59 -17 -106t-48.5 -80t-76.5 -51t-101 -18q-62 0 -108 20.5t-76 55.5t-45 81.5t-15 97.5v199q0 51 15 96.5t45.5 80.5t76 55.5t107.5 20.5zM293 637
q-47 0 -80.5 -16t-55 -42t-32 -61t-10.5 -72v-195q0 -38 10 -73t31.5 -62t55.5 -43.5t81 -16.5q43 0 75 15t54 41t33 62.5t11 78.5v193q0 40 -10.5 75t-32.5 60.5t-54.5 40.5t-75.5 15z" />
    <glyph glyph-name="Udieresis" unicode="&#xdc;" horiz-adv-x="612" 
d="M550 696v-454q0 -57 -17.5 -102.5t-50 -78t-77.5 -50t-99 -17.5q-58 0 -103.5 19.5t-76.5 53.5t-47 80t-16 99v450h67v-441q0 -39 12 -75t34.5 -63t55.5 -43t75 -16q78 0 126 50.5t48 142.5v445h69zM361 765v70h72v-70h-72zM182 765v70h72v-70h-72z" />
    <glyph glyph-name="dieresistonos" unicode="&#x385;" horiz-adv-x="420" 
d="M292 597v72h72v-72h-72zM46 597v72h71v-72h-71zM143 573l75 166l65 -22l-100 -160z" />
    <glyph glyph-name="agrave" unicode="&#xe0;" horiz-adv-x="483" 
d="M367 49q-19 -29 -60 -42t-92 -13q-78 0 -126.5 38t-48.5 106q0 29 10 55t30 45.5t49.5 30.5t69.5 11h169v64q0 48 -29.5 73t-99.5 25q-83 0 -128 -46l-40 43q29 31 72 46.5t95 15.5q39 0 74 -7t61.5 -24.5t42 -48t15.5 -77.5v-344h-63v48zM214 228q-54 0 -84 -22t-30 -65
t32 -67t91 -24q24 0 49.5 4t47 15.5t35 30.5t13.5 49v79h-154zM289 573q-10 -5 -19.5 -8.5l-20.5 -7.5l-99 159q16 5 31.5 11t32.5 11z" />
    <glyph glyph-name="acircumflex" unicode="&#xe2;" horiz-adv-x="483" 
d="M367 49q-19 -29 -60 -42t-92 -13q-78 0 -126.5 38t-48.5 106q0 29 10 55t30 45.5t49.5 30.5t69.5 11h169v64q0 48 -29.5 73t-99.5 25q-83 0 -128 -46l-40 43q29 31 72 46.5t95 15.5q39 0 74 -7t61.5 -24.5t42 -48t15.5 -77.5v-344h-63v48zM214 228q-54 0 -84 -22t-30 -65
t32 -67t91 -24q24 0 49.5 4t47 15.5t35 30.5t13.5 49v79h-154zM246 656l-64.5 -51l-65.5 -51l-30 29l141 139h45l134 -138l-30 -29z" />
    <glyph glyph-name="adieresis" unicode="&#xe4;" horiz-adv-x="483" 
d="M367 49q-19 -29 -60 -42t-92 -13q-78 0 -126.5 38t-48.5 106q0 29 10 55t30 45.5t49.5 30.5t69.5 11h169v64q0 48 -29.5 73t-99.5 25q-83 0 -128 -46l-40 43q29 31 72 46.5t95 15.5q39 0 74 -7t61.5 -24.5t42 -48t15.5 -77.5v-344h-63v48zM214 228q-54 0 -84 -22t-30 -65
t32 -67t91 -24q24 0 49.5 4t47 15.5t35 30.5t13.5 49v79h-154zM308 673h71v-71h-71v71zM124 673h71v-71h-71v71z" />
    <glyph glyph-name="tonos" unicode="&#x384;" horiz-adv-x="487" 
d="M199 573l75 166l66 -22l-100 -160z" />
    <glyph glyph-name="dieresis" unicode="&#xa8;" horiz-adv-x="487" 
d="M300 602v72h72v-72h-72zM115 602v72h72v-72h-72z" />
    <glyph glyph-name="ccedilla" unicode="&#xe7;" horiz-adv-x="423" 
d="M406 56q-31 -28 -69 -45t-85 -17h-3l-11 -35q29 -2 47.5 -10.5t29.5 -20.5t15.5 -25t4.5 -25t-5 -25.5t-16.5 -25t-30 -19t-45.5 -7.5h-14.5t-21.5 1.5t-26 4.5t-27 8l12 33q20 -8 39.5 -11t33.5 -3q19 0 36.5 12t17.5 32q0 23 -21 36.5t-56 11.5q-2 0 -8.5 5.5t-8.5 6.5
l19 59q-37 5 -70 22t-58.5 47t-40.5 75t-15 106q0 69 19 117.5t50 78.5t71.5 44t82.5 14q46 0 84.5 -17t68.5 -45l-41 -46q-20 20 -48.5 34t-59.5 14q-78 0 -121 -48.5t-43 -145.5q0 -96 43 -145.5t121 -49.5q32 0 60.5 15.5t47.5 33.5l42 -45v0z" />
    <glyph glyph-name="eacute" unicode="&#xe9;" horiz-adv-x="483" 
d="M105 231q-1 -37 7 -70t27 -57.5t48.5 -39t70.5 -14.5q27 0 59 11.5t57 31.5l39 -43q-33 -29 -72 -42.5t-81 -13.5q-38 0 -76.5 10.5t-70 38t-51.5 76.5t-20 127q0 74 18.5 123t47.5 78.5t65 41.5t71 12q45 0 81.5 -16t63 -45t41 -70t14.5 -90v-49h-339zM378 283
q-2 81 -38 120.5t-95 39.5q-61 0 -98.5 -41t-41.5 -119h273zM205 573l75 166l66 -22l-100 -160z" />
    <glyph glyph-name="egrave" unicode="&#xe8;" horiz-adv-x="483" 
d="M105 231q-1 -37 7 -70t27 -57.5t48.5 -39t70.5 -14.5q27 0 59 11.5t57 31.5l39 -43q-33 -29 -72 -42.5t-81 -13.5q-38 0 -76.5 10.5t-70 38t-51.5 76.5t-20 127q0 74 18.5 123t47.5 78.5t65 41.5t71 12q45 0 81.5 -16t63 -45t41 -70t14.5 -90v-49h-339zM378 283
q-2 81 -38 120.5t-95 39.5q-61 0 -98.5 -41t-41.5 -119h273zM249 557l-100 160l65 22l76 -166z" />
    <glyph glyph-name="ecircumflex" unicode="&#xea;" horiz-adv-x="483" 
d="M105 231q-1 -37 7 -70t27 -57.5t48.5 -39t70.5 -14.5q27 0 59 11.5t57 31.5l39 -43q-33 -29 -72 -42.5t-81 -13.5q-38 0 -76.5 10.5t-70 38t-51.5 76.5t-20 127q0 74 18.5 123t47.5 78.5t65 41.5t71 12q45 0 81.5 -16t63 -45t41 -70t14.5 -90v-49h-339zM378 283
q-2 81 -38 120.5t-95 39.5q-61 0 -98.5 -41t-41.5 -119h273zM247 657l-130 -103l-31 30l142 138h45l134 -137l-30 -30z" />
    <glyph glyph-name="edieresis" unicode="&#xeb;" horiz-adv-x="483" 
d="M105 231q-1 -37 7 -70t27 -57.5t48.5 -39t70.5 -14.5q27 0 59 11.5t57 31.5l39 -43q-33 -29 -72 -42.5t-81 -13.5q-38 0 -76.5 10.5t-70 38t-51.5 76.5t-20 127q0 74 18.5 123t47.5 78.5t65 41.5t71 12q45 0 81.5 -16t63 -45t41 -70t14.5 -90v-49h-339zM378 283
q-2 81 -38 120.5t-95 39.5q-61 0 -98.5 -41t-41.5 -119h273zM306 602v72h72v-72h-72zM122 602v72h72v-72h-72z" />
    <glyph glyph-name="sterling" unicode="&#xa3;" horiz-adv-x="484" 
d="M39 350h74q-5 23 -12.5 45l-15 43t-12.5 42.5t-5 44.5q0 34 11.5 65.5t34.5 56t56 39t77 14.5q34 0 61 -4.5t49.5 -15t42 -28t38.5 -43.5l-54 -38q-28 41 -63 56t-76 15q-17 0 -35.5 -6t-35 -20t-27 -36t-10.5 -55q0 -21 5 -41.5t12.5 -41.5l15 -44t12.5 -48h154v-52
h-149q-2 -62 -15 -122t-54 -117h327v-59h-406v51q38 50 61.5 111t24.5 136h-86v52z" />
    <glyph glyph-name="trademark" unicode="&#x2122;" horiz-adv-x="825" 
d="M710 301l-1 280l-114 -222h-40l-115 222v-280h-48v394h48l137 -269l14.5 29l24 48l29 57.5l29 57.5l24 48l14.5 29h46v-394h-48zM210 649v-347h-49v347h-123v47h294v-47h-122z" />
    <glyph glyph-name="icircumflex" unicode="&#xee;" horiz-adv-x="281" 
d="M107 0v495h68v-495h-68zM141 657l-131 -103l-30 30l140 138h46l135 -137l-31 -30z" />
    <glyph glyph-name="idieresis" unicode="&#xef;" horiz-adv-x="216" 
d="M75 0v495h68v-495h-68zM164 602v72h72v-72h-72zM-20 602v72h72v-72h-72z" />
    <glyph glyph-name="bullet" unicode="&#x2022;" horiz-adv-x="381" 
d="M305 268q0 -23 -9 -43.5t-24 -35.5t-35.5 -24t-43.5 -9t-43.5 9t-35.5 24t-24 35.5t-9 43.5t9 43.5t24 35.5t35.5 24t43.5 9t43.5 -9t35.5 -24t24 -35.5t9 -43.5z" />
    <glyph glyph-name="ocircumflex" unicode="&#xf4;" horiz-adv-x="502" 
d="M250 657l-130 -103l-31 30l141 138h45l135 -137l-31 -30zM257 500q54 0 95 -21t66 -60q17 -26 27 -69.5t9 -105.5q-1 -59 -12.5 -100t-30.5 -69q-28 -42 -71 -61.5t-94 -19.5q-102 0 -153 66q-24 32 -34.5 77.5t-10.5 109.5q0 56 10 95t29 69q26 42 69 65.5t101 23.5z
M254 444q-38 0 -67 -17t-46 -46q-15 -24 -22.5 -55.5t-7.5 -79.5t7.5 -80.5t21.5 -55.5q17 -28 44.5 -43.5t64.5 -15.5q39 0 70 17t48 55q10 20 16.5 49t6.5 74q0 48 -5.5 77.5t-15.5 49.5q-36 71 -115 71z" />
    <glyph glyph-name="odieresis" unicode="&#xf6;" horiz-adv-x="502" 
d="M304 602v72h72v-72h-72zM120 602v72h72v-72h-72zM257 500q54 0 95 -21t66 -60q17 -26 27 -69.5t9 -105.5q-1 -59 -12.5 -100t-30.5 -69q-28 -42 -71 -61.5t-94 -19.5q-102 0 -153 66q-24 32 -34.5 77.5t-10.5 109.5q0 56 10 95t29 69q26 42 69 65.5t101 23.5zM254 444
q-38 0 -67 -17t-46 -46q-15 -24 -22.5 -55.5t-7.5 -79.5t7.5 -80.5t21.5 -55.5q17 -28 44.5 -43.5t64.5 -15.5q39 0 70 17t48 55q10 20 16.5 49t6.5 74q0 48 -5.5 77.5t-15.5 49.5q-36 71 -115 71z" />
    <glyph glyph-name="sfthyphen" unicode="&#xad;" horiz-adv-x="381" 
d="M52 224v59h277v-59h-277z" />
    <glyph glyph-name="ugrave" unicode="&#xf9;" horiz-adv-x="515" 
d="M384 0v68h-2q-25 -40 -65 -57t-80 -17q-35 0 -67 11.5t-56.5 33t-39 53t-14.5 72.5v332h64v-307q0 -64 33.5 -99.5t96.5 -35.5q28 0 52 10t41.5 29t27.5 45t10 58v300h62v-496h-63zM256 557l-100 160l66 22l75 -166z" />
    <glyph glyph-name="ucircumflex" unicode="&#xfb;" horiz-adv-x="515" 
d="M384 0v68h-2q-25 -40 -65 -57t-80 -17q-35 0 -67 11.5t-56.5 33t-39 53t-14.5 72.5v332h64v-307q0 -64 33.5 -99.5t96.5 -35.5q28 0 52 10t41.5 29t27.5 45t10 58v300h62v-496h-63zM254 657l-130 -103l-30 30l140 138h46l135 -137l-31 -30z" />
    <glyph glyph-name="udieresis" unicode="&#xfc;" horiz-adv-x="515" 
d="M384 0v68h-2q-25 -40 -65 -57t-80 -17q-35 0 -67 11.5t-56.5 33t-39 53t-14.5 72.5v332h64v-307q0 -64 33.5 -99.5t96.5 -35.5q28 0 52 10t41.5 29t27.5 45t10 58v300h62v-496h-63zM303 602v72h72v-72h-72zM119 602v72h72v-72h-72z" />
    <glyph glyph-name="dagger" unicode="&#x2020;" horiz-adv-x="457" 
d="M260 400v-590h-64v590h-173v54h173v242h64v-242h174v-54h-174z" />
    <glyph glyph-name="Gamma" unicode="&#x393;" horiz-adv-x="516" 
d="M146 634v-634h-69v696h432v-62h-363z" />
    <glyph glyph-name="Delta" unicode="&#x394;" horiz-adv-x="592" 
d="M10 0l126.5 348l127.5 348h62l255 -696h-571zM293 616l-32 -97.5l-33 -97.5l-17 -49l-21.5 -62.5l-24 -69.5l-24.5 -69.5l-22 -62.5l-17 -49h386l-126 363q-19 48 -34 96.5t-32 97.5h-3z" />
    <glyph glyph-name="Delta" unicode="&#x2206;" horiz-adv-x="592" 
d="M10 0l126.5 348l127.5 348h62l255 -696h-571zM293 616l-32 -97.5l-33 -97.5l-17 -49l-21.5 -62.5l-24 -69.5l-24.5 -69.5l-22 -62.5l-17 -49h386l-126 363q-19 48 -34 96.5t-32 97.5h-3z" />
    <glyph glyph-name="Theta" unicode="&#x398;" horiz-adv-x="573" 
d="M286 701q57 0 102 -19t76.5 -53t48 -80t16.5 -101v-199q0 -59 -17 -106t-48.5 -80t-76.5 -51t-101 -18q-62 0 -108 20.5t-76 55.5t-45 81.5t-15 97.5v199q0 51 15 96.5t45.5 80.5t76.5 55.5t107 20.5zM287 636q-45 0 -78 -16t-55 -42t-33 -61t-11 -72v-193q0 -38 11 -73
t33 -62t55 -43t78 -16q40 0 72.5 14.5t55 41t34.5 62.5t12 78v191q0 40 -12 74.5t-34.5 60.5t-54.5 41t-73 15zM149 385h275v-59h-275v59z" />
    <glyph glyph-name="Lambda" unicode="&#x39b;" horiz-adv-x="592" 
d="M509 0l-213 603h-3l-58.5 -167.5l-41.5 -118.5l-28.5 -81l-19.5 -55l-64 -181h-71l126.5 348l127.5 348h62l255 -696h-72z" />
    <glyph glyph-name="Xi" unicode="&#x39e;" horiz-adv-x="561" 
d="M57 634v62h442v-62h-442zM113 322v60h331v-60h-331zM57 0v62h442v-62h-442z" />
    <glyph glyph-name="Pi" unicode="&#x3a0;" horiz-adv-x="631" 
d="M485 0v637h-340v-637h-68v696h476v-696h-68z" />
    <glyph glyph-name="germandbls" unicode="&#xdf;" horiz-adv-x="513" 
d="M461 229q0 -50 -12 -92.5t-35.5 -73t-59.5 -47.5t-84 -17h-34v53h31q38 0 62.5 15.5t39 41t20 58t5.5 65.5q0 31 -8 58.5t-23 48t-37.5 32.5t-51.5 12h-26v54h24q26 0 45 11t31.5 28t18.5 37t6 38q0 22 -7 43.5t-21 38.5t-36.5 28t-55.5 11q-37 0 -60.5 -13.5t-37 -34
t-19 -44.5t-5.5 -46v-534h-62v534q0 43 13 78.5t37.5 61t59.5 39t79 13.5q43 0 76.5 -14.5t56 -37.5t34 -53t11.5 -61q0 -20 -4.5 -41.5t-14 -41.5t-25.5 -37t-38 -27v-1q29 -8 49.5 -26.5t33 -43.5t18.5 -54t6 -59z" />
    <glyph glyph-name="registered" unicode="&#xae;" horiz-adv-x="553" 
d="M484 492q0 -45 -16 -83t-43.5 -65.5t-65.5 -43.5t-82 -16t-81.5 16t-65.5 43.5t-44 65.5t-16 83t16 83.5t44 66.5t65.5 44t81.5 16t82 -16t65.5 -44t43.5 -66.5t16 -83.5zM450 492q0 38 -13.5 71t-36.5 57t-54.5 38t-68.5 14t-68.5 -14t-54.5 -38t-36 -57t-13 -71
t13 -70.5t36 -56.5t54.5 -37.5t68.5 -13.5t68.5 13.5t54.5 37.5t36.5 56.5t13.5 70.5zM286 475h-51v-104h-34v242h99q31 0 51.5 -18t20.5 -49q0 -24 -14 -41.5t-37 -24.5l57 -109h-39zM235 583v-76h59q19 0 31.5 10t12.5 29q0 20 -12.5 28.5t-30.5 8.5h-60z" />
    <glyph glyph-name="copyright" unicode="&#xa9;" horiz-adv-x="792" 
d="M542 213q-17 -44 -53 -68.5t-87 -24.5q-38 0 -66 12.5t-47 34.5t-28 50.5t-9 60.5v118q0 31 9.5 59.5t28.5 50t47 34t65 12.5q51 0 86.5 -24t52.5 -65l-47 -22q-12 27 -35.5 44.5t-55.5 17.5q-26 0 -44.5 -9t-31.5 -24t-19 -35t-6 -41v-114q0 -21 6 -41.5t19 -36
t31.5 -25t44.5 -9.5q33 0 56 18.5t35 48.5zM399 -9q-74 0 -137.5 26.5t-109.5 73.5t-72 111t-26 139t26.5 139.5t73 111.5t109.5 73.5t136 26.5t136.5 -26.5t110 -73.5t73 -111.5t26.5 -139.5t-26.5 -139t-73 -111t-110 -73.5t-136.5 -26.5zM399 644q-63 0 -116.5 -23
t-93 -64t-62 -96.5t-22.5 -119.5t22.5 -119t62 -95.5t93 -64t116.5 -23.5t117 23.5t93 64t61.5 95.5t22.5 119t-22.5 119.5t-61.5 96.5t-93 64t-117 23z" />
    <glyph glyph-name="Sigma" unicode="&#x3a3;" horiz-adv-x="495" 
d="M33 0v60l178 299l-177 282v55h419v-59h-341l178 -278l-179 -297h353v-62h-431z" />
    <glyph glyph-name="Iotadieresis" unicode="&#x3aa;" horiz-adv-x="227" 
d="M79 0v696h68v-696h-68zM167 765v70h72v-70h-72zM-12 765v70h72v-70h-72z" />
    <glyph glyph-name="section" unicode="&#xa7;" horiz-adv-x="457" 
d="M425 283q0 -30 -11.5 -58.5t-34.5 -51.5q15 -20 25 -43.5t10 -50.5q0 -34 -13 -62.5t-37 -49.5t-59 -32.5t-79 -11.5q-51 0 -99.5 20t-77.5 51l37 40q31 -29 67 -42.5t72 -13.5q57 0 92 23.5t35 77.5q0 21 -9.5 37.5t-27 29.5t-41.5 23.5t-53 20.5q-42 14 -73 28.5
t-51.5 33t-30.5 42t-10 55.5q0 29 14.5 58t37.5 51q-18 18 -29.5 41.5t-11.5 53.5q0 33 12.5 60.5t35 47t53.5 30.5t68 11q98 0 163 -56l-35 -46q-32 26 -65 36.5t-65 10.5q-50 0 -78.5 -24.5t-28.5 -63.5q0 -23 12.5 -40t32.5 -29.5t45 -22l51 -18.5q27 -9 54.5 -22
t50.5 -32.5t37.5 -47t14.5 -64.5zM368 284q1 24 -9 41t-28.5 30t-44.5 23l-57 21l-36 13.5t-35 16.5q-20 -14 -32.5 -34t-12.5 -42q0 -23 11.5 -39t29.5 -28t39.5 -21t41.5 -16q25 -9 51 -19.5t47 -21.5q18 14 26.5 33.5t8.5 42.5z" />
    <glyph glyph-name="degree" unicode="&#xb0;" horiz-adv-x="374" 
d="M315 572q0 -27 -10 -50t-27.5 -40.5t-40.5 -27.5t-50 -10t-50.5 10t-41 27.5t-27.5 40.5t-10 50t10 50.5t27.5 41t41 27.5t50.5 10t50.5 -10t40.5 -27.5t27 -41t10 -50.5zM272 572q0 18 -6.5 33.5t-18 27t-27 18.5t-33.5 7t-33.5 -7t-27 -18.5t-18 -27t-6.5 -33.5
q0 -35 25 -59.5t60 -24.5t60 24t25 60z" />
    <glyph glyph-name="periodcentered" unicode="&#xb7;" horiz-adv-x="206" 
d="M63 224v89h81v-89h-81z" />
    <glyph glyph-name="Alpha" unicode="&#x391;" horiz-adv-x="592" 
d="M509 0l-29.5 82l-28.5 83h-312l-29.5 -83l-28.5 -82h-71l126.5 348l127.5 348h62l255 -696h-72zM293 609q-8 -26 -25 -75l-36 -103l-41.5 -116.5l-32.5 -91.5h273l-78 225l-57 161h-3z" />
    <glyph glyph-name="plusminus" unicode="&#xb1;" horiz-adv-x="484" 
d="M269 281v-181h-50v181h-185v51h185v180h50v-180h185v-51h-185zM34 0v51h421v-51h-421z" />
    <glyph glyph-name="yen" unicode="&#xa5;" horiz-adv-x="484" 
d="M245 348l19.5 42.5l27 61l31 70l31.5 70.5l27.5 61.5l19.5 42.5h67l-19.5 -42l-28.5 -60l-32.5 -69.5l-32.5 -69.5l-28.5 -60l-19.5 -41h132v-44h-153l-12 -26v-64h165v-44h-165v-176h-62v176h-163v44h163v64q-1 3 -5 13t-6 13h-152v44h130l-165 342h67l20 -42.5
l28 -61.5l32 -70.5l32 -70l28 -61l20 -42.5h4z" />
    <glyph glyph-name="Beta" unicode="&#x392;" horiz-adv-x="592" 
d="M553 190q0 -44 -15 -79t-41 -59.5t-60 -38t-73 -13.5h-287v696h259q49 0 86.5 -13.5t63 -37.5t38.5 -57t13 -72q0 -20 -5 -42t-17.5 -43t-34 -39t-54.5 -30v-3q33 -7 57 -25t39.5 -41.5t23 -50.5t7.5 -52zM145 637v-251h181q69 0 106 35.5t37 90.5q0 53 -36.5 89
t-106.5 36h-181zM145 327v-265h196q36 0 63 10.5t45 28.5t26.5 42.5t8.5 51.5q0 26 -8.5 50t-26.5 42t-45 29t-63 11h-196z" />
    <glyph glyph-name="Epsilon" unicode="&#x395;" horiz-adv-x="536" 
d="M77 0v696h432v-62h-364v-252h310v-60h-310v-260h364v-62h-432z" />
    <glyph glyph-name="Zeta" unicode="&#x396;" horiz-adv-x="497" 
d="M33 0v60l354 577h-340v59h417v-55l-355 -579h355v-62h-431z" />
    <glyph glyph-name="Eta" unicode="&#x397;" horiz-adv-x="631" 
d="M485 0v322h-340v-322h-68v696h68v-314h340v314h68v-696h-68z" />
    <glyph glyph-name="Iota" unicode="&#x399;" horiz-adv-x="227" 
d="M79 0v696h68v-696h-68z" />
    <glyph glyph-name="Kappa" unicode="&#x39a;" horiz-adv-x="612" 
d="M519 0q-10 16 -27 45.5l-39 65.5l-45 75.5l-45 75.5l-39.5 65.5l-26.5 45.5l-32 -38.5l-44.5 -54l-44.5 -54l-31 -38.5v-188h-68v696h68v-410h2l150 184l187 226h77l-26.5 -32l-39 -47.5l-45.5 -55.5l-45.5 -55.5l-38.5 -47.5l-26 -32q10 -18 30.5 -51.5l45.5 -75
l52.5 -87l52.5 -86.5l45 -74.5l31 -51.5h-78z" />
    <glyph glyph-name="Mu" unicode="&#x39c;" horiz-adv-x="745" 
d="M610 543l-2 -1l-39.5 -87.5l-39.5 -87.5l-123 -261h-58l-62.5 132.5l-61.5 133.5l-79 171q0 -1 -2 -1v-542h-66v696h67l152 -327l16 -35l25 -55.5l24.5 -55.5l15.5 -35h2l69 153l164 355h65v-696h-67v543z" />
    <glyph glyph-name="Phi" unicode="&#x3a6;" horiz-adv-x="729" 
d="M687 355q0 -69 -20 -123t-57.5 -92t-91 -59.5t-120.5 -24.5v-56h-67v56q-72 4 -126 27.5t-90 62.5t-54 92.5t-18 116.5q0 57 15 110.5t49 96t89 69.5t135 32v33h67v-33q78 -3 133 -27t89.5 -65t50.5 -96t16 -120zM398 113q106 2 165.5 64t59.5 178q0 118 -56.5 184
t-168.5 68v-494zM331 608q-59 -3 -101.5 -22.5t-69.5 -52.5t-40 -78.5t-13 -99.5q0 -53 13.5 -96t40.5 -74t69 -49.5t101 -22.5v495z" />
    <glyph glyph-name="Upsilondieresis" unicode="&#x3ab;" horiz-adv-x="492" 
d="M277 0h-64v287l-209 409h71l107 -216l63 -132q19 35 35.5 71l33.5 72l51.5 102l50.5 103h69l-104.5 -204.5l-103.5 -204.5v-287zM299 834h71v-70h-71v70zM119 834h71v-70h-71v70z" />
    <glyph glyph-name="Psi" unicode="&#x3a8;" horiz-adv-x="722" 
d="M658 384q0 -53 -18.5 -96.5t-53 -74.5t-83 -49t-108.5 -21v-143h-68v144q-60 2 -109 20.5t-83 51t-52.5 77.5t-18.5 101v302h67v-294q0 -42 13.5 -77t39 -60.5t62 -40.5t81.5 -16v488h68v-487q88 1 141.5 48.5t53.5 134.5v304h68v-312v0z" />
    <glyph glyph-name="Omega" unicode="&#x3a9;" horiz-adv-x="573" 
d="M131 61q-23 12 -40 33.5t-28 48.5t-16.5 58.5t-5.5 64.5v183q0 50 15 96t45.5 80.5t76 55t107.5 20.5q57 0 102 -19t76.5 -52.5t48 -79.5t16.5 -101v-183q0 -68 -20.5 -120.5t-67.5 -83.5v-1h103v-61h-198v73q56 18 85.5 69.5t29.5 120.5v184q0 40 -11.5 75t-33.5 61
t-54.5 41t-74.5 15q-46 0 -79.5 -16t-55.5 -42.5t-32.5 -61.5t-10.5 -72v-184q0 -31 7.5 -60.5t22 -55t36.5 -45.5t51 -30v-72h-198v61h104v0z" />
    <glyph glyph-name="alphatonos" unicode="&#x3ac;" horiz-adv-x="503" 
d="M51 239q0 51 8.5 98.5t29.5 83.5t57 58t91 22q37 0 74 -15.5t65 -59.5l2 1v68h63v-495h-63v73h-2q-26 -36 -61 -57.5t-82 -21.5q-54 0 -89 21.5t-55.5 56t-29 78.5t-8.5 89zM117 247q0 -33 4.5 -66.5t19 -61.5t40 -45.5t67.5 -17.5q39 0 64.5 17.5t40 45.5t20 62t5.5 67
q0 30 -4.5 63.5t-18 62.5t-39 48t-68.5 19q-44 0 -69.5 -18.5t-39.5 -47t-18 -63t-4 -65.5zM206 573l75 166l65 -22l-99 -160z" />
    <glyph glyph-name="Nu" unicode="&#x39d;" horiz-adv-x="668" 
d="M267 392l-120 188q-1 0 -1 -0.5t-1 -0.5v-579h-67v696h67l252 -384l27 -42.5l36 -57l36 -56.5l27 -43l2 2v581h66v-696h-66z" />
    <glyph glyph-name="Omicron" unicode="&#x39f;" horiz-adv-x="583" 
d="M292 701q57 0 102 -19t76.5 -53t48 -80t16.5 -101v-199q0 -59 -17 -106t-48.5 -80t-76.5 -51t-101 -18q-62 0 -108 20.5t-76 55.5t-45 81.5t-15 97.5v199q0 51 15 96.5t45.5 80.5t76 55.5t107.5 20.5zM293 637q-45 0 -78 -16t-55.5 -42t-33.5 -61t-11 -72v-195
q0 -38 11 -73t33.5 -62t55.5 -43.5t78 -16.5q40 0 72 15t54.5 41t34.5 62.5t12 78.5v193q0 40 -12 75t-34 60.5t-54.5 40.5t-72.5 15z" />
    <glyph glyph-name="Rho" unicode="&#x3a1;" horiz-adv-x="564" 
d="M553 489q0 -35 -13.5 -71t-40 -64.5t-66 -46.5t-91.5 -18h-196v-289h-68v696h252q42 0 82.5 -11.5t71.5 -36t50 -64t19 -95.5zM481 492q0 36 -11.5 62.5t-32 44t-48 26.5t-58.5 9h-185v-282h189q38 0 65.5 12.5t45.5 32t26.5 44.5t8.5 51z" />
    <glyph glyph-name="Tau" unicode="&#x3a4;" horiz-adv-x="482" 
d="M276 637v-637h-68v637h-204v59h474v-59h-202z" />
    <glyph glyph-name="guillemotleft" unicode="&#xab;" horiz-adv-x="433" 
d="M329 46l-122 180l122 179h61l-119 -179l119 -180h-61zM174 46l-121 180l122 179h62l-120 -179l120 -180h-63z" />
    <glyph glyph-name="guillemotright" unicode="&#xbb;" horiz-adv-x="433" 
d="M54 46l119 180l-119 179h61l123 -179l-122 -180h-62zM208 46l119 180l-119 179h61l122 -179l-122 -180h-61z" />
    <glyph glyph-name="ellipsis" unicode="&#x2026;" horiz-adv-x="692" 
d="M72 0v88h81v-88h-81zM301 0v88h82v-88h-82zM535 0v88h82v-88h-82z" />
    <glyph glyph-name="Upsilon" unicode="&#x3a5;" horiz-adv-x="492" 
d="M277 0h-64v287l-209 409h71l107 -216l63 -132q19 35 35.5 71l33.5 72l51.5 102l50.5 103h69l-104.5 -204.5l-103.5 -204.5v-287z" />
    <glyph glyph-name="Chi" unicode="&#x3a7;" horiz-adv-x="512" 
d="M431 0l-175 303l-176 -303h-75l213 357l-199 339h76l161 -285l161 285h75l-199 -339l213 -357h-75z" />
    <glyph glyph-name="Alphatonos" unicode="&#x386;" horiz-adv-x="592" 
d="M509 0l-29.5 82l-28.5 83h-312l-29.5 -83l-28.5 -82h-71l126.5 348l127.5 348h62l255 -696h-72zM293 609q-8 -26 -25 -75l-36 -103l-41.5 -116.5l-32.5 -91.5h273l-78 225l-57 161h-3zM15 543q-20 9 -39 16l37 83l38 82l32 -10.5l32 -10.5z" />
    <glyph glyph-name="Epsilontonos" unicode="&#x388;" horiz-adv-x="536" 
d="M77 0v696h432v-62h-364v-252h310v-60h-310v-260h364v-62h-432zM-116 559l76 166l64 -22l-99 -160z" />
    <glyph glyph-name="endash" unicode="&#x2013;" horiz-adv-x="497" 
d="M20 236v61h457v-61h-457z" />
    <glyph glyph-name="afii00208" unicode="&#x2015;" horiz-adv-x="997" 
d="M20 236v61h957v-61h-957z" />
    <glyph glyph-name="quotedblleft" unicode="&#x201c;" horiz-adv-x="279" 
d="M244 728l-29 -107h22v-88h-82v88q13 26 24.5 53t24.5 54h40zM122 728l-29 -107h22v-88h-81v88l48 107h40z" />
    <glyph glyph-name="quotedblright" unicode="&#x201d;" horiz-adv-x="279" 
d="M164 533l29 106h-22v89h82v-89q-13 -26 -24.5 -53t-24.5 -53h-40zM43 533l29 106h-22v89h81v-89l-24 -53t-25 -53h-39z" />
    <glyph glyph-name="quoteleft" unicode="&#x2018;" horiz-adv-x="205" 
d="M149 728l-29 -107h22v-88h-82v88q13 26 24.5 53t24.5 54h40z" />
    <glyph glyph-name="quoteright" unicode="&#x2019;" horiz-adv-x="205" 
d="M60 533l29 107h-22v88h82v-88q-13 -26 -25 -53l-24 -54h-40z" />
    <glyph glyph-name="divide" unicode="&#xf7;" horiz-adv-x="484" 
d="M293 461q0 -20 -14 -34t-34 -14t-34 14t-14 34t14 33.5t34 13.5t34 -13.5t14 -33.5zM27 262v50h433v-50h-433zM246 160q19 0 33 -13.5t14 -33.5t-14 -34t-34 -14t-34 14t-14 34t14.5 33.5t34.5 13.5z" />
    <glyph glyph-name="Etatonos" unicode="&#x389;" horiz-adv-x="631" 
d="M485 0v322h-340v-322h-68v696h68v-314h340v314h68v-696h-68zM-110 559l75 166l65 -22l-100 -160z" />
    <glyph glyph-name="Iotatonos" unicode="&#x38a;" horiz-adv-x="227" 
d="M79 0v696h68v-696h-68zM-114 559l75 166l66 -22l-100 -160z" />
    <glyph glyph-name="Omicrontonos" unicode="&#x38c;" horiz-adv-x="583" 
d="M292 701q57 0 102 -19t76.5 -53t48 -80t16.5 -101v-199q0 -59 -17 -106t-48.5 -80t-76.5 -51t-101 -18q-62 0 -108 20.5t-76 55.5t-45 81.5t-15 97.5v199q0 51 15 96.5t45.5 80.5t76 55.5t107.5 20.5zM293 637q-45 0 -78 -16t-55.5 -42t-33.5 -61t-11 -72v-195
q0 -38 11 -73t33.5 -62t55.5 -43.5t78 -16.5q40 0 72 15t54.5 41t34.5 62.5t12 78.5v193q0 40 -12 75t-34 60.5t-54.5 40.5t-72.5 15zM-102 559l75 166l66 -22l-100 -160z" />
    <glyph glyph-name="Upsilontonos" unicode="&#x38e;" horiz-adv-x="492" 
d="M277 0h-64v287l-209 409h71l107 -216l63 -132q19 35 35.5 71l33.5 72l51.5 102l50.5 103h69l-104.5 -204.5l-103.5 -204.5v-287zM-122 543q-10 5 -19.5 8.5l-20.5 7.5l75 165q17 -5 32.5 -10.5t32.5 -10.5z" />
    <glyph glyph-name="epsilontonos" unicode="&#x3ad;" horiz-adv-x="434" 
d="M138 261q-24 8 -39 20.5t-23.5 27t-11 29t-2.5 26.5q0 26 11.5 50.5t34 44t57 31t81.5 11.5q48 0 90 -16.5t73 -44.5l-41 -46q-21 20 -54.5 33t-65.5 13q-54 0 -88.5 -20.5t-34.5 -56.5q0 -35 29.5 -55.5t80.5 -20.5h65v-52h-70q-22 0 -42.5 -7t-36.5 -19t-25.5 -29
t-9.5 -37q0 -42 38.5 -64.5t97.5 -22.5q30 0 62.5 12.5t55.5 33.5l41 -46q-31 -28 -74.5 -44t-91.5 -16q-45 0 -80.5 11t-60 31t-37.5 47.5t-13 60.5q0 11 4 27t13.5 32.5t26 31t40.5 22.5v2zM196 573l75 166l65 -22l-99 -160z" />
    <glyph glyph-name="etatonos" unicode="&#x3ae;" horiz-adv-x="504" 
d="M382 0v307q0 63 -29.5 97.5t-97.5 34.5q-28 0 -52.5 -10t-42.5 -28.5t-28.5 -44.5t-10.5 -58v-298h-63v496h63v-74h3q25 40 66 59.5t83 19.5q38 0 70 -11t54.5 -32.5t35 -53.5t12.5 -74v-330h-63zM192 573l75 166l66 -22l-100 -160z" />
    <glyph glyph-name="iotatonos" unicode="&#x3af;" horiz-adv-x="216" 
d="M180 0q-5 -1 -10 -1h-9q-49 0 -69.5 20t-20.5 73v402h62v-391q0 -31 9 -39.5t36 -8.5h2v-55zM73 573l75 166l66 -22l-100 -160z" />
    <glyph glyph-name="omicrontonos" unicode="&#x3cc;" horiz-adv-x="502" 
d="M208 573l76 166l65 -22l-100 -160zM257 500q54 0 95 -21t66 -60q17 -26 27 -69.5t9 -105.5q-1 -59 -12.5 -100t-30.5 -69q-28 -42 -71 -61.5t-94 -19.5q-102 0 -153 66q-24 32 -34.5 77.5t-10.5 109.5q0 56 10 95t29 69q26 42 69 65.5t101 23.5zM254 444q-38 0 -67 -17
t-46 -46q-15 -24 -22.5 -55.5t-7.5 -79.5t7.5 -80.5t21.5 -55.5q17 -28 44.5 -43.5t64.5 -15.5q39 0 70 17t48 55q10 20 16.5 49t6.5 74q0 48 -5.5 77.5t-15.5 49.5q-36 71 -115 71z" />
    <glyph glyph-name="Omegatonos" unicode="&#x38f;" horiz-adv-x="573" 
d="M131 61q-23 12 -40 33.5t-28 48.5t-16.5 58.5t-5.5 64.5v183q0 50 15 96t45.5 80.5t76 55t107.5 20.5q57 0 102 -19t76.5 -52.5t48 -79.5t16.5 -101v-183q0 -68 -20.5 -120.5t-67.5 -83.5v-1h103v-61h-198v73q56 18 85.5 69.5t29.5 120.5v184q0 40 -11.5 75t-33.5 61
t-54.5 41t-74.5 15q-46 0 -79.5 -16t-55.5 -42.5t-32.5 -61.5t-10.5 -72v-184q0 -31 7.5 -60.5t22 -55t36.5 -45.5t51 -30v-72h-198v61h104zM-62 543q-10 5 -19.5 8.5l-20.5 7.5l76 165q16 -5 31 -10.5t32 -10.5l-49 -80z" />
    <glyph glyph-name="upsilontonos" unicode="&#x3cd;" horiz-adv-x="526" 
d="M457 175q0 -42 -14 -75.5t-39.5 -57t-61.5 -36t-79 -12.5q-44 0 -79.5 13t-61 37t-39.5 57t-14 73v322h63v-300q0 -64 36 -103t96 -39q59 0 94.5 37t35.5 100v305h63v-321zM213 573l76 166l65 -22l-100 -160z" />
    <glyph glyph-name="alpha" unicode="&#x3b1;" horiz-adv-x="503" 
d="M51 239q0 51 8.5 98.5t29.5 83.5t57 58t91 22q37 0 74 -15.5t65 -59.5l2 1v68h63v-495h-63v73h-2q-26 -36 -61 -57.5t-82 -21.5q-54 0 -89 21.5t-55.5 56t-29 78.5t-8.5 89zM117 247q0 -33 4.5 -66.5t19 -61.5t40 -45.5t67.5 -17.5q39 0 64.5 17.5t40 45.5t20 62t5.5 67
q0 30 -4.5 63.5t-18 62.5t-39 48t-68.5 19q-44 0 -69.5 -18.5t-39.5 -47t-18 -63t-4 -65.5z" />
    <glyph glyph-name="beta" unicode="&#x3b2;" horiz-adv-x="511" 
d="M459 230q0 -49 -10.5 -92t-32.5 -75t-57 -50.5t-86 -18.5q-17 0 -36 3t-37.5 11.5t-36.5 23.5t-32 39l-1 -1v-209h-63v670q0 43 12 79t35 61.5t58 39.5t81 14q49 0 82 -16.5t53.5 -42t29.5 -55t9 -54.5q0 -41 -16.5 -80.5t-56.5 -60.5v-1q31 -6 51.5 -25t32.5 -44.5
t16.5 -56t4.5 -59.5zM199 386v54h63q28 0 47.5 10t31.5 25.5t17.5 35.5t5.5 40q0 17 -5.5 38t-18.5 39t-35 30.5t-54 12.5q-36 0 -59.5 -13t-37 -33t-19 -44t-5.5 -46v-300q0 -28 5 -60.5t19 -60t39.5 -46t66.5 -18.5t67 17t41 44t20.5 60t5.5 65q0 27 -5.5 53.5t-19 48
t-36.5 35t-57 13.5h-77z" />
    <glyph glyph-name="psi" unicode="&#x3c8;" horiz-adv-x="618" 
d="M555 188q0 -44 -16.5 -78.5t-45.5 -59.5t-68 -39t-85 -16v-194h-63v194q-47 2 -85.5 17t-67 40t-44 58t-15.5 72v313h62v-294q0 -63 39.5 -102.5t110.5 -43.5v460h63v-460q66 2 109 40.5t43 107.5v292h63v-307v0z" />
    <glyph glyph-name="epsilon" unicode="&#x3b5;" horiz-adv-x="434" 
d="M138 261q-24 8 -39 20.5t-23.5 27t-11 29t-2.5 26.5q0 26 11.5 50.5t34 44t57 31t81.5 11.5q48 0 90 -16.5t73 -44.5l-41 -46q-21 20 -54.5 33t-65.5 13q-54 0 -88.5 -20.5t-34.5 -56.5q0 -35 29.5 -55.5t80.5 -20.5h65v-52h-70q-22 0 -42.5 -7t-36.5 -19t-25.5 -29
t-9.5 -37q0 -42 38.5 -64.5t97.5 -22.5q30 0 62.5 12.5t55.5 33.5l41 -46q-31 -28 -74.5 -44t-91.5 -16q-45 0 -80.5 11t-60 31t-37.5 47.5t-13 60.5q0 11 4 27t13.5 32.5t26 31t40.5 22.5v2z" />
    <glyph glyph-name="gamma" unicode="&#x3b3;" horiz-adv-x="436" 
d="M254 -200h-63v209l-64.5 198t-69.5 192q-5 13 -9 21.5t-8 12.5t-9.5 5.5t-14.5 1.5q-2 0 -4.5 -0.5t-4.5 -0.5q-1 14 -2 26.5t-3 26.5q21 7 40 7q28 0 44 -15.5t27 -44.5l57 -164l52 -161l35.5 95l39 108l37 101.5t30.5 76.5h67l-90 -233.5l-87 -242.5v-219z" />
    <glyph glyph-name="eta" unicode="&#x3b7;" horiz-adv-x="504" 
d="M382 0v307q0 63 -29.5 97.5t-97.5 34.5q-28 0 -52.5 -10t-42.5 -28.5t-28.5 -44.5t-10.5 -58v-298h-63v496h63v-74h3q25 40 66 59.5t83 19.5q38 0 70 -11t54.5 -32.5t35 -53.5t12.5 -74v-330h-63z" />
    <glyph glyph-name="iota" unicode="&#x3b9;" horiz-adv-x="216" 
d="M180 0q-5 -1 -10 -1h-9q-49 0 -69.5 20t-20.5 73v402h62v-391q0 -31 9 -39.5t36 -8.5h2v-55z" />
    <glyph glyph-name="kappa" unicode="&#x3ba;" horiz-adv-x="493" 
d="M414 0l-36 55l-51 78l-51.5 78t-35.5 55l-23 -25.5l-31.5 -34.5l-31.5 -34.5t-22 -25.5v-146h-63v496h63v-267h2l30 33l42 46.5l47.5 53.5l47.5 53.5l41.5 47l29.5 33.5h75l-165 -185l205 -311h-73z" />
    <glyph glyph-name="lambda" unicode="&#x3bb;" horiz-adv-x="442" 
d="M441 52q1 -13 1.5 -26.5t0.5 -26.5q-17 -3 -35 -3q-32 0 -47.5 18.5t-26.5 52.5l-57 171l-53 161h-2q-7 -22 -19 -54l-26 -69l-29 -76.5l-29.5 -76.5l-27 -69l-20.5 -54h-69l190 488l-19.5 63.5t-20.5 63.5q-8 26 -19.5 38.5t-40.5 12.5h-9.5t-10.5 -1q-2 14 -2.5 28.5
t-1.5 28.5q12 2 22 3.5t20 1.5q25 0 42.5 -9t29.5 -24t20 -34t15 -39l175 -527q4 -13 8 -21.5t9.5 -13t13 -6t18.5 -1.5z" />
    <glyph glyph-name="mu" unicode="&#xb5;" horiz-adv-x="518" 
d="M393 0v68h-3q-25 -40 -64.5 -57t-80.5 -17q-32 0 -60.5 11.5t-49.5 31.5h-3v-237h-63v696h63v-307q0 -32 10 -56.5t28 -41.5t42 -26t51 -9q28 0 51.5 10t41 28t27.5 44t10 58v300h63v-496h-63z" />
    <glyph glyph-name="mu" unicode="&#x3bc;" horiz-adv-x="518" 
d="M393 0v68h-3q-25 -40 -64.5 -57t-80.5 -17q-32 0 -60.5 11.5t-49.5 31.5h-3v-237h-63v696h63v-307q0 -32 10 -56.5t28 -41.5t42 -26t51 -9q28 0 51.5 10t41 28t27.5 44t10 58v300h63v-496h-63z" />
    <glyph glyph-name="nu" unicode="&#x3bd;" horiz-adv-x="433" 
d="M243 0h-56l-183 495h67l77 -213l66 -193h3l59 175l82 231h67z" />
    <glyph glyph-name="omicron" unicode="&#x3bf;" horiz-adv-x="502" 
d="M257 500q54 0 95 -21t66 -60q17 -26 27 -69.5t9 -105.5q-1 -59 -12.5 -100t-30.5 -69q-28 -42 -71 -61.5t-94 -19.5q-102 0 -153 66q-24 32 -34.5 77.5t-10.5 109.5q0 56 10 95t29 69q26 42 69 65.5t101 23.5zM254 444q-38 0 -67 -17t-46 -46q-15 -24 -22.5 -55.5
t-7.5 -79.5t7.5 -80.5t21.5 -55.5q17 -28 44.5 -43.5t64.5 -15.5q39 0 70 17t48 55q10 20 16.5 49t6.5 74q0 48 -5.5 77.5t-15.5 49.5q-36 71 -115 71z" />
    <glyph glyph-name="pi" unicode="&#x3c0;" horiz-adv-x="526" 
d="M393 0v441h-261v-441h-63v496h387v-496h-63z" />
    <glyph glyph-name="omegatonos" unicode="&#x3ce;" horiz-adv-x="745" 
d="M540 499q45 -4 76.5 -23.5t51 -52.5t28.5 -77.5t9 -98.5q0 -58 -10.5 -104.5t-33 -79.5t-57 -50.5t-83.5 -17.5q-46 0 -84.5 19.5t-63.5 67.5q-26 -45 -63 -66.5t-82 -21.5q-50 0 -85 18t-57 51t-32 79.5t-10 103.5q0 109 39.5 176t127.5 77l8 -60q-57 -8 -84 -58.5
t-27 -135.5q0 -43 7 -78t21 -60.5t36.5 -39.5t54.5 -14q28 0 49 11t35 29.5t21 43t7 51.5v187h63v-187q0 -27 7.5 -51.5t22.5 -43t37.5 -29t52.5 -10.5q60 0 89 52t29 140q0 85 -26 135t-84 59zM332 573l76 165q16 -5 31.5 -11t32.5 -11l-100 -159z" />
    <glyph glyph-name="tau" unicode="&#x3c4;" horiz-adv-x="347" 
d="M196 440v-312q0 -32 13 -51t48 -19h47v-58h-61q-49 0 -79.5 28.5t-30.5 82.5v329h-117v56h312v-56h-132z" />
    <glyph glyph-name="chi" unicode="&#x3c7;" horiz-adv-x="452" 
d="M354 0l-128 208l-128 -208h-76l167 254l-159 242h76l120 -199l120 199h76l-159 -243l167 -253h-76z" />
    <glyph glyph-name="upsilon" unicode="&#x3c5;" horiz-adv-x="526" 
d="M457 175q0 -42 -14 -75.5t-39.5 -57t-61.5 -36t-79 -12.5q-44 0 -79.5 13t-61 37t-39.5 57t-14 73v322h63v-300q0 -64 36 -103t96 -39q59 0 94.5 37t35.5 100v305h63v-321z" />
    <glyph glyph-name="iotadieresis" unicode="&#x3ca;" horiz-adv-x="216" 
d="M180 0q-5 -1 -10 -1h-9q-49 0 -69.5 20t-20.5 73v402h62v-391q0 -31 9 -39.5t36 -8.5h2v-55zM155 602v72h72v-72h-72zM-30 602v72h72v-72h-72z" />
    <glyph glyph-name="upsilondieresis" unicode="&#x3cb;" horiz-adv-x="526" 
d="M457 175q0 -42 -14 -75.5t-39.5 -57t-61.5 -36t-79 -12.5q-44 0 -79.5 13t-61 37t-39.5 57t-14 73v322h63v-300q0 -64 36 -103t96 -39q59 0 94.5 37t35.5 100v305h63v-321zM317 602v72h72v-72h-72zM132 602v72h72v-72h-72z" />
    <glyph glyph-name="iotadieresistonos" unicode="&#x390;" horiz-adv-x="216" 
d="M180 0q-5 -1 -10 -1h-9q-49 0 -69.5 20t-20.5 73v402h62v-391q0 -31 9 -39.5t36 -8.5h2v-55zM195 597v72h72v-72h-72zM-51 597v72h71v-72h-71zM46 573l75 166l65 -22l-100 -160z" />
    <glyph glyph-name="upsilondieresistonos" unicode="&#x3b0;" horiz-adv-x="526" 
d="M457 175q0 -42 -14 -75.5t-39.5 -57t-61.5 -36t-79 -12.5q-44 0 -79.5 13t-61 37t-39.5 57t-14 73v322h63v-300q0 -64 36 -103t96 -39q59 0 94.5 37t35.5 100v305h63v-321zM350 597v72h71v-72h-71zM104 597v72h70v-72h-70zM200 573l75 166l66 -22l-100 -160z" />
    <glyph glyph-name="space" unicode=" " horiz-adv-x="223" 
 />
    <glyph glyph-name="AE" unicode="&#xc6;" horiz-adv-x="949" 
d="M478 0v195h-276l-123 -195h-72l442 696h460v-62h-363v-252h310v-60h-310v-260h363v-62h-431zM240 253h238v378z" />
    <glyph glyph-name="ae" unicode="&#xe6;" horiz-adv-x="804" 
d="M430 229q0 -38 8.5 -70.5t27 -56.5t47.5 -38t70 -14q28 0 59.5 11.5t56.5 32.5l40 -45q-33 -29 -72 -42t-82 -13q-25 0 -50.5 4t-49 14.5t-44.5 28t-36 45.5q-20 -39 -67 -65.5t-123 -26.5q-78 0 -126.5 37t-48.5 105q0 29 10 55.5t30 46t49.5 31t69.5 11.5h169v66
q0 47 -29.5 71.5t-93.5 24.5q-42 0 -75.5 -10.5t-56.5 -33.5l-40 43q32 32 77.5 46t91.5 14q57 0 104.5 -17.5t68.5 -63.5q29 45 71 63t84 18q45 0 82 -16.5t63 -45.5t40 -70t14 -90v-50h-339zM215 229q-52 0 -83 -22.5t-31 -65.5t31.5 -67t90.5 -24q29 0 55 6t46 19.5
t32 34.5t12 51v68h-153zM571 443q-62 0 -99 -42t-41 -120h274q-3 81 -39 121.5t-95 40.5z" />
    <glyph glyph-name="Euro" unicode="&#x20ac;" horiz-adv-x="484" 
d="M122 379v-61h228v-45h-228v-34q0 -36 9 -69.5t28 -59.5t48 -42t69 -16q27 0 48 7.5t38.5 21.5t31.5 33t27 43l57 -27q-30 -65 -80.5 -100.5t-122.5 -35.5q-56 0 -97 19.5t-68 53.5t-40.5 80t-13.5 98v28h-42v45h42v61h-42v45h42v30q0 51 13.5 95.5t41 78.5t68.5 53.5
t96 19.5q72 0 124 -35.5t78 -96.5l-62 -26q-20 45 -55 71.5t-84 26.5q-42 0 -71.5 -16t-47.5 -42.5t-26.5 -61t-8.5 -70.5v-27h227v-45h-227z" />
    <glyph glyph-name="florin" unicode="&#x192;" horiz-adv-x="484" 
d="M123 360q0 14 -0.5 26.5t-0.5 26.5h98l15 99t27 92.5t53 68.5t93 27q20 0 40.5 -3.5t36.5 -8.5q-3 -13 -7 -26t-9 -32q-15 5 -32 7.5t-31 2.5q-35 0 -56 -18.5t-33 -50t-18 -72.5l-12 -86h108q0 -14 0.5 -26.5t0.5 -26.5h-117l-33 -236q-6 -49 -17.5 -88.5t-30.5 -67.5
t-48 -43.5t-71 -15.5q-18 0 -41.5 4t-43.5 11l9 24.5t9 28.5q33 -12 61 -12q45 0 69 36t34 107l36 252h-89v0z" />
    <glyph glyph-name="circumflex" unicode="&#x2c6;" horiz-adv-x="487" 
d="M247 657l-130 -103l-31 30l142 138h45l134 -137l-30 -30z" />
    <glyph glyph-name="multiply" unicode="&#xd7;" horiz-adv-x="541" 
d="M316 274l161 -162l-35 -35l-161 160l-161 -161l-36 36l161 162l-159 160l35 35l160 -159l160 160l35 -36z" />
    <glyph glyph-name="brokenbar" unicode="&#xa6;" horiz-adv-x="189" 
d="M71 304v412h50v-412h-50zM121 247v-409h-50v409h50z" />
    <glyph glyph-name="acute" unicode="&#xb4;" horiz-adv-x="487" 
d="M199 573l75 166l66 -22l-100 -160z" />
    <glyph glyph-name="dotlessi" unicode="&#x131;" horiz-adv-x="196" 
d="M64 0v495h68v-495h-68z" />
    <glyph glyph-name="logicalnot" unicode="&#xac;" horiz-adv-x="484" 
d="M454 69h-50v193h-376v51h427z" />
    <glyph glyph-name="cedilla" unicode="&#xb8;" horiz-adv-x="423" 
d="M238 -41q29 -2 47.5 -10.5t29.5 -20t15.5 -25t4.5 -24.5q0 -12 -5 -25.5t-16.5 -25.5t-30 -19.5t-45.5 -7.5q-5 0 -14.5 0.5t-21.5 2t-26 4.5t-27 8l12 32q20 -8 39.5 -11t33.5 -3q17 0 35.5 11t18.5 34q0 20 -19.5 34t-51.5 14q-2 0 -4 -0.5t-4 -0.5l-15 12
q8 23 14.5 45l13.5 44q10 0 19 -1t18 -1z" />
    <glyph glyph-name="tilde" unicode="&#x2dc;" horiz-adv-x="487" 
d="M182 686q17 0 34.5 -7t34.5 -15.5t32.5 -15.5t28.5 -7q15 0 30 10t30 33l40 -23q-20 -41 -44 -59.5t-52 -18.5q-17 0 -34 6.5t-34 15t-33.5 15t-30.5 6.5q-18 0 -32.5 -9t-31.5 -30l-38 22q20 37 46 57t54 20z" />
    <glyph glyph-name="caron" unicode="&#x2c7;" horiz-adv-x="487" 
d="M377 722l30 -29l-134 -138h-45l-142 139l31 29l130 -102z" />
    <glyph glyph-name="breve" unicode="&#x2d8;" horiz-adv-x="505" 
d="M183 686q4 -27 26 -47.5t54 -20.5q35 0 55.5 19.5t24.5 48.5h55q-3 -19 -10.5 -40t-23.5 -39t-40.5 -29.5t-60.5 -11.5q-37 0 -62.5 11.5t-41.5 29.5t-23.5 39t-8.5 40h56z" />
    <glyph glyph-name="exclam" unicode="!" horiz-adv-x="227" 
d="M136 182h-46l-8 514h63zM78 0v79h73v-79h-73z" />
    <glyph glyph-name="uni1FBD" unicode="&#x1fbd;" horiz-adv-x="492" 
d="M233 576q11 18 18 37t7 35q0 18 -11.5 33.5t-46.5 22.5l25 64q45 -10 71.5 -34t26.5 -62q0 -22 -13 -52.5t-44 -59.5z" />
    <glyph glyph-name="uni1FBE" unicode="&#x1fbe;" horiz-adv-x="503" 
d="M293 -62v-85q0 -26 12 -42.5t44 -16.5h15v-54h-25q-50 0 -78.5 24t-28.5 81v93h61z" />
    <glyph glyph-name="uni1FC1" unicode="&#x1fc1;" horiz-adv-x="526" 
d="M307 580v71h71v-71h-71zM148 580v71h71v-71h-71zM199 797q17 0 34.5 -7t34.5 -15.5t32.5 -15.5t28.5 -7q15 0 29.5 10t29.5 33l41 -23q-20 -41 -44 -59t-52 -18q-17 0 -34 6.5t-34 15t-33.5 15t-30.5 6.5q-18 0 -32.5 -9.5t-31.5 -29.5l-38 21q20 37 46 57t54 20z" />
    <glyph glyph-name="uni1FCD" unicode="&#x1fcd;" horiz-adv-x="503" 
d="M138 577q12 18 19 37t7 34q0 19 -11.5 34t-46.5 23l24 63q46 -9 72.5 -33t26.5 -62q0 -22 -13 -52.5t-44 -59.5zM365 562l-126 192l78 14l84 -193z" />
    <glyph glyph-name="uni1FCE" unicode="&#x1fce;" horiz-adv-x="492" 
d="M144 575q11 19 18 38t7 34q0 19 -11.5 34t-46.5 23q7 16 12.5 31.5t12.5 31.5q45 -10 71.5 -34t26.5 -62q0 -22 -13 -52t-44 -59zM246 575l90 193l76 -14l-130 -192z" />
    <glyph glyph-name="uni1FCF" unicode="&#x1fcf;" horiz-adv-x="492" 
d="M235 547q30 36 30 65q0 15 -12 26t-44 17l23 53q44 -8 68 -26.5t24 -47.5q0 -18 -12 -44t-45 -55zM204 825q17 0 34.5 -7t34.5 -15l32.5 -15t28.5 -7q15 0 29.5 9.5t29.5 32.5l41 -23q-20 -41 -44 -59t-52 -18q-17 0 -34 6.5t-34 15t-33.5 15t-30.5 6.5q-18 0 -32.5 -9
t-31.5 -30l-38 21q20 37 46 57t54 20z" />
    <glyph glyph-name="uni1FDD" unicode="&#x1fdd;" horiz-adv-x="492" 
d="M167 560q-31 29 -44 59.5t-13 52.5q0 38 26.5 61.5t71.5 34.5l24 -64q-34 -7 -45.5 -22t-11.5 -33q0 -34 25 -73zM369 562l-126 192l79 14l83 -193z" />
    <glyph glyph-name="uni1FDE" unicode="&#x1fde;" horiz-adv-x="492" 
d="M180 560q-31 29 -44 59t-13 52q0 38 26.5 62t72.5 34l24 -63q-35 -8 -46.5 -23t-11.5 -34q0 -14 7 -34t19 -38zM246 575l90 193l76 -14l-130 -192z" />
    <glyph glyph-name="uni1FDF" unicode="&#x1fdf;" horiz-adv-x="492" 
d="M257 536q-34 29 -45.5 55t-11.5 44q0 29 24 47.5t67 26.5l23 -53q-32 -7 -43.5 -17.5t-11.5 -26.5q0 -13 7.5 -30t21.5 -35zM202 827q17 0 34.5 -7t34.5 -15l32.5 -15t28.5 -7q15 0 29.5 9.5t29.5 32.5l41 -23q-20 -41 -44 -59t-52 -18q-17 0 -34 6.5t-34 15t-33.5 15
t-30.5 6.5q-18 0 -32.5 -9t-31.5 -30l-38 21q20 37 46 57t54 20z" />
    <glyph glyph-name="uni1FED" unicode="&#x1fed;" horiz-adv-x="508" 
d="M100 599v72h71v-72h-71zM343 599v72h70v-72h-70zM160 755l79 14l84 -194l-36 -13z" />
    <glyph glyph-name="uni1FEE" unicode="&#x1fee;" horiz-adv-x="508" 
d="M347 599v72h70v-72h-70zM104 599v72h71v-72h-71zM237 562l-36 13l89 194l76 -14z" />
    <glyph glyph-name="uni1FFE" unicode="&#x1ffe;" horiz-adv-x="492" 
d="M260 560q-31 29 -44 59.5t-13 52.5q0 38 26.5 61.5t71.5 34.5l24 -64q-34 -7 -46 -22.5t-12 -33.5q0 -15 7 -34.5t19 -37.5z" />
    <glyph glyph-name="macron" unicode="&#xaf;" horiz-adv-x="483" 
d="M128 597v58h262v-58h-262z" />
    <glyph glyph-name="dotaccent" unicode="&#x2d9;" horiz-adv-x="483" 
d="M211 602v72h72v-72h-72z" />
    <glyph glyph-name="ring" unicode="&#x2da;" horiz-adv-x="483" 
d="M265 549q-20 0 -37 7.5t-29.5 20.5t-20 30t-7.5 37q0 19 7.5 36.5t20 30t29.5 20t37 7.5q19 0 36.5 -7.5t30.5 -20t20.5 -30t7.5 -36.5q0 -20 -7.5 -37t-20.5 -30t-30.5 -20.5t-36.5 -7.5zM265 702q-25 0 -41.5 -17t-16.5 -41q0 -25 16.5 -42t41.5 -17q26 0 42.5 17
t16.5 42q0 24 -16.5 41t-42.5 17z" />
    <glyph glyph-name="ogonek" unicode="&#x2db;" horiz-adv-x="342" 
d="M91 -92q0 20 8.5 43t31.5 51h46l1 -2q-35 -46 -35 -81q0 -24 14 -36t37 -12q12 0 26 4.5t31 12.5l17 -42q-17 -9 -40 -16t-46 -7q-42 0 -66.5 25t-24.5 60z" />
    <glyph glyph-name="hungarumlaut" unicode="&#x2dd;" horiz-adv-x="530" 
d="M165 573l75 166l65 -22l-99 -160zM281 573l75 166l65 -22l-100 -160z" />
    <glyph glyph-name="uni1F00" unicode="&#x1f00;" horiz-adv-x="503" 
d="M378 0v72q-1 0 -1 0.5t-1 0.5q-26 -36 -61.5 -57t-81.5 -21q-54 0 -89 21t-55.5 55.5t-29 78.5t-8.5 89q0 51 8.5 98.5t29.5 83.5t57 58t91 22q38 0 74.5 -15.5t64.5 -60.5q1 0 1 0.5t1 0.5v69h62v-495h-62zM378 248q0 30 -4.5 63.5t-18 62t-39 47.5t-68.5 19
q-44 0 -70 -18.5t-40 -46.5t-18 -62.5t-4 -65.5q0 -33 4.5 -67t19 -61.5t40.5 -45t68 -17.5q39 0 64.5 17.5t40 45t20 62t5.5 67.5zM233 576q11 18 18 37t7 35q0 18 -11.5 33.5t-46.5 22.5l25 64q45 -10 71.5 -34t26.5 -62q0 -22 -13 -52.5t-44 -59.5z" />
    <glyph glyph-name="uni1F01" unicode="&#x1f01;" horiz-adv-x="503" 
d="M378 0v72q-1 0 -1 0.5t-1 0.5q-26 -36 -61.5 -57t-81.5 -21q-54 0 -89 21t-55.5 55.5t-29 78.5t-8.5 89q0 51 8.5 98.5t29.5 83.5t57 58t91 22q38 0 74.5 -15.5t64.5 -60.5q1 0 1 0.5t1 0.5v69h62v-495h-62zM378 248q0 30 -4.5 63.5t-18 62t-39 47.5t-68.5 19
q-44 0 -70 -18.5t-40 -46.5t-18 -62.5t-4 -65.5q0 -33 4.5 -67t19 -61.5t40.5 -45t68 -17.5q39 0 64.5 17.5t40 45t20 62t5.5 67.5zM267 560q-31 29 -44 59.5t-13 52.5q0 38 26.5 61.5t71.5 34.5l24 -64q-34 -7 -46 -22.5t-12 -33.5q0 -15 7 -34.5t19 -37.5z" />
    <glyph glyph-name="uni1F02" unicode="&#x1f02;" horiz-adv-x="503" 
d="M378 0v72q-1 0 -1 0.5t-1 0.5q-26 -36 -61.5 -57t-81.5 -21q-54 0 -89 21t-55.5 55.5t-29 78.5t-8.5 89q0 51 8.5 98.5t29.5 83.5t57 58t91 22q38 0 74.5 -15.5t64.5 -60.5q1 0 1 0.5t1 0.5v69h62v-495h-62zM378 248q0 30 -4.5 63.5t-18 62t-39 47.5t-68.5 19
q-44 0 -70 -18.5t-40 -46.5t-18 -62.5t-4 -65.5q0 -33 4.5 -67t19 -61.5t40.5 -45t68 -17.5q39 0 64.5 17.5t40 45t20 62t5.5 67.5zM138 577q12 18 19 37t7 34q0 19 -11.5 34t-46.5 23l24 63q46 -9 72.5 -33t26.5 -62q0 -22 -13 -52.5t-44 -59.5zM365 562l-126 192l78 14
l84 -193z" />
    <glyph glyph-name="uni1F03" unicode="&#x1f03;" horiz-adv-x="503" 
d="M378 0v72q-1 0 -1 0.5t-1 0.5q-26 -36 -61.5 -57t-81.5 -21q-54 0 -89 21t-55.5 55.5t-29 78.5t-8.5 89q0 51 8.5 98.5t29.5 83.5t57 58t91 22q38 0 74.5 -15.5t64.5 -60.5q1 0 1 0.5t1 0.5v69h62v-495h-62zM378 248q0 30 -4.5 63.5t-18 62t-39 47.5t-68.5 19
q-44 0 -70 -18.5t-40 -46.5t-18 -62.5t-4 -65.5q0 -33 4.5 -67t19 -61.5t40.5 -45t68 -17.5q39 0 64.5 17.5t40 45t20 62t5.5 67.5zM167 560q-31 29 -44 59.5t-13 52.5q0 38 26.5 61.5t71.5 34.5l24 -64q-34 -7 -45.5 -22t-11.5 -33q0 -34 25 -73zM369 562l-126 192l79 14
l83 -193z" />
    <glyph glyph-name="uni1F04" unicode="&#x1f04;" horiz-adv-x="503" 
d="M378 0v72q-1 0 -1 0.5t-1 0.5q-26 -36 -61.5 -57t-81.5 -21q-54 0 -89 21t-55.5 55.5t-29 78.5t-8.5 89q0 51 8.5 98.5t29.5 83.5t57 58t91 22q38 0 74.5 -15.5t64.5 -60.5q1 0 1 0.5t1 0.5v69h62v-495h-62zM378 248q0 30 -4.5 63.5t-18 62t-39 47.5t-68.5 19
q-44 0 -70 -18.5t-40 -46.5t-18 -62.5t-4 -65.5q0 -33 4.5 -67t19 -61.5t40.5 -45t68 -17.5q39 0 64.5 17.5t40 45t20 62t5.5 67.5zM144 575q11 19 18 38t7 34q0 19 -11.5 34t-46.5 23q7 16 12.5 31.5t12.5 31.5q45 -10 71.5 -34t26.5 -62q0 -22 -13 -52t-44 -59zM246 575
l90 193l76 -14l-130 -192z" />
    <glyph glyph-name="uni1F05" unicode="&#x1f05;" horiz-adv-x="503" 
d="M378 0v72q-1 0 -1 0.5t-1 0.5q-26 -36 -61.5 -57t-81.5 -21q-54 0 -89 21t-55.5 55.5t-29 78.5t-8.5 89q0 51 8.5 98.5t29.5 83.5t57 58t91 22q38 0 74.5 -15.5t64.5 -60.5q1 0 1 0.5t1 0.5v69h62v-495h-62zM378 248q0 30 -4.5 63.5t-18 62t-39 47.5t-68.5 19
q-44 0 -70 -18.5t-40 -46.5t-18 -62.5t-4 -65.5q0 -33 4.5 -67t19 -61.5t40.5 -45t68 -17.5q39 0 64.5 17.5t40 45t20 62t5.5 67.5zM180 560q-31 29 -44 59t-13 52q0 38 26.5 62t72.5 34l24 -63q-35 -8 -46.5 -23t-11.5 -34q0 -14 7 -34t19 -38zM246 575l90 193l76 -14
l-130 -192z" />
    <glyph glyph-name="uni1F08" unicode="&#x1f08;" horiz-adv-x="592" 
d="M509 0l-29.5 82l-28.5 83h-312l-29.5 -83l-28.5 -82h-71l126.5 348l127.5 348h62l255 -696h-72zM293 609q-8 -26 -25 -75l-36 -103l-41.5 -116.5l-32.5 -91.5h273l-78 225l-57 161h-3zM19 520q11 18 18 37t7 35q0 18 -11.5 33.5t-45.5 22.5l11.5 32t12.5 32
q45 -10 71.5 -34t26.5 -62q0 -22 -13 -52.5t-44 -59.5z" />
    <glyph glyph-name="uni1F09" unicode="&#x1f09;" horiz-adv-x="592" 
d="M509 0l-29.5 82l-28.5 83h-312l-29.5 -83l-28.5 -82h-71l126.5 348l127.5 348h62l255 -696h-72zM293 609l-16 -49l-22 -65.5l-26 -74.5l-27 -75.5l-24.5 -68.5l-19.5 -53h273l-78 225l-28.5 80l-28.5 81h-3zM42 505q-31 29 -43.5 59.5t-12.5 52.5q0 38 25.5 61.5
t71.5 34.5l24 -64q-34 -7 -46 -22.5t-12 -33.5q0 -15 7 -34.5t19 -37.5z" />
    <glyph glyph-name="uni1F0A" unicode="&#x1f0a;" horiz-adv-x="592" 
d="M509 0l-29.5 82l-28.5 83h-312l-29.5 -83l-28.5 -82h-71l126.5 348l127.5 348h62l255 -696h-72zM293 609l-52 -149l-83 -237h273l-15 44.5l-20 58l-23 65.5l-24 67l-53 151h-3zM-136 521q11 18 18 37t7 34q0 19 -11.5 34.5t-46.5 22.5q7 16 12.5 31.5t12.5 31.5
q45 -9 71.5 -33t26.5 -62q0 -22 -13 -52.5t-44 -59.5zM90 506l-63.5 96l-62.5 96l78 14l83 -193z" />
    <glyph glyph-name="uni1F0B" unicode="&#x1f0b;" horiz-adv-x="592" 
d="M509 0l-29.5 82l-28.5 83h-312l-29.5 -83l-28.5 -82h-71l126.5 348l127.5 348h62l255 -696h-72zM293 609l-16 -49l-22 -65.5l-26 -74.5l-27 -75.5l-24.5 -68.5l-19.5 -53h273l-78 225l-28.5 80l-28.5 81h-3zM-100 505q-31 29 -44 59t-13 52q0 38 26 62t72 35l25 -64
q-35 -7 -47 -22t-12 -33q0 -14 7 -34.5t19 -38.5zM102 507l-63.5 96l-62.5 96l78 14l83 -193z" />
    <glyph glyph-name="uni1F0C" unicode="&#x1f0c;" horiz-adv-x="592" 
d="M509 0l-29.5 82l-28.5 83h-312l-29.5 -83l-28.5 -82h-71l126.5 348l127.5 348h62l255 -696h-72zM293 609q-8 -26 -25 -75l-36 -103l-41.5 -116.5l-32.5 -91.5h273l-78 225l-57 161h-3zM-140 518q12 19 19 37.5t7 34.5q0 18 -11.5 33.5t-46.5 23.5l24 63q46 -10 72.5 -34
t26.5 -62q0 -22 -13 -52t-44 -59zM-37 518l89 193l75 -14l-64 -96l-64 -96z" />
    <glyph glyph-name="uni1F0D" unicode="&#x1f0d;" horiz-adv-x="592" 
d="M509 0l-29.5 82l-28.5 83h-312l-29.5 -83l-28.5 -82h-71l126.5 348l127.5 348h62l255 -696h-72zM293 609q-8 -26 -25 -75l-36 -103l-41.5 -116.5l-32.5 -91.5h273l-78 225l-57 161h-3zM-102 505q-30 29 -43 59t-13 52q0 38 26 62t72 34l24 -63q-34 -8 -46 -23t-12 -33
q0 -16 7 -35t19 -38zM-35 520l43.5 96.5l44.5 96.5l76 -14l-64.5 -96l-64.5 -96z" />
    <glyph glyph-name="uni1F10" unicode="&#x1f10;" horiz-adv-x="434" 
d="M138 261q-25 7 -40 20t-23 27.5t-10.5 29t-2.5 26.5q0 25 11 50t34 44t57 31t81 12q48 0 90 -16.5t73 -44.5q-11 -11 -20.5 -23t-19.5 -23q-22 19 -55.5 32.5t-65.5 13.5q-54 0 -88 -20.5t-34 -56.5q0 -35 29 -56t80 -21h65v-51h-70q-22 0 -42.5 -7t-36.5 -19t-25.5 -29
t-9.5 -38q0 -42 38.5 -64.5t97.5 -22.5q30 0 63 13t56 34l40 -47q-31 -28 -74.5 -43.5t-91.5 -15.5q-91 0 -141 41.5t-50 107.5q0 11 4 27t13.5 32.5t26 31t41.5 23.5v2zM223 576q11 18 18 37t7 35q0 18 -11.5 33.5t-46.5 22.5l25 64q45 -10 71.5 -34t26.5 -62
q0 -22 -13 -52.5t-44 -59.5z" />
    <glyph glyph-name="uni1F11" unicode="&#x1f11;" horiz-adv-x="434" 
d="M138 261q-25 7 -40 20t-23 27.5t-10.5 29t-2.5 26.5q0 25 11 50t34 44t57 31t81 12q48 0 90 -16.5t73 -44.5q-11 -11 -20.5 -23t-19.5 -23q-22 19 -55.5 32.5t-65.5 13.5q-54 0 -88 -20.5t-34 -56.5q0 -35 29 -56t80 -21h65v-51h-70q-22 0 -42.5 -7t-36.5 -19t-25.5 -29
t-9.5 -38q0 -42 38.5 -64.5t97.5 -22.5q30 0 63 13t56 34l40 -47q-31 -28 -74.5 -43.5t-91.5 -15.5q-91 0 -141 41.5t-50 107.5q0 11 4 27t13.5 32.5t26 31t41.5 23.5v2zM243 560q-31 29 -44 59.5t-13 52.5q0 38 26.5 61.5t71.5 34.5l24 -64q-34 -7 -46 -22.5t-12 -33.5
q0 -15 7 -34.5t19 -37.5z" />
    <glyph glyph-name="uni1F12" unicode="&#x1f12;" horiz-adv-x="434" 
d="M138 261q-25 7 -40 20t-23 27.5t-10.5 29t-2.5 26.5q0 25 11 50t34 44t57 31t81 12q48 0 90 -16.5t73 -44.5q-11 -11 -20.5 -23t-19.5 -23q-22 19 -55.5 32.5t-65.5 13.5q-54 0 -88 -20.5t-34 -56.5q0 -35 29 -56t80 -21h65v-51h-70q-22 0 -42.5 -7t-36.5 -19t-25.5 -29
t-9.5 -38q0 -42 38.5 -64.5t97.5 -22.5q30 0 63 13t56 34l40 -47q-31 -28 -74.5 -43.5t-91.5 -15.5q-91 0 -141 41.5t-50 107.5q0 11 4 27t13.5 32.5t26 31t41.5 23.5v2zM104 577q12 18 19 37t7 34q0 19 -11.5 34t-46.5 23l24 63q46 -9 72.5 -33t26.5 -62q0 -22 -13 -52.5
t-44 -59.5zM331 562l-126 192l78 14l84 -193z" />
    <glyph glyph-name="uni1F13" unicode="&#x1f13;" horiz-adv-x="434" 
d="M138 261q-25 7 -40 20t-23 27.5t-10.5 29t-2.5 26.5q0 25 11 50t34 44t57 31t81 12q48 0 90 -16.5t73 -44.5q-11 -11 -20.5 -23t-19.5 -23q-22 19 -55.5 32.5t-65.5 13.5q-54 0 -88 -20.5t-34 -56.5q0 -35 29 -56t80 -21h65v-51h-70q-22 0 -42.5 -7t-36.5 -19t-25.5 -29
t-9.5 -38q0 -42 38.5 -64.5t97.5 -22.5q30 0 63 13t56 34l40 -47q-31 -28 -74.5 -43.5t-91.5 -15.5q-91 0 -141 41.5t-50 107.5q0 11 4 27t13.5 32.5t26 31t41.5 23.5v2zM132 560q-31 29 -44 59.5t-13 52.5q0 38 26.5 61.5t71.5 34.5l24 -64q-34 -7 -45.5 -22t-11.5 -33
q0 -34 25 -73zM334 562l-126 192l79 14l83 -193z" />
    <glyph glyph-name="uni1F14" unicode="&#x1f14;" horiz-adv-x="434" 
d="M138 261q-25 7 -40 20t-23 27.5t-10.5 29t-2.5 26.5q0 25 11 50t34 44t57 31t81 12q48 0 90 -16.5t73 -44.5q-11 -11 -20.5 -23t-19.5 -23q-22 19 -55.5 32.5t-65.5 13.5q-54 0 -88 -20.5t-34 -56.5q0 -35 29 -56t80 -21h65v-51h-70q-22 0 -42.5 -7t-36.5 -19t-25.5 -29
t-9.5 -38q0 -42 38.5 -64.5t97.5 -22.5q30 0 63 13t56 34l40 -47q-31 -28 -74.5 -43.5t-91.5 -15.5q-91 0 -141 41.5t-50 107.5q0 11 4 27t13.5 32.5t26 31t41.5 23.5v2zM155 575q12 18 19 37t7 34q0 19 -11.5 34.5t-46.5 23.5l24 63q46 -10 72 -34t26 -62q0 -22 -13 -52
t-43 -59zM257 575l90 193l76 -14l-130 -192z" />
    <glyph glyph-name="uni1F15" unicode="&#x1f15;" horiz-adv-x="434" 
d="M138 261q-25 7 -40 20t-23 27.5t-10.5 29t-2.5 26.5q0 25 11 50t34 44t57 31t81 12q48 0 90 -16.5t73 -44.5q-11 -11 -20.5 -23t-19.5 -23q-22 19 -55.5 32.5t-65.5 13.5q-54 0 -88 -20.5t-34 -56.5q0 -35 29 -56t80 -21h65v-51h-70q-22 0 -42.5 -7t-36.5 -19t-25.5 -29
t-9.5 -38q0 -42 38.5 -64.5t97.5 -22.5q30 0 63 13t56 34l40 -47q-31 -28 -74.5 -43.5t-91.5 -15.5q-91 0 -141 41.5t-50 107.5q0 11 4 27t13.5 32.5t26 31t41.5 23.5v2zM193 560q-30 29 -43 59t-13 52q0 38 26 62t72 34l24 -63q-34 -8 -46 -23t-12 -33q0 -16 7 -35t19 -38z
M259 575l90 193l76 -14l-130 -192z" />
    <glyph glyph-name="uni1F18" unicode="&#x1f18;" horiz-adv-x="536" 
d="M77 696h431v-62h-364v-253h310v-59h-310v-261h364v-61h-431v696zM-93 526q11 18 18.5 37t7.5 34q0 19 -11.5 34.5t-46.5 22.5l24 64q45 -10 71.5 -34t26.5 -62q0 -22 -13 -52.5t-44 -59.5z" />
    <glyph glyph-name="uni1F19" unicode="&#x1f19;" horiz-adv-x="536" 
d="M77 0v696h431v-62h-363v-252h310v-60h-310v-260h363v-62h-431zM-65 510q-31 29 -44 60t-13 53q0 38 26.5 61.5t72.5 33.5l24 -64q-34 -7 -46 -22t-12 -33q0 -16 6.5 -35t19.5 -38z" />
    <glyph glyph-name="uni1F1A" unicode="&#x1f1a;" horiz-adv-x="536" 
d="M77 696h431v-62h-364v-253h310v-59h-310v-261h364v-61h-431v696zM-244 527q12 18 19 37t7 34q0 19 -11.5 34t-46.5 23l24 63q46 -9 72.5 -33t26.5 -62q0 -22 -13 -52.5t-44 -59.5zM-17 512l-126 192l78 14l83 -193z" />
    <glyph glyph-name="uni1F1B" unicode="&#x1f1b;" horiz-adv-x="536" 
d="M77 696h431v-62h-364v-253h310v-59h-310v-261h364v-61h-431v696zM-224 510q-30 29 -43 59.5t-13 52.5q0 38 26 62t72 34l24 -64q-34 -7 -46 -22t-12 -33q0 -14 7 -34.5t19 -38.5zM-21 512l-126 192l78 14l83 -193z" />
    <glyph glyph-name="uni1F1C" unicode="&#x1f1c;" horiz-adv-x="536" 
d="M77 696h431v-62h-364v-253h310v-59h-310v-261h364v-61h-431v696zM-251 525q12 19 19 38t7 34q0 19 -11.5 34t-46.5 23l24 63q46 -10 72 -34t26 -62q0 -22 -13 -52t-43 -59zM-148 525l89 193l75 -14l-64 -96l-64 -96z" />
    <glyph glyph-name="uni1F1D" unicode="&#x1f1d;" horiz-adv-x="536" 
d="M77 696h431v-62h-364v-253h310v-59h-310v-261h364v-61h-431v696zM-209 510q-30 29 -43 59t-13 52q0 38 26 62t72 34l24 -63q-35 -8 -46.5 -23t-11.5 -34q0 -14 7 -34t19 -38zM-145 525l89 193l75 -14l-64 -96l-64 -96z" />
    <glyph glyph-name="uni1F28" unicode="&#x1f28;" horiz-adv-x="631" 
d="M485 0v322h-340v-322h-68v696h68v-314h340v314h68v-696h-68zM-85 526q12 18 19 37t7 35q0 18 -11.5 33.5t-46.5 22.5l24 64q46 -10 72 -34t26 -62q0 -22 -12.5 -52.5t-43.5 -59.5z" />
    <glyph glyph-name="uni1F29" unicode="&#x1f29;" horiz-adv-x="631" 
d="M485 0v322h-340v-322h-68v696h68v-314h340v314h68v-696h-68zM-62 510q-31 29 -44 60t-13 53q0 38 26.5 61.5t72.5 33.5l24 -64q-34 -7 -46 -22t-12 -33q0 -16 6.5 -35t19.5 -38z" />
    <glyph glyph-name="uni1F2A" unicode="&#x1f2a;" horiz-adv-x="631" 
d="M485 322h-341v-322h-67v696h67v-315h341v315h67v-696h-67v322zM-254 527q12 18 19 37t7 34q0 19 -11.5 34.5t-46.5 22.5l24 63q46 -9 72 -33t26 -62q0 -22 -13 -52.5t-43 -59.5zM-27 512l-126 192l78 14l83 -193z" />
    <glyph glyph-name="uni1F2B" unicode="&#x1f2b;" horiz-adv-x="631" 
d="M485 322h-341v-322h-67v696h67v-315h341v315h67v-696h-67v322zM-229 510q-30 29 -43 59.5t-13 52.5q0 38 26 62t72 34l24 -64q-35 -7 -46.5 -22.5t-11.5 -33.5q0 -14 7 -34t19 -38zM-27 512l-126 192l78 14l83 -193z" />
    <glyph glyph-name="uni1F2C" unicode="&#x1f2c;" horiz-adv-x="631" 
d="M485 322h-341v-322h-67v696h67v-315h341v315h67v-696h-67v322zM-233 526q12 18 19 38t7 34q0 18 -11.5 33.5t-46.5 22.5l24 64q46 -10 72 -34t26 -62q0 -22 -13 -52.5t-43 -59.5zM-51 718l78 -14l-126 -192l-35 13z" />
    <glyph glyph-name="uni1F2D" unicode="&#x1f2d;" horiz-adv-x="631" 
d="M485 322h-341v-322h-67v696h67v-315h341v315h67v-696h-67v322zM-219 510q-30 29 -43 59.5t-13 52.5q0 38 26 62t72 34l24 -64q-35 -7 -46.5 -22.5t-11.5 -33.5q0 -14 7 -34t19 -38zM-61 718l78 -14l-126 -192l-35 13z" />
    <glyph glyph-name="uni1F38" unicode="&#x1f38;" horiz-adv-x="227" 
d="M79 696h67v-696h-67v696zM-88 526q11 18 18.5 37t7.5 34q0 19 -11.5 34.5t-46.5 22.5l24 64q46 -10 71.5 -34t25.5 -62q0 -22 -12.5 -52.5t-42.5 -59.5z" />
    <glyph glyph-name="uni1F39" unicode="&#x1f39;" horiz-adv-x="227" 
d="M79 696h67v-696h-67v696zM-63 510q-31 29 -44 59.5t-13 52.5q0 38 26 62t73 34q6 -17 12 -32t11 -32q-34 -7 -45.5 -22.5t-11.5 -33.5q0 -15 7 -34.5t19 -37.5z" />
    <glyph glyph-name="uni1F3A" unicode="&#x1f3a;" horiz-adv-x="227" 
d="M79 696h67v-696h-67v696zM-260 527q12 18 19 36.5t7 34.5q0 18 -11.5 33.5t-46.5 23.5l24 63q46 -9 72.5 -33t26.5 -62q0 -22 -13 -52.5t-44 -59.5zM-33 512l-126 192l79 14l41.5 -96.5l40.5 -96.5z" />
    <glyph glyph-name="uni1F3B" unicode="&#x1f3b;" horiz-adv-x="227" 
d="M79 696h67v-696h-67v696zM-224 510q-31 29 -44 59.5t-13 52.5q0 38 26.5 62t71.5 34l24 -64q-35 -7 -46.5 -22.5t-11.5 -34.5q0 -14 7.5 -33.5t18.5 -37.5zM-23 512l-127 192l79 14l83 -193z" />
    <glyph glyph-name="uni1F3C" unicode="&#x1f3c;" horiz-adv-x="227" 
d="M79 696h67v-696h-67v696zM-229 526q11 18 18.5 37.5t7.5 33.5q0 19 -11.5 34.5t-46.5 22.5l24 64q45 -10 71.5 -34t26.5 -62q0 -22 -13 -52.5t-44 -59.5zM-47 718l79 -14l-127 -192l-35 13z" />
    <glyph glyph-name="uni1F3D" unicode="&#x1f3d;" horiz-adv-x="227" 
d="M79 696h67v-696h-67v696zM-221 510q-31 29 -44 59.5t-13 52.5q0 38 26.5 62t72.5 33l24 -63q-35 -8 -46.5 -23.5t-11.5 -33.5q0 -14 7 -33.5t19 -37.5zM-65 718l77 -14l-126 -192l-36 13z" />
    <glyph glyph-name="uni1F40" unicode="&#x1f40;" horiz-adv-x="502" 
d="M257 500q54 0 95 -21t66 -60q17 -26 27 -69.5t9 -105.5q-1 -59 -12.5 -100t-30.5 -69q-28 -42 -71 -61.5t-94 -19.5q-102 0 -153 66q-24 32 -34.5 77.5t-10.5 109.5q0 56 10 95t29 69q26 42 69 65.5t101 23.5zM254 444q-38 0 -67 -17t-46 -46q-15 -24 -22.5 -55.5
t-7.5 -79.5t7.5 -80.5t21.5 -55.5q17 -28 44.5 -43.5t64.5 -15.5q39 0 70 17t48 55q10 20 16.5 49t6.5 74q0 48 -5.5 77.5t-15.5 49.5q-36 71 -115 71zM226 576q11 18 18 37t7 35q0 18 -11.5 33.5t-46.5 22.5l25 64q45 -10 71.5 -34t26.5 -62q0 -22 -13 -52.5t-44 -59.5z
" />
    <glyph glyph-name="uni1F41" unicode="&#x1f41;" horiz-adv-x="502" 
d="M257 500q54 0 95 -21t66 -60q17 -26 27 -69.5t9 -105.5q-1 -59 -12.5 -100t-30.5 -69q-28 -42 -71 -61.5t-94 -19.5q-102 0 -153 66q-24 32 -34.5 77.5t-10.5 109.5q0 56 10 95t29 69q26 42 69 65.5t101 23.5zM254 444q-38 0 -67 -17t-46 -46q-15 -24 -22.5 -55.5
t-7.5 -79.5t7.5 -80.5t21.5 -55.5q17 -28 44.5 -43.5t64.5 -15.5q39 0 70 17t48 55q10 20 16.5 49t6.5 74q0 48 -5.5 77.5t-15.5 49.5q-36 71 -115 71zM257 560q-31 29 -44 59.5t-13 52.5q0 38 26.5 61.5t71.5 34.5l24 -64q-34 -7 -46 -22.5t-12 -33.5q0 -15 7 -34.5
t19 -37.5z" />
    <glyph glyph-name="uni1F42" unicode="&#x1f42;" horiz-adv-x="502" 
d="M257 500q54 0 95 -21t66 -60q17 -26 27 -69.5t9 -105.5q-1 -59 -12.5 -100t-30.5 -69q-28 -42 -71 -61.5t-94 -19.5q-102 0 -153 66q-24 32 -34.5 77.5t-10.5 109.5q0 56 10 95t29 69q26 42 69 65.5t101 23.5zM254 444q-38 0 -67 -17t-46 -46q-15 -24 -22.5 -55.5
t-7.5 -79.5t7.5 -80.5t21.5 -55.5q17 -28 44.5 -43.5t64.5 -15.5q39 0 70 17t48 55q10 20 16.5 49t6.5 74q0 48 -5.5 77.5t-15.5 49.5q-36 71 -115 71zM123 577q12 18 19 37t7 34q0 19 -11.5 34t-46.5 23l24 63q46 -9 72.5 -33t26.5 -62q0 -22 -13 -52.5t-44 -59.5zM350 562
l-126 192l78 14l84 -193z" />
    <glyph glyph-name="uni1F43" unicode="&#x1f43;" horiz-adv-x="502" 
d="M257 500q54 0 95 -21t66 -60q17 -26 27 -69.5t9 -105.5q-1 -59 -12.5 -100t-30.5 -69q-28 -42 -71 -61.5t-94 -19.5q-102 0 -153 66q-24 32 -34.5 77.5t-10.5 109.5q0 56 10 95t29 69q26 42 69 65.5t101 23.5zM254 444q-38 0 -67 -17t-46 -46q-15 -24 -22.5 -55.5
t-7.5 -79.5t7.5 -80.5t21.5 -55.5q17 -28 44.5 -43.5t64.5 -15.5q39 0 70 17t48 55q10 20 16.5 49t6.5 74q0 48 -5.5 77.5t-15.5 49.5q-36 71 -115 71zM163 560q-31 29 -44 59.5t-13 52.5q0 38 26.5 61.5t71.5 34.5l24 -64q-34 -7 -45.5 -22t-11.5 -33q0 -34 25 -73z
M365 562l-126 192l79 14l83 -193z" />
    <glyph glyph-name="uni1F44" unicode="&#x1f44;" horiz-adv-x="502" 
d="M257 500q54 0 95 -21t66 -60q17 -26 27 -69.5t9 -105.5q-1 -59 -12.5 -100t-30.5 -69q-28 -42 -71 -61.5t-94 -19.5q-102 0 -153 66q-24 32 -34.5 77.5t-10.5 109.5q0 56 10 95t29 69q26 42 69 65.5t101 23.5zM254 444q-38 0 -67 -17t-46 -46q-15 -24 -22.5 -55.5
t-7.5 -79.5t7.5 -80.5t21.5 -55.5q17 -28 44.5 -43.5t64.5 -15.5q39 0 70 17t48 55q10 20 16.5 49t6.5 74q0 48 -5.5 77.5t-15.5 49.5q-36 71 -115 71zM176 575q12 18 19 37t7 34q0 19 -11.5 34.5t-46.5 23.5l24 63q46 -10 72 -34t26 -62q0 -22 -13 -52t-43 -59zM278 575
l90 193l76 -14l-130 -192z" />
    <glyph glyph-name="uni1F45" unicode="&#x1f45;" horiz-adv-x="502" 
d="M257 500q54 0 95 -21t66 -60q17 -26 27 -69.5t9 -105.5q-1 -59 -12.5 -100t-30.5 -69q-28 -42 -71 -61.5t-94 -19.5q-102 0 -153 66q-24 32 -34.5 77.5t-10.5 109.5q0 56 10 95t29 69q26 42 69 65.5t101 23.5zM254 444q-38 0 -67 -17t-46 -46q-15 -24 -22.5 -55.5
t-7.5 -79.5t7.5 -80.5t21.5 -55.5q17 -28 44.5 -43.5t64.5 -15.5q39 0 70 17t48 55q10 20 16.5 49t6.5 74q0 48 -5.5 77.5t-15.5 49.5q-36 71 -115 71zM206 560q-30 29 -43 59t-13 52q0 38 26 62t72 34l24 -63q-34 -8 -46 -23t-12 -33q0 -15 6.5 -34.5t19.5 -38.5zM272 575
l90 193l76 -14l-130 -192z" />
    <glyph glyph-name="uni1F48" unicode="&#x1f48;" horiz-adv-x="583" 
d="M291 701q57 0 102 -19t76.5 -53t48 -80t16.5 -101v-200q0 -59 -17 -106t-48.5 -80t-76.5 -50.5t-101 -17.5q-62 0 -108 20.5t-76 55t-45 81t-15 97.5v200q0 51 15 96.5t45.5 80.5t76 55.5t107.5 20.5zM292 637q-45 0 -78 -16t-55.5 -42t-33.5 -61t-11 -72v-196
q0 -38 11 -73t33.5 -62t55.5 -43t78 -16q40 0 72.5 14.5t55 41t34.5 62.5t12 78v194q0 40 -12 75t-34.5 60.5t-54.5 40.5t-73 15zM-85 526q11 18 18.5 37t7.5 34q0 19 -11.5 34.5t-46.5 22.5l24 64q46 -10 71.5 -34t25.5 -62q0 -22 -12.5 -52.5t-42.5 -59.5z" />
    <glyph glyph-name="uni1F49" unicode="&#x1f49;" horiz-adv-x="583" 
d="M291 701q57 0 102 -19t76.5 -53t48 -80t16.5 -101v-199q0 -59 -17 -106t-48.5 -80t-76.5 -51t-101 -18q-62 0 -107.5 20.5t-75.5 55.5t-45 81t-15 98v199q0 51 15 96.5t45.5 80.5t76 55.5t106.5 20.5zM292 637q-45 0 -78 -16t-55 -42t-33 -61t-11 -72v-195q0 -38 11 -73
t33 -62t55 -43.5t78 -16.5q40 0 72.5 15t55 41t34.5 62.5t12 78.5v193q0 40 -12 75t-34.5 60.5t-54.5 40.5t-73 15zM-58 510q-31 29 -44 60t-13 53q0 38 26.5 61.5t72.5 33.5l24 -64q-34 -7 -46 -22t-12 -33q0 -16 6.5 -35t19.5 -38z" />
    <glyph glyph-name="uni1F4A" unicode="&#x1f4a;" horiz-adv-x="583" 
d="M291 701q57 0 102 -19t76.5 -53t48 -80t16.5 -101v-200q0 -59 -17 -106t-48.5 -80t-76.5 -50.5t-101 -17.5q-62 0 -108 20.5t-76 55t-45 81t-15 97.5v200q0 51 15 96.5t45.5 80.5t76 55.5t107.5 20.5zM292 637q-45 0 -78 -16t-55.5 -42t-33.5 -61t-11 -72v-196
q0 -38 11 -73t33.5 -62t55.5 -43t78 -16q40 0 72.5 14.5t55 41t34.5 62.5t12 78v194q0 40 -12 75t-34.5 60.5t-54.5 40.5t-73 15zM-258 527q12 18 19 36.5t7 34.5q0 18 -11.5 33.5t-46.5 23.5l24 63q46 -9 72.5 -33t26.5 -62q0 -22 -13 -52.5t-44 -59.5zM-31 512l-126 192
l79 14l82 -193z" />
    <glyph glyph-name="uni1F4B" unicode="&#x1f4b;" horiz-adv-x="583" 
d="M291 701q57 0 102 -19t76.5 -53t48 -80t16.5 -101v-200q0 -59 -17 -106t-48.5 -80t-76.5 -50.5t-101 -17.5q-62 0 -108 20.5t-76 55t-45 81t-15 97.5v200q0 51 15 96.5t45.5 80.5t76 55.5t107.5 20.5zM292 637q-45 0 -78 -16t-55.5 -42t-33.5 -61t-11 -72v-196
q0 -38 11 -73t33.5 -62t55.5 -43t78 -16q40 0 72.5 14.5t55 41t34.5 62.5t12 78v194q0 40 -12 75t-34.5 60.5t-54.5 40.5t-73 15zM-229 510q-31 29 -44 59.5t-13 52.5q0 38 26.5 62t71.5 34l24 -64q-35 -7 -46.5 -22.5t-11.5 -34.5q0 -14 7.5 -33.5t18.5 -37.5zM-28 512
l-127 192l79 14l83 -193z" />
    <glyph glyph-name="uni1F4C" unicode="&#x1f4c;" horiz-adv-x="583" 
d="M291 701q57 0 102 -19t76.5 -53t48 -80t16.5 -101v-200q0 -59 -17 -106t-48.5 -80t-76.5 -50.5t-101 -17.5q-62 0 -108 20.5t-76 55t-45 81t-15 97.5v200q0 51 15 96.5t45.5 80.5t76 55.5t107.5 20.5zM292 637q-45 0 -78 -16t-55.5 -42t-33.5 -61t-11 -72v-196
q0 -38 11 -73t33.5 -62t55.5 -43t78 -16q40 0 72.5 14.5t55 41t34.5 62.5t12 78v194q0 40 -12 75t-34.5 60.5t-54.5 40.5t-73 15zM-244 525q11 18 18.5 37t7.5 34q0 19 -11.5 34.5t-46.5 23.5l24 63q46 -10 72 -34t26 -62q0 -22 -13 -52t-43 -59zM-141 525l89 193l75 -14
l-64.5 -96l-64.5 -96z" />
    <glyph glyph-name="uni1F4D" unicode="&#x1f4d;" horiz-adv-x="583" 
d="M291 701q57 0 102 -19t76.5 -53t48 -80t16.5 -101v-200q0 -59 -17 -106t-48.5 -80t-76.5 -50.5t-101 -17.5q-62 0 -108 20.5t-76 55t-45 81t-15 97.5v200q0 51 15 96.5t45.5 80.5t76 55.5t107.5 20.5zM292 637q-45 0 -78 -16t-55.5 -42t-33.5 -61t-11 -72v-196
q0 -38 11 -73t33.5 -62t55.5 -43t78 -16q40 0 72.5 14.5t55 41t34.5 62.5t12 78v194q0 40 -12 75t-34.5 60.5t-54.5 40.5t-73 15zM-207 510q-30 29 -43 59t-13 52q0 38 26 62t72 34l24 -63q-34 -8 -46 -23t-12 -33q0 -16 7 -35t19 -38zM-140 525l89 193l75 -14l-64.5 -96
l-64.5 -96z" />
    <glyph glyph-name="uni1F50" unicode="&#x1f50;" horiz-adv-x="526" 
d="M457 175q0 -42 -14.5 -75.5t-40 -57t-61.5 -36t-79 -12.5t-78.5 13t-61 37t-39.5 57t-14 73v322h63v-300q0 -65 36 -103.5t95 -38.5q60 0 95.5 37t35.5 100v305h63v-321zM230 576q12 18 18.5 37t6.5 35q0 18 -11.5 33.5t-46.5 22.5q1 3 4.5 12l7.5 19.5l7.5 20t5.5 12.5
q45 -9 71.5 -33t26.5 -62q0 -22 -13 -53t-44 -60z" />
    <glyph glyph-name="uni1F51" unicode="&#x1f51;" horiz-adv-x="526" 
d="M262 -6q-43 0 -78.5 13t-61 37t-39.5 57t-14 73v321h63v-300q0 -64 35.5 -103t95.5 -39t95.5 37t35.5 100v305h62v-320q0 -42 -14 -76t-39.5 -57t-61.5 -35.5t-79 -12.5zM264 560q-31 29 -44 59.5t-13 52.5q0 38 26.5 61.5t71.5 34.5l24 -64q-34 -7 -46 -22.5t-12 -33.5
q0 -15 7 -34.5t19 -37.5z" />
    <glyph glyph-name="uni1F52" unicode="&#x1f52;" horiz-adv-x="526" 
d="M262 -6q-43 0 -78.5 13t-61 37t-39.5 57t-14 73v321h63v-300q0 -64 35.5 -103t95.5 -39t95.5 37t35.5 100v305h62v-320q0 -42 -14 -76t-39.5 -57t-61.5 -35.5t-79 -12.5zM133 577q12 18 19 37t7 34q0 19 -11.5 34t-46.5 23l24 63q46 -9 72.5 -33t26.5 -62
q0 -22 -13 -52.5t-44 -59.5zM360 562l-126 192l78 14l84 -193z" />
    <glyph glyph-name="uni1F53" unicode="&#x1f53;" horiz-adv-x="526" 
d="M262 -6q-43 0 -78.5 13t-61 37t-39.5 57t-14 73v321h63v-300q0 -64 35.5 -103t95.5 -39t95.5 37t35.5 100v305h62v-320q0 -42 -14 -76t-39.5 -57t-61.5 -35.5t-79 -12.5zM178 560q-31 29 -44 59.5t-13 52.5q0 38 26.5 62t72.5 34l11.5 -32t12.5 -32q-35 -7 -46.5 -22.5
t-11.5 -33.5q0 -15 7 -34.5t19 -37.5zM381 562l-63.5 96l-62.5 96l78 14l84 -193z" />
    <glyph glyph-name="uni1F54" unicode="&#x1f54;" horiz-adv-x="526" 
d="M262 -6q-43 0 -78.5 13t-61 37t-39.5 57t-14 73v321h63v-300q0 -64 35.5 -103t95.5 -39t95.5 37t35.5 100v305h62v-320q0 -42 -14 -76t-39.5 -57t-61.5 -35.5t-79 -12.5zM189 575q11 19 18 38t7 34q0 19 -11.5 34t-46.5 23q7 16 12.5 31.5t12.5 31.5q45 -10 71.5 -34
t26.5 -62q0 -22 -13 -52t-44 -59zM291 575l90 193l76 -14l-130 -192z" />
    <glyph glyph-name="uni1F55" unicode="&#x1f55;" horiz-adv-x="526" 
d="M262 -6q-43 0 -78.5 13t-61 37t-39.5 57t-14 73v321h63v-300q0 -64 35.5 -103t95.5 -39t95.5 37t35.5 100v305h62v-320q0 -42 -14 -76t-39.5 -57t-61.5 -35.5t-79 -12.5zM219 560q-31 29 -44 59t-13 52q0 38 26.5 62t71.5 34l24 -63q-34 -8 -45.5 -23t-11.5 -33
q0 -15 6.5 -34.5t18.5 -38.5zM285 575l89 193l76 -14l-129 -192z" />
    <glyph glyph-name="uni1F59" unicode="&#x1f59;" horiz-adv-x="492" 
d="M277 0h-64v287l-209 409h71l38.5 -77.5l48 -97.5l47 -97l36.5 -76q5 9 18 35l30 61l36.5 75l37 75.5l31 63t18.5 38.5h69l-104.5 -204.5l-103.5 -204.5v-287zM-92 510q-31 29 -44 59.5t-13 52.5q0 38 26.5 62t71.5 34l25 -64q-35 -7 -47 -22t-12 -33q0 -14 7 -34.5
t19 -38.5z" />
    <glyph glyph-name="uni1F5B" unicode="&#x1f5b;" horiz-adv-x="492" 
d="M277 0h-64v287l-209 409h71l38.5 -77.5l48 -97.5l47 -97l36.5 -76q5 9 18 35l30 61l36.5 75l37 75.5l31 63t18.5 38.5h69l-104.5 -204.5l-103.5 -204.5v-287zM-243 510q-31 29 -44 59.5t-13 52.5q0 38 26.5 62t71.5 34l24 -64q-35 -7 -46.5 -22.5t-11.5 -34.5
q0 -14 7.5 -33.5t18.5 -37.5zM-42 512l-127 192l79 14l83 -193z" />
    <glyph glyph-name="uni1F5D" unicode="&#x1f5d;" horiz-adv-x="492" 
d="M277 0h-64v287l-209 409h71l107 -216l63 -132q19 35 35.5 71l33.5 72l51.5 102l50.5 103h69l-104.5 -204.5l-103.5 -204.5v-287zM-253 510q-30 29 -43 59t-13 52q0 38 26 62t72 34l24 -63q-34 -8 -46 -23t-12 -33q0 -16 7 -35t19 -38zM-186 525l89 193l76 -14l-130 -192z
" />
    <glyph glyph-name="uni1F60" unicode="&#x1f60;" horiz-adv-x="745" 
d="M540 499q45 -4 76.5 -23.5t51 -52.5t28.5 -77.5t9 -98.5q0 -58 -10.5 -104.5t-33 -79.5t-57 -50.5t-83.5 -17.5q-46 0 -84.5 19.5t-63.5 67.5q-26 -45 -63 -66.5t-82 -21.5q-50 0 -85 18t-57 51t-32 79.5t-10 103.5q0 109 39.5 176t127.5 77l8 -60q-57 -8 -84 -58.5
t-27 -135.5q0 -43 7 -78t21 -60.5t36.5 -39.5t54.5 -14q28 0 49 11t35 29.5t21 43t7 51.5v187h63v-187q0 -27 7.5 -51.5t22.5 -43t37.5 -29t52.5 -10.5q60 0 89 52t29 140q0 85 -26 135t-84 59zM346 576q12 18 19 37t7 35q0 18 -11.5 33.5t-46.5 22.5l24 64q46 -9 72.5 -33
t26.5 -62q0 -22 -13 -53t-44 -60z" />
    <glyph glyph-name="uni1F61" unicode="&#x1f61;" horiz-adv-x="745" 
d="M377 560q-30 29 -43 60t-13 53q0 38 26 61.5t72 33.5q1 -3 4.5 -12.5l7.5 -20l7.5 -19.5t5.5 -12q-35 -7 -46.5 -22t-11.5 -33q0 -34 25 -73zM540 499q45 -4 76.5 -23.5t51 -52.5t28.5 -77.5t9 -98.5q0 -58 -10.5 -104.5t-33 -79.5t-57 -50.5t-83.5 -17.5
q-46 0 -84.5 19.5t-63.5 67.5q-26 -45 -63 -66.5t-82 -21.5q-50 0 -85 18t-57 51t-32 79.5t-10 103.5q0 109 39.5 176t127.5 77l8 -60q-57 -8 -84 -58.5t-27 -135.5q0 -43 7 -78t21 -60.5t36.5 -39.5t54.5 -14q28 0 49 11t35 29.5t21 43t7 51.5v187h63v-187q0 -27 7.5 -51.5
t22.5 -43t37.5 -29t52.5 -10.5q60 0 89 52t29 140q0 85 -26 135t-84 59z" />
    <glyph glyph-name="uni1F62" unicode="&#x1f62;" horiz-adv-x="745" 
d="M540 499q45 -4 76.5 -23.5t51 -52.5t28.5 -77.5t9 -98.5q0 -58 -10.5 -104.5t-33 -79.5t-57 -50.5t-83.5 -17.5q-46 0 -84.5 19.5t-63.5 67.5q-26 -45 -63 -66.5t-82 -21.5q-50 0 -85 18t-57 51t-32 79.5t-10 103.5q0 109 39.5 176t127.5 77l8 -60q-57 -8 -84 -58.5
t-27 -135.5q0 -43 7 -78t21 -60.5t36.5 -39.5t54.5 -14q28 0 49 11t35 29.5t21 43t7 51.5v187h63v-187q0 -27 7.5 -51.5t22.5 -43t37.5 -29t52.5 -10.5q60 0 89 52t29 140q0 85 -26 135t-84 59zM252 577q12 18 19 37t7 34q0 19 -11.5 34t-46.5 23l24 63q46 -9 72.5 -33
t26.5 -62q0 -22 -13 -52.5t-44 -59.5zM479 562l-126 192l78 14l84 -193z" />
    <glyph glyph-name="uni1F63" unicode="&#x1f63;" horiz-adv-x="745" 
d="M540 499q45 -4 76.5 -23.5t51 -52.5t28.5 -77.5t9 -98.5q0 -58 -10.5 -104.5t-33 -79.5t-57 -50.5t-83.5 -17.5q-46 0 -84.5 19.5t-63.5 67.5q-26 -45 -63 -66.5t-82 -21.5q-50 0 -85 18t-57 51t-32 79.5t-10 103.5q0 109 39.5 176t127.5 77l8 -60q-57 -8 -84 -58.5
t-27 -135.5q0 -43 7 -78t21 -60.5t36.5 -39.5t54.5 -14q28 0 49 11t35 29.5t21 43t7 51.5v187h63v-187q0 -27 7.5 -51.5t22.5 -43t37.5 -29t52.5 -10.5q60 0 89 52t29 140q0 85 -26 135t-84 59zM290 560q-30 29 -43 59.5t-13 52.5q0 38 26 62t72 34l24 -64q-34 -7 -46 -22
t-12 -33q0 -16 6.5 -35t19.5 -38zM493 562l-126 192l78 14l84 -193z" />
    <glyph glyph-name="uni1F64" unicode="&#x1f64;" horiz-adv-x="745" 
d="M540 499q45 -4 76.5 -23.5t51 -52.5t28.5 -77.5t9 -98.5q0 -58 -10.5 -104.5t-33 -79.5t-57 -50.5t-83.5 -17.5q-46 0 -84.5 19.5t-63.5 67.5q-26 -45 -63 -66.5t-82 -21.5q-50 0 -85 18t-57 51t-32 79.5t-10 103.5q0 109 39.5 176t127.5 77l8 -60q-57 -8 -84 -58.5
t-27 -135.5q0 -43 7 -78t21 -60.5t36.5 -39.5t54.5 -14q28 0 49 11t35 29.5t21 43t7 51.5v187h63v-187q0 -27 7.5 -51.5t22.5 -43t37.5 -29t52.5 -10.5q60 0 89 52t29 140q0 85 -26 135t-84 59zM302 575q12 18 19 37t7 34q0 17 -11.5 33.5t-46.5 24.5l24 63q46 -10 72 -34
t26 -62q0 -22 -13 -52t-43 -59zM404 575l90 193l76 -14l-130 -192z" />
    <glyph glyph-name="uni1F65" unicode="&#x1f65;" horiz-adv-x="745" 
d="M540 499q45 -4 76.5 -23.5t51 -52.5t28.5 -77.5t9 -98.5q0 -58 -10.5 -104.5t-33 -79.5t-57 -50.5t-83.5 -17.5q-46 0 -84.5 19.5t-63.5 67.5q-26 -45 -63 -66.5t-82 -21.5q-50 0 -85 18t-57 51t-32 79.5t-10 103.5q0 109 39.5 176t127.5 77l8 -60q-57 -8 -84 -58.5
t-27 -135.5q0 -43 7 -78t21 -60.5t36.5 -39.5t54.5 -14q28 0 49 11t35 29.5t21 43t7 51.5v187h63v-187q0 -27 7.5 -51.5t22.5 -43t37.5 -29t52.5 -10.5q60 0 89 52t29 140q0 85 -26 135t-84 59zM335 560q-30 29 -43 59t-13 52q0 38 26 62t72 34l24 -63q-34 -8 -46 -23
t-12 -33q0 -16 7 -35t19 -38zM401 575l90 193l76 -14l-130 -192z" />
    <glyph glyph-name="uni1F68" unicode="&#x1f68;" horiz-adv-x="573" 
d="M131 61q-24 13 -41.5 34.5t-28 48.5t-15.5 58t-5 64v183q0 50 15 96t45.5 80.5t76 55t107.5 20.5q57 0 102 -19t76.5 -52.5t48 -79.5t16.5 -101v-183q0 -68 -20.5 -120.5t-67.5 -83.5v-1h103v-61h-198v73q56 18 85.5 69.5t29.5 120.5v184q0 40 -11.5 75t-33.5 61
t-54.5 41t-74.5 15q-46 0 -79.5 -16t-55.5 -42.5t-32.5 -61.5t-10.5 -72v-184q0 -31 7.5 -60.5t22 -55t36.5 -45.5t51 -30v-72h-198v61h104zM-87 526q11 18 18.5 37t7.5 34q0 19 -11.5 34.5t-46.5 22.5l24 64q46 -10 71.5 -34t25.5 -62q0 -22 -12.5 -52.5t-42.5 -59.5z" />
    <glyph glyph-name="uni1F69" unicode="&#x1f69;" horiz-adv-x="573" 
d="M131 61q-24 13 -41.5 34.5t-28 48.5t-15.5 58t-5 64v183q0 50 15 96t45.5 80.5t76 55t107.5 20.5q57 0 102 -19t76.5 -52.5t48 -79.5t16.5 -101v-183q0 -68 -20.5 -120.5t-67.5 -83.5v-1h103v-61h-198v73q56 18 85.5 69.5t29.5 120.5v184q0 40 -11.5 75t-33.5 61
t-54.5 41t-74.5 15q-46 0 -79.5 -16t-55.5 -42.5t-32.5 -61.5t-10.5 -72v-184q0 -31 7.5 -60.5t22 -55t36.5 -45.5t51 -30v-72h-198v61h104zM-61 510q-31 29 -44 59.5t-13 52.5q0 38 26 62t73 34q6 -17 12 -32t11 -32q-34 -7 -45.5 -22.5t-11.5 -33.5q0 -15 7 -34.5
t19 -37.5z" />
    <glyph glyph-name="uni1F6A" unicode="&#x1f6a;" horiz-adv-x="573" 
d="M131 61q-24 13 -41.5 34.5t-28 48.5t-15.5 58t-5 64v183q0 50 15 96t45.5 80.5t76 55t107.5 20.5q57 0 102 -19t76.5 -52.5t48 -79.5t16.5 -101v-183q0 -68 -20.5 -120.5t-67.5 -83.5v-1h103v-61h-198v73q56 18 85.5 69.5t29.5 120.5v184q0 40 -11.5 75t-33.5 61
t-54.5 41t-74.5 15q-46 0 -79.5 -16t-55.5 -42.5t-32.5 -61.5t-10.5 -72v-184q0 -31 7.5 -60.5t22 -55t36.5 -45.5t51 -30v-72h-198v61h104zM-258 527q12 18 18.5 37t6.5 34q0 19 -11.5 34.5t-46.5 22.5q7 16 12.5 31.5t12.5 31.5q45 -9 71.5 -33t26.5 -62q0 -22 -13 -52.5
t-44 -59.5zM-31 512l-127 192l79 14l41.5 -96.5l40.5 -96.5z" />
    <glyph glyph-name="uni1F6B" unicode="&#x1f6b;" horiz-adv-x="573" 
d="M131 61q-24 13 -41.5 34.5t-28 48.5t-15.5 58t-5 64v183q0 50 15 96t45.5 80.5t76 55t107.5 20.5q57 0 102 -19t76.5 -52.5t48 -79.5t16.5 -101v-183q0 -68 -20.5 -120.5t-67.5 -83.5v-1h103v-61h-198v73q56 18 85.5 69.5t29.5 120.5v184q0 40 -11.5 75t-33.5 61
t-54.5 41t-74.5 15q-46 0 -79.5 -16t-55.5 -42.5t-32.5 -61.5t-10.5 -72v-184q0 -31 7.5 -60.5t22 -55t36.5 -45.5t51 -30v-72h-198v61h104zM-234 510q-31 29 -44 59.5t-13 52.5q0 38 26.5 62t72.5 34l24 -64q-35 -7 -46.5 -22.5t-11.5 -34.5q0 -14 7 -33.5t19 -37.5z
M-33 512l-126 192l79 14l82 -193z" />
    <glyph glyph-name="uni1F6C" unicode="&#x1f6c;" horiz-adv-x="573" 
d="M131 61q-24 13 -41.5 34.5t-28 48.5t-15.5 58t-5 64v183q0 50 15 96t45.5 80.5t76 55t107.5 20.5q57 0 102 -19t76.5 -52.5t48 -79.5t16.5 -101v-183q0 -68 -20.5 -120.5t-67.5 -83.5v-1h103v-61h-198v73q56 18 85.5 69.5t29.5 120.5v184q0 40 -11.5 75t-33.5 61
t-54.5 41t-74.5 15q-46 0 -79.5 -16t-55.5 -42.5t-32.5 -61.5t-10.5 -72v-184q0 -31 7.5 -60.5t22 -55t36.5 -45.5t51 -30v-72h-198v61h104zM-237 525q11 19 18 38t7 34q0 19 -11.5 34t-46.5 23q7 16 12.5 31.5t12.5 31.5q45 -10 71.5 -34t26.5 -62q0 -22 -13 -52t-44 -59z
M-135 525l90 193l75 -14l-64.5 -96l-64.5 -96z" />
    <glyph glyph-name="uni1F6D" unicode="&#x1f6d;" horiz-adv-x="573" 
d="M131 61q-24 13 -41.5 34.5t-28 48.5t-15.5 58t-5 64v183q0 50 15 96t45.5 80.5t76 55t107.5 20.5q57 0 102 -19t76.5 -52.5t48 -79.5t16.5 -101v-183q0 -68 -20.5 -120.5t-67.5 -83.5v-1h103v-61h-198v73q56 18 85.5 69.5t29.5 120.5v184q0 40 -11.5 75t-33.5 61
t-54.5 41t-74.5 15q-46 0 -79.5 -16t-55.5 -42.5t-32.5 -61.5t-10.5 -72v-184q0 -31 7.5 -60.5t22 -55t36.5 -45.5t51 -30v-72h-198v61h104zM-197 510q-30 29 -43 59t-13 52q0 38 26 62t72 34l24 -63q-34 -8 -46 -23t-12 -33q0 -16 7 -35t19 -38zM-130 525l89 193l75 -14
l-64.5 -96l-64.5 -96z" />
    <glyph glyph-name="uni1F70" unicode="&#x1f70;" horiz-adv-x="503" 
d="M51 239q0 51 8.5 98.5t29.5 83.5t57 58t91 22q37 0 74 -15.5t65 -59.5l2 1v68h63v-495h-63v73h-2q-26 -36 -61 -57.5t-82 -21.5q-54 0 -89 21.5t-55.5 56t-29 78.5t-8.5 89zM117 247q0 -33 4.5 -66.5t19 -61.5t40 -45.5t67.5 -17.5q39 0 64.5 17.5t40 45.5t20 62t5.5 67
q0 30 -4.5 63.5t-18 62.5t-39 48t-68.5 19q-44 0 -69.5 -18.5t-39.5 -47t-18 -63t-4 -65.5zM124 753l79 15l84 -193l-37 -13z" />
    <glyph glyph-name="uni1F71" unicode="&#x1f71;" horiz-adv-x="503" 
d="M51 239q0 51 8.5 98.5t29.5 83.5t57 58t91 22q37 0 74 -15.5t65 -59.5l2 1v68h63v-495h-63v73h-2q-26 -36 -61 -57.5t-82 -21.5q-54 0 -89 21.5t-55.5 56t-29 78.5t-8.5 89zM117 247q0 -33 4.5 -66.5t19 -61.5t40 -45.5t67.5 -17.5q39 0 64.5 17.5t40 45.5t20 62t5.5 67
q0 30 -4.5 63.5t-18 62.5t-39 48t-68.5 19q-44 0 -69.5 -18.5t-39.5 -47t-18 -63t-4 -65.5zM258 562l-37 13l90 193l77 -15z" />
    <glyph glyph-name="uni1F72" unicode="&#x1f72;" horiz-adv-x="434" 
d="M138 261q-24 8 -39 20.5t-23.5 27t-11 29t-2.5 26.5q0 26 11.5 50.5t34 44t57 31t81.5 11.5q48 0 90 -16.5t73 -44.5l-41 -46q-21 20 -54.5 33t-65.5 13q-54 0 -88.5 -20.5t-34.5 -56.5q0 -35 29.5 -55.5t80.5 -20.5h65v-52h-70q-22 0 -42.5 -7t-36.5 -19t-25.5 -29
t-9.5 -37q0 -42 38.5 -64.5t97.5 -22.5q30 0 62.5 12.5t55.5 33.5l41 -46q-31 -28 -74.5 -44t-91.5 -16q-45 0 -80.5 11t-60 31t-37.5 47.5t-13 60.5q0 11 4 27t13.5 32.5t26 31t40.5 22.5v2zM110 753l80 15l83 -193l-36 -13z" />
    <glyph glyph-name="uni1F73" unicode="&#x1f73;" horiz-adv-x="434" 
d="M138 261q-24 8 -39 20.5t-23.5 27t-11 29t-2.5 26.5q0 26 11.5 50.5t34 44t57 31t81.5 11.5q48 0 90 -16.5t73 -44.5l-41 -46q-21 20 -54.5 33t-65.5 13q-54 0 -88.5 -20.5t-34.5 -56.5q0 -35 29.5 -55.5t80.5 -20.5h65v-52h-70q-22 0 -42.5 -7t-36.5 -19t-25.5 -29
t-9.5 -37q0 -42 38.5 -64.5t97.5 -22.5q30 0 62.5 12.5t55.5 33.5l41 -46q-31 -28 -74.5 -44t-91.5 -16q-45 0 -80.5 11t-60 31t-37.5 47.5t-13 60.5q0 11 4 27t13.5 32.5t26 31t40.5 22.5v2zM235 562l-37 13l90 193l76 -15z" />
    <glyph glyph-name="uni1F76" unicode="&#x1f76;" horiz-adv-x="216" 
d="M-25 753l79 15l84 -193l-36 -13zM180 0q-5 -1 -10 -1h-9q-49 0 -69.5 20t-20.5 73v402h62v-391q0 -31 9 -39.5t36 -8.5h2v-55z" />
    <glyph glyph-name="uni1F77" unicode="&#x1f77;" horiz-adv-x="216" 
d="M117 562l-36 13l89 193l76 -15zM180 0q-5 -1 -10 -1h-9q-49 0 -69.5 20t-20.5 73v402h62v-391q0 -31 9 -39.5t36 -8.5h2v-55z" />
    <glyph glyph-name="uni1F78" unicode="&#x1f78;" horiz-adv-x="502" 
d="M118 753l79 15l84 -193l-36 -13zM257 500q54 0 95 -21t66 -60q17 -26 27 -69.5t9 -105.5q-1 -59 -12.5 -100t-30.5 -69q-28 -42 -71 -61.5t-94 -19.5q-102 0 -153 66q-24 32 -34.5 77.5t-10.5 109.5q0 56 10 95t29 69q26 42 69 65.5t101 23.5zM254 444q-38 0 -67 -17
t-46 -46q-15 -24 -22.5 -55.5t-7.5 -79.5t7.5 -80.5t21.5 -55.5q17 -28 44.5 -43.5t64.5 -15.5q39 0 70 17t48 55q10 20 16.5 49t6.5 74q0 48 -5.5 77.5t-15.5 49.5q-36 71 -115 71z" />
    <glyph glyph-name="uni1F79" unicode="&#x1f79;" horiz-adv-x="502" 
d="M260 562l-36 13l89 193l76 -15zM257 500q54 0 95 -21t66 -60q17 -26 27 -69.5t9 -105.5q-1 -59 -12.5 -100t-30.5 -69q-28 -42 -71 -61.5t-94 -19.5q-102 0 -153 66q-24 32 -34.5 77.5t-10.5 109.5q0 56 10 95t29 69q26 42 69 65.5t101 23.5zM254 444q-38 0 -67 -17
t-46 -46q-15 -24 -22.5 -55.5t-7.5 -79.5t7.5 -80.5t21.5 -55.5q17 -28 44.5 -43.5t64.5 -15.5q39 0 70 17t48 55q10 20 16.5 49t6.5 74q0 48 -5.5 77.5t-15.5 49.5q-36 71 -115 71z" />
    <glyph glyph-name="uni1F7A" unicode="&#x1f7a;" horiz-adv-x="526" 
d="M457 175q0 -42 -14 -75.5t-39.5 -57t-61.5 -36t-79 -12.5q-44 0 -79.5 13t-61 37t-39.5 57t-14 73v322h63v-300q0 -64 36 -103t96 -39q59 0 94.5 37t35.5 100v305h63v-321zM135 753l79 15l84 -193l-36 -13z" />
    <glyph glyph-name="uni1F7B" unicode="&#x1f7b;" horiz-adv-x="526" 
d="M457 175q0 -42 -14 -75.5t-39.5 -57t-61.5 -36t-79 -12.5q-44 0 -79.5 13t-61 37t-39.5 57t-14 73v322h63v-300q0 -64 36 -103t96 -39q59 0 94.5 37t35.5 100v305h63v-321zM260 562l-37 13l90 193l76 -15z" />
    <glyph glyph-name="uni1F7C" unicode="&#x1f7c;" horiz-adv-x="745" 
d="M540 499q45 -4 76.5 -23.5t51 -52.5t28.5 -77.5t9 -98.5q0 -58 -10.5 -104.5t-33 -79.5t-57 -50.5t-83.5 -17.5q-46 0 -84.5 19.5t-63.5 67.5q-26 -45 -63 -66.5t-82 -21.5q-50 0 -85 18t-57 51t-32 79.5t-10 103.5q0 109 39.5 176t127.5 77l8 -60q-57 -8 -84 -58.5
t-27 -135.5q0 -43 7 -78t21 -60.5t36.5 -39.5t54.5 -14q28 0 49 11t35 29.5t21 43t7 51.5v187h63v-187q0 -27 7.5 -51.5t22.5 -43t37.5 -29t52.5 -10.5q60 0 89 52t29 140q0 85 -26 135t-84 59zM364 562l-126 190l78 15l84 -192z" />
    <glyph glyph-name="uni1F7D" unicode="&#x1f7d;" horiz-adv-x="745" 
d="M540 499q45 -4 76.5 -23.5t51 -52.5t28.5 -77.5t9 -98.5q0 -58 -10.5 -104.5t-33 -79.5t-57 -50.5t-83.5 -17.5q-46 0 -84.5 19.5t-63.5 67.5q-26 -45 -63 -66.5t-82 -21.5q-50 0 -85 18t-57 51t-32 79.5t-10 103.5q0 109 39.5 176t127.5 77l8 -60q-57 -8 -84 -58.5
t-27 -135.5q0 -43 7 -78t21 -60.5t36.5 -39.5t54.5 -14q28 0 49 11t35 29.5t21 43t7 51.5v187h63v-187q0 -27 7.5 -51.5t22.5 -43t37.5 -29t52.5 -10.5q60 0 89 52t29 140q0 85 -26 135t-84 59zM346 575l90 192l75 -15l-129 -190z" />
    <glyph glyph-name="uni1F80" unicode="&#x1f80;" horiz-adv-x="503" 
d="M378 0v72q-1 0 -1 0.5t-1 0.5q-26 -36 -61.5 -57t-81.5 -21q-54 0 -89 21t-55.5 55.5t-29 78.5t-8.5 89q0 51 8.5 98.5t29.5 83.5t57 58t91 22q38 0 74.5 -15.5t64.5 -60.5q1 0 1 0.5t1 0.5v69h62v-495h-62zM378 248q0 30 -4.5 63.5t-18 62t-39 47.5t-68.5 19
q-44 0 -70 -18.5t-40 -46.5t-18 -62.5t-4 -65.5q0 -33 4.5 -67t19 -61.5t40.5 -45t68 -17.5q39 0 64.5 17.5t40 45t20 62t5.5 67.5zM338 -259q-49 0 -77.5 24t-28.5 81v92h60v-69q0 -16 1.5 -30t7.5 -24t17 -15.5t30 -5.5h15v-53h-25zM233 576q11 18 18 37t7 35
q0 18 -11.5 33.5t-46.5 22.5l25 64q45 -10 71.5 -34t26.5 -62q0 -22 -13 -52.5t-44 -59.5z" />
    <glyph glyph-name="uni1F81" unicode="&#x1f81;" horiz-adv-x="503" 
d="M378 0v72q-1 0 -1 0.5t-1 0.5q-26 -36 -61.5 -57t-81.5 -21q-54 0 -89 21t-55.5 55.5t-29 78.5t-8.5 89q0 51 8.5 98.5t29.5 83.5t57 58t91 22q38 0 74.5 -15.5t64.5 -60.5q1 0 1 0.5t1 0.5v69h62v-495h-62zM378 248q0 30 -4.5 63.5t-18 62t-39 47.5t-68.5 19
q-44 0 -70 -18.5t-40 -46.5t-18 -62.5t-4 -65.5q0 -33 4.5 -67t19 -61.5t40.5 -45t68 -17.5q39 0 64.5 17.5t40 45t20 62t5.5 67.5zM338 -259q-49 0 -77.5 24t-28.5 81v92h60v-69q0 -16 1.5 -30t7.5 -24t17 -15.5t30 -5.5h15v-53h-25zM267 560q-31 29 -44 59.5t-13 52.5
q0 38 26.5 61.5t71.5 34.5l24 -64q-34 -7 -46 -22.5t-12 -33.5q0 -15 7 -34.5t19 -37.5z" />
    <glyph glyph-name="uni1F82" unicode="&#x1f82;" horiz-adv-x="503" 
d="M378 0v72q-1 0 -1 0.5t-1 0.5q-26 -36 -61.5 -57t-81.5 -21q-54 0 -89 21t-55.5 55.5t-29 78.5t-8.5 89q0 51 8.5 98.5t29.5 83.5t57 58t91 22q38 0 74.5 -15.5t64.5 -60.5q1 0 1 0.5t1 0.5v69h62v-495h-62zM378 248q0 30 -4.5 63.5t-18 62t-39 47.5t-68.5 19
q-44 0 -70 -18.5t-40 -46.5t-18 -62.5t-4 -65.5q0 -33 4.5 -67t19 -61.5t40.5 -45t68 -17.5q39 0 64.5 17.5t40 45t20 62t5.5 67.5zM338 -259q-49 0 -77.5 24t-28.5 81v92h60v-69q0 -16 1.5 -30t7.5 -24t17 -15.5t30 -5.5h15v-53h-25zM138 577q12 18 19 37t7 34
q0 19 -11.5 34t-46.5 23l24 63q46 -9 72.5 -33t26.5 -62q0 -22 -13 -52.5t-44 -59.5zM365 562l-126 192l78 14l84 -193z" />
    <glyph glyph-name="uni1F83" unicode="&#x1f83;" horiz-adv-x="503" 
d="M378 0v72q-1 0 -1 0.5t-1 0.5q-26 -36 -61.5 -57t-81.5 -21q-54 0 -89 21t-55.5 55.5t-29 78.5t-8.5 89q0 51 8.5 98.5t29.5 83.5t57 58t91 22q38 0 74.5 -15.5t64.5 -60.5q1 0 1 0.5t1 0.5v69h62v-495h-62zM378 248q0 30 -4.5 63.5t-18 62t-39 47.5t-68.5 19
q-44 0 -70 -18.5t-40 -46.5t-18 -62.5t-4 -65.5q0 -33 4.5 -67t19 -61.5t40.5 -45t68 -17.5q39 0 64.5 17.5t40 45t20 62t5.5 67.5zM338 -259q-49 0 -77.5 24t-28.5 81v92h60v-69q0 -16 1.5 -30t7.5 -24t17 -15.5t30 -5.5h15v-53h-25zM167 560q-31 29 -44 59.5t-13 52.5
q0 38 26.5 61.5t71.5 34.5l24 -64q-34 -7 -45.5 -22t-11.5 -33q0 -34 25 -73zM369 562l-126 192l79 14l83 -193z" />
    <glyph glyph-name="uni1F84" unicode="&#x1f84;" horiz-adv-x="503" 
d="M378 0v72q-1 0 -1 0.5t-1 0.5q-26 -36 -61.5 -57t-81.5 -21q-54 0 -89 21t-55.5 55.5t-29 78.5t-8.5 89q0 51 8.5 98.5t29.5 83.5t57 58t91 22q38 0 74.5 -15.5t64.5 -60.5q1 0 1 0.5t1 0.5v69h62v-495h-62zM378 248q0 30 -4.5 63.5t-18 62t-39 47.5t-68.5 19
q-44 0 -70 -18.5t-40 -46.5t-18 -62.5t-4 -65.5q0 -33 4.5 -67t19 -61.5t40.5 -45t68 -17.5q39 0 64.5 17.5t40 45t20 62t5.5 67.5zM338 -259q-49 0 -77.5 24t-28.5 81v92h60v-69q0 -16 1.5 -30t7.5 -24t17 -15.5t30 -5.5h15v-53h-25zM144 575q11 19 18 38t7 34
q0 19 -11.5 34t-46.5 23q7 16 12.5 31.5t12.5 31.5q45 -10 71.5 -34t26.5 -62q0 -22 -13 -52t-44 -59zM246 575l90 193l76 -14l-130 -192z" />
    <glyph glyph-name="uni1F85" unicode="&#x1f85;" horiz-adv-x="503" 
d="M378 0v72q-1 0 -1 0.5t-1 0.5q-26 -36 -61.5 -57t-81.5 -21q-54 0 -89 21t-55.5 55.5t-29 78.5t-8.5 89q0 51 8.5 98.5t29.5 83.5t57 58t91 22q38 0 74.5 -15.5t64.5 -60.5q1 0 1 0.5t1 0.5v69h62v-495h-62zM378 248q0 30 -4.5 63.5t-18 62t-39 47.5t-68.5 19
q-44 0 -70 -18.5t-40 -46.5t-18 -62.5t-4 -65.5q0 -33 4.5 -67t19 -61.5t40.5 -45t68 -17.5q39 0 64.5 17.5t40 45t20 62t5.5 67.5zM338 -259q-49 0 -77.5 24t-28.5 81v92h60v-69q0 -16 1.5 -30t7.5 -24t17 -15.5t30 -5.5h15v-53h-25zM180 560q-31 29 -44 59t-13 52
q0 38 26.5 62t72.5 34l24 -63q-35 -8 -46.5 -23t-11.5 -34q0 -14 7 -34t19 -38zM246 575l90 193l76 -14l-130 -192z" />
    <glyph glyph-name="uni1F88" unicode="&#x1f88;" horiz-adv-x="819" 
d="M509 0l-29.5 82l-28.5 83h-312l-29.5 -83l-28.5 -82h-71l126.5 348l127.5 348h62l255 -696h-72zM293 609l-52 -149l-83 -237h273l-15 44.5l-20 58l-23 65.5l-24 67l-53 151h-3zM763 0q-51 0 -82.5 25t-31.5 84v387h63v-362q0 -15 2 -29t8.5 -25t18.5 -17.5t33 -6.5h18
v-56h-29zM19 520q11 18 18 37t7 35q0 18 -11.5 33.5t-45.5 22.5l11.5 32t12.5 32q45 -10 71.5 -34t26.5 -62q0 -22 -13 -52.5t-44 -59.5z" />
    <glyph glyph-name="uni1F89" unicode="&#x1f89;" horiz-adv-x="819" 
d="M509 0l-29.5 82l-28.5 83h-312l-29.5 -83l-28.5 -82h-71l126.5 348l127.5 348h62l255 -696h-72zM293 609l-17.5 -51l-23 -67l-26 -74.5l-26.5 -74.5l-24 -67l-18 -52h273l-17.5 51l-23 67.5l-26 75l-26 74.5l-24 67l-18.5 51h-3zM763 0q-51 0 -82.5 25t-31.5 84v387h63
v-362q0 -15 2 -29t8.5 -25t18.5 -17.5t33 -6.5h18v-56h-29zM42 505q-31 29 -43.5 59.5t-12.5 52.5q0 38 25.5 61.5t71.5 34.5l24 -64q-34 -7 -46 -22.5t-12 -33.5q0 -15 7 -34.5t19 -37.5z" />
    <glyph glyph-name="uni1F8A" unicode="&#x1f8a;" horiz-adv-x="819" 
d="M509 0l-29.5 82l-28.5 83h-312l-29.5 -83l-28.5 -82h-71l126.5 348l127.5 348h62l255 -696h-72zM293 609l-52 -149l-83 -237h273l-15 44.5l-20 58l-23 65.5l-24 67l-53 151h-3zM763 0q-51 0 -82.5 25t-31.5 84v387h63v-362q0 -15 2 -29t8.5 -25t18.5 -17.5t33 -6.5h18
v-56h-29zM-136 521q11 18 18 37t7 34q0 19 -11.5 34.5t-46.5 22.5q7 16 12.5 31.5t12.5 31.5q45 -9 71.5 -33t26.5 -62q0 -22 -13 -52.5t-44 -59.5zM90 506l-63.5 96l-62.5 96l78 14l83 -193z" />
    <glyph glyph-name="uni1F8B" unicode="&#x1f8b;" horiz-adv-x="819" 
d="M509 0l-29.5 82l-28.5 83h-312l-29.5 -83l-28.5 -82h-71l126.5 348l127.5 348h62l255 -696h-72zM293 609l-17.5 -51l-23 -67l-26 -74.5l-26.5 -74.5l-24 -67l-18 -52h273l-17.5 51l-23 67.5l-26 75l-26 74.5l-24 67l-18.5 51h-3zM763 0q-51 0 -82.5 25t-31.5 84v387h63
v-362q0 -15 2 -29t8.5 -25t18.5 -17.5t33 -6.5h18v-56h-29zM-100 505q-31 29 -44 59t-13 52q0 38 26 62t72 35l25 -64q-35 -7 -47 -22t-12 -33q0 -14 7 -34.5t19 -38.5zM102 507l-63.5 96l-62.5 96l78 14l83 -193z" />
    <glyph glyph-name="uni1F8C" unicode="&#x1f8c;" horiz-adv-x="819" 
d="M509 0l-29.5 82l-28.5 83h-312l-29.5 -83l-28.5 -82h-71l126.5 348l127.5 348h62l255 -696h-72zM293 609l-17.5 -51l-23 -67l-26 -74.5l-26.5 -74.5l-24 -67l-18 -52h273l-17.5 51l-23 67.5l-26 75l-26 74.5l-24 67l-18.5 51h-3zM763 0q-51 0 -82.5 25t-31.5 84v387h63
v-362q0 -15 2 -29t8.5 -25t18.5 -17.5t33 -6.5h18v-56h-29zM-140 518q12 19 19 37.5t7 34.5q0 18 -11.5 33.5t-46.5 23.5l24 63q46 -10 72.5 -34t26.5 -62q0 -22 -13 -52t-44 -59zM-37 518l89 193l75 -14l-64 -96l-64 -96z" />
    <glyph glyph-name="uni1F8D" unicode="&#x1f8d;" horiz-adv-x="819" 
d="M509 0l-29.5 82l-28.5 83h-312l-29.5 -83l-28.5 -82h-71l126.5 348l127.5 348h62l255 -696h-72zM293 609l-52 -149l-83 -237h273l-15 44.5l-20 58l-23 65.5l-24 67l-53 151h-3zM763 0q-51 0 -82.5 25t-31.5 84v387h63v-362q0 -15 2 -29t8.5 -25t18.5 -17.5t33 -6.5h18
v-56h-29zM-102 505q-30 29 -43 59t-13 52q0 38 26 62t72 34l24 -63q-34 -8 -46 -23t-12 -33q0 -16 7 -35t19 -38zM-35 520l43.5 96.5l44.5 96.5l76 -14l-64.5 -96l-64.5 -96z" />
    <glyph glyph-name="uni1F98" unicode="&#x1f98;" horiz-adv-x="852" 
d="M485 0v322h-340v-322h-68v696h68v-314h340v314h68v-696h-68zM797 0q-51 0 -82.5 25t-31.5 85v386h63v-362q0 -14 2 -28t8 -25t18.5 -17.5t33.5 -6.5h18v-57h-29zM-85 526q12 18 19 37t7 35q0 18 -11.5 33.5t-46.5 22.5l24 64q46 -10 72 -34t26 -62q0 -22 -12.5 -52.5
t-43.5 -59.5z" />
    <glyph glyph-name="uni1F99" unicode="&#x1f99;" horiz-adv-x="852" 
d="M485 0v322h-340v-322h-68v696h68v-314h340v314h68v-696h-68zM797 0q-51 0 -82.5 25t-31.5 85v386h63v-362q0 -14 2 -28t8 -25t18.5 -17.5t33.5 -6.5h18v-57h-29zM-62 510q-31 29 -44 60t-13 53q0 38 26.5 61.5t72.5 33.5l24 -64q-34 -7 -46 -22t-12 -33q0 -16 6.5 -35
t19.5 -38z" />
    <glyph glyph-name="uni1F9A" unicode="&#x1f9a;" horiz-adv-x="852" 
d="M485 322h-341v-322h-67v696h67v-315h341v315h67v-696h-67v322zM796 0q-51 0 -82.5 25t-31.5 84v387h63v-362q0 -14 2 -28t8.5 -25t19 -18t33.5 -7h17v-56h-29zM-259 527q12 18 19 37t7 34q0 19 -11.5 34.5t-46.5 22.5l24 63q46 -9 72 -33t26 -62q0 -22 -13 -52.5
t-43 -59.5zM-32 512l-126 192l78 14l83 -193z" />
    <glyph glyph-name="uni1F9B" unicode="&#x1f9b;" horiz-adv-x="852" 
d="M485 322h-341v-322h-67v696h67v-315h341v315h67v-696h-67v322zM796 0q-51 0 -82.5 25t-31.5 84v387h63v-315q0 -19 -0.5 -41t4 -40.5t18 -31t41.5 -12.5h17v-56h-29zM-231 510q-30 29 -43 59.5t-13 52.5q0 38 26 62t72 34l24 -64q-35 -7 -46.5 -22.5t-11.5 -33.5
q0 -14 7 -34t19 -38zM-29 512l-126 192l78 14l83 -193z" />
    <glyph glyph-name="uni1F9C" unicode="&#x1f9c;" horiz-adv-x="852" 
d="M485 322h-341v-322h-67v696h67v-315h341v315h67v-696h-67v322zM796 0q-51 0 -82.5 25t-31.5 84v387h63v-315q0 -19 -0.5 -41t4 -40.5t18 -31t41.5 -12.5h17v-56h-29zM-259 526q12 18 19 37t7 34q0 19 -11.5 34.5t-46.5 22.5l24 63q46 -9 72 -33t26 -62q0 -22 -13 -52.5
t-43 -59.5zM-152 525l42 96.5l43 96.5l76 -14l-126 -192z" />
    <glyph glyph-name="uni1F9D" unicode="&#x1f9d;" horiz-adv-x="852" 
d="M485 322h-341v-322h-67v696h67v-315h341v315h67v-696h-67v322zM796 0q-51 0 -82.5 25t-31.5 84v387h63v-315q0 -19 -0.5 -41t4 -40.5t18 -31t41.5 -12.5h17v-56h-29zM-235 510q-30 29 -43 59.5t-13 52.5q0 38 26 62t72 33l24 -63q-35 -7 -46.5 -22.5t-11.5 -34.5
q0 -15 7 -34t19 -37zM-152 525l42 96.5l43 96.5l76 -14l-126 -192z" />
    <glyph glyph-name="uni1FA0" unicode="&#x1fa0;" horiz-adv-x="745" 
d="M540 499q45 -4 76.5 -23.5t51 -52.5t28.5 -77.5t9 -98.5q0 -58 -10.5 -104.5t-33 -79.5t-57 -50.5t-83.5 -17.5q-46 0 -84.5 19.5t-63.5 67.5q-26 -45 -63 -66.5t-82 -21.5q-50 0 -85 18t-57 51t-32 79.5t-10 103.5q0 109 39.5 176t127.5 77l8 -60q-57 -8 -84 -58.5
t-27 -135.5q0 -43 7 -78t21 -60.5t36.5 -39.5t54.5 -14q28 0 49 11t35 29.5t21 43t7 51.5v187h63v-187q0 -27 7.5 -51.5t22.5 -43t37.5 -29t52.5 -10.5q60 0 89 52t29 140q0 85 -26 135t-84 59zM406 -62v-81q0 -27 10.5 -45t45.5 -18h15v-54h-25q-49 0 -77.5 24t-28.5 81v93
h60zM346 576q12 18 19 37t7 35q0 18 -11.5 33.5t-46.5 22.5l24 64q46 -9 72.5 -33t26.5 -62q0 -22 -13 -53t-44 -60z" />
    <glyph glyph-name="uni1FA1" unicode="&#x1fa1;" horiz-adv-x="745" 
d="M377 560q-30 29 -43 60t-13 53q0 38 26 61.5t72 33.5q1 -3 4.5 -12.5l7.5 -20l7.5 -19.5t5.5 -12q-35 -7 -46.5 -22t-11.5 -33q0 -34 25 -73zM406 -62v-81q0 -27 10.5 -45t45.5 -18h15v-54h-25q-49 0 -77.5 24t-28.5 81v93h60zM540 499q45 -4 76.5 -23.5t51 -52.5
t28.5 -77.5t9 -98.5q0 -58 -10.5 -104.5t-33 -79.5t-57 -50.5t-83.5 -17.5q-46 0 -84.5 19.5t-63.5 67.5q-26 -45 -63 -66.5t-82 -21.5q-50 0 -85 18t-57 51t-32 79.5t-10 103.5q0 109 39.5 176t127.5 77l8 -60q-57 -8 -84 -58.5t-27 -135.5q0 -43 7 -78t21 -60.5
t36.5 -39.5t54.5 -14q28 0 49 11t35 29.5t21 43t7 51.5v187h63v-187q0 -27 7.5 -51.5t22.5 -43t37.5 -29t52.5 -10.5q60 0 89 52t29 140q0 85 -26 135t-84 59z" />
    <glyph glyph-name="uni1FA2" unicode="&#x1fa2;" horiz-adv-x="745" 
d="M540 499q45 -4 76.5 -23.5t51 -52.5t28.5 -77.5t9 -98.5q0 -58 -10.5 -104.5t-33 -79.5t-57 -50.5t-83.5 -17.5q-46 0 -84.5 19.5t-63.5 67.5q-26 -45 -63 -66.5t-82 -21.5q-50 0 -85 18t-57 51t-32 79.5t-10 103.5q0 109 39.5 176t127.5 77l8 -60q-57 -8 -84 -58.5
t-27 -135.5q0 -43 7 -78t21 -60.5t36.5 -39.5t54.5 -14q28 0 49 11t35 29.5t21 43t7 51.5v187h63v-187q0 -27 7.5 -51.5t22.5 -43t37.5 -29t52.5 -10.5q60 0 89 52t29 140q0 85 -26 135t-84 59zM406 -62v-81q0 -27 10.5 -45t45.5 -18h15v-54h-25q-49 0 -77.5 24t-28.5 81v93
h60zM252 577q12 18 19 37t7 34q0 19 -11.5 34t-46.5 23l24 63q46 -9 72.5 -33t26.5 -62q0 -22 -13 -52.5t-44 -59.5zM479 562l-126 192l78 14l84 -193z" />
    <glyph glyph-name="uni1FA3" unicode="&#x1fa3;" horiz-adv-x="745" 
d="M540 499q45 -4 76.5 -23.5t51 -52.5t28.5 -77.5t9 -98.5q0 -58 -10.5 -104.5t-33 -79.5t-57 -50.5t-83.5 -17.5q-46 0 -84.5 19.5t-63.5 67.5q-26 -45 -63 -66.5t-82 -21.5q-50 0 -85 18t-57 51t-32 79.5t-10 103.5q0 109 39.5 176t127.5 77l8 -60q-57 -8 -84 -58.5
t-27 -135.5q0 -43 7 -78t21 -60.5t36.5 -39.5t54.5 -14q28 0 49 11t35 29.5t21 43t7 51.5v187h63v-187q0 -27 7.5 -51.5t22.5 -43t37.5 -29t52.5 -10.5q60 0 89 52t29 140q0 85 -26 135t-84 59zM406 -62v-81q0 -27 10.5 -45t45.5 -18h15v-54h-25q-49 0 -77.5 24t-28.5 81v93
h60zM290 560q-30 29 -43 59.5t-13 52.5q0 38 26 62t72 34l24 -64q-34 -7 -46 -22t-12 -33q0 -16 6.5 -35t19.5 -38zM493 562l-126 192l78 14l84 -193z" />
    <glyph glyph-name="uni1FA4" unicode="&#x1fa4;" horiz-adv-x="745" 
d="M540 499q45 -4 76.5 -23.5t51 -52.5t28.5 -77.5t9 -98.5q0 -58 -10.5 -104.5t-33 -79.5t-57 -50.5t-83.5 -17.5q-46 0 -84.5 19.5t-63.5 67.5q-26 -45 -63 -66.5t-82 -21.5q-50 0 -85 18t-57 51t-32 79.5t-10 103.5q0 109 39.5 176t127.5 77l8 -60q-57 -8 -84 -58.5
t-27 -135.5q0 -43 7 -78t21 -60.5t36.5 -39.5t54.5 -14q28 0 49 11t35 29.5t21 43t7 51.5v187h63v-187q0 -27 7.5 -51.5t22.5 -43t37.5 -29t52.5 -10.5q60 0 89 52t29 140q0 85 -26 135t-84 59zM406 -62v-81q0 -27 10.5 -45t45.5 -18h15v-54h-25q-49 0 -77.5 24t-28.5 81v93
h60zM302 575q12 18 19 37t7 34q0 17 -11.5 33.5t-46.5 24.5l24 63q46 -10 72 -34t26 -62q0 -22 -13 -52t-43 -59zM404 575l90 193l76 -14l-130 -192z" />
    <glyph glyph-name="uni1FA5" unicode="&#x1fa5;" horiz-adv-x="745" 
d="M540 499q45 -4 76.5 -23.5t51 -52.5t28.5 -77.5t9 -98.5q0 -58 -10.5 -104.5t-33 -79.5t-57 -50.5t-83.5 -17.5q-46 0 -84.5 19.5t-63.5 67.5q-26 -45 -63 -66.5t-82 -21.5q-50 0 -85 18t-57 51t-32 79.5t-10 103.5q0 109 39.5 176t127.5 77l8 -60q-57 -8 -84 -58.5
t-27 -135.5q0 -43 7 -78t21 -60.5t36.5 -39.5t54.5 -14q28 0 49 11t35 29.5t21 43t7 51.5v187h63v-187q0 -27 7.5 -51.5t22.5 -43t37.5 -29t52.5 -10.5q60 0 89 52t29 140q0 85 -26 135t-84 59zM406 -62v-81q0 -27 10.5 -45t45.5 -18h15v-54h-25q-49 0 -77.5 24t-28.5 81v93
h60zM335 560q-30 29 -43 59t-13 52q0 38 26 62t72 34l24 -63q-34 -8 -46 -23t-12 -33q0 -16 7 -35t19 -38zM401 575l90 193l76 -14l-130 -192z" />
    <glyph glyph-name="uni1FA8" unicode="&#x1fa8;" horiz-adv-x="818" 
d="M131 61q-24 13 -41.5 34.5t-28 48.5t-15.5 58t-5 64v183q0 50 15 96t45.5 80.5t76 55t107.5 20.5q57 0 102 -19t76.5 -52.5t48 -79.5t16.5 -101v-183q0 -68 -20.5 -120.5t-67.5 -83.5v-1h103v-61h-198v73q56 18 85.5 69.5t29.5 120.5v184q0 40 -11.5 75t-33.5 61
t-54.5 41t-74.5 15q-46 0 -79.5 -16t-55.5 -42.5t-32.5 -61.5t-10.5 -72v-184q0 -31 7.5 -60.5t22 -55t36.5 -45.5t51 -30v-72h-198v61h104zM762 0q-51 0 -82.5 25t-31.5 84v387h63v-362q0 -14 2 -28t8.5 -25t19 -18t33.5 -7h17v-56h-29zM-87 526q11 18 18.5 37t7.5 34
q0 19 -11.5 34.5t-46.5 22.5l24 64q46 -10 71.5 -34t25.5 -62q0 -22 -12.5 -52.5t-42.5 -59.5z" />
    <glyph glyph-name="uni1FA9" unicode="&#x1fa9;" horiz-adv-x="818" 
d="M131 61q-24 13 -41.5 34.5t-28 48.5t-15.5 58t-5 64v183q0 50 15 96t45.5 80.5t76 55t107.5 20.5q57 0 102 -19t76.5 -52.5t48 -79.5t16.5 -101v-183q0 -68 -20.5 -120.5t-67.5 -83.5v-1h103v-61h-198v73q56 18 85.5 69.5t29.5 120.5v184q0 40 -11.5 75t-33.5 61
t-54.5 41t-74.5 15q-46 0 -79.5 -16t-55.5 -42.5t-32.5 -61.5t-10.5 -72v-184q0 -31 7.5 -60.5t22 -55t36.5 -45.5t51 -30v-72h-198v61h104zM762 0q-51 0 -82.5 25t-31.5 84v387h63v-362q0 -14 2 -28t8.5 -25t19 -18t33.5 -7h17v-56h-29zM-61 510q-31 29 -44 59.5t-13 52.5
q0 38 26 62t73 34q6 -17 12 -32t11 -32q-34 -7 -45.5 -22.5t-11.5 -33.5q0 -15 7 -34.5t19 -37.5z" />
    <glyph glyph-name="uni1FAA" unicode="&#x1faa;" horiz-adv-x="818" 
d="M131 61q-24 13 -41.5 34.5t-28 48.5t-15.5 58t-5 64v183q0 50 15 96t45.5 80.5t76 55t107.5 20.5q57 0 102 -19t76.5 -52.5t48 -79.5t16.5 -101v-183q0 -68 -20.5 -120.5t-67.5 -83.5v-1h103v-61h-198v73q56 18 85.5 69.5t29.5 120.5v184q0 40 -11.5 75t-33.5 61
t-54.5 41t-74.5 15q-46 0 -79.5 -16t-55.5 -42.5t-32.5 -61.5t-10.5 -72v-184q0 -31 7.5 -60.5t22 -55t36.5 -45.5t51 -30v-72h-198v61h104zM762 0q-51 0 -82.5 25t-31.5 84v387h63v-362q0 -14 2 -28t8.5 -25t19 -18t33.5 -7h17v-56h-29zM-258 527q12 18 18.5 37t6.5 34
q0 19 -11.5 34.5t-46.5 22.5q7 16 12.5 31.5t12.5 31.5q45 -9 71.5 -33t26.5 -62q0 -22 -13 -52.5t-44 -59.5zM-31 512l-127 192l79 14l41.5 -96.5l40.5 -96.5z" />
    <glyph glyph-name="uni1FAB" unicode="&#x1fab;" horiz-adv-x="818" 
d="M131 61q-24 13 -41.5 34.5t-28 48.5t-15.5 58t-5 64v183q0 50 15 96t45.5 80.5t76 55t107.5 20.5q57 0 102 -19t76.5 -52.5t48 -79.5t16.5 -101v-183q0 -68 -20.5 -120.5t-67.5 -83.5l103 -1v-61h-198v73q56 18 85.5 69.5t29.5 120.5v184q0 40 -11.5 75t-33.5 61
t-54.5 41t-74.5 15q-46 0 -79.5 -16t-55.5 -42.5t-32.5 -61.5t-10.5 -72v-184q0 -31 7.5 -60.5t22 -55t36.5 -45.5t51 -30v-72h-198v61h104zM762 0q-51 0 -82.5 25t-31.5 84v387h63v-362q0 -14 2 -28t8.5 -25t19 -18t33.5 -7h17v-56h-29zM-235 510q-31 29 -44 59.5t-13 52.5
q0 38 26.5 62t71.5 34q7 -16 12.5 -31.5t12.5 -32.5q-35 -7 -46.5 -22.5t-11.5 -33.5q0 -15 6.5 -34.5t18.5 -37.5zM-33 512l-127 192l79 14l41.5 -96.5l40.5 -96.5z" />
    <glyph glyph-name="uni1FAC" unicode="&#x1fac;" horiz-adv-x="818" 
d="M131 61q-24 13 -41.5 34.5t-28 48.5t-15.5 58t-5 64v183q0 50 15 96t45.5 80.5t76 55t107.5 20.5q57 0 102 -19t76.5 -52.5t48 -79.5t16.5 -101v-183q0 -68 -20.5 -120.5t-67.5 -83.5v-1h103v-61h-198v73q56 18 85.5 69.5t29.5 120.5v184q0 40 -11.5 75t-33.5 61
t-54.5 41t-74.5 15q-46 0 -79.5 -16t-55.5 -42.5t-32.5 -61.5t-10.5 -72v-184q0 -31 7.5 -60.5t22 -55t36.5 -45.5t51 -30v-72h-198v61h104zM762 0q-51 0 -82.5 25t-31.5 84v387h63v-362q0 -14 2 -28t8.5 -25t19 -18t33.5 -7h17v-56h-29zM-237 525q11 19 18 38t7 34
q0 19 -11.5 34t-46.5 23q7 16 12.5 31.5t12.5 31.5q45 -10 71.5 -34t26.5 -62q0 -22 -13 -52t-44 -59zM-135 525l90 193l75 -14l-64.5 -96l-64.5 -96z" />
    <glyph glyph-name="uni1FAD" unicode="&#x1fad;" horiz-adv-x="818" 
d="M131 61q-24 13 -41.5 34.5t-28 48.5t-15.5 58t-5 64v183q0 50 15 96t45.5 80.5t76 55t107.5 20.5q57 0 102 -19t76.5 -52.5t48 -79.5t16.5 -101v-183q0 -68 -20.5 -120.5t-67.5 -83.5v-1h103v-61h-198v73q56 18 85.5 69.5t29.5 120.5v184q0 40 -11.5 75t-33.5 61
t-54.5 41t-74.5 15q-46 0 -79.5 -16t-55.5 -42.5t-32.5 -61.5t-10.5 -72v-184q0 -31 7.5 -60.5t22 -55t36.5 -45.5t51 -30v-72h-198v61h104zM762 0q-51 0 -82.5 25t-31.5 84v387h63v-362q0 -14 2 -28t8.5 -25t19 -18t33.5 -7h17v-56h-29zM-197 510q-30 29 -43 59t-13 52
q0 38 26 62t72 34l24 -63q-34 -8 -46 -23t-12 -33q0 -16 7 -35t19 -38zM-130 525l89 193l75 -14l-64.5 -96l-64.5 -96z" />
    <glyph glyph-name="uni1FB0" unicode="&#x1fb0;" horiz-adv-x="503" 
d="M51 239q0 51 8.5 98.5t29.5 83.5t57 58t91 22q37 0 74 -15.5t65 -59.5l2 1v68h63v-495h-63v73h-2q-26 -36 -61 -57.5t-82 -21.5q-54 0 -89 21.5t-55.5 56t-29 78.5t-8.5 89zM117 247q0 -33 4.5 -66.5t19 -61.5t40 -45.5t67.5 -17.5q39 0 64.5 17.5t40 45.5t20 62t5.5 67
q0 30 -4.5 63.5t-18 62.5t-39 48t-68.5 19q-44 0 -69.5 -18.5t-39.5 -47t-18 -63t-4 -65.5zM184 686q4 -27 26 -47.5t54 -20.5q35 0 55.5 19.5t24.5 48.5h55q-2 -19 -10 -40t-23.5 -39t-40.5 -29.5t-61 -11.5q-37 0 -62.5 11.5t-41.5 29.5t-23.5 39t-8.5 40h56z" />
    <glyph glyph-name="uni1FB1" unicode="&#x1fb1;" horiz-adv-x="503" 
d="M51 239q0 51 8.5 98.5t29.5 83.5t57 58t91 22q37 0 74 -15.5t65 -59.5l2 1v68h63v-495h-63v73h-2q-26 -36 -61 -57.5t-82 -21.5q-54 0 -89 21.5t-55.5 56t-29 78.5t-8.5 89zM117 247q0 -33 4.5 -66.5t19 -61.5t40 -45.5t67.5 -17.5q39 0 64.5 17.5t40 45.5t20 62t5.5 67
q0 30 -4.5 63.5t-18 62.5t-39 48t-68.5 19q-44 0 -69.5 -18.5t-39.5 -47t-18 -63t-4 -65.5zM136 597v58h262v-58h-262z" />
    <glyph glyph-name="uni1FB2" unicode="&#x1fb2;" horiz-adv-x="503" 
d="M51 239q0 51 8.5 98.5t29.5 83.5t57 58t91 22q37 0 74 -15.5t65 -59.5l2 1v68h63v-495h-63v73h-2q-26 -36 -61 -57.5t-82 -21.5q-54 0 -89 21.5t-55.5 56t-29 78.5t-8.5 89zM117 247q0 -33 4.5 -66.5t19 -61.5t40 -45.5t67.5 -17.5q39 0 64.5 17.5t40 45.5t20 62t5.5 67
q0 30 -4.5 63.5t-18 62.5t-39 48t-68.5 19q-44 0 -69.5 -18.5t-39.5 -47t-18 -63t-4 -65.5zM120 753l80 15l83 -193l-36 -13zM293 -62v-85q0 -26 12 -42.5t44 -16.5h15v-54h-25q-50 0 -78.5 24t-28.5 81v93h61z" />
    <glyph glyph-name="uni1FB3" unicode="&#x1fb3;" horiz-adv-x="503" 
d="M51 239q0 51 8.5 98.5t29.5 83.5t57 58t91 22q37 0 74 -15.5t65 -59.5l2 1v68h63v-495h-63v73h-2q-26 -36 -61 -57.5t-82 -21.5q-54 0 -89 21.5t-55.5 56t-29 78.5t-8.5 89zM117 247q0 -33 4.5 -66.5t19 -61.5t40 -45.5t67.5 -17.5q39 0 64.5 17.5t40 45.5t20 62t5.5 67
q0 30 -4.5 63.5t-18 62.5t-39 48t-68.5 19q-44 0 -69.5 -18.5t-39.5 -47t-18 -63t-4 -65.5zM293 -62v-85q0 -26 12 -42.5t44 -16.5h15v-54h-25q-50 0 -78.5 24t-28.5 81v93h61z" />
    <glyph glyph-name="uni1FB4" unicode="&#x1fb4;" horiz-adv-x="503" 
d="M51 239q0 51 8.5 98.5t29.5 83.5t57 58t91 22q37 0 74 -15.5t65 -59.5l2 1v68h63v-495h-63v73h-2q-26 -36 -61 -57.5t-82 -21.5q-54 0 -89 21.5t-55.5 56t-29 78.5t-8.5 89zM117 247q0 -33 4.5 -66.5t19 -61.5t40 -45.5t67.5 -17.5q39 0 64.5 17.5t40 45.5t20 62t5.5 67
q0 30 -4.5 63.5t-18 62.5t-39 48t-68.5 19q-44 0 -69.5 -18.5t-39.5 -47t-18 -63t-4 -65.5zM271 562l-36 13l89 193l77 -15zM293 -62v-85q0 -26 12 -42.5t44 -16.5h15v-54h-25q-50 0 -78.5 24t-28.5 81v93h61z" />
    <glyph glyph-name="uni1FBA" unicode="&#x1fba;" horiz-adv-x="592" 
d="M509 0l-29.5 82l-28.5 83h-312l-29.5 -83l-28.5 -82h-71l126.5 348l127.5 348h62l255 -696h-72zM293 609q-8 -26 -25 -75l-36 -103l-41.5 -116.5l-32.5 -91.5h273l-78 225l-57 161h-3zM57 512l-125 190l77 15l84 -192z" />
    <glyph glyph-name="uni1FBB" unicode="&#x1fbb;" horiz-adv-x="592" 
d="M509 0l-29.5 82l-28.5 83h-312l-29.5 -83l-28.5 -82h-71l126.5 348l127.5 348h62l255 -696h-72zM293 609q-8 -26 -25 -75l-36 -103l-41.5 -116.5l-32.5 -91.5h273l-78 225l-57 161h-3zM-25 525l89 192l76 -15l-65 -95l-65 -95z" />
    <glyph glyph-name="uni1FBC" unicode="&#x1fbc;" horiz-adv-x="819" 
d="M509 0l-29.5 82l-28.5 83h-312l-29.5 -83l-28.5 -82h-71l126.5 348l127.5 348h62l255 -696h-72zM293 609l-52 -149l-83 -237h273l-15 44.5l-20 58l-23 65.5l-24 67l-53 151h-3zM763 0q-51 0 -82.5 25t-31.5 84v387h63v-362q0 -15 2 -29t8.5 -25t18.5 -17.5t33 -6.5h18
v-56h-29z" />
    <glyph glyph-name="uni1FC8" unicode="&#x1fc8;" horiz-adv-x="536" 
d="M77 0v696h432v-62h-364v-252h310v-60h-310v-260h364v-62h-432zM-158 703l78 15l85 -193l-37 -13z" />
    <glyph glyph-name="uni1FC9" unicode="&#x1fc9;" horiz-adv-x="536" 
d="M77 0v696h432v-62h-364v-252h310v-60h-310v-260h364v-62h-432zM-111 512l-36 13l90 193l76 -15z" />
    <glyph glyph-name="uni1FCA" unicode="&#x1fca;" horiz-adv-x="631" 
d="M485 0v322h-340v-322h-68v696h68v-314h340v314h68v-696h-68zM-169 703l80 15l83 -193l-36 -13z" />
    <glyph glyph-name="uni1FCB" unicode="&#x1fcb;" horiz-adv-x="631" 
d="M485 0v322h-340v-322h-68v696h68v-314h340v314h68v-696h-68zM-114 512l-36 13l89 193l76 -15z" />
    <glyph glyph-name="uni1FCC" unicode="&#x1fcc;" horiz-adv-x="852" 
d="M797 0q-51 0 -82.5 25t-31.5 85v386h63v-362q0 -14 2 -28t8 -25t18.5 -17.5t33.5 -6.5h18v-57h-29zM485 0v322h-340v-322h-68v696h68v-314h340v314h68v-696h-68z" />
    <glyph glyph-name="uni1FD8" unicode="&#x1fd8;" horiz-adv-x="244" 
d="M87 0v696h67v-696h-67zM42 851q3 -25 25 -46.5t55 -21.5q37 0 58 21.5t23 46.5h54q-2 -19 -10 -40t-23.5 -39t-40.5 -29.5t-61 -11.5t-61.5 11.5t-41.5 29.5t-23.5 39t-8.5 40h55z" />
    <glyph glyph-name="uni1FD9" unicode="&#x1fd9;" horiz-adv-x="232" 
d="M81 0v696h68v-696h-68zM-15 775v58h262v-58h-262z" />
    <glyph glyph-name="uni1FDA" unicode="&#x1fda;" horiz-adv-x="234" 
d="M79 0v696h68v-696h-68zM-145 703l80 15l83 -193l-36 -13z" />
    <glyph glyph-name="uni1FDB" unicode="&#x1fdb;" horiz-adv-x="234" 
d="M79 0v696h68v-696h-68zM-118 512l-36 13l90 193l77 -15z" />
    <glyph glyph-name="uni1FE0" unicode="&#x1fe0;" horiz-adv-x="526" 
d="M457 175q0 -42 -14 -75.5t-39.5 -57t-61.5 -36t-79 -12.5q-44 0 -79.5 13t-61 37t-39.5 57t-14 73v322h63v-300q0 -64 36 -103t96 -39q59 0 94.5 37t35.5 100v305h63v-321zM181 686q4 -27 25.5 -47.5t53.5 -20.5q35 0 55.5 19.5t24.5 48.5h56q-2 -19 -10 -40t-23.5 -39
t-40.5 -29.5t-62 -11.5q-36 0 -61.5 11.5t-41.5 29.5t-24 39t-9 40h57z" />
    <glyph glyph-name="uni1FE1" unicode="&#x1fe1;" horiz-adv-x="526" 
d="M457 175q0 -42 -14 -75.5t-39.5 -57t-61.5 -36t-79 -12.5q-44 0 -79.5 13t-61 37t-39.5 57t-14 73v322h63v-300q0 -64 36 -103t96 -39q59 0 94.5 37t35.5 100v305h63v-321zM130 587v58h262v-58h-262z" />
    <glyph glyph-name="uni1FE2" unicode="&#x1fe2;" horiz-adv-x="526" 
d="M457 175q0 -42 -14 -75.5t-39.5 -57t-61.5 -36t-79 -12.5q-44 0 -79.5 13t-61 37t-39.5 57t-14 73v322h63v-300q0 -64 36 -103t96 -39q59 0 94.5 37t35.5 100v305h63v-321zM107 599v72h71v-72h-71zM350 599v72h70v-72h-70zM168 755l79 14l83 -194l-36 -13z" />
    <glyph glyph-name="uni1FE3" unicode="&#x1fe3;" horiz-adv-x="526" 
d="M457 175q0 -42 -14 -75.5t-39.5 -57t-61.5 -36t-79 -12.5q-44 0 -79.5 13t-61 37t-39.5 57t-14 73v322h63v-300q0 -64 36 -103t96 -39q59 0 94.5 37t35.5 100v305h63v-321zM350 601v72h70v-72h-70zM107 601v72h70v-72h-70zM239 563l-36 13l89 195l77 -15z" />
    <glyph glyph-name="uni1FE4" unicode="&#x1fe4;" horiz-adv-x="507" 
d="M59 291q0 41 12.5 79t37.5 67t63 46t88 17q49 0 85.5 -16.5t60.5 -44.5t36 -66.5t12 -81.5v-75q0 -50 -13 -90.5t-37.5 -69.5t-61.5 -45t-85 -16q-41 0 -74 15.5t-59 53.5l-0.5 -17.5t-0.5 -44t-0.5 -58.5t-0.5 -61.5v-52v-30.5h-63v491zM121 205q0 -27 7.5 -54t24 -48.5
t42.5 -35.5t63 -14q40 0 66 16t41 42.5t20.5 61t5.5 71.5v50q0 31 -9.5 58t-26.5 47t-42 31.5t-56 11.5q-35 0 -60.5 -13t-42 -34.5t-25 -48.5t-8.5 -55v-86zM235 576q12 18 19 37t7 35q0 18 -11.5 33.5t-46.5 22.5l24 64q46 -10 72 -34t26 -62q0 -22 -13 -52.5t-43 -59.5z
" />
    <glyph glyph-name="uni1FE5" unicode="&#x1fe5;" horiz-adv-x="507" 
d="M59 291q0 41 12.5 79t37.5 67t63 46t88 17q49 0 85.5 -16.5t60.5 -44.5t36 -66.5t12 -81.5v-75q0 -50 -13 -90.5t-37.5 -69.5t-61.5 -45t-85 -16q-41 0 -74 15.5t-59 53.5l-0.5 -17.5t-0.5 -44t-0.5 -58.5t-0.5 -61.5v-52v-30.5h-63v491zM121 205q0 -27 7.5 -54t24 -48.5
t42.5 -35.5t63 -14q40 0 66 16t41 42.5t20.5 61t5.5 71.5v50q0 31 -9.5 58t-26.5 47t-42 31.5t-56 11.5q-35 0 -60.5 -13t-42 -34.5t-25 -48.5t-8.5 -55v-86zM260 560q-31 29 -44 59.5t-13 52.5q0 38 26.5 61.5t71.5 34.5l24 -64q-34 -7 -46 -22.5t-12 -33.5q0 -15 7 -34.5
t19 -37.5z" />
    <glyph glyph-name="uni1FE8" unicode="&#x1fe8;" horiz-adv-x="492" 
d="M277 0h-64v287l-209 409h71l107 -216l63 -132q19 35 35.5 71l33.5 72l51.5 102l50.5 103h69l-104.5 -204.5l-103.5 -204.5v-287zM246 781q36 0 57 21.5t23 46.5h55q-2 -19 -10 -40t-23.5 -38.5t-40.5 -29t-61 -11.5t-61.5 11.5t-41.5 29t-24 38.5t-9 40h56
q3 -25 24.5 -46.5t55.5 -21.5z" />
    <glyph glyph-name="uni1FE9" unicode="&#x1fe9;" horiz-adv-x="492" 
d="M277 0h-64v287l-209 409h71l107 -216l63 -132q19 35 35.5 71l33.5 72l51.5 102l50.5 103h69l-104.5 -204.5l-103.5 -204.5v-287zM115 832h261v-58h-261v58z" />
    <glyph glyph-name="uni1FEA" unicode="&#x1fea;" horiz-adv-x="492" 
d="M277 0h-64v287l-209 409h71l107 -216l63 -132q19 35 35.5 71l33.5 72l51.5 102l50.5 103h69l-104.5 -204.5l-103.5 -204.5v-287zM-82 512l-126 190l79 15l41 -96l42 -96z" />
    <glyph glyph-name="uni1FEB" unicode="&#x1feb;" horiz-adv-x="492" 
d="M277 0h-64v287l-209 409h71l107 -216l63 -132q19 35 35.5 71l33.5 72l51.5 102l50.5 103h69l-104.5 -204.5l-103.5 -204.5v-287zM-189 525l90 192l75 -15l-129 -190z" />
    <glyph glyph-name="uni1FEC" unicode="&#x1fec;" horiz-adv-x="564" 
d="M329 696q42 0 82.5 -11.5t71.5 -36t50 -64t19 -95.5q0 -35 -13.5 -71t-40 -64.5t-66 -46.5t-91.5 -18h-196v-289h-67v696h251zM145 351h189q38 0 66 12.5t46 32.5t26.5 45t8.5 51q0 36 -11.5 62.5t-32 44t-48 26.5t-59.5 9h-185v-283zM-98 526q11 18 18.5 37t7.5 34
q0 19 -11.5 34.5t-46.5 22.5l24 64q46 -10 72 -34t26 -62q0 -22 -13 -52.5t-43 -59.5z" />
    <glyph glyph-name="uni1FF2" unicode="&#x1ff2;" horiz-adv-x="745" 
d="M540 499q45 -4 76.5 -23.5t51 -52.5t28.5 -77.5t9 -98.5q0 -58 -10.5 -104.5t-33 -79.5t-57 -50.5t-83.5 -17.5q-46 0 -84.5 19.5t-63.5 67.5q-26 -45 -63 -66.5t-82 -21.5q-50 0 -85 18t-57 51t-32 79.5t-10 103.5q0 109 39.5 176t127.5 77l8 -60q-57 -8 -84 -58.5
t-27 -135.5q0 -43 7 -78t21 -60.5t36.5 -39.5t54.5 -14q28 0 49 11t35 29.5t21 43t7 51.5v187h63v-187q0 -27 7.5 -51.5t22.5 -43t37.5 -29t52.5 -10.5q60 0 89 52t29 140q0 85 -26 135t-84 59zM452 -259q-49 0 -77.5 24t-28.5 81v92h59v-80q0 -28 11.5 -46t45.5 -18h14v-53
h-24zM360 562l-63.5 95l-63.5 95l79 15l41.5 -96l41.5 -96z" />
    <glyph glyph-name="uni1FF3" unicode="&#x1ff3;" horiz-adv-x="745" 
d="M404 -62v-81q0 -27 11.5 -45t44.5 -18h15v-54h-25q-49 0 -77.5 24t-28.5 81v93h60zM540 499q45 -4 76.5 -23.5t51 -52.5t28.5 -77.5t9 -98.5q0 -58 -10.5 -104.5t-33 -79.5t-57 -50.5t-83.5 -17.5q-46 0 -84.5 19.5t-63.5 67.5q-26 -45 -63 -66.5t-82 -21.5q-50 0 -85 18
t-57 51t-32 79.5t-10 103.5q0 109 39.5 176t127.5 77l8 -60q-57 -8 -84 -58.5t-27 -135.5q0 -43 7 -78t21 -60.5t36.5 -39.5t54.5 -14q28 0 49 11t35 29.5t21 43t7 51.5v187h63v-187q0 -27 7.5 -51.5t22.5 -43t37.5 -29t52.5 -10.5q60 0 89 52t29 140q0 85 -26 135t-84 59z
" />
    <glyph glyph-name="uni1FF4" unicode="&#x1ff4;" horiz-adv-x="745" 
d="M540 499q45 -4 76.5 -23.5t51 -52.5t28.5 -77.5t9 -98.5q0 -58 -10.5 -104.5t-33 -79.5t-57 -50.5t-83.5 -17.5q-46 0 -84.5 19.5t-63.5 67.5q-26 -45 -63 -66.5t-82 -21.5q-50 0 -85 18t-57 51t-32 79.5t-10 103.5q0 109 39.5 176t127.5 77l8 -60q-57 -8 -84 -58.5
t-27 -135.5q0 -43 7 -78t21 -60.5t36.5 -39.5t54.5 -14q28 0 49 11t35 29.5t21 43t7 51.5v187h63v-187q0 -27 7.5 -51.5t22.5 -43t37.5 -29t52.5 -10.5q60 0 89 52t29 140q0 85 -26 135t-84 59zM452 -259q-49 0 -77.5 24t-28.5 81v92h59v-80q0 -28 11.5 -46t45.5 -18h14v-53
h-24zM338 575l44.5 96l44.5 96l76 -15l-129 -190z" />
    <glyph glyph-name="uni1FF8" unicode="&#x1ff8;" horiz-adv-x="583" 
d="M292 701q57 0 102 -19t76.5 -53t48 -80t16.5 -101v-199q0 -59 -17 -106t-48.5 -80t-76.5 -51t-101 -18q-62 0 -108 20.5t-76 55.5t-45 81.5t-15 97.5v199q0 51 15 96.5t45.5 80.5t76 55.5t107.5 20.5zM293 637q-45 0 -78 -16t-55.5 -42t-33.5 -61t-11 -72v-195
q0 -38 11 -73t33.5 -62t55.5 -43.5t78 -16.5q40 0 72 15t54.5 41t34.5 62.5t12 78.5v193q0 40 -12 75t-34 60.5t-54.5 40.5t-72.5 15zM-159 703l79 15l83 -193l-36 -13z" />
    <glyph glyph-name="uni1FF9" unicode="&#x1ff9;" horiz-adv-x="583" 
d="M292 701q57 0 102 -19t76.5 -53t48 -80t16.5 -101v-199q0 -59 -17 -106t-48.5 -80t-76.5 -51t-101 -18q-62 0 -108 20.5t-76 55.5t-45 81.5t-15 97.5v199q0 51 15 96.5t45.5 80.5t76 55.5t107.5 20.5zM293 637q-45 0 -78 -16t-55.5 -42t-33.5 -61t-11 -72v-195
q0 -38 11 -73t33.5 -62t55.5 -43.5t78 -16.5q40 0 72 15t54.5 41t34.5 62.5t12 78.5v193q0 40 -12 75t-34 60.5t-54.5 40.5t-72.5 15zM-122 512l-36 13l90 193l76 -15z" />
    <glyph glyph-name="uni1FFA" unicode="&#x1ffa;" horiz-adv-x="573" 
d="M131 61q-24 13 -41.5 34.5t-28 48.5t-15.5 58t-5 64v183q0 50 15 96t45.5 80.5t76 55t107.5 20.5q57 0 102 -19t76.5 -52.5t48 -79.5t16.5 -101v-183q0 -68 -20.5 -120.5t-67.5 -83.5v-1h103v-61h-198v73q56 18 85.5 69.5t29.5 120.5v184q0 40 -11.5 75t-33.5 61
t-54.5 41t-74.5 15q-46 0 -79.5 -16t-55.5 -42.5t-32.5 -61.5t-10.5 -72v-184q0 -31 7.5 -60.5t22 -55t36.5 -45.5t51 -30v-72h-198v61h104zM-32 512l-126 190l78 15l83 -192z" />
    <glyph glyph-name="uni1FFB" unicode="&#x1ffb;" horiz-adv-x="573" 
d="M131 61q-24 13 -41.5 34.5t-28 48.5t-15.5 58t-5 64v183q0 50 15 96t45.5 80.5t76 55t107.5 20.5q57 0 102 -19t76.5 -52.5t48 -79.5t16.5 -101v-183q0 -68 -20.5 -120.5t-67.5 -83.5v-1h103v-61h-198v73q56 18 85.5 69.5t29.5 120.5v184q0 40 -11.5 75t-33.5 61
t-54.5 41t-74.5 15q-46 0 -79.5 -16t-55.5 -42.5t-32.5 -61.5t-10.5 -72v-184q0 -31 7.5 -60.5t22 -55t36.5 -45.5t51 -30v-72h-198v61h104zM-136 525l90 192l75 -15l-64.5 -95l-64.5 -95z" />
    <glyph glyph-name="uni1FFC" unicode="&#x1ffc;" horiz-adv-x="818" 
d="M762 0q-51 0 -82.5 25t-31.5 84v387h63v-362q0 -14 2 -28t8.5 -25t19 -18t33.5 -7h17v-56h-29zM131 61q-24 13 -41.5 34.5t-28 48.5t-15.5 58t-5 64v183q0 50 15 96t45.5 80.5t76 55t107.5 20.5q57 0 102 -19t76.5 -52.5t48 -79.5t16.5 -101v-183q0 -68 -20.5 -120.5
t-67.5 -83.5v-1h103v-61h-198v73q56 18 85.5 69.5t29.5 120.5v184q0 40 -11.5 75t-33.5 61t-54.5 41t-74.5 15q-46 0 -79.5 -16t-55.5 -42.5t-32.5 -61.5t-10.5 -72v-184q0 -31 7.5 -60.5t22 -55t36.5 -45.5t51 -30v-72h-198v61h104z" />
    <glyph glyph-name="uni1FB8" unicode="&#x1fb8;" horiz-adv-x="592" 
d="M509 0l-29.5 82l-28.5 83h-312l-29.5 -83l-28.5 -82h-71l126.5 348l127.5 348h62l255 -696h-72zM293 609q-8 -26 -25 -75l-36 -103l-41.5 -116.5l-32.5 -91.5h273l-78 225l-57 161h-3zM296 781q36 0 57 21.5t23 46.5h55q-2 -19 -10 -40t-23.5 -38.5t-40.5 -29t-61 -11.5
t-61.5 11.5t-41.5 29t-24 38.5t-9 40h56q3 -25 24.5 -46.5t55.5 -21.5z" />
    <glyph glyph-name="uni1FB9" unicode="&#x1fb9;" horiz-adv-x="592" 
d="M509 0l-29.5 82l-28.5 83h-312l-29.5 -83l-28.5 -82h-71l126.5 348l127.5 348h62l255 -696h-72zM293 609q-8 -26 -25 -75l-36 -103l-41.5 -116.5l-32.5 -91.5h273l-78 225l-57 161h-3zM165 832h261v-58h-261v58z" />
    <glyph glyph-name="guilsinglright" unicode="&#x203a;" horiz-adv-x="288" 
d="M54 46l118 180l-118 179h61l123 -179l-122 -180h-62z" />
    <glyph glyph-name="guilsinglleft" unicode="&#x2039;" horiz-adv-x="288" 
d="M174 46l-120 180l123 179h61l-118 -179l118 -180h-64z" />
    <glyph glyph-name="exclamdown" unicode="&#xa1;" horiz-adv-x="227" 
d="M89 307h52l5 -513h-62zM151 490v-80h-73v80h73z" />
    <glyph glyph-name="emdash" unicode="&#x2014;" horiz-adv-x="997" 
d="M20 236v61h957v-61h-957z" />
    <glyph glyph-name="Thorn" unicode="&#xde;" horiz-adv-x="564" 
d="M77 694h69v-135h184q42 0 82.5 -11.5t71.5 -36t50 -64t19 -94.5q0 -36 -13.5 -71.5t-40 -64.5t-66 -47t-91.5 -18h-196v-152h-68zM481 356q0 35 -11.5 61.5t-32 44t-48 26.5t-58.5 9h-185v-283h189q38 0 65.5 12.5t45.5 32.5t26.5 45.5t8.5 51.5z" />
    <glyph glyph-name="thorn" unicode="&#xfe;" horiz-adv-x="506" 
d="M120 696v-269l2 -1q30 44 68 59.5t76 15.5q53 0 88 -21t55.5 -56t29 -80.5t8.5 -93.5q0 -47 -8.5 -93t-30 -82t-59 -58.5t-94.5 -22.5q-47 0 -77 18t-56 51h-2v-261h-63v894h63zM120 248q0 -35 5.5 -69.5t20 -61.5t40 -44t64.5 -17q42 0 68 17.5t40 45.5t18.5 61.5
t4.5 66.5q0 31 -4 65.5t-18 63t-40 47t-69 18.5q-42 0 -68 -19t-39.5 -48t-18 -62.5t-4.5 -63.5z" />
    <glyph glyph-name="OE" unicode="&#x152;" horiz-adv-x="801" 
d="M348 0q-30 -6 -62 -6q-62 0 -108 20.5t-76 55.5t-45 81.5t-15 97.5v199q0 51 15 96.5t45.5 80.5t76.5 55.5t107 20.5q15 0 29.5 -1.5t28.5 -3.5h430v-62h-364v-252h311v-60h-311v-260h364v-62h-426zM287 56q30 0 56 9v565q-24 7 -56 7q-45 0 -78 -16t-55 -42t-33 -61
t-11 -72v-195q0 -38 11 -73t33 -62t55 -43.5t78 -16.5z" />
    <glyph glyph-name="quotesinglbase" unicode="&#x201a;" horiz-adv-x="213" 
d="M95 -107h-33l29 107h-22v89h75v-88z" />
    <glyph glyph-name="quotedblbase" unicode="&#x201e;" horiz-adv-x="406" 
d="M102 -107h-33l29 107h-22v89h74v-88zM283 -108h-33l29 106h-22v89h75v-88z" />
    <glyph glyph-name="daggerdbl" unicode="&#x2021;" horiz-adv-x="457" 
d="M196 400h-173v54h173v242h64v-242h174v-54h-174v-222h174v-53h-174v-315h-64v315h-173v53h173v222z" />
    <glyph glyph-name="cent" unicode="&#xa2;" horiz-adv-x="484" 
d="M252 -115v111q-38 4 -72 20.5t-59.5 47t-41 76t-15.5 107.5t15.5 107t41 75.5t59.5 47t72 21.5v106h37v-103q49 -3 83.5 -18.5t66.5 -43.5l-40 -46q-21 20 -49.5 33.5t-60.5 14.5v-389q33 1 61 15t49 34q2 -2 8 -8.5l13 -14t12.5 -14t7.5 -8.5q-29 -27 -67.5 -43.5
t-83.5 -18.5v-109h-37zM127 247q0 -84 32.5 -132t92.5 -59v381q-60 -11 -92.5 -58.5t-32.5 -131.5z" />
    <glyph glyph-name="currency" unicode="&#xa4;" horiz-adv-x="535" 
d="M59 498q9 10 19 19.5l19 18.5l63 -63q53 38 115 38q58 0 112 -37l63 63l38 -39l-63 -62q40 -57 40 -115q0 -30 -10 -58t-28 -55l13.5 -13.5l18 -17.5l18 -17t13.5 -14q-19 -20 -39 -39l-62 63q-50 -38 -114 -40q-63 2 -116 41l-63 -63l-19.5 19.5t-18.5 19.5l63 62
q-36 54 -36 112q-1 30 9 58.5t29 55.5zM141 321q0 -28 10.5 -52t28.5 -42t42 -28.5t52 -10.5t52.5 10.5t42.5 28.5t28.5 42t10.5 52t-10.5 52.5t-28.5 42.5t-42.5 28.5t-52.5 10.5t-52 -10.5t-42 -28.5t-28.5 -42.5t-10.5 -52.5z" />
    <glyph glyph-name="paragraph" unicode="&#xb6;" horiz-adv-x="529" 
d="M285 661v-742h-61v422q-31 0 -56 6q-32 4 -56.5 20t-41.5 39.5t-26 54t-9 63.5q0 36 11 70.5t33 61t56 42.5t80 16h275v-53h-53v-742h-60v742h-92z" />
    <glyph glyph-name="Oslash" unicode="&#xd8;" horiz-adv-x="583" 
d="M292 701q54 0 96 -14.5t71 -40.5l36 53l35 -23l-42 -62q24 -33 35.5 -75t11.5 -91v-199q0 -59 -17 -106t-48.5 -80t-76.5 -51t-101 -18q-59 0 -102.5 18t-73.5 49l-42 -63l-35 23l50 74q-21 32 -31 71.5t-10 82.5v199q0 51 15 96.5t45.5 80.5t76 55.5t107.5 20.5z
M466 446q0 59 -22 102l-289 -430q21 -29 55 -45.5t83 -16.5q43 0 75 15t54 41t33 62.5t11 78.5v193zM293 637q-47 0 -80.5 -16t-55 -42t-32 -61t-10.5 -72v-195q0 -51 16 -92l288 427q-22 23 -53 37t-73 14z" />
    <glyph glyph-name="oslash" unicode="&#xf8;" horiz-adv-x="502" 
d="M257 500q75 0 124 -40l41 56l31 -22l-45 -62q3 -3 5.5 -6.5l4.5 -6.5q17 -26 27 -69.5t9 -105.5q-1 -59 -12.5 -100t-30.5 -69q-28 -42 -71 -61.5t-94 -19.5q-79 0 -127 39l-37 -51l-31 23l41 56q-23 32 -33.5 77.5t-10.5 108.5q0 56 10 95t29 69q26 42 69 65.5t101 23.5
zM367 376l-209 -289q34 -36 91 -36q39 0 70 17t48 55q10 20 16.5 49t6.5 74q0 48 -5.5 77.5t-15.5 49.5zM254 444q-38 0 -67 -17t-46 -46q-15 -24 -22.5 -55.5t-7.5 -79.5q0 -43 6 -73t17 -53l210 288q-36 36 -90 36z" />
    <glyph glyph-name="Scaron" unicode="&#x160;" horiz-adv-x="554" 
d="M517 186q0 -44 -17 -79.5t-48.5 -60.5t-76.5 -38.5t-100 -13.5q-73 0 -133.5 19t-114.5 61l41 52q44 -31 97 -49t112 -18q36 0 67 8.5t54 24.5t36 40t13 54q0 37 -16 60t-40.5 37.5t-54 21.5t-56.5 12q-51 9 -93.5 21.5t-73 34t-47.5 54t-17 81.5q0 42 15 77.5t44 61.5
t70.5 40.5t94.5 14.5q59 0 113.5 -15.5t99.5 -44.5l-38 -59q-40 23 -86 38.5t-94 15.5q-29 0 -55.5 -8t-47.5 -24t-33.5 -41t-12.5 -58q0 -36 20 -58.5t49 -36t62.5 -21t60.5 -12.5q45 -9 83 -23t65 -36.5t42.5 -55t15.5 -77.5zM410 885l24 -30l-135 -118h-45l-141 119
l23 30l138 -86z" />
    <glyph glyph-name="Zcaron" unicode="&#x17d;" horiz-adv-x="497" 
d="M33 0v60l354 577h-340v59h417v-55l-355 -579h355v-62h-431zM396 885l24 -30l-135 -118h-45l-141 119l23 30l138 -86z" />
    <glyph glyph-name="scaron" unicode="&#x161;" horiz-adv-x="466" 
d="M427 138q0 -66 -54.5 -105t-147.5 -39q-112 0 -198 68l39 49q35 -30 76 -45t92 -15q22 0 45 5t41 15.5t29.5 28t11.5 42.5t-12.5 40t-31 23t-41 11.5t-42.5 5.5q-33 3 -66.5 9.5t-60.5 21t-44.5 39.5t-17.5 65q0 35 13.5 62t37.5 45t57.5 27.5t72.5 9.5q57 0 97.5 -13
t75.5 -37l-35 -50q-30 19 -63 30.5t-75 11.5q-54 0 -85.5 -23t-31.5 -64q0 -24 15.5 -38t38 -21t47.5 -10t45 -5q32 -3 63 -10t55 -23t39 -42.5t15 -68.5zM350 722l30 -29l-134 -138h-45l-142 139l31 29l130 -102z" />
    <glyph glyph-name="zcaron" unicode="&#x17e;" horiz-adv-x="428" 
d="M34 0v52l285 388h-270v56h344v-55l-283 -383h283v-58h-359zM347 722l30 -29l-134 -138h-45l-142 139l31 29l130 -102z" />
    <glyph glyph-name="Ydieresis" unicode="&#x178;" horiz-adv-x="492" 
d="M277 0h-64v287l-209 409h71l107 -216l63 -132q19 35 35.5 71l33.5 72l51.5 102l50.5 103h69l-104.5 -204.5l-103.5 -204.5v-287zM125 834h71v-70h-71v70zM304 834h71v-70h-71v70z" />
    <glyph glyph-name="Agrave" unicode="&#xc0;" horiz-adv-x="598" 
d="M509 0l-29.5 82l-28.5 83h-312l-29.5 -83l-28.5 -82h-71l126.5 348l127.5 348h62l255 -696h-72zM293 609q-8 -26 -25 -75l-36 -103l-41.5 -116.5l-32.5 -91.5h273l-78 225l-57 161h-3zM323 765l-13.5 -16t-14.5 -16l-160 98l47 49l70.5 -57.5z" />
    <glyph glyph-name="Aacute" unicode="&#xc1;" horiz-adv-x="592" 
d="M509 0l-29.5 82l-28.5 83h-312l-29.5 -83l-28.5 -82h-71l126.5 348l127.5 348h62l255 -696h-72zM293 609q-8 -26 -25 -75l-36 -103l-41.5 -116.5l-32.5 -91.5h273l-78 225l-57 161h-3zM256 765l71 57.5l71 57.5l47 -49l-80.5 -49.5l-80.5 -48.5z" />
    <glyph glyph-name="Acircumflex" unicode="&#xc2;" horiz-adv-x="592" 
d="M509 0l-29.5 82l-28.5 83h-312l-29.5 -83l-28.5 -82h-71l126.5 348l127.5 348h62l255 -696h-72zM293 609q-8 -26 -25 -75l-36 -103l-41.5 -116.5l-32.5 -91.5h273l-78 225l-57 161h-3zM296 819l-137 -85l-23 29l141 119h44l135 -117l-24 -30z" />
    <glyph glyph-name="Aring" unicode="&#xc5;" horiz-adv-x="592" 
d="M509 0l-29.5 82l-28.5 83h-312l-29.5 -83l-28.5 -82h-71l126.5 348l127.5 348h62l255 -696h-72zM293 609q-8 -26 -25 -75l-36 -103l-41.5 -116.5l-32.5 -91.5h273l-78 225l-57 161h-3zM295 714q-20 0 -37.5 7.5t-30 20t-20 29.5t-7.5 37q0 39 27.5 66t67.5 27
q39 0 66.5 -27t27.5 -66q0 -20 -7.5 -37t-20 -29.5t-30 -20t-36.5 -7.5zM295 867q-25 0 -42 -17.5t-17 -41.5q0 -25 17 -42t42 -17t42 17t17 42q0 24 -17 41.5t-42 17.5z" />
    <glyph glyph-name="Egrave" unicode="&#xc8;" horiz-adv-x="536" 
d="M77 0v696h432v-62h-364v-252h310v-60h-310v-260h364v-62h-432zM313 734l-160 98l47 49l142 -115z" />
    <glyph glyph-name="Ecircumflex" unicode="&#xca;" horiz-adv-x="536" 
d="M77 0v696h432v-62h-364v-252h310v-60h-310v-260h364v-62h-432zM297 820l-138 -85l-23 29l141 119h45l135 -117l-24 -30z" />
    <glyph glyph-name="Edieresis" unicode="&#xcb;" horiz-adv-x="536" 
d="M77 0v696h432v-62h-364v-252h310v-60h-310v-260h364v-62h-432zM345 763v70h72v-70h-72zM165 763v70h72v-70h-72z" />
    <glyph glyph-name="Igrave" unicode="&#xcc;" horiz-adv-x="227" 
d="M79 0v696h68v-696h-68zM120 734l-161 98l48 49l141 -115z" />
    <glyph glyph-name="Iacute" unicode="&#xcd;" horiz-adv-x="227" 
d="M79 0v696h68v-696h-68zM88 766l142 115l47 -49l-160 -98z" />
    <glyph glyph-name="Icircumflex" unicode="&#xce;" horiz-adv-x="255" 
d="M86 0v696h68v-696h-68zM122 820l-137 -85l-24 29l141 119h46l134 -117l-24 -30z" />
    <glyph glyph-name="Idieresis" unicode="&#xcf;" horiz-adv-x="227" 
d="M79 0v696h68v-696h-68zM169 763v70h72v-70h-72zM-10 763v70h72v-70h-72z" />
    <glyph glyph-name="Eth" unicode="&#xd0;" horiz-adv-x="612" 
d="M304 696q78 0 138 -30t92 -98q18 -38 22 -90t4 -118q0 -74 -3.5 -128.5t-20.5 -95.5q-17 -39 -42 -65t-57 -41.5t-69.5 -22.5t-79.5 -7h-211v340h-68v50h68v306h227zM492 414q0 62 -14 104.5t-39.5 68t-61.5 36.5t-79 11h-153v-244h127v-50h-127v-278h153q54 0 91.5 15.5
t60 44t32.5 68t10 87.5v137z" />
    <glyph glyph-name="Ograve" unicode="&#xd2;" horiz-adv-x="583" 
d="M326 734l-161 98l48 49l142 -115zM292 701q63 0 108.5 -19t75.5 -53t44.5 -80t14.5 -101v-199q0 -59 -17 -106t-48.5 -80t-76.5 -51t-101 -18q-62 0 -108 20.5t-76 55.5t-45 81.5t-15 97.5v199q0 51 15 96.5t45.5 80.5t76 55.5t107.5 20.5zM293 637q-47 0 -80.5 -16
t-55 -42t-32 -61t-10.5 -72v-195q0 -38 10 -73t31.5 -62t55.5 -43.5t81 -16.5q43 0 75 15t54 41t33 62.5t11 78.5v193q0 40 -10.5 75t-32.5 60.5t-54.5 40.5t-75.5 15z" />
    <glyph glyph-name="Oacute" unicode="&#xd3;" horiz-adv-x="583" 
d="M249 766l142 115l47 -49l-161 -98zM292 701q63 0 108.5 -19t75.5 -53t44.5 -80t14.5 -101v-199q0 -59 -17 -106t-48.5 -80t-76.5 -51t-101 -18q-62 0 -108 20.5t-76 55.5t-45 81.5t-15 97.5v199q0 51 15 96.5t45.5 80.5t76 55.5t107.5 20.5zM293 637q-47 0 -80.5 -16
t-55 -42t-32 -61t-10.5 -72v-195q0 -38 10 -73t31.5 -62t55.5 -43.5t81 -16.5q43 0 75 15t54 41t33 62.5t11 78.5v193q0 40 -10.5 75t-32.5 60.5t-54.5 40.5t-75.5 15z" />
    <glyph glyph-name="Ocircumflex" unicode="&#xd4;" horiz-adv-x="583" 
d="M292 820l-138 -85l-23 29l141 119h45l135 -117l-24 -30zM292 701q63 0 108.5 -19t75.5 -53t44.5 -80t14.5 -101v-199q0 -59 -17 -106t-48.5 -80t-76.5 -51t-101 -18q-62 0 -108 20.5t-76 55.5t-45 81.5t-15 97.5v199q0 51 15 96.5t45.5 80.5t76 55.5t107.5 20.5zM293 637
q-47 0 -80.5 -16t-55 -42t-32 -61t-10.5 -72v-195q0 -38 10 -73t31.5 -62t55.5 -43.5t81 -16.5q43 0 75 15t54 41t33 62.5t11 78.5v193q0 40 -10.5 75t-32.5 60.5t-54.5 40.5t-75.5 15z" />
    <glyph glyph-name="Ugrave" unicode="&#xd9;" horiz-adv-x="612" 
d="M550 696v-454q0 -57 -17.5 -102.5t-50 -78t-77.5 -50t-99 -17.5q-58 0 -103.5 19.5t-76.5 53.5t-47 80t-16 99v450h67v-441q0 -39 12 -75t34.5 -63t55.5 -43t75 -16q78 0 126 50.5t48 142.5v445h69zM321 734l-161 98l47 49l143 -115z" />
    <glyph glyph-name="Uacute" unicode="&#xda;" horiz-adv-x="612" 
d="M550 696v-454q0 -57 -17.5 -102.5t-50 -78t-77.5 -50t-99 -17.5q-58 0 -103.5 19.5t-76.5 53.5t-47 80t-16 99v450h67v-441q0 -39 12 -75t34.5 -63t55.5 -43t75 -16q78 0 126 50.5t48 142.5v445h69zM244 766l142 115l47 -49l-161 -98z" />
    <glyph glyph-name="Ucircumflex" unicode="&#xdb;" horiz-adv-x="612" 
d="M550 696v-454q0 -57 -17.5 -102.5t-50 -78t-77.5 -50t-99 -17.5q-58 0 -103.5 19.5t-76.5 53.5t-47 80t-16 99v450h67v-441q0 -39 12 -75t34.5 -63t55.5 -43t75 -16q78 0 126 50.5t48 142.5v445h69zM306 820l-138 -85l-23 29l141 119h45l135 -117l-24 -30z" />
    <glyph glyph-name="Yacute" unicode="&#xdd;" horiz-adv-x="492" 
d="M277 0h-64v287l-209 409h71l107 -216l63 -132q19 35 35.5 71l33.5 72l51.5 102l50.5 103h69l-104.5 -204.5l-103.5 -204.5v-287zM186 765l71 57.5l71 57.5l47 -49l-80.5 -49.5l-80.5 -48.5z" />
    <glyph glyph-name="aacute" unicode="&#xe1;" horiz-adv-x="483" 
d="M367 49q-19 -29 -60 -42t-92 -13q-78 0 -126.5 38t-48.5 106q0 29 10 55t30 45.5t49.5 30.5t69.5 11h169v64q0 48 -29.5 73t-99.5 25q-83 0 -128 -46l-40 43q29 31 72 46.5t95 15.5q39 0 74 -7t61.5 -24.5t42 -48t15.5 -77.5v-344h-63v48zM214 228q-54 0 -84 -22t-30 -65
t32 -67t91 -24q24 0 49.5 4t47 15.5t35 30.5t13.5 49v79h-154zM234 573l76 165q16 -5 31.5 -11t32.5 -11l-100 -159z" />
    <glyph glyph-name="igrave" unicode="&#xec;" horiz-adv-x="200" 
d="M64 0v495h68v-495h-68zM93 557l-100 160l64 22l76 -166z" />
    <glyph glyph-name="iacute" unicode="&#xed;" horiz-adv-x="200" 
d="M64 0v495h68v-495h-68zM80 573l75 166l65 -22l-99 -160z" />
    <glyph glyph-name="ograve" unicode="&#xf2;" horiz-adv-x="502" 
d="M252 557l-99 160l65 22l75 -166zM257 500q54 0 95 -21t66 -60q17 -26 27 -69.5t9 -105.5q-1 -59 -12.5 -100t-30.5 -69q-28 -42 -71 -61.5t-94 -19.5q-102 0 -153 66q-24 32 -34.5 77.5t-10.5 109.5q0 56 10 95t29 69q26 42 69 65.5t101 23.5zM254 444q-38 0 -67 -17
t-46 -46q-15 -24 -22.5 -55.5t-7.5 -79.5t7.5 -80.5t21.5 -55.5q17 -28 44.5 -43.5t64.5 -15.5q39 0 70 17t48 55q10 20 16.5 49t6.5 74q0 48 -5.5 77.5t-15.5 49.5q-36 71 -115 71z" />
    <glyph glyph-name="oacute" unicode="&#xf3;" horiz-adv-x="502" 
d="M228 573l75 166l65 -22l-100 -160zM257 500q54 0 95 -21t66 -60q17 -26 27 -69.5t9 -105.5q-1 -59 -12.5 -100t-30.5 -69q-28 -42 -71 -61.5t-94 -19.5q-102 0 -153 66q-24 32 -34.5 77.5t-10.5 109.5q0 56 10 95t29 69q26 42 69 65.5t101 23.5zM254 444q-38 0 -67 -17
t-46 -46q-15 -24 -22.5 -55.5t-7.5 -79.5t7.5 -80.5t21.5 -55.5q17 -28 44.5 -43.5t64.5 -15.5q39 0 70 17t48 55q10 20 16.5 49t6.5 74q0 48 -5.5 77.5t-15.5 49.5q-36 71 -115 71z" />
    <glyph glyph-name="uacute" unicode="&#xfa;" horiz-adv-x="515" 
d="M384 0v68h-2q-25 -40 -65 -57t-80 -17q-35 0 -67 11.5t-56.5 33t-39 53t-14.5 72.5v332h64v-307q0 -64 33.5 -99.5t96.5 -35.5q28 0 52 10t41.5 29t27.5 45t10 58v300h62v-496h-63zM235 573l75 166l66 -22l-100 -160z" />
    <glyph glyph-name="aring" unicode="&#xe5;" horiz-adv-x="483" 
d="M367 49q-19 -29 -60 -42t-92 -13q-78 0 -126.5 38t-48.5 106q0 29 10 55t30 45.5t49.5 30.5t69.5 11h169v64q0 48 -29.5 73t-99.5 25q-83 0 -128 -46l-40 43q29 31 72 46.5t95 15.5q39 0 74 -7t61.5 -24.5t42 -48t15.5 -77.5v-344h-63v48zM214 228q-54 0 -84 -22t-30 -65
t32 -67t91 -24q24 0 49.5 4t47 15.5t35 30.5t13.5 49v79h-154zM254 549q-20 0 -37 7.5t-29.5 20.5t-20 30t-7.5 36t7.5 36.5t20 30t29.5 20t37 7.5q19 0 36.5 -7.5t30.5 -20t20.5 -30t7.5 -36.5t-7.5 -36t-20.5 -30t-30.5 -20.5t-36.5 -7.5zM254 702q-25 0 -41.5 -17
t-16.5 -42t16.5 -42t41.5 -17q26 0 42.5 17t16.5 42t-16.5 42t-42.5 17z" />
    <glyph glyph-name="yacute" unicode="&#xfd;" horiz-adv-x="429" 
d="M211 -108q-18 -50 -51.5 -71t-71.5 -21h-26v56h25q23 0 42.5 17t28.5 46l27 83l-183 493h70l81 -229l62 -183h3l27 80.5l37 107.5l77 224h66zM186 573l76 165q16 -5 31.5 -11t32.5 -11l-100 -159z" />
    <glyph glyph-name="ydieresis" unicode="&#xff;" horiz-adv-x="429" 
d="M211 -108q-18 -50 -51.5 -71t-71.5 -21h-26v56h25q23 0 42.5 17t28.5 46l27 83l-183 493h70l81 -229l62 -183h3l27 80.5l37 107.5l77 224h66zM94 673h71v-71h-71v71zM279 673h71v-71h-71v71z" />
    <glyph glyph-name="Amacron" unicode="&#x100;" horiz-adv-x="592" 
d="M509 0l-29.5 82l-28.5 83h-312l-29.5 -83l-28.5 -82h-71l126.5 348l127.5 348h62l255 -696h-72zM293 609q-8 -26 -25 -75l-36 -103l-41.5 -116.5l-32.5 -91.5h273l-78 225l-57 161h-3zM164 832h261v-58h-261v58z" />
    <glyph glyph-name="amacron" unicode="&#x101;" horiz-adv-x="483" 
d="M367 49q-19 -29 -60 -42t-92 -13q-78 0 -126.5 38t-48.5 106q0 29 10 55t30 45.5t49.5 30.5t69.5 11h169v64q0 48 -29.5 73t-99.5 25q-83 0 -128 -46l-40 43q29 31 72 46.5t95 15.5q39 0 74 -7t61.5 -24.5t42 -48t15.5 -77.5v-344h-63v48zM214 228q-54 0 -84 -22t-30 -65
t32 -67t91 -24q24 0 49.5 4t47 15.5t35 30.5t13.5 49v79h-154zM124 654h261v-58h-261v58z" />
    <glyph glyph-name="Abreve" unicode="&#x102;" horiz-adv-x="592" 
d="M509 0l-29.5 82l-28.5 83h-312l-29.5 -83l-28.5 -82h-71l126.5 348l127.5 348h62l255 -696h-72zM293 609q-8 -26 -25 -75l-36 -103l-41.5 -116.5l-32.5 -91.5h273l-78 225l-57 161h-3zM296 781q36 0 57 21.5t23 46.5h55q-2 -19 -10 -40t-23.5 -38.5t-40.5 -29t-61 -11.5
t-61.5 11.5t-41.5 29t-24 38.5t-9 40h56q3 -25 24.5 -46.5t55.5 -21.5z" />
    <glyph glyph-name="abreve" unicode="&#x103;" horiz-adv-x="483" 
d="M367 49q-19 -29 -60 -42t-92 -13q-78 0 -126.5 38t-48.5 106q0 29 10 55t30 45.5t49.5 30.5t69.5 11h169v64q0 48 -29.5 73t-99.5 25q-83 0 -128 -46l-40 43q29 31 72 46.5t95 15.5q39 0 74 -7t61.5 -24.5t42 -48t15.5 -77.5v-344h-63v48zM214 228q-54 0 -84 -22t-30 -65
t32 -67t91 -24q24 0 49.5 4t47 15.5t35 30.5t13.5 49v79h-154zM262 617q35 0 55.5 19.5t24.5 48.5h55q-2 -19 -10 -40t-23.5 -39t-40.5 -29.5t-61 -11.5t-61.5 11.5t-41.5 29.5t-24 39t-9 40h56q4 -26 26 -47t54 -21z" />
    <glyph glyph-name="Aogonek" unicode="&#x104;" horiz-adv-x="592" 
d="M469 -92q0 20 9 43t30 49l-57 165h-312l-29.5 -83l-28.5 -82h-71l126.5 348l127.5 348h62l255 -696h-25q-35 -44 -35 -81q0 -24 14 -36t37 -12q12 0 26 4.5t31 12.5l8 -21t9 -20q-17 -9 -39.5 -16t-46.5 -7q-42 0 -66.5 25t-24.5 59zM293 609q-8 -26 -25 -75l-36 -103
l-41.5 -116.5l-32.5 -91.5h273l-78 225l-57 161h-3z" />
    <glyph glyph-name="aogonek" unicode="&#x105;" horiz-adv-x="483" 
d="M329 -92q0 20 9 43t30 49q0 12 -0.5 24t-0.5 24v1q-19 -29 -60 -42t-92 -13q-78 0 -126.5 38t-48.5 106q0 29 10 55t30 45.5t49.5 30.5t69.5 11h169v64q0 48 -29.5 73t-99.5 25q-83 0 -128 -46l-40 43q29 31 72 46.5t95 15.5q39 0 74 -7t61.5 -24.5t42 -48t15.5 -77.5
v-344q-26 -20 -38 -45t-12 -36q0 -24 14 -36t37 -12q12 0 26 4.5t31 12.5l8 -21t9 -20q-17 -9 -39.5 -16t-46.5 -7q-42 0 -66.5 25t-24.5 59zM214 228q-54 0 -84 -22t-30 -65t32 -67t91 -24q24 0 49.5 4t47 15.5t35 30.5t13.5 49v79h-154z" />
    <glyph glyph-name="Cacute" unicode="&#x106;" horiz-adv-x="536" 
d="M230 766l142 115l47 -49l-160 -98zM520 138q-26 -67 -84 -105.5t-140 -38.5q-64 0 -110 20.5t-76 55.5t-44 81.5t-14 97.5v199q0 51 14.5 96.5t44.5 80.5t76 55.5t109 20.5q81 0 138 -38t84 -101l-63 -29q-19 46 -59.5 75t-98.5 29q-47 0 -81 -16t-55.5 -42.5
t-31.5 -61.5t-10 -72v-193q0 -38 10 -73t31 -62t55 -43.5t82 -16.5q59 0 99.5 30t60.5 81z" />
    <glyph glyph-name="cacute" unicode="&#x107;" horiz-adv-x="423" 
d="M406 57q-30 -29 -68.5 -46t-85.5 -17q-42 0 -82.5 13.5t-71.5 44t-50 78.5t-19 117t19 117.5t50 78.5t71.5 44t82.5 14q47 0 85 -17t68 -45l-41 -46q-20 21 -48.5 34.5t-58.5 13.5q-79 0 -122 -48.5t-43 -145.5q0 -96 43 -145.5t122 -49.5q32 0 60 15.5t47 33.5zM200 573
l75 166l66 -22l-100 -160z" />
    <glyph glyph-name="Ccircumflex" unicode="&#x108;" horiz-adv-x="536" 
d="M297 820l-138 -85l-23 29l141 119h45l135 -117l-24 -30zM520 138q-26 -67 -84 -105.5t-140 -38.5q-64 0 -110 20.5t-76 55.5t-44 81.5t-14 97.5v199q0 51 14.5 96.5t44.5 80.5t76 55.5t109 20.5q81 0 138 -38t84 -101l-63 -29q-19 46 -59.5 75t-98.5 29q-47 0 -81 -16
t-55.5 -42.5t-31.5 -61.5t-10 -72v-193q0 -38 10 -73t31 -62t55 -43.5t82 -16.5q59 0 99.5 30t60.5 81z" />
    <glyph glyph-name="ccircumflex" unicode="&#x109;" horiz-adv-x="423" 
d="M406 57q-30 -29 -68.5 -46t-85.5 -17q-42 0 -82.5 13.5t-71.5 44t-50 78.5t-19 117t19 117.5t50 78.5t71.5 44t82.5 14q47 0 85 -17t68 -45l-41 -46q-20 21 -48.5 34.5t-58.5 13.5q-79 0 -122 -48.5t-43 -145.5q0 -96 43 -145.5t122 -49.5q32 0 60 15.5t47 33.5zM239 657
l-131 -103l-30 30l141 138h46l134 -137l-30 -30z" />
    <glyph glyph-name="Cdotaccent" unicode="&#x10a;" horiz-adv-x="536" 
d="M254 766v71h72v-71h-72zM520 138q-26 -67 -84 -105.5t-140 -38.5q-64 0 -110 20.5t-76 55.5t-44 81.5t-14 97.5v199q0 51 14.5 96.5t44.5 80.5t76 55.5t109 20.5q81 0 138 -38t84 -101l-63 -29q-19 46 -59.5 75t-98.5 29q-47 0 -81 -16t-55.5 -42.5t-31.5 -61.5t-10 -72
v-193q0 -38 10 -73t31 -62t55 -43.5t82 -16.5q59 0 99.5 30t60.5 81z" />
    <glyph glyph-name="cdotaccent" unicode="&#x10b;" horiz-adv-x="423" 
d="M406 57q-30 -29 -68.5 -46t-85.5 -17q-42 0 -82.5 13.5t-71.5 44t-50 78.5t-19 117t19 117.5t50 78.5t71.5 44t82.5 14q47 0 85 -17t68 -45l-41 -46q-20 21 -48.5 34.5t-58.5 13.5q-79 0 -122 -48.5t-43 -145.5q0 -96 43 -145.5t122 -49.5q32 0 60 15.5t47 33.5zM212 602
v72h72v-72h-72z" />
    <glyph glyph-name="Ccaron" unicode="&#x10c;" horiz-adv-x="536" 
d="M429 885l24 -30l-135 -118h-45l-141 119l23 30l138 -86zM520 138q-26 -67 -84 -105.5t-140 -38.5q-64 0 -110 20.5t-76 55.5t-44 81.5t-14 97.5v199q0 51 14.5 96.5t44.5 80.5t76 55.5t109 20.5q81 0 138 -38t84 -101l-63 -29q-19 46 -59.5 75t-98.5 29q-47 0 -81 -16
t-55.5 -42.5t-31.5 -61.5t-10 -72v-193q0 -38 10 -73t31 -62t55 -43.5t82 -16.5q59 0 99.5 30t60.5 81z" />
    <glyph glyph-name="ccaron" unicode="&#x10d;" horiz-adv-x="423" 
d="M406 57q-30 -29 -68.5 -46t-85.5 -17q-42 0 -82.5 13.5t-71.5 44t-50 78.5t-19 117t19 117.5t50 78.5t71.5 44t82.5 14q47 0 85 -17t68 -45l-41 -46q-20 21 -48.5 34.5t-58.5 13.5q-79 0 -122 -48.5t-43 -145.5q0 -96 43 -145.5t122 -49.5q32 0 60 15.5t47 33.5zM371 722
l31 -29l-135 -138h-45l-141 139l30 29l131 -102z" />
    <glyph glyph-name="Dcaron" unicode="&#x10e;" horiz-adv-x="612" 
d="M394 885l24 -30l-134 -118h-46l-141 119l24 30l137 -86zM304 696q78 0 138 -30t92 -98q18 -38 22 -90t4 -118q0 -74 -3.5 -128.5t-20.5 -95.5q-17 -39 -42 -65t-57 -41.5t-69.5 -22.5t-79.5 -7h-211v696h227zM492 414q0 62 -14 104.5t-39.5 68t-61.5 36.5t-79 11h-153
v-572h153q54 0 91.5 15.5t60 44t32.5 68t10 87.5v137z" />
    <glyph glyph-name="dcaron" unicode="&#x10f;" horiz-adv-x="580" 
d="M526 545h-39l33 90h-26v89h81v-89zM367 0v70h-2q-16 -23 -33 -38t-35.5 -23.5t-37 -11.5t-37.5 -3q-53 0 -88 21t-56 56t-29.5 80.5t-8.5 93.5q0 47 8.5 93t30.5 82t59 58.5t94 22.5q49 0 78 -18.5t55 -50.5h2v293h63v-725h-63zM367 247q0 35 -5.5 69.5t-19.5 61.5
t-39.5 44t-64.5 17q-43 0 -69 -17.5t-40 -45.5t-18.5 -61.5t-4.5 -66.5q0 -31 4 -65t17.5 -62.5t40 -47t70.5 -18.5q42 0 67 19t39 47.5t18.5 62t4.5 63.5z" />
    <glyph glyph-name="Dcroat" unicode="&#x110;" horiz-adv-x="612" 
d="M304 696q78 0 138 -30t92 -98q18 -38 22 -90t4 -118q0 -74 -3.5 -128.5t-20.5 -95.5q-17 -39 -42 -65t-57 -41.5t-69.5 -22.5t-79.5 -7h-211v340h-68v50h68v306h227zM492 414q0 62 -14 104.5t-39.5 68t-61.5 36.5t-79 11h-153v-244h127v-50h-127v-278h153q54 0 91.5 15.5
t60 44t32.5 68t10 87.5v137z" />
    <glyph glyph-name="dcroat" unicode="&#x111;" horiz-adv-x="481" 
d="M260 618h107v107h63v-107h55v-45h-55v-573h-63v70h-2q-16 -23 -33 -38t-35.5 -23.5t-37 -11.5t-37.5 -3q-53 0 -88 21t-56 56t-29.5 80.5t-8.5 93.5q0 47 8.5 93t30.5 82t59 58.5t94 22.5q49 0 78 -18.5t55 -50.5h2v141h-107v45zM367 247q0 35 -5.5 69.5t-19.5 61.5
t-39.5 44t-64.5 17q-43 0 -69 -17.5t-40 -45.5t-18.5 -61.5t-4.5 -66.5q0 -31 4 -65t17.5 -62.5t40 -47t70.5 -18.5q42 0 67 19t39 47.5t18.5 62t4.5 63.5z" />
    <glyph glyph-name="Emacron" unicode="&#x112;" horiz-adv-x="536" 
d="M77 0v696h432v-62h-364v-252h310v-60h-310v-260h364v-62h-432zM165 775v58h262v-58h-262z" />
    <glyph glyph-name="emacron" unicode="&#x113;" horiz-adv-x="483" 
d="M105 231q-1 -37 7 -70t27 -57.5t48.5 -39t70.5 -14.5q27 0 59 11.5t57 31.5l39 -43q-33 -29 -72 -42.5t-81 -13.5q-38 0 -76.5 10.5t-70 38t-51.5 76.5t-20 127q0 74 18.5 123t47.5 78.5t65 41.5t71 12q45 0 81.5 -16t63 -45t41 -70t14.5 -90v-49h-339zM378 283
q-2 81 -38 120.5t-95 39.5q-61 0 -98.5 -41t-41.5 -119h273zM124 597v58h261v-58h-261z" />
    <glyph glyph-name="Ebreve" unicode="&#x114;" horiz-adv-x="536" 
d="M77 0v696h432v-62h-364v-252h310v-60h-310v-260h364v-62h-432zM215 850q3 -25 25 -46.5t55 -21.5q37 0 57.5 21.5t22.5 46.5h55q-2 -19 -10 -40t-23.5 -38.5t-40.5 -29t-61 -11.5q-37 0 -62.5 11.5t-41.5 29t-23.5 38.5t-8.5 40h56z" />
    <glyph glyph-name="ebreve" unicode="&#x115;" horiz-adv-x="483" 
d="M105 231q-1 -37 7 -70t27 -57.5t48.5 -39t70.5 -14.5q27 0 59 11.5t57 31.5l39 -43q-33 -29 -72 -42.5t-81 -13.5q-38 0 -76.5 10.5t-70 38t-51.5 76.5t-20 127q0 74 18.5 123t47.5 78.5t65 41.5t71 12q45 0 81.5 -16t63 -45t41 -70t14.5 -90v-49h-339zM378 283
q-2 81 -38 120.5t-95 39.5q-61 0 -98.5 -41t-41.5 -119h273zM167 686q4 -27 26 -47.5t54 -20.5q35 0 55.5 19.5t23.5 48.5h56q-2 -19 -10 -40t-23.5 -39t-40.5 -29.5t-61 -11.5q-37 0 -62.5 11.5t-41.5 29.5t-24 39t-9 40h57z" />
    <glyph glyph-name="Edotaccent" unicode="&#x116;" horiz-adv-x="536" 
d="M77 0v696h432v-62h-364v-252h310v-60h-310v-260h364v-62h-432zM252 766v71h72v-71h-72z" />
    <glyph glyph-name="edotaccent" unicode="&#x117;" horiz-adv-x="483" 
d="M105 231q-1 -37 7 -70t27 -57.5t48.5 -39t70.5 -14.5q27 0 59 11.5t57 31.5l39 -43q-33 -29 -72 -42.5t-81 -13.5q-38 0 -76.5 10.5t-70 38t-51.5 76.5t-20 127q0 74 18.5 123t47.5 78.5t65 41.5t71 12q45 0 81.5 -16t63 -45t41 -70t14.5 -90v-49h-339zM378 283
q-2 81 -38 120.5t-95 39.5q-61 0 -98.5 -41t-41.5 -119h273zM210 602v72h72v-72h-72z" />
    <glyph glyph-name="Eogonek" unicode="&#x118;" horiz-adv-x="536" 
d="M421 -92q0 20 8.5 42.5t29.5 49.5h-382v696h432v-62h-364v-252h310v-60h-310v-260h364v-62q-36 -47 -36 -81q0 -24 14.5 -36t37.5 -12q12 0 25.5 4.5t30.5 12.5l17 -42q-17 -9 -39.5 -16t-45.5 -7q-42 0 -67 25t-25 60z" />
    <glyph glyph-name="eogonek" unicode="&#x119;" horiz-adv-x="483" 
d="M297 -65q0 14 4.5 31t15.5 35q-27 -7 -57 -7q-38 0 -76.5 10.5t-70 38t-51.5 76.5t-20 127q0 74 18.5 123t47.5 78.5t65 41.5t71 12q45 0 81.5 -16t63 -45t41 -70t14.5 -90v-49h-339v-9q0 -35 9 -66.5t27.5 -55t47.5 -37t69 -13.5q27 0 59 11.5t57 31.5l39 -43
q-6 -6 -13 -11.5t-15 -10.5q-35 -46 -35 -81q0 -24 14 -36t37 -12q13 0 26 4.5t31 12.5l17 -42q-17 -9 -40 -16t-46 -7q-42 0 -67 25t-25 59zM378 283q-2 81 -38 120.5t-95 39.5q-61 0 -98.5 -41t-41.5 -119h273z" />
    <glyph glyph-name="Ecaron" unicode="&#x11a;" horiz-adv-x="536" 
d="M77 0v696h432v-62h-364v-252h310v-60h-310v-260h364v-62h-432zM423 885l24 -30l-135 -118h-45l-141 119l23 30l138 -86z" />
    <glyph glyph-name="ecaron" unicode="&#x11b;" horiz-adv-x="483" 
d="M105 231q-1 -37 7 -70t27 -57.5t48.5 -39t70.5 -14.5q27 0 59 11.5t57 31.5l39 -43q-33 -29 -72 -42.5t-81 -13.5q-38 0 -76.5 10.5t-70 38t-51.5 76.5t-20 127q0 74 18.5 123t47.5 78.5t65 41.5t71 12q45 0 81.5 -16t63 -45t41 -70t14.5 -90v-49h-339zM378 283
q-2 81 -38 120.5t-95 39.5q-61 0 -98.5 -41t-41.5 -119h273zM376 722l31 -29l-135 -138h-45l-141 139l30 29l131 -102z" />
    <glyph glyph-name="Gcircumflex" unicode="&#x11c;" horiz-adv-x="592" 
d="M296 820l-137 -85l-24 29l142 119h45l134 -117l-24 -30zM296 53q39 0 71 15t55.5 40.5t36 58t12.5 68.5v67h-152v61h220v-124q0 -53 -17.5 -98t-49 -78t-77 -51.5t-100.5 -18.5q-63 0 -109 20.5t-76 56t-44.5 82t-14.5 97.5v199q0 51 15 96.5t45.5 80.5t76 55.5
t107.5 20.5q81 0 138 -38t83 -101q-1 -1 -10.5 -5t-20.5 -9.5t-20.5 -9.5t-10.5 -5q-20 46 -60.5 75t-97.5 29q-45 0 -78.5 -16t-55.5 -42.5t-33 -61.5t-11 -72v-197q0 -38 11 -73t33 -62t55.5 -43.5t78.5 -16.5z" />
    <glyph glyph-name="gcircumflex" unicode="&#x11d;" horiz-adv-x="505" 
d="M438 6q0 -56 -17.5 -96t-46.5 -65.5t-68 -37.5t-81 -12q-39 0 -76.5 14.5t-68.5 42.5l41 46q20 -17 48 -30.5t59 -13.5q62 0 103.5 36t42.5 105v78h-2q-27 -39 -62 -58.5t-83 -19.5q-53 0 -87.5 21t-55 55.5t-28.5 78.5t-9 90q-1 49 7 96t28.5 84t55.5 59.5t89 22.5
q37 0 76.5 -15.5t68.5 -58.5h2v68h63zM112 248q0 -33 4.5 -67t19 -61.5t40.5 -45t69 -17.5q39 0 64 17t39.5 44t20 61.5t5.5 69.5q0 30 -4.5 63.5t-18.5 62t-39 47.5t-67 19q-44 0 -70.5 -18.5t-40.5 -47t-18 -62.5t-4 -65zM247 657l-130 -103l-31 30l142 138h45l134 -137
l-30 -30z" />
    <glyph glyph-name="Gbreve" unicode="&#x11e;" horiz-adv-x="592" 
d="M217 850q3 -25 24.5 -46.5t55.5 -21.5q36 0 56.5 21.5t22.5 46.5h56q-2 -19 -10 -40t-23.5 -38.5t-40.5 -29t-61 -11.5q-37 0 -62.5 11.5t-41.5 29t-24 38.5t-9 40h57zM296 53q39 0 71 15t55.5 40.5t36 58t12.5 68.5v67h-152v61h220v-124q0 -53 -17.5 -98t-49 -78
t-77 -51.5t-100.5 -18.5q-63 0 -109 20.5t-76 56t-44.5 82t-14.5 97.5v199q0 51 15 96.5t45.5 80.5t76 55.5t107.5 20.5q81 0 138 -38t83 -101q-1 -1 -10.5 -5t-20.5 -9.5t-20.5 -9.5t-10.5 -5q-20 46 -60.5 75t-97.5 29q-45 0 -78.5 -16t-55.5 -42.5t-33 -61.5t-11 -72
v-197q0 -38 11 -73t33 -62t55.5 -43.5t78.5 -16.5z" />
    <glyph glyph-name="gbreve" unicode="&#x11f;" horiz-adv-x="505" 
d="M438 6q0 -56 -17.5 -96t-46.5 -65.5t-68 -37.5t-81 -12q-39 0 -76.5 14.5t-68.5 42.5l41 46q20 -17 48 -30.5t59 -13.5q62 0 103.5 36t42.5 105v78h-2q-27 -39 -62 -58.5t-83 -19.5q-53 0 -87.5 21t-55 55.5t-28.5 78.5t-9 90q-1 49 7 96t28.5 84t55.5 59.5t89 22.5
q37 0 76.5 -15.5t68.5 -58.5h2v68h63zM112 248q0 -33 4.5 -67t19 -61.5t40.5 -45t69 -17.5q39 0 64 17t39.5 44t20 61.5t5.5 69.5q0 30 -4.5 63.5t-18.5 62t-39 47.5t-67 19q-44 0 -70.5 -18.5t-40.5 -47t-18 -62.5t-4 -65zM183 686q4 -27 26 -47.5t54 -20.5q35 0 55.5 19.5
t24.5 48.5h55q-3 -19 -10.5 -40t-23.5 -39t-40.5 -29.5t-60.5 -11.5q-37 0 -62.5 11.5t-41.5 29.5t-23.5 39t-8.5 40h56z" />
    <glyph glyph-name="Gdotaccent" unicode="&#x120;" horiz-adv-x="592" 
d="M254 766v71h72v-71h-72zM296 53q39 0 71 15t55.5 40.5t36 58t12.5 68.5v67h-152v61h220v-124q0 -53 -17.5 -98t-49 -78t-77 -51.5t-100.5 -18.5q-63 0 -109 20.5t-76 56t-44.5 82t-14.5 97.5v199q0 51 15 96.5t45.5 80.5t76 55.5t107.5 20.5q81 0 138 -38t83 -101
q-1 -1 -10.5 -5t-20.5 -9.5t-20.5 -9.5t-10.5 -5q-20 46 -60.5 75t-97.5 29q-45 0 -78.5 -16t-55.5 -42.5t-33 -61.5t-11 -72v-197q0 -38 11 -73t33 -62t55.5 -43.5t78.5 -16.5z" />
    <glyph glyph-name="gdotaccent" unicode="&#x121;" horiz-adv-x="505" 
d="M438 6q0 -56 -17.5 -96t-46.5 -65.5t-68 -37.5t-81 -12q-39 0 -76.5 14.5t-68.5 42.5l41 46q20 -17 48 -30.5t59 -13.5q62 0 103.5 36t42.5 105v78h-2q-27 -39 -62 -58.5t-83 -19.5q-53 0 -87.5 21t-55 55.5t-28.5 78.5t-9 90q-1 49 7 96t28.5 84t55.5 59.5t89 22.5
q37 0 76.5 -15.5t68.5 -58.5h2v68h63zM112 248q0 -33 4.5 -67t19 -61.5t40.5 -45t69 -17.5q39 0 64 17t39.5 44t20 61.5t5.5 69.5q0 30 -4.5 63.5t-18.5 62t-39 47.5t-67 19q-44 0 -70.5 -18.5t-40.5 -47t-18 -62.5t-4 -65zM221 602v72h72v-72h-72z" />
    <glyph glyph-name="Gcommaaccent" unicode="&#x122;" horiz-adv-x="592" 
d="M292 -247h-40l34 90h-27v89h82v-89zM296 53q39 0 71 15t55.5 40.5t36 58t12.5 68.5v67h-152v61h220v-124q0 -53 -17.5 -98t-49 -78t-77 -51.5t-100.5 -18.5q-63 0 -109 20.5t-76 56t-44.5 82t-14.5 97.5v199q0 51 15 96.5t45.5 80.5t76 55.5t107.5 20.5q81 0 138 -38
t83 -101q-1 -1 -10.5 -5t-20.5 -9.5t-20.5 -9.5t-10.5 -5q-20 46 -60.5 75t-97.5 29q-45 0 -78.5 -16t-55.5 -42.5t-33 -61.5t-11 -72v-197q0 -38 11 -73t33 -62t55.5 -43.5t78.5 -16.5z" />
    <glyph glyph-name="gcommaaccent" unicode="&#x123;" horiz-adv-x="505" 
d="M269 742h40l-33 -89h26v-90h-82v89zM438 6q0 -56 -17.5 -96t-46.5 -65.5t-68 -37.5t-81 -12q-39 0 -76.5 14.5t-68.5 42.5l41 46q20 -17 48 -30.5t59 -13.5q62 0 103.5 36t42.5 105v78h-2q-27 -39 -62 -58.5t-83 -19.5q-53 0 -87.5 21t-55 55.5t-28.5 78.5t-9 90
q-1 49 7 96t28.5 84t55.5 59.5t89 22.5q37 0 76.5 -15.5t68.5 -58.5h2v68h63zM112 248q0 -33 4.5 -67t19 -61.5t40.5 -45t69 -17.5q39 0 64 17t39.5 44t20 61.5t5.5 69.5q0 30 -4.5 63.5t-18.5 62t-39 47.5t-67 19q-44 0 -70.5 -18.5t-40.5 -47t-18 -62.5t-4 -65z" />
    <glyph glyph-name="Hcircumflex" unicode="&#x124;" horiz-adv-x="631" 
d="M485 0v322h-340v-322h-68v696h68v-314h340v314h68v-696h-68zM313 820l-138 -85l-23 29l141 119h45l135 -117l-24 -30z" />
    <glyph glyph-name="hcircumflex" unicode="&#x125;" horiz-adv-x="537" 
d="M413 0v307q0 63 -34.5 97.5t-94.5 34.5q-57 0 -94 -37.5t-37 -101.5v-300h-63v725h63v-301h2q26 40 65.5 58.5t81.5 18.5q35 0 66.5 -11t55.5 -32.5t38 -53.5t14 -74v-330h-63zM119 820l-136 -85l-24 29l141 119h45l134 -117l-24 -30z" />
    <glyph glyph-name="Hbar" unicode="&#x126;" horiz-adv-x="631" 
d="M485 0v322h-340v-322h-68v548h-52v47h52v101h68v-101h340v101h68v-101h55v-47h-55v-548h-68zM485 382v166h-340v-166h340z" />
    <glyph glyph-name="hbar" unicode="&#x127;" horiz-adv-x="507" 
d="M383 0v307q0 63 -29 97.5t-95 34.5q-28 0 -52.5 -10t-43 -28.5t-29.5 -44.5t-11 -58v-298h-63v583h-60v48h60v94h63v-94h229v-48h-229v-161h3q25 40 66 59.5t83 19.5q38 0 70 -11t54.5 -32.5t35 -53.5t12.5 -74v-330h-64z" />
    <glyph glyph-name="Imacron" unicode="&#x12a;" horiz-adv-x="227" 
d="M79 0v696h68v-696h-68zM-15 775v58h261v-58h-261z" />
    <glyph glyph-name="Ibreve" unicode="&#x12c;" horiz-adv-x="271" 
d="M51 850q3 -25 25 -46.5t55 -21.5q37 0 57.5 21.5t22.5 46.5h55q-2 -19 -10 -40t-23.5 -38.5t-40.5 -29t-61 -11.5t-61.5 11.5t-41.5 29t-24 38.5t-9 40h56zM95 0v696h68v-696h-68z" />
    <glyph glyph-name="Iogonek" unicode="&#x12e;" horiz-adv-x="227" 
d="M40 -92q0 20 9 43t30 49v696h67v-696h-16q-17 -22 -27.5 -43t-10.5 -38q0 -24 14 -36t37 -12q12 0 26 4.5t31 12.5l8 -21t9 -20q-17 -9 -40 -16t-46 -7q-42 0 -66.5 25t-24.5 59z" />
    <glyph glyph-name="iogonek" unicode="&#x12f;" horiz-adv-x="212" 
d="M36 -91q0 20 8.5 42.5t29.5 48.5v496h63v-496q-28 -22 -39 -45.5t-11 -34.5q0 -24 14.5 -36.5t37.5 -12.5q12 0 25.5 4.5t30.5 12.5l17 -40q-17 -10 -39.5 -16.5t-45.5 -6.5q-42 0 -66.5 24.5t-24.5 59.5zM72 696h66v-65h-66v65z" />
    <glyph glyph-name="Idotaccent" unicode="&#x130;" horiz-adv-x="227" 
d="M79 0v696h68v-696h-68zM76 766v71h72v-71h-72z" />
    <glyph glyph-name="IJ" unicode="&#x132;" horiz-adv-x="666" 
d="M79 0v696h68v-696h-68zM597 205q0 -60 -17.5 -100t-47 -65t-68.5 -35.5t-82 -10.5q-48 0 -86 17.5t-67 46.5l50 45q23 -20 47 -32.5t53 -12.5q30 0 57 7.5t48 25.5t33 49t12 79v477h68v-491z" />
    <glyph glyph-name="ij" unicode="&#x133;" horiz-adv-x="427" 
d="M73 631v65h66v-65h-66zM74 0v496h64v-496h-64zM281 631v65h66v-65h-66zM346 -72q0 -30 -10 -54t-27 -41t-41.5 -26.5t-52.5 -9.5h-26v57h23q33 0 51.5 20.5t18.5 58.5v563h64v-568z" />
    <glyph glyph-name="Jcircumflex" unicode="&#x134;" horiz-adv-x="458" 
d="M389 206q0 -60 -17.5 -100t-47 -65t-68 -35.5t-81.5 -10.5q-48 0 -86.5 17.5t-66.5 46.5l49 45q23 -20 47.5 -32.5t52.5 -12.5q30 0 57 7.5t48 25.5t33 49t12 79v477h68v-491zM354 822l-137 -85l-24 29l141 119h46l134 -117l-24 -30z" />
    <glyph glyph-name="jcircumflex" unicode="&#x135;" horiz-adv-x="299" 
d="M24 -146q2 0 7 -0.5t9 -0.5q36 0 56.5 20t20.5 60v562h64v-567q0 -30 -10 -54t-27 -41t-41.5 -26.5t-52.5 -9.5h-26v57zM278 555l-64.5 50l-64.5 51l-65 -51l-64 -51l-30 29l139 139h45l135 -138z" />
    <glyph glyph-name="Kcommaaccent" unicode="&#x136;" horiz-adv-x="612" 
d="M519 0q-10 16 -27 45.5l-39 65.5l-45 75.5l-45 75.5l-39.5 65.5l-26.5 45.5l-32 -38.5l-44.5 -54l-44.5 -54l-31 -38.5v-188h-68v696h68v-410h2l150 184l187 226h77l-26.5 -32l-39 -47.5l-45.5 -55.5l-45.5 -55.5l-38.5 -47.5l-26 -32q10 -18 30.5 -51.5l45.5 -75
l52.5 -87l52.5 -86.5l45 -74.5l31 -51.5h-78zM303 -227h-39q1 6 6 18.5t10 26.5t10 26.5t7 18.5h-26v89h81v-89z" />
    <glyph glyph-name="kcommaaccent" unicode="&#x137;" horiz-adv-x="493" 
d="M413 0l-173 266l-23 -25.5l-31.5 -34.5l-31.5 -34.5t-22 -25.5v-146h-63v724h63v-495h2l30 33l42 46.5l47.5 53.5l47.5 53.5l41.5 47l29.5 33.5h75l-165 -185l24 -37.5l36 -54.5l41.5 -63.5l41.5 -63.5l36 -54.5l25 -37.5h-73zM255 -247h-40q2 6 7 18.5l10.5 26.5
l10 26.5t6.5 18.5h-27v89h82v-89z" />
    <glyph glyph-name="kgreenlandic" unicode="&#x138;" horiz-adv-x="493" 
d="M414 0l-36 55l-51 78l-51.5 78t-35.5 55l-23 -25.5l-31.5 -34.5l-31.5 -34.5t-22 -25.5v-146h-63v496h63v-267h2l30 33l42 46.5l47.5 53.5l47.5 53.5l41.5 47l29.5 33.5h75l-165 -185l205 -311h-73z" />
    <glyph glyph-name="Lacute" unicode="&#x139;" horiz-adv-x="536" 
d="M77 0v696h68v-634h364v-62h-432zM80 766l142 115l47 -49l-160 -98z" />
    <glyph glyph-name="lacute" unicode="&#x13a;" horiz-adv-x="231" 
d="M187 0q-54 0 -86 24t-32 84v616h63v-609q0 -28 15.5 -43.5t48.5 -15.5h16v-56h-25zM71 778l70.5 57.5l70.5 57.5l48 -49l-80.5 -49l-80.5 -49z" />
    <glyph glyph-name="Lcommaaccent" unicode="&#x13b;" horiz-adv-x="536" 
d="M77 0v696h68v-634h364v-62h-432zM285 -247h-40l34 90h-27v89h82v-89z" />
    <glyph glyph-name="lcommaaccent" unicode="&#x13c;" horiz-adv-x="231" 
d="M88 -246l17.5 45t16.5 45h-26v88h81v-88l-24.5 -45l-24.5 -45h-40zM187 0q-54 0 -86 24t-32 84v616h63v-609q0 -28 15.5 -43.5t48.5 -15.5h16v-56h-25z" />
    <glyph glyph-name="Lcaron" unicode="&#x13d;" horiz-adv-x="536" 
d="M77 0v696h68v-634h364v-62h-432zM376 518h-39l33 89h-27v89h82v-88z" />
    <glyph glyph-name="lcaron" unicode="&#x13e;" horiz-adv-x="299" 
d="M203 545l33 90h-26v88h81v-88l-24 -45l-25 -45h-39zM187 0q-54 0 -86 24t-32 84v616h63v-609q0 -28 15.5 -43.5t48.5 -15.5h16v-56h-25z" />
    <glyph glyph-name="Ldot" unicode="&#x13f;" horiz-adv-x="536" 
d="M77 0v696h68v-634h364v-62h-432zM301 329v70h71v-70h-71z" />
    <glyph glyph-name="ldot" unicode="&#x140;" horiz-adv-x="319" 
d="M222 346v71h71v-71h-71zM188 0q-54 0 -86.5 24t-32.5 85v615h64v-608q0 -59 64 -59h16v-57h-25z" />
    <glyph glyph-name="Lslash" unicode="&#x141;" horiz-adv-x="562" 
d="M104 0v254l-83 -47l-27 46l110 63v380h67v-341l130 76l26 -46l-156 -91v-232h364v-62h-431z" />
    <glyph glyph-name="lslash" unicode="&#x142;" horiz-adv-x="300" 
d="M227 0q-54 0 -86 24t-32 85v197l-83 -48l-26 46q4 2 17.5 10l31 18l34 19.5l26.5 15.5v357h63v-321l102 59l26 -46l-128 -74v-226q0 -59 64 -59h16v-57h-25z" />
    <glyph glyph-name="Nacute" unicode="&#x143;" horiz-adv-x="668" 
d="M267 392l-120 188q-1 0 -1 -0.5t-1 -0.5v-579h-67v696h67l252 -384l27 -42.5l36 -57l36 -56.5l27 -43l2 2v581h66v-696h-66zM273 765l71 57.5l71 57.5l47 -49l-80.5 -49.5l-80.5 -48.5z" />
    <glyph glyph-name="nacute" unicode="&#x144;" horiz-adv-x="504" 
d="M381 0v307q0 63 -35.5 97.5t-93.5 34.5q-57 0 -93.5 -38t-36.5 -101v-300h-64v496h64v-70h3q25 40 64 57.5t81 17.5q35 0 67 -11.5t56 -33t38 -53.5t14 -72v-331h-64zM202 573l76 166l65 -22l-100 -160z" />
    <glyph glyph-name="Ncommaaccent" unicode="&#x145;" horiz-adv-x="668" 
d="M267 392l-120 188q-1 0 -1 -0.5t-1 -0.5v-579h-67v696h67l252 -384l27 -42.5l36 -57l36 -56.5l27 -43l2 2v581h66v-696h-66zM283 -219l33 89h-26v89h81v-88l-24.5 -45l-24.5 -45h-39z" />
    <glyph glyph-name="ncommaaccent" unicode="&#x146;" horiz-adv-x="504" 
d="M381 0v307q0 63 -35.5 97.5t-93.5 34.5q-57 0 -93.5 -38t-36.5 -101v-300h-64v496h64v-70h3q25 40 64 57.5t81 17.5q35 0 67 -11.5t56 -33t38 -53.5t14 -72v-331h-64zM241 -247h-40l34 90h-27v89h82v-89z" />
    <glyph glyph-name="Ncaron" unicode="&#x147;" horiz-adv-x="668" 
d="M267 392l-120 188q-1 0 -1 -0.5t-1 -0.5v-579h-67v696h67l252 -384l27 -42.5l36 -57l36 -56.5l27 -43l2 2v581h66v-696h-66zM333 799l68 43l68 42l24 -30l-135 -118h-44l-70.5 60l-70.5 59l23 30l69 -43z" />
    <glyph glyph-name="ncaron" unicode="&#x148;" horiz-adv-x="504" 
d="M381 0v307q0 63 -35.5 97.5t-93.5 34.5q-57 0 -93.5 -38t-36.5 -101v-300h-64v496h64v-70h3q25 40 64 57.5t81 17.5q35 0 67 -11.5t56 -33t38 -53.5t14 -72v-331h-64zM377 722l30 -29l-134 -138h-45l-142 139l31 29l130 -102z" />
    <glyph glyph-name="napostrophe" unicode="&#x149;" horiz-adv-x="555" 
d="M432 0v307q0 63 -35.5 97.5t-93.5 34.5q-57 0 -93.5 -38t-36.5 -101v-300h-64v496h64v-70h3q25 40 64 57.5t81 17.5q35 0 67 -11.5t56 -33t38 -53.5t14 -72v-331h-64zM27 480h-39l33 90h-26v89h82v-89z" />
    <glyph glyph-name="Eng" unicode="&#x14a;" horiz-adv-x="668" 
d="M486 -119q42 0 42 49v66l-264 401l-117 183q-1 0 -1 -0.5t-1 -0.5v-579h-67v696h67l128 -195l127 -195l62 -96l61 -97l2 2v581h66v-766q0 -55 -28 -79t-67 -24q-43 0 -82 21l17 46q17 -6 30.5 -9.5t24.5 -3.5z" />
    <glyph glyph-name="eng" unicode="&#x14b;" horiz-adv-x="504" 
d="M445 -70q0 -55 -28 -79t-67 -24q-43 0 -82 21l17 46q17 -6 30.5 -9.5t24.5 -3.5q41 0 41 49v377q0 63 -35.5 97.5t-93.5 34.5q-57 0 -93.5 -38t-36.5 -101v-300h-64v496h64v-70h3q25 40 64 57.5t81 17.5q35 0 67 -11.5t56 -33t38 -53.5t14 -72v-401v0z" />
    <glyph glyph-name="Omacron" unicode="&#x14c;" horiz-adv-x="583" 
d="M292 701q57 0 102 -19t76.5 -53t48 -80t16.5 -101v-199q0 -59 -17 -106t-48.5 -80t-76.5 -51t-101 -18q-62 0 -108 20.5t-76 55.5t-45 81.5t-15 97.5v199q0 51 15 96.5t45.5 80.5t76 55.5t107.5 20.5zM293 637q-45 0 -78 -16t-55.5 -42t-33.5 -61t-11 -72v-195
q0 -38 11 -73t33.5 -62t55.5 -43.5t78 -16.5q40 0 72 15t54.5 41t34.5 62.5t12 78.5v193q0 40 -12 75t-34 60.5t-54.5 40.5t-72.5 15zM169 775v58h262v-58h-262z" />
    <glyph glyph-name="omacron" unicode="&#x14d;" horiz-adv-x="502" 
d="M125 597v58h262v-58h-262zM257 500q54 0 95 -21t66 -60q17 -26 27 -69.5t9 -105.5q-1 -59 -12.5 -100t-30.5 -69q-28 -42 -71 -61.5t-94 -19.5q-102 0 -153 66q-24 32 -34.5 77.5t-10.5 109.5q0 56 10 95t29 69q26 42 69 65.5t101 23.5zM254 444q-38 0 -67 -17t-46 -46
q-15 -24 -22.5 -55.5t-7.5 -79.5t7.5 -80.5t21.5 -55.5q17 -28 44.5 -43.5t64.5 -15.5q39 0 70 17t48 55q10 20 16.5 49t6.5 74q0 48 -5.5 77.5t-15.5 49.5q-36 71 -115 71z" />
    <glyph glyph-name="Obreve" unicode="&#x14e;" horiz-adv-x="583" 
d="M292 701q57 0 102 -19t76.5 -53t48 -80t16.5 -101v-199q0 -59 -17 -106t-48.5 -80t-76.5 -51t-101 -18q-62 0 -108 20.5t-76 55.5t-45 81.5t-15 97.5v199q0 51 15 96.5t45.5 80.5t76 55.5t107.5 20.5zM293 637q-45 0 -78 -16t-55.5 -42t-33.5 -61t-11 -72v-195
q0 -38 11 -73t33.5 -62t55.5 -43.5t78 -16.5q40 0 72 15t54.5 41t34.5 62.5t12 78.5v193q0 40 -12 75t-34 60.5t-54.5 40.5t-72.5 15zM217 850q3 -25 25 -46.5t55 -21.5q37 0 57.5 21.5t22.5 46.5h55q-2 -19 -10 -40t-23.5 -38.5t-40.5 -29t-61 -11.5q-37 0 -62.5 11.5
t-41.5 29t-23.5 38.5t-8.5 40h56z" />
    <glyph glyph-name="obreve" unicode="&#x14f;" horiz-adv-x="502" 
d="M173 686q4 -27 26 -47.5t54 -20.5q35 0 55.5 19.5t24.5 48.5h55q-2 -19 -10 -40t-23.5 -39t-40.5 -29.5t-61 -11.5q-37 0 -62.5 11.5t-41.5 29.5t-23.5 39t-8.5 40h56zM257 500q54 0 95 -21t66 -60q17 -26 27 -69.5t9 -105.5q-1 -59 -12.5 -100t-30.5 -69
q-28 -42 -71 -61.5t-94 -19.5q-102 0 -153 66q-24 32 -34.5 77.5t-10.5 109.5q0 56 10 95t29 69q26 42 69 65.5t101 23.5zM254 444q-38 0 -67 -17t-46 -46q-15 -24 -22.5 -55.5t-7.5 -79.5t7.5 -80.5t21.5 -55.5q17 -28 44.5 -43.5t64.5 -15.5q39 0 70 17t48 55
q10 20 16.5 49t6.5 74q0 48 -5.5 77.5t-15.5 49.5q-36 71 -115 71z" />
    <glyph glyph-name="Ohungarumlaut" unicode="&#x150;" horiz-adv-x="583" 
d="M292 701q57 0 102 -19t76.5 -53t48 -80t16.5 -101v-199q0 -59 -17 -106t-48.5 -80t-76.5 -51t-101 -18q-62 0 -108 20.5t-76 55.5t-45 81.5t-15 97.5v199q0 51 15 96.5t45.5 80.5t76 55.5t107.5 20.5zM293 637q-45 0 -78 -16t-55.5 -42t-33.5 -61t-11 -72v-195
q0 -38 11 -73t33.5 -62t55.5 -43.5t78 -16.5q40 0 72 15t54.5 41t34.5 62.5t12 78.5v193q0 40 -12 75t-34 60.5t-54.5 40.5t-72.5 15zM320 766l142 115l47 -49l-160 -98zM184 766l142 115l48 -49l-161 -98z" />
    <glyph glyph-name="ohungarumlaut" unicode="&#x151;" horiz-adv-x="502" 
d="M165 573l75 166l65 -22l-99 -160zM281 573l75 166l65 -22l-100 -160zM257 500q54 0 95 -21t66 -60q17 -26 27 -69.5t9 -105.5q-1 -59 -12.5 -100t-30.5 -69q-28 -42 -71 -61.5t-94 -19.5q-102 0 -153 66q-24 32 -34.5 77.5t-10.5 109.5q0 56 10 95t29 69q26 42 69 65.5
t101 23.5zM254 444q-38 0 -67 -17t-46 -46q-15 -24 -22.5 -55.5t-7.5 -79.5t7.5 -80.5t21.5 -55.5q17 -28 44.5 -43.5t64.5 -15.5q39 0 70 17t48 55q10 20 16.5 49t6.5 74q0 48 -5.5 77.5t-15.5 49.5q-36 71 -115 71z" />
    <glyph glyph-name="Racute" unicode="&#x154;" horiz-adv-x="592" 
d="M484 0l-159 314h-179v-314h-68v696h277q43 0 79.5 -13t63.5 -37.5t42 -58.5t15 -76q0 -74 -44 -124t-116 -67l168 -320h-79zM485 511q0 33 -11.5 57t-31 39t-45.5 22.5t-56 7.5h-195v-263h191q63 0 105.5 35t42.5 102zM224 766l142 115l47 -49l-161 -98z" />
    <glyph glyph-name="racute" unicode="&#x155;" horiz-adv-x="353" 
d="M330 423q-16 9 -33.5 13t-34.5 4q-57 0 -93.5 -36t-36.5 -102v-302h-63v496h63v-74h4q26 47 64 63.5t80 15.5q23 -1 42.5 -5t33.5 -12zM147 573l75 166l65 -22l-100 -160z" />
    <glyph glyph-name="Rcommaaccent" unicode="&#x156;" horiz-adv-x="592" 
d="M484 0l-159 314h-179v-314h-68v696h277q43 0 79.5 -13t63.5 -37.5t42 -58.5t15 -76q0 -74 -44 -124t-116 -67l168 -320h-79zM485 511q0 33 -11.5 57t-31 39t-45.5 22.5t-56 7.5h-195v-263h191q63 0 105.5 35t42.5 102zM292 -227h-40l34 90h-27v89h82v-89z" />
    <glyph glyph-name="rcommaaccent" unicode="&#x157;" horiz-adv-x="353" 
d="M330 423q-16 9 -33.5 13t-34.5 4q-57 0 -93.5 -36t-36.5 -102v-302h-63v496h63v-74h4q26 47 64 63.5t80 15.5q23 -1 42.5 -5t33.5 -12zM99 -247h-39l33 90h-27v89h82v-89z" />
    <glyph glyph-name="Rcaron" unicode="&#x158;" horiz-adv-x="592" 
d="M484 0l-159 314h-179v-314h-68v696h277q43 0 79.5 -13t63.5 -37.5t42 -58.5t15 -76q0 -74 -44 -124t-116 -67l168 -320h-79zM485 511q0 33 -11.5 57t-31 39t-45.5 22.5t-56 7.5h-195v-263h191q63 0 105.5 35t42.5 102zM411 885l24 -30l-135 -118h-45l-141 119l23 30
l138 -86z" />
    <glyph glyph-name="rcaron" unicode="&#x159;" horiz-adv-x="353" 
d="M330 423q-16 9 -33.5 13t-34.5 4q-57 0 -93.5 -36t-36.5 -102v-302h-63v496h63v-74h4q26 47 64 63.5t80 15.5q23 -1 42.5 -5t33.5 -12zM314 722l30 -29l-134 -138h-45l-141 139l30 29l131 -102z" />
    <glyph glyph-name="Tcommaaccent" unicode="&#x162;" horiz-adv-x="482" 
d="M276 637v-637h-68v637h-204v59h474v-59h-202zM234 -247h-40l34 90h-27v89h82v-89z" />
    <glyph glyph-name="tcommaaccent" unicode="&#x163;" horiz-adv-x="278" 
d="M92 -246l33 90h-26v88h81v-88l-24.5 -45l-24.5 -45h-39zM201 0q-54 0 -81 30t-27 86v326h-64v54h64v127h63v-127h84v-54h-84v-314q0 -15 2.5 -28t9 -22.5t18.5 -15.5t31 -6h37v-56h-53z" />
    <glyph glyph-name="Tcaron" unicode="&#x164;" horiz-adv-x="482" 
d="M276 637v-637h-68v637h-204v59h474v-59h-202zM377 885l24 -30l-135 -118h-45l-141 119l23 30l138 -86z" />
    <glyph glyph-name="tcaron" unicode="&#x165;" horiz-adv-x="315" 
d="M212 562l17.5 45t16.5 45h-27v88h82v-88l-24.5 -45l-24.5 -45h-40zM201 0q-54 0 -81 30t-27 86v326h-64v54h64v127h63v-127h84v-54h-84v-314q0 -15 2.5 -28t9 -22.5t18.5 -15.5t31 -6h37v-56h-53z" />
    <glyph glyph-name="Tbar" unicode="&#x166;" horiz-adv-x="482" 
d="M276 637v-240h149v-54h-149v-343h-68v343h-151v54h151v240h-204v59h474v-59h-202z" />
    <glyph glyph-name="tbar" unicode="&#x167;" horiz-adv-x="278" 
d="M203 0q-53 0 -81.5 29t-28.5 80v144h-70v52h70v137h-63v54h63v127h64v-127h84v-54h-84v-137h77v-52h-77v-125q0 -14 2.5 -27t9 -22.5t18.5 -15.5t31 -6h37v-57h-52z" />
    <glyph glyph-name="Umacron" unicode="&#x16a;" horiz-adv-x="612" 
d="M550 696v-454q0 -57 -17.5 -102.5t-50 -78t-77.5 -50t-99 -17.5q-58 0 -103.5 19.5t-76.5 53.5t-47 80t-16 99v450h67v-441q0 -39 12 -75t34.5 -63t55.5 -43t75 -16q78 0 126 50.5t48 142.5v445h69zM165 775v58h262v-58h-262z" />
    <glyph glyph-name="umacron" unicode="&#x16b;" horiz-adv-x="515" 
d="M384 0v68h-2q-25 -40 -65 -57t-80 -17q-35 0 -67 11.5t-56.5 33t-39 53t-14.5 72.5v332h64v-307q0 -64 33.5 -99.5t96.5 -35.5q28 0 52 10t41.5 29t27.5 45t10 58v300h62v-496h-63zM128 597v58h262v-58h-262z" />
    <glyph glyph-name="Ubreve" unicode="&#x16c;" horiz-adv-x="612" 
d="M550 696v-454q0 -57 -17.5 -102.5t-50 -78t-77.5 -50t-99 -17.5q-58 0 -103.5 19.5t-76.5 53.5t-47 80t-16 99v450h67v-441q0 -39 12 -75t34.5 -63t55.5 -43t75 -16q78 0 126 50.5t48 142.5v445h69zM226 836q3 -27 25 -47.5t54 -20.5q35 0 55.5 19.5t24.5 48.5h55
q-2 -19 -10 -40t-23.5 -39t-40.5 -29.5t-61 -11.5t-61.5 11.5t-41.5 29.5t-24 39t-9 40h57z" />
    <glyph glyph-name="ubreve" unicode="&#x16d;" horiz-adv-x="515" 
d="M384 0v68h-2q-25 -40 -65 -57t-80 -17q-35 0 -67 11.5t-56.5 33t-39 53t-14.5 72.5v332h64v-307q0 -64 33.5 -99.5t96.5 -35.5q28 0 52 10t41.5 29t27.5 45t10 58v300h62v-496h-63zM176 686q4 -27 25.5 -47.5t53.5 -20.5q35 0 55.5 19.5t25.5 48.5h55q-2 -19 -10 -40
t-23.5 -39t-40.5 -29.5t-62 -11.5q-36 0 -61.5 11.5t-41.5 29.5t-23.5 39t-8.5 40h56z" />
    <glyph glyph-name="Uring" unicode="&#x16e;" horiz-adv-x="612" 
d="M550 696v-454q0 -57 -17.5 -102.5t-50 -78t-77.5 -50t-99 -17.5q-58 0 -103.5 19.5t-76.5 53.5t-47 80t-16 99v450h67v-441q0 -39 12 -75t34.5 -63t55.5 -43t75 -16q78 0 126 50.5t48 142.5v445h69zM309 711q-20 0 -37.5 7.5t-30 20.5t-20 30t-7.5 37q0 19 7.5 36.5
t20 30t30 20t37.5 7.5q19 0 36.5 -7.5t30 -20t20 -30t7.5 -36.5q0 -20 -7.5 -37t-20 -30t-30 -20.5t-36.5 -7.5zM309 864q-25 0 -42 -17t-17 -41q0 -25 17 -42t42 -17t42 17t17 42q0 24 -17 41t-42 17z" />
    <glyph glyph-name="uring" unicode="&#x16f;" horiz-adv-x="515" 
d="M384 0v68h-2q-25 -40 -65 -57t-80 -17q-35 0 -67 11.5t-56.5 33t-39 53t-14.5 72.5v332h64v-307q0 -64 33.5 -99.5t96.5 -35.5q28 0 52 10t41.5 29t27.5 45t10 58v300h62v-496h-63zM254 549q-20 0 -37.5 7.5t-30.5 20.5t-20.5 30t-7.5 37q0 19 7.5 36.5t20.5 30t30.5 20
t37.5 7.5q19 0 36.5 -7.5t30 -20t20 -30t7.5 -36.5q0 -20 -7.5 -37t-20 -30t-30 -20.5t-36.5 -7.5zM254 702q-25 0 -42 -17t-17 -41q0 -25 17 -42t42 -17q24 0 41 17t17 42q0 24 -17 41t-41 17z" />
    <glyph glyph-name="Uhungarumlaut" unicode="&#x170;" horiz-adv-x="612" 
d="M550 696v-454q0 -57 -17.5 -102.5t-50 -78t-77.5 -50t-99 -17.5q-58 0 -103.5 19.5t-76.5 53.5t-47 80t-16 99v450h67v-441q0 -39 12 -75t34.5 -63t55.5 -43t75 -16q78 0 126 50.5t48 142.5v445h69zM314 766l143 115l47 -49l-161 -98zM179 766l142 115l47 -49l-161 -98z
" />
    <glyph glyph-name="uhungarumlaut" unicode="&#x171;" horiz-adv-x="515" 
d="M384 0v68h-2q-25 -40 -65 -57t-80 -17q-35 0 -67 11.5t-56.5 33t-39 53t-14.5 72.5v332h64v-307q0 -64 33.5 -99.5t96.5 -35.5q28 0 52 10t41.5 29t27.5 45t10 58v300h62v-496h-63zM165 573l75 166l65 -22l-99 -160zM281 573l75 166l65 -22l-100 -160z" />
    <glyph glyph-name="Uogonek" unicode="&#x172;" horiz-adv-x="612" 
d="M256 -90q0 18 7 39t25 46q-54 3 -95.5 23.5t-70.5 54t-44 78t-15 95.5v450h67v-441q0 -39 12 -75t34.5 -63t55.5 -43t75 -16q78 0 126 50.5t48 142.5v445h69v-454q0 -53 -15.5 -96t-43 -74.5t-66.5 -51t-87 -23.5q-30 -44 -30 -76q0 -24 14 -36t37 -12q13 0 26.5 4.5
t30.5 12.5l17 -42q-17 -9 -39.5 -16t-46.5 -7q-42 0 -66.5 25t-24.5 60z" />
    <glyph glyph-name="uogonek" unicode="&#x173;" horiz-adv-x="515" 
d="M345 -91q0 20 8.5 43t30.5 49v67h-3q-25 -40 -64.5 -56.5t-79.5 -16.5q-35 0 -67 11t-56.5 32.5t-39 53t-14.5 71.5v333h63v-308q0 -63 34 -99t97 -36q28 0 52 10t41 29t27 45t10 58v301h62v-496q-29 -19 -39 -40.5t-10 -39.5q0 -24 14.5 -36t37.5 -12q12 0 25.5 4.5
t30.5 12.5l17 -40q-17 -10 -39.5 -17t-45.5 -7q-42 0 -67 25t-25 59z" />
    <glyph glyph-name="Wcircumflex" unicode="&#x174;" horiz-adv-x="816" 
d="M624 0h-59l-159 576h-1l-156 -576h-61l-172 696h72l41.5 -180l41.5 -180l49 -213q1 0 1.5 -0.5t1.5 -0.5l56 213l100 361h56l51 -183l51 -182l57 -209h2l22.5 103.5l22.5 103.5l84 367h73zM408 819l-136 -85l-24 29l141 119h45l134 -117l-24 -30z" />
    <glyph glyph-name="wcircumflex" unicode="&#x175;" horiz-adv-x="711" 
d="M517 90l40 141l76 264h70l-19 -59.5l-27.5 -87l-32.5 -101l-32 -101l-27.5 -87.5l-18.5 -59h-62l-16.5 51l-24 73.5l-23.5 73.5t-17 52q-13 38 -24.5 75.5l-24.5 76.5l-24 -76.5l-24 -75.5q-6 -16 -17 -51l-23.5 -74l-23.5 -74t-17 -51h-62l-18.5 59l-27.5 87.5l-32 101
l-32 101l-27.5 87t-18.5 59.5h69l16 -54.5l23 -78.5l23 -78.5l16 -54.5l40 -135h3l21.5 67l20.5 66q6 17 18 54.5l25.5 79.5l25.5 79.5t17 54.5h60q6 -17 17.5 -54.5l25 -78.5l25 -78.5t17.5 -54.5l43 -139h4zM354 656l-131 -102l-30 30q8 7 28 27l42.5 42l42.5 41.5
l28 27.5h45l27 -27.5l40.5 -41l40.5 -41.5t27 -27l-6 -6t-9.5 -9t-10 -9.5l-5.5 -5.5z" />
    <glyph glyph-name="Ycircumflex" unicode="&#x176;" horiz-adv-x="492" 
d="M277 0h-64v287l-209 409h71l107 -216l63 -132q19 35 35.5 71l33.5 72l51.5 102l50.5 103h69l-104.5 -204.5l-103.5 -204.5v-287zM244 819l-137 -85l-23 29l140 119h45l135 -117l-24 -30z" />
    <glyph glyph-name="ycircumflex" unicode="&#x177;" horiz-adv-x="429" 
d="M211 -108q-18 -50 -51.5 -71t-71.5 -21h-26v56h25q23 0 42.5 17t28.5 46l27 83l-183 493h70l81 -229l62 -183h3l27 80.5l37 107.5l77 224h66zM347 555l-64.5 50l-64.5 51l-130 -102l-30 29l140 139h45l135 -138z" />
    <glyph glyph-name="Zacute" unicode="&#x179;" horiz-adv-x="497" 
d="M33 0v60l354 577h-340v59h417v-55l-355 -579h355v-62h-431zM197 766l142 115l47 -49l-160 -98z" />
    <glyph glyph-name="zacute" unicode="&#x17a;" horiz-adv-x="428" 
d="M34 0v52l285 388h-270v56h344v-55l-283 -383h283v-58h-359zM196 573l75 166l65 -22l-99 -160z" />
    <glyph glyph-name="Zdotaccent" unicode="&#x17b;" horiz-adv-x="497" 
d="M33 0v60l354 577h-340v59h417v-55l-355 -579h355v-62h-431zM228 766v71h72v-71h-72z" />
    <glyph glyph-name="zdotaccent" unicode="&#x17c;" horiz-adv-x="428" 
d="M34 0v52l285 388h-270v56h344v-55l-283 -383h283v-58h-359zM186 602v72h72v-72h-72z" />
    <glyph glyph-name="AEacute" unicode="&#x1fc;" horiz-adv-x="948" 
d="M478 0v195h-276l-123 -195h-72l442 696h460v-62h-363v-252h310v-60h-310v-260h363v-62h-431zM240 253h238v378zM593 766l142 115l47 -49l-161 -98z" />
    <glyph glyph-name="aeacute" unicode="&#x1fd;" horiz-adv-x="799" 
d="M430 229q0 -38 8.5 -70.5t27 -56.5t47.5 -38t70 -14q28 0 59.5 11.5t56.5 32.5l40 -45q-33 -29 -72 -42t-82 -13q-25 0 -50.5 4t-49 14.5t-44.5 28t-36 45.5q-20 -39 -67 -65.5t-123 -26.5q-78 0 -126.5 37t-48.5 105q0 29 10 55.5t30 46t49.5 31t69.5 11.5h169v66
q0 47 -29.5 71.5t-93.5 24.5q-42 0 -75.5 -10.5t-56.5 -33.5l-40 43q32 32 77.5 46t91.5 14q57 0 104.5 -17.5t68.5 -63.5q29 45 71 63t84 18q45 0 82 -16.5t63 -45.5t40 -70t14 -90v-50h-339zM215 229q-52 0 -83 -22.5t-31 -65.5t31.5 -67t90.5 -24q29 0 55 6t46 19.5
t32 34.5t12 51v68h-153zM571 443q-62 0 -99 -42t-41 -120h274q-3 81 -39 121.5t-95 40.5zM439 557l-20 7.5t-20 8.5l75 165l65 -22z" />
    <glyph glyph-name="Oslashacute" unicode="&#x1fe;" horiz-adv-x="583" 
d="M292 701q54 0 96 -14.5t71 -40.5l36 53l35 -23l-42 -62q24 -33 35.5 -75t11.5 -91v-199q0 -59 -17 -106t-48.5 -80t-76.5 -51t-101 -18q-59 0 -102.5 18t-73.5 49l-42 -63l-35 23l50 74q-21 32 -31 71.5t-10 82.5v199q0 51 15 96.5t45.5 80.5t76 55.5t107.5 20.5z
M466 446q0 59 -22 102l-289 -430q21 -29 55 -45.5t83 -16.5q43 0 75 15t54 41t33 62.5t11 78.5v193zM293 637q-47 0 -80.5 -16t-55 -42t-32 -61t-10.5 -72v-195q0 -51 16 -92l288 427q-22 23 -53 37t-73 14zM234 766l142 115l47 -49l-161 -98z" />
    <glyph glyph-name="oslashacute" unicode="&#x1ff;" horiz-adv-x="502" 
d="M257 500q75 0 124 -40l41 56l31 -22l-45 -62q3 -3 5.5 -6.5l4.5 -6.5q17 -26 27 -69.5t9 -105.5q-1 -59 -12.5 -100t-30.5 -69q-28 -42 -71 -61.5t-94 -19.5q-79 0 -127 39l-37 -51l-31 23l41 56q-23 32 -33.5 77.5t-10.5 108.5q0 56 10 95t29 69q26 42 69 65.5t101 23.5
zM367 376l-209 -289q34 -36 91 -36q39 0 70 17t48 55q10 20 16.5 49t6.5 74q0 48 -5.5 77.5t-15.5 49.5zM254 444q-38 0 -67 -17t-46 -46q-15 -24 -22.5 -55.5t-7.5 -79.5q0 -43 6 -73t17 -53l210 288q-36 36 -90 36zM225 573l75 166l66 -22l-100 -160z" />
    <glyph glyph-name="imacron" unicode="&#x12b;" horiz-adv-x="242" 
d="M86 0v495h68v-495h-68zM-10 597v58h262v-58h-262z" />
    <glyph glyph-name="ibreve" unicode="&#x12d;" horiz-adv-x="260" 
d="M96 0v495h67v-495h-67zM50 692q4 -27 26 -47.5t54 -20.5q35 0 55.5 19.5t25.5 48.5h54q-2 -19 -9.5 -40t-23.5 -39t-40.5 -29.5t-61.5 -11.5q-36 0 -61.5 11.5t-41.5 29.5t-23.5 39t-8.5 40h55z" />
    <glyph glyph-name="afii10023" unicode="&#x401;" horiz-adv-x="536" 
d="M77 0v696h432v-62h-364v-252h310v-60h-310v-260h364v-62h-432zM349 765v70h72v-70h-72zM170 765v70h72v-70h-72z" />
    <glyph glyph-name="afii10052" unicode="&#x403;" horiz-adv-x="516" 
d="M146 634v-634h-69v696h432v-62h-363zM214 766l142 115l47 -49l-160 -98z" />
    <glyph glyph-name="afii10055" unicode="&#x406;" horiz-adv-x="227" 
d="M79 0v696h68v-696h-68z" />
    <glyph glyph-name="afii10056" unicode="&#x407;" horiz-adv-x="227" 
d="M79 0v696h68v-696h-68zM170 781v72h72v-72h-72zM-14 781v72h71v-72h-71z" />
    <glyph glyph-name="afii10057" unicode="&#x408;" horiz-adv-x="458" 
d="M389 205q0 -60 -17.5 -100t-47 -65t-68 -35.5t-81.5 -10.5q-48 0 -86.5 17.5t-66.5 46.5l49 45q23 -20 47.5 -32.5t52.5 -12.5q30 0 57 7.5t48 25.5t33 49t12 79v477h68v-491z" />
    <glyph glyph-name="afii10017" unicode="&#x410;" horiz-adv-x="592" 
d="M509 0l-29.5 82l-28.5 83h-312l-29.5 -83l-28.5 -82h-71l126.5 348l127.5 348h62l255 -696h-72zM293 609q-8 -26 -25 -75l-36 -103l-41.5 -116.5l-32.5 -91.5h273l-78 225l-57 161h-3z" />
    <glyph glyph-name="afii10019" unicode="&#x412;" horiz-adv-x="592" 
d="M553 190q0 -44 -15 -79t-41 -59.5t-60 -38t-73 -13.5h-287v696h259q49 0 86.5 -13.5t63 -37.5t38.5 -57t13 -72q0 -20 -5 -42t-17.5 -43t-34 -39t-54.5 -30v-3q33 -7 57 -25t39.5 -41.5t23 -50.5t7.5 -52zM145 637v-251h181q69 0 106 35.5t37 90.5q0 53 -36.5 89
t-106.5 36h-181zM145 327v-265h196q36 0 63 10.5t45 28.5t26.5 42.5t8.5 51.5q0 26 -8.5 50t-26.5 42t-45 29t-63 11h-196z" />
    <glyph glyph-name="afii10020" unicode="&#x413;" horiz-adv-x="516" 
d="M146 634v-634h-69v696h432v-62h-363z" />
    <glyph glyph-name="afii10022" unicode="&#x415;" horiz-adv-x="536" 
d="M77 0v696h432v-62h-364v-252h310v-60h-310v-260h364v-62h-432z" />
    <glyph glyph-name="afii10028" unicode="&#x41a;" horiz-adv-x="573" 
d="M74 0v694h67v-308h140q18 0 36 4t35.5 15t32.5 32t26 54l65 203h67l-63 -201q-16 -51 -40.5 -85.5t-59.5 -45.5q46 -13 69.5 -49.5t38.5 -87.5l67 -225h-73l-63 217q-10 35 -24 56.5t-30.5 33.5t-35.5 16.5t-40 4.5h-148v-328h-67z" />
    <glyph glyph-name="afii10030" unicode="&#x41c;" horiz-adv-x="745" 
d="M610 543l-2 -1l-39.5 -87.5l-39.5 -87.5l-123 -261h-58l-62.5 132.5l-61.5 133.5l-79 171q0 -1 -2 -1v-542h-66v696h67l152 -327l16 -35l25 -55.5l24.5 -55.5l15.5 -35h2l69 153l164 355h65v-696h-67v543z" />
    <glyph glyph-name="afii10031" unicode="&#x41d;" horiz-adv-x="631" 
d="M485 0v322h-340v-322h-68v696h68v-314h340v314h68v-696h-68z" />
    <glyph glyph-name="afii10032" unicode="&#x41e;" horiz-adv-x="583" 
d="M292 701q57 0 102 -19t76.5 -53t48 -80t16.5 -101v-199q0 -59 -17 -106t-48.5 -80t-76.5 -51t-101 -18q-62 0 -108 20.5t-76 55.5t-45 81.5t-15 97.5v199q0 51 15 96.5t45.5 80.5t76 55.5t107.5 20.5zM293 637q-45 0 -78 -16t-55.5 -42t-33.5 -61t-11 -72v-195
q0 -38 11 -73t33.5 -62t55.5 -43.5t78 -16.5q40 0 72 15t54.5 41t34.5 62.5t12 78.5v193q0 40 -12 75t-34 60.5t-54.5 40.5t-72.5 15z" />
    <glyph glyph-name="afii10033" unicode="&#x41f;" horiz-adv-x="631" 
d="M485 0v637h-340v-637h-68v696h476v-696h-68z" />
    <glyph glyph-name="afii10034" unicode="&#x420;" horiz-adv-x="564" 
d="M553 489q0 -35 -13.5 -71t-40 -64.5t-66 -46.5t-91.5 -18h-196v-289h-68v696h252q42 0 82.5 -11.5t71.5 -36t50 -64t19 -95.5zM481 492q0 36 -11.5 62.5t-32 44t-48 26.5t-58.5 9h-185v-282h189q38 0 65.5 12.5t45.5 32t26.5 44.5t8.5 51z" />
    <glyph glyph-name="afii10035" unicode="&#x421;" horiz-adv-x="536" 
d="M520 138q-26 -67 -84 -105.5t-140 -38.5q-62 0 -108 20.5t-76 55.5t-45 81.5t-15 97.5v199q0 51 15 96.5t45.5 80.5t76.5 55.5t107 20.5q81 0 138 -38t84 -101l-63 -29q-19 46 -59.5 75t-98.5 29q-45 0 -78 -16t-55.5 -42.5t-33.5 -61.5t-11 -72v-193q0 -38 11 -73
t33.5 -62t55.5 -43.5t78 -16.5q59 0 99.5 30t60.5 81z" />
    <glyph glyph-name="afii10036" unicode="&#x422;" horiz-adv-x="482" 
d="M276 637v-637h-68v637h-204v59h474v-59h-202z" />
    <glyph glyph-name="afii10038" unicode="&#x424;" horiz-adv-x="729" 
d="M687 355q0 -69 -20 -123t-57.5 -92t-91 -59.5t-120.5 -24.5v-56h-67v56q-72 4 -126 27.5t-90 62.5t-54 92.5t-18 116.5q0 57 15 110.5t49 96t89 69.5t135 32v33h67v-33q78 -3 133 -27t89.5 -65t50.5 -96t16 -120zM398 113q106 2 165.5 64t59.5 178q0 118 -56.5 184
t-168.5 68v-494zM331 608q-59 -3 -101.5 -22.5t-69.5 -52.5t-40 -78.5t-13 -99.5q0 -53 13.5 -96t40.5 -74t69 -49.5t101 -22.5v495z" />
    <glyph glyph-name="afii10039" unicode="&#x425;" horiz-adv-x="512" 
d="M431 0l-175 303l-176 -303h-75l213 357l-199 339h76l161 -285l161 285h75l-199 -339l213 -357h-75z" />
    <glyph glyph-name="afii10065" unicode="&#x430;" horiz-adv-x="483" 
d="M367 49q-19 -29 -60 -42t-92 -13q-78 0 -126.5 38t-48.5 106q0 29 10 55t30 45.5t49.5 30.5t69.5 11h169v64q0 48 -29.5 73t-99.5 25q-83 0 -128 -46l-40 43q29 31 72 46.5t95 15.5q39 0 74 -7t61.5 -24.5t42 -48t15.5 -77.5v-344h-63v48zM214 228q-54 0 -84 -22t-30 -65
t32 -67t91 -24q24 0 49.5 4t47 15.5t35 30.5t13.5 49v79h-154z" />
    <glyph glyph-name="afii10070" unicode="&#x435;" horiz-adv-x="483" 
d="M105 231q-1 -37 7 -70t27 -57.5t48.5 -39t70.5 -14.5q27 0 59 11.5t57 31.5l39 -43q-33 -29 -72 -42.5t-81 -13.5q-38 0 -76.5 10.5t-70 38t-51.5 76.5t-20 127q0 74 18.5 123t47.5 78.5t65 41.5t71 12q45 0 81.5 -16t63 -45t41 -70t14.5 -90v-49h-339zM378 283
q-2 81 -38 120.5t-95 39.5q-61 0 -98.5 -41t-41.5 -119h273z" />
    <glyph glyph-name="afii10076" unicode="&#x43a;" horiz-adv-x="468" 
d="M57 0v496h64v-220h109q14 0 28 2.5t26.5 10.5t23 22.5t18.5 37.5l45 147h63l-45 -144q-11 -36 -27 -60.5t-45 -32.5q35 -8 51 -34.5t27 -63.5l48 -161h-65l-42 146q-15 48 -38.5 63t-58.5 15h-118v-224h-64z" />
    <glyph glyph-name="afii10080" unicode="&#x43e;" horiz-adv-x="502" 
d="M257 500q54 0 95 -21t66 -60q17 -26 27 -69.5t9 -105.5q-1 -59 -12.5 -100t-30.5 -69q-28 -42 -71 -61.5t-94 -19.5q-102 0 -153 66q-24 32 -34.5 77.5t-10.5 109.5q0 56 10 95t29 69q26 42 69 65.5t101 23.5zM254 444q-38 0 -67 -17t-46 -46q-15 -24 -22.5 -55.5
t-7.5 -79.5t7.5 -80.5t21.5 -55.5q17 -28 44.5 -43.5t64.5 -15.5q39 0 70 17t48 55q10 20 16.5 49t6.5 74q0 48 -5.5 77.5t-15.5 49.5q-36 71 -115 71z" />
    <glyph glyph-name="afii10081" unicode="&#x43f;" horiz-adv-x="526" 
d="M393 0v441h-261v-441h-63v496h387v-496h-63z" />
    <glyph glyph-name="afii10082" unicode="&#x440;" horiz-adv-x="496" 
d="M120 496v-69l2 -1q30 44 68 59.5t76 15.5q53 0 88 -21t55.5 -56t29 -80.5t8.5 -93.5q0 -47 -8.5 -93t-30 -82t-59 -58.5t-94.5 -22.5q-47 0 -77 18t-56 51h-2v-261h-63v694h63zM120 248q0 -35 5.5 -69.5t20 -61.5t40 -44t64.5 -17q42 0 68 17.5t40 45.5t18.5 61.5
t4.5 66.5q0 31 -4 65.5t-18 63t-40 47t-69 18.5q-42 0 -68 -19t-39.5 -48t-18 -62.5t-4.5 -63.5z" />
    <glyph glyph-name="afii10083" unicode="&#x441;" horiz-adv-x="423" 
d="M406 57q-30 -29 -68.5 -46t-85.5 -17q-42 0 -82.5 13.5t-71.5 44t-50 78.5t-19 117t19 117.5t50 78.5t71.5 44t82.5 14q47 0 85 -17t68 -45l-41 -46q-20 21 -48.5 34.5t-58.5 13.5q-79 0 -122 -48.5t-43 -145.5q0 -96 43 -145.5t122 -49.5q32 0 60 15.5t47 33.5l42 -44v0
z" />
    <glyph glyph-name="afii10085" unicode="&#x443;" horiz-adv-x="429" 
d="M211 -108q-18 -50 -51.5 -71t-71.5 -21h-26v56h25q23 0 42.5 17t28.5 46l27 83l-183 493h70l81 -229l62 -183h3l27 80.5l37 107.5l77 224h66l-214 -603v0z" />
    <glyph glyph-name="afii10087" unicode="&#x445;" horiz-adv-x="452" 
d="M354 0l-128 208l-128 -208h-76l167 254l-159 242h76l120 -199l120 199h76l-159 -243l167 -253h-76z" />
    <glyph glyph-name="afii10071" unicode="&#x451;" horiz-adv-x="483" 
d="M105 231q-1 -37 7 -70t27 -57.5t48.5 -39t70.5 -14.5q27 0 59 11.5t57 31.5l39 -43q-33 -29 -72 -42.5t-81 -13.5q-38 0 -76.5 10.5t-70 38t-51.5 76.5t-20 127q0 74 18.5 123t47.5 78.5t65 41.5t71 12q45 0 81.5 -16t63 -45t41 -70t14.5 -90v-49h-339zM378 283
q-2 81 -38 120.5t-95 39.5q-61 0 -98.5 -41t-41.5 -119h273zM302 609v72h72v-72h-72zM117 609v72h72v-72h-72z" />
    <glyph glyph-name="afii10103" unicode="&#x456;" horiz-adv-x="212" 
d="M72 631v65h67v-65h-67zM74 0v496h64v-496h-64z" />
    <glyph glyph-name="afii10104" unicode="&#x457;" horiz-adv-x="196" 
d="M149 602v72h72v-72h-72zM-36 602v72h72v-72h-72zM64 0v495h68v-495h-68z" />
    <glyph glyph-name="afii10105" unicode="&#x458;" horiz-adv-x="231" 
d="M84 631v65h67v-65h-67zM150 -72q0 -30 -10 -54t-27 -41t-41.5 -26.5t-52.5 -9.5h-26v57h23q33 0 51 20.5t18 58.5v563h65v-568z" />
    <glyph glyph-name="afii10110" unicode="&#x45e;" horiz-adv-x="429" 
d="M211 -108q-18 -50 -51.5 -71t-71.5 -21h-26v56h25q23 0 42.5 17t28.5 46l27 83l-183 493h70l81 -229l62 -183h3l27 80.5l37 107.5l77 224h66zM217 617q35 0 56 19.5t25 48.5h54q-2 -19 -10 -40t-23.5 -39t-40.5 -29.5t-61 -11.5t-61 11.5t-41 29.5t-24 39t-9 40h56
q3 -26 25 -47t54 -21z" />
    <glyph glyph-name="afii10053" unicode="&#x404;" horiz-adv-x="532" 
d="M520 138q-26 -67 -84 -105.5t-140 -38.5q-62 0 -108 20.5t-76 55.5t-45 81.5t-15 97.5v199q0 51 15 96.5t45.5 80.5t76.5 55.5t107 20.5q81 0 138 -38t84 -101l-63 -29q-19 46 -59.5 75t-98.5 29q-45 0 -78 -16t-55.5 -42.5t-33.5 -61.5t-11 -72v-63h256v-60h-256v-70
q0 -38 11 -73t33.5 -62t55.5 -43.5t78 -16.5q59 0 99.5 30t60.5 81z" />
    <glyph glyph-name="afii10059" unicode="&#x40a;" horiz-adv-x="922" 
d="M431 0v324h-286v-324h-68v696h68v-309h286v309h68v-309h190q51 0 91.5 -15t68.5 -40.5t42.5 -60.5t14.5 -74q0 -52 -18.5 -89.5t-49 -61.5t-71 -35t-84.5 -11h-252zM835 195q0 25 -9.5 48t-28.5 41t-47 29t-64 11h-187v-262h187q32 0 59 7.5t47 24t31.5 41.5t11.5 60z
" />
    <glyph glyph-name="afii10145" unicode="&#x40f;" horiz-adv-x="627" 
d="M552 696v-696h-201v-164h-76v164h-199v696h68v-634h339v634h69z" />
    <glyph glyph-name="afii10018" unicode="&#x411;" horiz-adv-x="570" 
d="M63 0v696h418v-62h-351v-247h190q52 0 92 -15t68 -40.5t42.5 -60.5t14.5 -74q0 -52 -18.5 -89.5t-49 -61.5t-71 -35t-84.5 -11h-251zM467 195q0 25 -9.5 48t-28.5 41t-47 29t-64 11h-188v-262h187q32 0 59.5 7.5t47.5 24t31.5 41.5t11.5 60z" />
    <glyph glyph-name="afii10021" unicode="&#x414;" horiz-adv-x="701" 
d="M610 59h57v-210h-66v151h-514v-151h-67v202q11 3 23 5.5t23 4.5q28 16 45.5 42t28.5 66.5t17 98t9 137.5l12 291h432v-637zM542 636h-302l-10 -239q-5 -126 -18.5 -208.5t-52.5 -129.5h383v577z" />
    <glyph glyph-name="afii10024" unicode="&#x416;" horiz-adv-x="882" 
d="M407 697h68v-311h115q18 0 36.5 3.5t36 15t32.5 32t25 54.5l66 203h65l-62 -201q-15 -51 -40 -85.5t-61 -45.5q47 -13 70.5 -49.5t38.5 -87.5l67 -225h-73l-63 217q-11 35 -24.5 56.5t-30 33.5t-35.5 16.5t-40 4.5h-123v-328h-68v328h-123q-21 0 -40 -4.5t-35.5 -16.5
t-30.5 -33.5t-24 -56.5l-63 -217h-72l67 225q15 51 38.5 87.5t69.5 49.5q-35 11 -60.5 45.5t-39.5 85.5l-63 201h66l65 -203q10 -34 25.5 -54.5t32.5 -32t35.5 -15t36.5 -3.5h115v311z" />
    <glyph glyph-name="afii10025" unicode="&#x417;" horiz-adv-x="551" 
d="M261 -5q-43 0 -81.5 9.5t-71 28t-56.5 45t-37 59.5l62 30q10 -25 29.5 -46t44.5 -36t54 -23t59 -8q37 0 69 10t55 29.5t36.5 47t13.5 63.5q0 33 -11.5 58.5t-31 43t-46.5 26.5t-58 9h-80v60h78q28 0 53 8.5t43.5 24.5t29.5 39t11 51q0 27 -11.5 48t-32 35.5t-48.5 22
t-61 7.5q-59 0 -107.5 -28t-70.5 -75l-61 29q27 63 90 100.5t149 37.5q57 0 98.5 -13.5t68.5 -37t40.5 -55.5t13.5 -68q0 -18 -5.5 -40.5t-18 -44.5t-32.5 -40.5t-50 -28.5v-3q36 -11 59.5 -31t37 -43t18.5 -47t5 -44q0 -46 -17.5 -84.5t-50 -66.5t-78 -43.5t-101.5 -15.5z
" />
    <glyph glyph-name="afii10026" unicode="&#x418;" horiz-adv-x="658" 
d="M520 0v573q-1 0 -1 0.5t-1 0.5l-189.5 -287l-189.5 -287h-66v696h67v-587l2 -1l193 293.5l194 294.5h58v-696h-67z" />
    <glyph glyph-name="afii10037" unicode="&#x423;" horiz-adv-x="522" 
d="M510 697l-108.5 -287.5l-110.5 -287.5q-15 -40 -31.5 -65.5t-34.5 -40t-38.5 -20t-44.5 -5.5h-49v62h36q30 0 50.5 14t38.5 55q4 9 6.5 17t6.5 16l-105 270l-104 270h73l92 -250l18 -45.5l23 -59.5l23 -59.5t17 -45.5h3l31 85l40 108l98 269h70v0z" />
    <glyph glyph-name="afii10040" unicode="&#x426;" horiz-adv-x="643" 
d="M550 0h-473v696h68v-634h340v634h68v-636h64v-211h-67v151z" />
    <glyph glyph-name="afii10041" unicode="&#x427;" horiz-adv-x="599" 
d="M123 696v-196q0 -78 39.5 -119t115.5 -41q38 0 85 13.5t91 47.5v295h68v-696h-68v336h-2q-51 -33 -98 -44.5t-90 -11.5q-45 0 -83 13t-65.5 39.5t-43.5 65.5t-16 92v206h67z" />
    <glyph glyph-name="afii10042" unicode="&#x428;" horiz-adv-x="920" 
d="M848 696v-696h-776v696h68v-634h284v634h68v-634h288v634h68z" />
    <glyph glyph-name="afii10043" unicode="&#x429;" horiz-adv-x="939" 
d="M844 0h-774v696h69v-634h283v634h69v-634h288v634h68v-636h64v-211h-67v151z" />
    <glyph glyph-name="afii10044" unicode="&#x42a;" horiz-adv-x="707" 
d="M687 197q0 -52 -18.5 -89.5t-49 -61.5t-71 -35t-84.5 -11h-252v633h-205v63h273v-309h190q51 0 91.5 -15t68.5 -40.5t42.5 -60.5t14.5 -74zM616 195q0 25 -9.5 48t-28.5 41t-47 29t-64 11h-187v-262h187q32 0 59 7.5t47 24t31.5 41.5t11.5 60z" />
    <glyph glyph-name="afii10045" unicode="&#x42b;" horiz-adv-x="767" 
d="M83 0v696h68v-309h189q52 0 92.5 -15t68.5 -40.5t42.5 -60.5t14.5 -74q0 -52 -18.5 -89.5t-49 -61.5t-71 -35t-84.5 -11h-252zM628 0v696h67v-696h-67zM486 195q0 25 -9.5 48t-28.5 41t-46.5 29t-63.5 11h-187v-262h187q31 0 58.5 7.5t47 24t31 41.5t11.5 60z" />
    <glyph glyph-name="afii10046" unicode="&#x42c;" horiz-adv-x="560" 
d="M63 0v696h68v-309h189q52 0 92 -15t68 -40.5t42.5 -60.5t14.5 -74q0 -52 -18 -89.5t-49 -61.5t-71 -35t-84 -11h-252zM467 195q0 25 -9.5 48t-28.5 41t-47 29t-64 11h-187v-262h187q31 0 58.5 7.5t47.5 24t31.5 41.5t11.5 60z" />
    <glyph glyph-name="afii10047" unicode="&#x42d;" horiz-adv-x="544" 
d="M161 391h256v54q0 37 -9 72t-29 61.5t-52 42.5t-78 16q-58 0 -101 -28.5t-63 -74.5l-62 28q27 63 86.5 101t140.5 38q65 0 109.5 -20.5t72.5 -55.5t40 -80.5t12 -96.5v-199q0 -51 -15 -97.5t-45.5 -81.5t-76.5 -55.5t-108 -20.5q-81 0 -139.5 38.5t-84.5 105.5l62 30
q20 -51 61 -81t100 -30q49 0 83 16.5t55.5 43.5t31 62t9.5 73v79h-256v60z" />
    </font>
</defs>
</svg>
